<?xml version="1.0" encoding="UTF-8"?>
<svg width="559px" height="54px" viewBox="0 0 559 54" version="1.1" xmlns="http://www.w3.org/2000/svg" xmlns:xlink="http://www.w3.org/1999/xlink">
    <!-- Generator: Sketch 52.6 (67491) - http://www.bohemiancoding.com/sketch -->
    <title>Rueckblende_2018</title>
    <desc>Created with Sketch.</desc>
    <g id="Tournee-/-exhibition" stroke="none" stroke-width="1" fill="none" fill-rule="evenodd">
        <g id="Artboard" transform="translate(-172.000000, -90.000000)">
            <g id="Rueckblende_2018" transform="translate(172.000000, 90.000000)">
                <path d="M0,0 L15.21,0 C23.42,0 30.57,3.5 30.57,13.76 C30.57,21.97 25.57,24.86 20.23,26.16 L20.23,26.31 C27.38,27.83 28.14,32.39 29.23,37.87 L32.35,52.47 L25.47,52.47 L22.28,40.83 C20.15,33.3 19.28,29.83 11.94,29.83 L7.6,29.83 L7.6,52.47 L0,52.47 L0,0 Z M7.6,23.8 L12,23.8 C17.32,23.8 23,21.67 23,14.67 C23,8.28 19.43,6.08 13.8,6.08 L7.6,6.08 L7.6,23.8 Z" id="Shape" fill="#B61C3E" fill-rule="nonzero"></path>
                <path d="M61.44,44.71 L61.29,44.71 C60.15,47.71 57.18,53.3 49.81,53.3 C41.45,53.3 40.08,45.85 40.08,41.36 L40.08,16.27 L46.92,16.27 L46.92,36 C46.92,42.77 46.92,46.42 51.86,46.42 C57.49,46.42 61.44,38.82 61.44,31.59 L61.44,16.27 L68.28,16.27 L68.28,52.47 L61.44,52.47 L61.44,44.71 Z M42.05,0.68 L51.4,0.68 L51.4,9 L42.05,9 L42.05,0.68 Z M57.71,0.68 L67.06,0.68 L67.06,9 L57.72,9 L57.71,0.68 Z" id="Shape" fill="#B61C3E" fill-rule="nonzero"></path>
                <path d="M105,51.94 C101.758074,52.9133687 98.3842623,53.3755809 95,53.31 C81.16,53.31 77.28,42.06 77.28,33.08 C77.26,23 81.9,15.44 92.7,15.44 C102.97,15.44 105.63,22.13 105.63,28.06 L97.79,28.06 C97.79,25.32 97.26,20.76 92.24,20.76 C87.75,20.76 84.86,25.09 84.86,31.76 C84.86,38.91 87.86,47.96 99.23,47.96 C101.18412,48.0023482 103.133249,47.7460613 105.01,47.2 L105,51.94 Z" id="Path" fill="#B61C3E"></path>
                <polygon id="Path" fill="#B61C3E" points="112.32 0 119.16 0 119.16 30.72 131.78 16.27 140.37 16.27 127 32.09 141.68 52.47 133.09 52.47 119.32 33.76 119.17 33.76 119.17 52.47 112.33 52.47"></polygon>
                <path d="M152.17,22.28 L152.32,22.28 C153.716203,18.0804453 157.70671,15.2980736 162.13,15.44 C172.13,15.44 175.06,25.44 175.06,34.76 C175.06,45.18 170.88,53.31 160.54,53.31 C147.61,53.31 147,42.31 147,37.57 L147,0 L152.17,0 L152.17,22.28 Z M160.38,49 C166.84,49 169.13,41.85 169.13,34.63 C169.13,27.71 167.13,19.8 161.13,19.8 C154.67,19.8 152.13,28.7 152.13,35.8 C152.17,40 152.78,49 160.38,49 Z" id="Shape" fill="#1A1A18" fill-rule="nonzero"></path>
                <polygon id="Path" fill="#1A1A18" points="185 0 190.17 0 190.17 52.47 185 52.47"></polygon>
                <path d="M226.39,52.24 C223.694773,53.0037084 220.900675,53.3609755 218.1,53.3 C206.92,53.3 200.46,46.53 200.46,33.15 C200.46,22.35 204.95,15.43 214.6,15.43 C223.12,15.43 227.22,21.29 227.22,29.19 L227.22,30.94 L206.39,30.94 L206.39,33.07 C206.39,38.55 208.82,48.96 219.24,48.96 C221.660525,48.9955046 224.072094,48.6582223 226.39,47.96 L226.39,52.24 Z M221.3,26.62 C221.327911,24.7835287 220.605149,23.0152065 219.298889,21.7240478 C217.992629,20.432889 216.216023,19.730737 214.38,19.78 C208.98,19.78 207.23,24.19 206.78,26.62 L221.3,26.62 Z" id="Shape" fill="#1A1A18" fill-rule="nonzero"></path>
                <path d="M236.66,16.27 L241.83,16.27 L241.83,24.63 L242,24.63 C243,21.63 245.27,15.43 253.33,15.43 C259.49,15.43 262.61,20.6 262.61,26.61 L262.61,52.47 L257.44,52.47 L257.44,32.39 C257.44,26.15 257.44,20.6 252.12,20.6 C245.28,20.6 241.85,31.02 241.85,37.6 L241.85,52.5 L236.68,52.5 L236.66,16.27 Z" id="Path" fill="#1A1A18"></path>
                <path d="M294,46.31 L293.85,46.31 C292.599128,50.4709712 288.764918,53.3171501 284.42,53.31 C275.68,53.31 272.03,46.16 272.03,34.68 C272.03,24.95 275.45,15.44 284.35,15.44 C288.705849,15.2201092 292.641946,18.0221464 293.86,22.21 L294,22.21 L294,0 L299.17,0 L299.17,52.47 L294,52.47 L294,46.31 Z M285.48,49 C291.41,49 294,40.79 294,34.55 C294,26.49 291.11,19.8 285.64,19.8 C279.48,19.8 277.96,28.01 277.96,35.69 C278,40.3 278.64,49 285.48,49 Z" id="Shape" fill="#1A1A18" fill-rule="nonzero"></path>
                <path d="M334.76,52.24 C332.064743,53.0035618 329.270667,53.360826 326.47,53.3 C315.29,53.3 308.83,46.53 308.83,33.15 C308.83,22.35 313.32,15.43 322.97,15.43 C331.49,15.43 335.59,21.29 335.59,29.19 L335.59,30.94 L314.76,30.94 L314.76,33.07 C314.76,38.55 317.19,48.96 327.61,48.96 C330.030515,48.9953456 332.44206,48.6580667 334.76,47.96 L334.76,52.24 Z M329.66,26.61 C329.687911,24.7735287 328.965149,23.0052065 327.658889,21.7140478 C326.352629,20.422889 324.576023,19.720737 322.74,19.77 C317.34,19.77 315.59,24.18 315.14,26.61 L329.66,26.61 Z" id="Shape" fill="#1A1A18" fill-rule="nonzero"></path>
                <path d="M422.21,47.37 C427.15,43.37 444.49,27.6 444.49,16.19 C444.49,11.7 442.06,7.75 436.49,7.75 C429.8,7.75 428.58,12.85 428.58,15.13 L422.19,15.13 C422.34,11.25 424.78,3.42 436.87,3.42 C444.78,3.42 450.41,8.59 450.41,16.8 C450.41,29.96 433.83,43.42 429.57,47.29 L451.1,47.29 L451.1,52.46 L422.2,52.46 L422.21,47.37 Z" id="Path" fill="#1A1A18"></path>
                <path d="M458.63,28.36 C458.63,15.89 461.98,3.42 475.06,3.42 C488.14,3.42 491.49,15.89 491.49,28.36 C491.49,40.83 488.14,53.3 475.06,53.3 C461.98,53.3 458.63,40.76 458.63,28.36 Z M475.06,49 C484.06,49 485.55,38.35 485.55,28.39 C485.55,18.43 484.11,7.76 475.06,7.76 C466.01,7.76 464.56,18.4 464.56,28.36 C464.56,38.32 466.08,49 475.06,49 Z" id="Shape" fill="#1A1A18" fill-rule="nonzero"></path>
                <polygon id="Path" fill="#1A1A18" points="510 10.11 500.87 16.27 500.87 10.49 510.87 4.25 515.74 4.25 515.74 52.47 510 52.47"></polygon>
                <path d="M528.75,39.54 C528.75,31.1 534.23,28.44 537.75,27.68 L537.75,27.53 C534.02,26.39 529.69,23.96 529.69,15.74 C529.69,8.52 534.86,3.42 543.91,3.42 C552.05,3.42 557.98,7.91 557.98,15.59 C557.98,23.8 553.04,26.92 549.84,27.53 L549.84,27.68 C553.11,28.29 558.84,31.25 558.84,39.77 C558.84,49.05 552.98,53.31 543.71,53.31 C534.44,53.31 528.75,49.12 528.75,39.54 Z M544,49 C550.24,49 553,45.88 553,39.27 C553,33.64 550.19,29.77 543.8,29.77 C538.1,29.77 534.67,33.27 534.67,39.2 C534.68,44.79 537,49 544,49 Z M544.15,25.43 C549.02,25.43 552.06,22.24 552.06,16.84 C552.06,10.84 549.06,7.84 543.77,7.84 C538.48,7.84 535.63,11.41 535.63,16.84 C535.67,21.37 537.72,25.4 544.18,25.4 L544.15,25.43 Z" id="Shape" fill="#1A1A18" fill-rule="nonzero"></path>
                <polygon id="Path" fill="#B61C3E" points="403.8 10.15 392.16 30.2 403.8 50.25 354.73 30.2"></polygon>
            </g>
        </g>
    </g>
</svg>