<svg xmlns="http://www.w3.org/2000/svg" viewBox="0 0 591.03 56.58"><defs><style>.a{fill:#b61c3e;}.b{fill:#1a1a18;}</style></defs><title>Rückblende_2017_logo</title><path class="a" d="M5.44,8.56H21.58c8.72,0,16.3,3.71,16.3,14.61,0,8.72-5.33,11.79-11,13.16v.16c7.59,1.61,8.39,6.46,9.6,12.27l3.31,15.5H32.48L29.09,51.9c-2.26-8-3.23-11.62-11-11.62h-4.6v24H5.44Zm8.07,25.26h4.68c5.65,0,11.62-2.26,11.62-9.69C29.82,17.36,26,15,20.05,15H13.51Z" transform="translate(-5.44 -8.56)"/><path class="a" d="M70.65,56h-.16c-1.21,3.23-4.36,9.12-12.19,9.12C49.43,65.14,48,57.23,48,52.47V25.83h7.26v21c0,7.18,0,11.06,5.25,11.06,6,0,10.17-8.07,10.17-15.74V25.83h7.26V64.25H70.65ZM50.07,9.29H60v8.88H50.07Zm16.63,0h9.93v8.88H66.7Z" transform="translate(-5.44 -8.56)"/><path class="a" d="M116.9,63.69a34.57,34.57,0,0,1-10.65,1.45c-14.69,0-18.81-11.95-18.81-21.47,0-10.73,4.92-18.72,16.39-18.72,10.9,0,13.72,7.1,13.72,13.4h-8.31c0-2.91-.57-7.75-5.89-7.75-4.76,0-7.83,4.6-7.83,11.7,0,7.59,3.15,17.19,15.26,17.19a20.41,20.41,0,0,0,6.13-.81Z" transform="translate(-5.44 -8.56)"/><path class="a" d="M124.65,8.56h7.26V41.17l13.4-15.34h9.12L140.22,42.62,155.8,64.25h-9.12L132.07,44.4h-.16V64.25h-7.26Z" transform="translate(-5.44 -8.56)"/><path class="b" d="M166.94,32.21h.16a10.57,10.57,0,0,1,10.41-7.26c10.57,0,13.72,10.57,13.72,20.5,0,11.06-4.44,19.69-15.42,19.69-13.72,0-14.37-11.7-14.37-16.71V8.56h5.49Zm8.72,28.33c6.86,0,9.28-7.59,9.28-15.25,0-7.35-2.1-15.74-8.48-15.74-6.86,0-9.52,9.44-9.52,17C166.94,51,167.58,60.54,175.65,60.54Z" transform="translate(-5.44 -8.56)"/><path class="b" d="M201.8,8.56h5.49V64.25H201.8Z" transform="translate(-5.44 -8.56)"/><path class="b" d="M245.71,64a29.84,29.84,0,0,1-8.8,1.13c-11.87,0-18.73-7.18-18.73-21.39,0-11.46,4.76-18.81,15-18.81,9,0,13.4,6.21,13.4,14.61v1.86H224.48v2.26c0,5.81,2.58,16.87,13.64,16.87a24.94,24.94,0,0,0,7.59-1Zm-5.41-27.2A7.16,7.16,0,0,0,233,29.55c-5.73,0-7.59,4.68-8.07,7.27Z" transform="translate(-5.44 -8.56)"/><path class="b" d="M256.6,25.83h5.49v8.88h.16c1-3.15,3.47-9.77,12-9.77,6.54,0,9.85,5.49,9.85,11.87V64.25h-5.49V42.94c0-6.62,0-12.51-5.65-12.51-7.26,0-10.9,11.06-10.9,18V64.25H256.6Z" transform="translate(-5.44 -8.56)"/><path class="b" d="M317.46,57.71h-.16a10.44,10.44,0,0,1-10,7.43c-9.28,0-13.16-7.59-13.16-19.78,0-10.33,3.63-20.42,13.08-20.42,6.7,0,9.12,4.44,10.09,7.18h.16V8.56h5.49V64.25h-5.49Zm-9,2.83c6.29,0,9-8.72,9-15.33,0-8.56-3.07-15.66-8.88-15.66-6.54,0-8.15,8.72-8.15,16.87C300.42,51.34,301.15,60.54,308.42,60.54Z" transform="translate(-5.44 -8.56)"/><path class="b" d="M360.71,64a29.87,29.87,0,0,1-8.8,1.13c-11.86,0-18.73-7.18-18.73-21.39,0-11.46,4.76-18.81,15-18.81,9,0,13.4,6.21,13.4,14.61v1.86H339.49v2.26c0,5.81,2.58,16.87,13.64,16.87a25,25,0,0,0,7.59-1Zm-5.41-27.2A7.16,7.16,0,0,0,348,29.55c-5.73,0-7.59,4.68-8.07,7.27Z" transform="translate(-5.44 -8.56)"/><path class="b" d="M453.2,58.85c5.25-4.28,23.65-21,23.65-33.09,0-4.76-2.58-9-8.47-9-7.1,0-8.39,5.41-8.39,7.83H453.2c.16-4.12,2.74-12.43,15.58-12.43,8.39,0,14.37,5.49,14.37,14.21,0,14-17.6,28.25-22.12,32.37h22.84v5.49H453.2Z" transform="translate(-5.44 -8.56)"/><path class="b" d="M491.86,38.67c0-13.24,3.55-26.47,17.43-26.47s17.43,13.24,17.43,26.47-3.55,26.47-17.43,26.47S491.86,51.82,491.86,38.67Zm17.43,21.87c9.6,0,11.14-11.3,11.14-21.87s-1.54-21.87-11.14-21.87-11.14,11.3-11.14,21.87S499.77,60.54,509.29,60.54Z" transform="translate(-5.44 -8.56)"/><path class="b" d="M546.34,19.29l-9.69,6.54V19.7l10.57-6.62h5.16V64.25h-6.05Z" transform="translate(-5.44 -8.56)"/><path class="b" d="M589.85,18.57H566.37V13.08h30.11v5.48L577,64.57l-6.7-.32Z" transform="translate(-5.44 -8.56)"/><polygon class="a" points="429.33 10.56 416.2 33.15 429.33 55.74 374.02 33.15 429.33 10.56"/></svg>