<svg xmlns="http://www.w3.org/2000/svg" viewBox="0 0 559.63 153.59"><defs><style>.a{fill:#1a1a18;}.b{fill:#b61c3e;}</style></defs><title>Rückblende_2017_logo_subline</title><path class="a" d="M150.82,87.91H157c7,0,10.8,3.9,10.8,9.75,0,6-4.26,10-11.14,10h-5.82Zm5.88,16.84c5.22,0,7.2-3.3,7.2-7,0-4.14-2.43-6.87-7.26-6.87h-2.22v13.9Z" transform="translate(-2.53 -3.37)"/><path class="a" d="M170.52,100.61c0-4.26,2.34-7.47,6.39-7.47s6.3,2.88,6.3,7.59v.84h-9.09c.06,2.19,1.62,3.6,4,3.6a7.13,7.13,0,0,0,3.6-1l1.08,2.46a9.5,9.5,0,0,1-5,1.32C172.59,108,170.52,104.45,170.52,100.61Zm9.06-1.53c-.06-1.62-.84-3.21-2.73-3.21s-2.76,1.5-2.76,3.21Z" transform="translate(-2.53 -3.37)"/><path class="a" d="M186,93.5h3l.39,1.59a5.4,5.4,0,0,1,3.9-2,3.71,3.71,0,0,1,2,.57l-1.26,3a3,3,0,0,0-1.62-.48,4.29,4.29,0,0,0-2.88,1.41v10H186Z" transform="translate(-2.53 -3.37)"/><path class="a" d="M202.55,100.73a7.38,7.38,0,0,1,7.77-7.59,10.69,10.69,0,0,1,1.92.18V86.44h3.6v20.5a12.88,12.88,0,0,1-5.22,1.05C206,108,202.55,105.41,202.55,100.73Zm9.69,4.05V96.29a7,7,0,0,0-1.71-.21c-2.49,0-4.32,1.68-4.32,4.59a4.05,4.05,0,0,0,4.35,4.35A5.44,5.44,0,0,0,212.25,104.78Z" transform="translate(-2.53 -3.37)"/><path class="a" d="M218.85,100.61c0-4.26,2.34-7.47,6.39-7.47s6.3,2.88,6.3,7.59v.84h-9.09c.06,2.19,1.62,3.6,4,3.6a7.13,7.13,0,0,0,3.6-1l1.08,2.46a9.5,9.5,0,0,1-5,1.32C220.92,108,218.85,104.45,218.85,100.61Zm9.06-1.53c-.06-1.62-.84-3.21-2.73-3.21s-2.76,1.5-2.76,3.21Z" transform="translate(-2.53 -3.37)"/><path class="a" d="M234.85,105.2a7.3,7.3,0,0,1-.48-3V93.5h3.57v8.37a4.18,4.18,0,0,0,.3,1.77,2.1,2.1,0,0,0,2.13,1.29,4.1,4.1,0,0,0,2.91-1.26V93.5h3.6v10.69a15.35,15.35,0,0,0,.24,3.51h-3.06l-.54-1.47a6.58,6.58,0,0,1-4.41,1.77A4.4,4.4,0,0,1,234.85,105.2Z" transform="translate(-2.53 -3.37)"/><path class="a" d="M252,104.18V96.29h-2.55V93.5H252V90.2l3.57-1.05V93.5h4.29L259,96.29h-3.42v7c0,1.32.45,1.8,1.38,1.8a4,4,0,0,0,2.16-.69l1.08,2.46A8.12,8.12,0,0,1,256,108C253.5,108,252,106.55,252,104.18Z" transform="translate(-2.53 -3.37)"/><path class="a" d="M262.41,104a7.27,7.27,0,0,0,3.87,1.17c1.44,0,2.49-.42,2.49-1.5,0-2.4-6.66-1.5-6.66-6.24,0-2.52,2-4.29,5.37-4.29a12.38,12.38,0,0,1,4.17.69v3a10.14,10.14,0,0,0-4-.9c-1.2,0-2,.36-2,1.29,0,2.25,6.66,1.38,6.66,6.33,0,3.12-2.7,4.41-5.76,4.41a10.13,10.13,0,0,1-5.22-1.38Z" transform="translate(-2.53 -3.37)"/><path class="a" d="M274.48,100.7a7.34,7.34,0,0,1,7.5-7.56,7.15,7.15,0,0,1,3.81,1v3A5.59,5.59,0,0,0,282.35,96c-2.64,0-4.2,2-4.2,4.59,0,2.91,1.59,4.5,4,4.5a6.56,6.56,0,0,0,3.3-1l1.05,2.46a8.88,8.88,0,0,1-4.86,1.38C277,108,274.48,104.81,274.48,100.7Z" transform="translate(-2.53 -3.37)"/><path class="a" d="M288.83,86.44h3.57v8.61a7.46,7.46,0,0,1,4.71-1.92c2.25,0,4.53,1.11,4.53,5.16v9.39h-3.57V99.41c0-1.74-.36-3.15-2.19-3.15a5.73,5.73,0,0,0-3.48,1.5v9.93h-3.57Z" transform="translate(-2.53 -3.37)"/><path class="a" d="M304.5,100.61c0-4.26,2.34-7.47,6.39-7.47s6.3,2.88,6.3,7.59v.84h-9.09c.06,2.19,1.62,3.6,4,3.6a7.13,7.13,0,0,0,3.6-1l1.08,2.46a9.5,9.5,0,0,1-5,1.32C306.57,108,304.5,104.45,304.5,100.61Zm9.06-1.53c-.06-1.62-.84-3.21-2.73-3.21s-2.76,1.5-2.76,3.21Z" transform="translate(-2.53 -3.37)"/><path class="a" d="M327.41,87.91h4.77a10,10,0,0,1,4.44.84,6.44,6.44,0,0,1-.57,11.44,11.45,11.45,0,0,1-4.2.69H331v6.81h-3.6Zm4.68,10a5,5,0,0,0,2.31-.45,3.14,3.14,0,0,0,1.65-3.09,3.36,3.36,0,0,0-1.56-3,4.94,4.94,0,0,0-2.46-.51h-1v7.08Z" transform="translate(-2.53 -3.37)"/><path class="a" d="M343.14,93.5h3l.39,1.59a5.4,5.4,0,0,1,3.9-2,3.71,3.71,0,0,1,2,.57l-1.26,3a3,3,0,0,0-1.62-.48,4.29,4.29,0,0,0-2.88,1.41v10h-3.57Z" transform="translate(-2.53 -3.37)"/><path class="a" d="M353.14,100.61c0-4.26,2.34-7.47,6.39-7.47s6.3,2.88,6.3,7.59v.84h-9.09c.06,2.19,1.62,3.6,4,3.6a7.13,7.13,0,0,0,3.6-1l1.08,2.46a9.5,9.5,0,0,1-5,1.32C355.21,108,353.14,104.45,353.14,100.61Zm9.06-1.53c-.06-1.62-.84-3.21-2.73-3.21s-2.76,1.5-2.76,3.21Z" transform="translate(-2.53 -3.37)"/><path class="a" d="M368.39,89.05a2.21,2.21,0,1,1,2.19,2.13A2.12,2.12,0,0,1,368.39,89.05Zm.39,4.44h3.6v14.2h-3.6Z" transform="translate(-2.53 -3.37)"/><path class="a" d="M376,104a7.26,7.26,0,0,0,3.87,1.17c1.44,0,2.49-.42,2.49-1.5,0-2.4-6.66-1.5-6.66-6.24,0-2.52,2-4.29,5.37-4.29a12.39,12.39,0,0,1,4.17.69v3a10.15,10.15,0,0,0-4-.9c-1.2,0-2,.36-2,1.29,0,2.25,6.66,1.38,6.66,6.33,0,3.12-2.7,4.41-5.76,4.41a10.14,10.14,0,0,1-5.22-1.38Z" transform="translate(-2.53 -3.37)"/><path class="a" d="M395.86,96.29h-2.1V93.5h2.1v-2c0-3.33,2-5.07,4.83-5.07a7.16,7.16,0,0,1,3,.63l-.72,2.85a5.55,5.55,0,0,0-1.74-.39c-1.2,0-1.74.72-1.74,2v2h3.69l-.87,2.79h-2.82v11.41h-3.6Z" transform="translate(-2.53 -3.37)"/><path class="a" d="M405.7,105.2a7.3,7.3,0,0,1-.48-3V93.5h3.57v8.37a4.18,4.18,0,0,0,.3,1.77,2.1,2.1,0,0,0,2.13,1.29,4.1,4.1,0,0,0,2.91-1.26V93.5h3.6v10.69a15.36,15.36,0,0,0,.24,3.51h-3.06l-.54-1.47A6.57,6.57,0,0,1,410,108,4.4,4.4,0,0,1,405.7,105.2Zm1.17-15.67a1.85,1.85,0,1,1,1.83,1.83A1.84,1.84,0,0,1,406.88,89.53Zm5.73,0a1.83,1.83,0,0,1,1.83-1.86,1.85,1.85,0,0,1,0,3.69A1.82,1.82,0,0,1,412.61,89.53Z" transform="translate(-2.53 -3.37)"/><path class="a" d="M421.43,93.5h3l.39,1.59a5.4,5.4,0,0,1,3.9-2,3.71,3.71,0,0,1,2,.57l-1.26,3a3,3,0,0,0-1.62-.48A4.29,4.29,0,0,0,425,97.67v10h-3.57Z" transform="translate(-2.53 -3.37)"/><path class="a" d="M439.15,94a16.64,16.64,0,0,1,5.37-.9c5.1,0,7.77,2.88,7.77,7.41a7.06,7.06,0,0,1-7.38,7.44,7.6,7.6,0,0,1-2.19-.33v7.14h-3.57Zm5.49,11c2.64,0,4-1.74,4-4.47,0-3-1.68-4.47-4.23-4.47a6,6,0,0,0-1.68.24v8.34A5,5,0,0,0,444.64,105Z" transform="translate(-2.53 -3.37)"/><path class="a" d="M454.52,100.55c0-4.26,2.85-7.41,7.08-7.41s7.11,3.15,7.11,7.41S465.83,108,461.6,108,454.52,104.81,454.52,100.55Zm10.5,0c0-2.61-1.17-4.53-3.42-4.53s-3.42,1.92-3.42,4.53,1.17,4.56,3.42,4.56S465,103.19,465,100.55Z" transform="translate(-2.53 -3.37)"/><path class="a" d="M471.72,86.44h3.57v17.08c0,1,.39,1.29,1.05,1.29a3,3,0,0,0,.9-.18l.69,2.76a7,7,0,0,1-2.64.51c-2.37,0-3.57-1.17-3.57-3.42Z" transform="translate(-2.53 -3.37)"/><path class="a" d="M480,89.05a2.21,2.21,0,1,1,2.19,2.13A2.12,2.12,0,0,1,480,89.05Zm.39,4.44H484v14.2h-3.6Z" transform="translate(-2.53 -3.37)"/><path class="a" d="M488.92,104.18V96.29h-2.55V93.5h2.55V90.2l3.57-1.05V93.5h4.29l-.87,2.79h-3.42v7c0,1.32.45,1.8,1.38,1.8a4,4,0,0,0,2.16-.69l1.08,2.46A8.12,8.12,0,0,1,493,108C490.45,108,488.92,106.55,488.92,104.18Z" transform="translate(-2.53 -3.37)"/><path class="a" d="M499,89.05a2.21,2.21,0,1,1,2.19,2.13A2.12,2.12,0,0,1,499,89.05Zm.39,4.44H503v14.2h-3.6Z" transform="translate(-2.53 -3.37)"/><path class="a" d="M506.66,104a7.26,7.26,0,0,0,3.87,1.17c1.44,0,2.49-.42,2.49-1.5,0-2.4-6.66-1.5-6.66-6.24,0-2.52,2-4.29,5.37-4.29a12.39,12.39,0,0,1,4.17.69v3a10.15,10.15,0,0,0-4-.9c-1.2,0-2,.36-2,1.29,0,2.25,6.66,1.38,6.66,6.33,0,3.12-2.7,4.41-5.76,4.41a10.14,10.14,0,0,1-5.22-1.38Z" transform="translate(-2.53 -3.37)"/><path class="a" d="M518.7,100.7a7.34,7.34,0,0,1,7.5-7.56,7.15,7.15,0,0,1,3.81,1v3A5.59,5.59,0,0,0,526.57,96c-2.64,0-4.2,2-4.2,4.59,0,2.91,1.59,4.5,4,4.5a6.56,6.56,0,0,0,3.3-1l1.05,2.46a8.88,8.88,0,0,1-4.86,1.38C521.25,108,518.7,104.81,518.7,100.7Z" transform="translate(-2.53 -3.37)"/><path class="a" d="M533.08,86.44h3.57v8.61a7.46,7.46,0,0,1,4.71-1.92c2.25,0,4.53,1.11,4.53,5.16v9.39h-3.57V99.41c0-1.74-.36-3.15-2.19-3.15a5.73,5.73,0,0,0-3.48,1.5v9.93h-3.57Z" transform="translate(-2.53 -3.37)"/><path class="a" d="M548.72,100.61c0-4.26,2.34-7.47,6.39-7.47s6.3,2.88,6.3,7.59v.84h-9.09c.06,2.19,1.62,3.6,4,3.6a7.13,7.13,0,0,0,3.6-1l1.08,2.46a9.5,9.5,0,0,1-5,1.32C550.8,108,548.72,104.45,548.72,100.61Zm9.06-1.53c-.06-1.62-.84-3.21-2.73-3.21s-2.76,1.5-2.76,3.21Z" transform="translate(-2.53 -3.37)"/><path class="a" d="M150.82,130.06h11l-.93,2.94h-6.42v5.28h6.3v2.94h-6.3v8.61h-3.6Z" transform="translate(-2.53 -3.37)"/><path class="a" d="M163.46,142.7c0-4.26,2.85-7.41,7.08-7.41s7.11,3.15,7.11,7.41-2.88,7.44-7.11,7.44S163.46,147,163.46,142.7Zm10.5,0c0-2.61-1.17-4.53-3.42-4.53s-3.42,1.92-3.42,4.53,1.17,4.56,3.42,4.56S174,145.34,174,142.7Z" transform="translate(-2.53 -3.37)"/><path class="a" d="M181.87,146.33v-7.89h-2.55v-2.79h2.55v-3.3l3.57-1.05v4.35h4.29l-.87,2.79h-3.42v7c0,1.32.45,1.8,1.38,1.8a4,4,0,0,0,2.16-.69l1.08,2.46a8.12,8.12,0,0,1-4.14,1.11C183.4,150.14,181.87,148.7,181.87,146.33Z" transform="translate(-2.53 -3.37)"/><path class="a" d="M191.62,142.7c0-4.26,2.85-7.41,7.08-7.41s7.11,3.15,7.11,7.41-2.88,7.44-7.11,7.44S191.62,147,191.62,142.7Zm10.5,0c0-2.61-1.17-4.53-3.42-4.53s-3.42,1.92-3.42,4.53,1.17,4.56,3.42,4.56S202.13,145.34,202.13,142.7Z" transform="translate(-2.53 -3.37)"/><path class="a" d="M207.41,152.79a3.82,3.82,0,0,1,2.55-3.42,2,2,0,0,1-.93-1.77,3.47,3.47,0,0,1,1.71-2.67,5,5,0,0,1-2.37-4.41c0-2.61,1.92-5.22,5.79-5.22a5.84,5.84,0,0,1,2.82.63.32.32,0,0,0,.36-.06,4.35,4.35,0,0,1,3.42-1.23,8.15,8.15,0,0,1,1,.06l-.72,2.58a4.23,4.23,0,0,0-1.05-.15,2.24,2.24,0,0,0-1.05.24,4.88,4.88,0,0,1,1.26,3.36c0,3.18-2.43,5.25-5.88,5.25a5.93,5.93,0,0,1-1.74-.24,2,2,0,0,0-.36,1.05c0,2.55,9.33.18,9.33,5.49,0,2.58-2.58,4.68-7.5,4.68C209.85,157,207.41,155.25,207.41,152.79Zm10.68-.12c0-2-4.41-1.62-6.33-2.37a2.39,2.39,0,0,0-1.14,1.86c0,1.41,1.5,2.28,3.87,2.28C216.66,154.44,218.1,153.72,218.1,152.67Zm-1.32-12a2.54,2.54,0,0,0-2.55-2.67,2.38,2.38,0,0,0-2.46,2.64,2.47,2.47,0,0,0,2.49,2.64A2.39,2.39,0,0,0,216.78,140.66Z" transform="translate(-2.53 -3.37)"/><path class="a" d="M223.9,135.65h3l.39,1.59a5.39,5.39,0,0,1,3.9-2,3.71,3.71,0,0,1,2,.57l-1.26,3a3,3,0,0,0-1.62-.48,4.29,4.29,0,0,0-2.88,1.41v10H223.9Z" transform="translate(-2.53 -3.37)"/><path class="a" d="M243.08,148.49a5.84,5.84,0,0,1-4.08,1.65,4.43,4.43,0,0,1-4.71-4.53,4.05,4.05,0,0,1,2.4-3.87,8.78,8.78,0,0,1,3.66-.81l2.43-.09v-.45c0-1.65-1.08-2.37-2.73-2.37a8,8,0,0,0-3.72,1l-1.17-2.31a11.17,11.17,0,0,1,5.49-1.41c3.81,0,5.7,1.74,5.7,5.16v5.76a15.54,15.54,0,0,0,.27,3.63h-3Zm-2.22-5.19a4.51,4.51,0,0,0-2.07.45,1.71,1.71,0,0,0-.87,1.62,1.87,1.87,0,0,0,2.1,2,4.4,4.4,0,0,0,2.76-1v-3Z" transform="translate(-2.53 -3.37)"/><path class="a" d="M251,138.44h-2.1v-2.79H251v-2c0-3.33,2-5.07,4.83-5.07a7.16,7.16,0,0,1,3,.63l-.72,2.85a5.56,5.56,0,0,0-1.74-.39c-1.2,0-1.74.72-1.74,2v2h3.69l-.87,2.79h-2.82v11.41H251Zm8.94-7.23a2.21,2.21,0,1,1,2.19,2.13A2.12,2.12,0,0,1,260,131.21Zm.39,4.44H264v14.2h-3.6Z" transform="translate(-2.53 -3.37)"/><path class="a" d="M266.92,142.76c0-4.26,2.34-7.47,6.39-7.47s6.3,2.88,6.3,7.59v.84h-9.09c.06,2.19,1.62,3.6,4,3.6a7.13,7.13,0,0,0,3.6-1l1.08,2.46a9.5,9.5,0,0,1-5,1.32C269,150.14,266.92,146.6,266.92,142.76Zm9.06-1.53c-.06-1.62-.84-3.21-2.73-3.21s-2.76,1.5-2.76,3.21Z" transform="translate(-2.53 -3.37)"/><path class="a" d="M289.58,147.35a7.3,7.3,0,0,1-.48-3v-8.73h3.57V144a4.18,4.18,0,0,0,.3,1.77,2.1,2.1,0,0,0,2.13,1.29,4.11,4.11,0,0,0,2.91-1.26V135.65h3.6v10.68a15.3,15.3,0,0,0,.24,3.51H298.8l-.54-1.47a6.57,6.57,0,0,1-4.41,1.77A4.4,4.4,0,0,1,289.58,147.35Z" transform="translate(-2.53 -3.37)"/><path class="a" d="M305.31,135.65h3.06l.36,1.59a7.93,7.93,0,0,1,4.86-2c2.25,0,4.56,1.11,4.56,5.16v9.39h-3.6v-8.28c0-1.74-.36-3.15-2.19-3.15a5.8,5.8,0,0,0-3.48,1.5v9.93h-3.57Z" transform="translate(-2.53 -3.37)"/><path class="a" d="M321,142.88a7.38,7.38,0,0,1,7.77-7.59,10.65,10.65,0,0,1,1.92.18v-6.87h3.6v20.5a12.88,12.88,0,0,1-5.22,1C324.44,150.14,321,147.56,321,142.88Zm9.69,4.05v-8.49a7,7,0,0,0-1.71-.21c-2.49,0-4.32,1.68-4.32,4.59a4.05,4.05,0,0,0,4.35,4.35A5.43,5.43,0,0,0,330.68,146.93Z" transform="translate(-2.53 -3.37)"/><path class="a" d="M345.27,130.06h3.6v8.43H349l6.75-8.43h4.2l-8,9.6,8.4,10.17H356l-7-8.67h-.09v8.67h-3.6Z" transform="translate(-2.53 -3.37)"/><path class="a" d="M370.76,148.49a5.84,5.84,0,0,1-4.08,1.65,4.43,4.43,0,0,1-4.71-4.53,4.05,4.05,0,0,1,2.4-3.87,8.78,8.78,0,0,1,3.66-.81l2.43-.09v-.45c0-1.65-1.08-2.37-2.73-2.37a8,8,0,0,0-3.72,1l-1.17-2.31a11.17,11.17,0,0,1,5.49-1.41c3.81,0,5.7,1.74,5.7,5.16v5.76a15.53,15.53,0,0,0,.27,3.63h-3Zm-2.22-5.19a4.51,4.51,0,0,0-2.07.45,1.72,1.72,0,0,0-.87,1.62,1.87,1.87,0,0,0,2.1,2,4.4,4.4,0,0,0,2.76-1v-3Z" transform="translate(-2.53 -3.37)"/><path class="a" d="M377.54,135.65h3l.39,1.59a5.39,5.39,0,0,1,3.9-2,3.71,3.71,0,0,1,2,.57l-1.26,3a3,3,0,0,0-1.62-.48,4.29,4.29,0,0,0-2.88,1.41v10h-3.57Z" transform="translate(-2.53 -3.37)"/><path class="a" d="M388.32,131.21a2.21,2.21,0,1,1,2.19,2.13A2.12,2.12,0,0,1,388.32,131.21Zm.39,4.44h3.6v14.2h-3.6Z" transform="translate(-2.53 -3.37)"/><path class="a" d="M396.07,128.59h3.57v12h.06l4.65-4.92h4.08l-5.82,6.18,6.3,8h-4.17l-5-6.57h-.06v6.57h-3.57Z" transform="translate(-2.53 -3.37)"/><path class="a" d="M418.94,148.49a5.84,5.84,0,0,1-4.08,1.65,4.43,4.43,0,0,1-4.71-4.53,4.05,4.05,0,0,1,2.4-3.87,8.78,8.78,0,0,1,3.66-.81l2.43-.09v-.45c0-1.65-1.08-2.37-2.73-2.37a8,8,0,0,0-3.72,1L411,136.7a11.17,11.17,0,0,1,5.49-1.41c3.81,0,5.7,1.74,5.7,5.16v5.76a15.53,15.53,0,0,0,.27,3.63h-3Zm-2.22-5.19a4.51,4.51,0,0,0-2.07.45,1.72,1.72,0,0,0-.87,1.62,1.87,1.87,0,0,0,2.1,2,4.4,4.4,0,0,0,2.76-1v-3Z" transform="translate(-2.53 -3.37)"/><path class="a" d="M427.11,146.33v-7.89h-2.55v-2.79h2.55v-3.3l3.57-1.05v4.35H435l-.87,2.79h-3.42v7c0,1.32.45,1.8,1.38,1.8a4,4,0,0,0,2.16-.69L435.3,149a8.12,8.12,0,0,1-4.14,1.11C428.64,150.14,427.11,148.7,427.11,146.33Z" transform="translate(-2.53 -3.37)"/><path class="a" d="M437.95,147.35a7.3,7.3,0,0,1-.48-3v-8.73H441V144a4.18,4.18,0,0,0,.3,1.77,2.1,2.1,0,0,0,2.13,1.29,4.11,4.11,0,0,0,2.91-1.26V135.65H450v10.68a15.29,15.29,0,0,0,.24,3.51h-3.06l-.54-1.47a6.57,6.57,0,0,1-4.41,1.77A4.4,4.4,0,0,1,437.95,147.35Z" transform="translate(-2.53 -3.37)"/><path class="a" d="M453.68,135.65h3l.39,1.59a5.39,5.39,0,0,1,3.9-2,3.71,3.71,0,0,1,2,.57l-1.26,3a3,3,0,0,0-1.62-.48,4.29,4.29,0,0,0-2.88,1.41v10h-3.57Z" transform="translate(-2.53 -3.37)"/><path class="b" d="M2.53,3.37H17.81c8.25,0,15.44,3.52,15.44,13.83,0,8.25-5,11.16-10.39,12.46v.15C30,31.34,30.81,35.93,32,41.43l3.13,14.67h-7L24.92,44.41c-2.14-7.57-3.06-11-10.39-11H10.17v22.7H2.53Zm7.64,23.92H14.6c5.35,0,11-2.14,11-9.17,0-6.42-3.59-8.64-9.25-8.64H10.17Z" transform="translate(-2.53 -3.37)"/><path class="b" d="M64.28,48.31h-.15C63,51.37,60,56.95,52.58,56.95c-8.41,0-9.78-7.49-9.78-12V19.73h6.88V39.6c0,6.8,0,10.47,5,10.47,5.66,0,9.63-7.64,9.63-14.9V19.73h6.88V56.11H64.28ZM44.79,4.06h9.4v8.41h-9.4Zm15.74,0h9.4v8.41h-9.4Z" transform="translate(-2.53 -3.37)"/><path class="b" d="M108.07,55.57A32.73,32.73,0,0,1,98,56.95c-13.91,0-17.81-11.31-17.81-20.33,0-10.16,4.66-17.73,15.51-17.73,10.32,0,13,6.73,13,12.69H100.8c0-2.75-.53-7.34-5.58-7.34-4.51,0-7.41,4.36-7.41,11.08,0,7.18,3,16.28,14.44,16.28a19.32,19.32,0,0,0,5.81-.76Z" transform="translate(-2.53 -3.37)"/><path class="b" d="M115.4,3.37h6.88V34.25L135,19.73h8.64l-13.45,15.9L144.9,56.11h-8.64L122.43,37.3h-.15v18.8H115.4Z" transform="translate(-2.53 -3.37)"/><path class="a" d="M155.44,25.77h.15a10,10,0,0,1,9.86-6.88c10,0,13,10,13,19.41,0,10.47-4.2,18.65-14.6,18.65-13,0-13.6-11.08-13.6-15.82V3.37h5.2Zm8.25,26.83c6.5,0,8.79-7.18,8.79-14.44,0-7-2-14.9-8-14.9-6.5,0-9,8.94-9,16.13C155.44,43.57,156.06,52.59,163.7,52.59Z" transform="translate(-2.53 -3.37)"/><path class="a" d="M188.46,3.37h5.2V56.11h-5.2Z" transform="translate(-2.53 -3.37)"/><path class="a" d="M230,55.88a28.26,28.26,0,0,1-8.33,1.07c-11.23,0-17.73-6.8-17.73-20.25,0-10.85,4.51-17.81,14.22-17.81,8.56,0,12.69,5.88,12.69,13.83v1.76H209.93v2.14c0,5.5,2.45,16,12.92,16a23.62,23.62,0,0,0,7.18-1Zm-5.12-25.76a6.78,6.78,0,0,0-7-6.88c-5.43,0-7.18,4.43-7.64,6.88Z" transform="translate(-2.53 -3.37)"/><path class="a" d="M240.34,19.73h5.2v8.41h.15c1-3,3.29-9.25,11.39-9.25,6.19,0,9.32,5.2,9.32,11.23v26h-5.2V35.93c0-6.27,0-11.85-5.35-11.85-6.88,0-10.32,10.47-10.32,17v15h-5.2Z" transform="translate(-2.53 -3.37)"/><path class="a" d="M298,49.92h-.15a9.88,9.88,0,0,1-9.48,7c-8.79,0-12.46-7.18-12.46-18.72,0-9.78,3.44-19.34,12.38-19.34a9.46,9.46,0,0,1,9.55,6.8H298V3.37h5.2V56.11H298Zm-8.56,2.68c6,0,8.56-8.25,8.56-14.52,0-8.1-2.9-14.83-8.41-14.83-6.19,0-7.72,8.25-7.72,16C281.84,43.88,282.53,52.59,289.41,52.59Z" transform="translate(-2.53 -3.37)"/><path class="a" d="M338.93,55.88a28.28,28.28,0,0,1-8.33,1.07c-11.23,0-17.73-6.8-17.73-20.25,0-10.85,4.51-17.81,14.22-17.81,8.56,0,12.69,5.88,12.69,13.83v1.76H318.83v2.14c0,5.5,2.44,16,12.92,16a23.62,23.62,0,0,0,7.18-1ZM333.8,30.12a6.78,6.78,0,0,0-7-6.88c-5.43,0-7.18,4.43-7.64,6.88Z" transform="translate(-2.53 -3.37)"/><path class="a" d="M426.5,51c5-4.05,22.39-19.87,22.39-31.34,0-4.51-2.45-8.48-8-8.48-6.73,0-7.95,5.12-7.95,7.41H426.5c.15-3.9,2.6-11.77,14.75-11.77,7.95,0,13.61,5.2,13.61,13.45,0,13.22-16.66,26.75-20.94,30.65h21.63v5.2h-29Z" transform="translate(-2.53 -3.37)"/><path class="a" d="M463.1,31.88c0-12.53,3.36-25.07,16.51-25.07s16.51,12.53,16.51,25.07-3.36,25.07-16.51,25.07S463.1,44.34,463.1,31.88Zm16.51,20.71c9.09,0,10.55-10.7,10.55-20.71s-1.45-20.71-10.55-20.71-10.55,10.7-10.55,20.71S470.59,52.59,479.61,52.59Z" transform="translate(-2.53 -3.37)"/><path class="a" d="M514.69,13.54l-9.17,6.19V13.92l10-6.27h4.89V56.11h-5.73Z" transform="translate(-2.53 -3.37)"/><path class="a" d="M555.89,12.85H533.65V7.65h28.51v5.19L543.74,56.41l-6.34-.3Z" transform="translate(-2.53 -3.37)"/><polygon class="b" points="406.52 9.99 394.09 31.39 406.52 52.78 354.15 31.39 406.52 9.99"/></svg>