<svg xmlns="http://www.w3.org/2000/svg" viewBox="0 0 227.55 53.07"><defs><style>.a{fill:#1d1d1b;}.b{fill:#e94e24;}.c{fill:#fc0;}</style></defs><title>1_HdG</title><rect class="a" x="26.53" width="17.69" height="17.69"/><rect class="b" x="13.27" y="17.69" width="17.69" height="17.69"/><rect class="c" y="35.38" width="17.69" height="17.69"/><path class="a" d="M67.5,20.24a2.25,2.25,0,0,1-2.31-2.18h.75c0,1.19.9,1.54,1.95,1.54.87,0,1.87-.51,1.87-1.5,0-.77-.56-1.14-1.22-1.36-1.26-.42-3.17-.82-3.17-2.5a2.26,2.26,0,0,1,2.47-2.1A2.23,2.23,0,0,1,70.37,14h-.75c0-1-.89-1.2-1.69-1.2s-1.81.41-1.81,1.36c0,2.21,4.39,1.21,4.39,3.88C70.51,19.73,69.06,20.24,67.5,20.24Z" transform="translate(-3.19 -2.41)"/><path class="a" d="M72.73,15.27H71.65v-.59h1.08V13.53l.65-.28v1.43H74.6v.59H73.38v3.61a.67.67,0,0,0,.74.76,1.9,1.9,0,0,0,.56-.06v.56a2.69,2.69,0,0,1-.66.1c-1.37,0-1.29-.87-1.29-1.6Z" transform="translate(-3.19 -2.41)"/><path class="a" d="M76.88,13.12h-.75v-.81h.75Zm-.05,1.56v5.4h-.65v-5.4Z" transform="translate(-3.19 -2.41)"/><path class="a" d="M79.35,20.08V15.27H78.26v-.59h1.09V13.53c0-.93.38-1.34,1.3-1.34a2.94,2.94,0,0,1,.61.12v.52a2.5,2.5,0,0,0-.4,0c-.88,0-.9.44-.87,1.22v.69h1.23v.59H80v4.81Z" transform="translate(-3.19 -2.41)"/><path class="a" d="M82.72,15.27H81.65v-.59h1.08V13.53l.65-.28v1.43H84.6v.59H83.37v3.61a.67.67,0,0,0,.74.76,1.9,1.9,0,0,0,.56-.06v.56a2.69,2.69,0,0,1-.66.1c-1.37,0-1.29-.87-1.29-1.6Z" transform="translate(-3.19 -2.41)"/><path class="a" d="M89.46,14.68h.65v4.19c0,.42,0,.85.05,1.22h-.67l0-.8,0,0a1.86,1.86,0,0,1-1.69,1,1.9,1.9,0,0,1-1.9-2.18V14.68h.65v3.49a1.34,1.34,0,0,0,1.42,1.48c1.07,0,1.55-.89,1.55-1.86Z" transform="translate(-3.19 -2.41)"/><path class="a" d="M92.74,20.08H92.1V15.9c0-.42,0-.85-.05-1.22h.67l0,.8,0,0a1.86,1.86,0,0,1,1.69-1,1.9,1.9,0,0,1,1.9,2.18v3.38h-.65V16.6a1.34,1.34,0,0,0-1.42-1.48c-1.07,0-1.55.89-1.55,1.86Z" transform="translate(-3.19 -2.41)"/><path class="a" d="M102.16,14.68h.67c0,.37-.05.8-.05,1.22v3.24c0,1.08.05,2.21-1.14,2.77a2.46,2.46,0,0,1-1.23.25c-1,0-2.14-.33-2.14-1.45H99c.08.65.84.86,1.53.86a1.57,1.57,0,0,0,1.64-1.5v-1h0a2,2,0,0,1-1.75,1c-1.62,0-2.32-1.24-2.32-2.72s.66-2.82,2.3-2.82a2.06,2.06,0,0,1,1.78,1l0,0Zm-1.76.43c-1.17,0-1.67,1.18-1.67,2.17s.51,2.18,1.69,2.18,1.71-1.15,1.71-2.21A1.93,1.93,0,0,0,100.39,15.11Z" transform="translate(-3.19 -2.41)"/><path class="a" d="M65.31,32.89V25.12H67v3.07h2.94V25.12H71.6v7.77H69.93V29.48H67v3.41Z" transform="translate(-3.19 -2.41)"/><path class="a" d="M73,29a1.46,1.46,0,0,1,.73-1.34,3.19,3.19,0,0,1,1.59-.34c1.09,0,2.3.4,2.3,2V32.3a4.78,4.78,0,0,0,.08.59H76.27a5.7,5.7,0,0,1-.05-.72h0a1.76,1.76,0,0,1-1.66.88,1.59,1.59,0,0,1-1.76-1.64,1.88,1.88,0,0,1,1.15-1.71A5.11,5.11,0,0,1,76,29.42v-.51a.69.69,0,0,0-.74-.67.73.73,0,0,0-.72.77Zm1.3,2.18a.75.75,0,0,0,.79.77C76,32,76,31,76,30.35,75.47,30.34,74.32,30.33,74.32,31.2Z" transform="translate(-3.19 -2.41)"/><path class="a" d="M82.53,32.23a1.88,1.88,0,0,1-1.67.83,2,2,0,0,1-1.78-1.19A3.7,3.7,0,0,1,79,31V27.49h1.61v3.24c0,.58.17,1.25,1,1.25.51,0,.95-.46,1-1.25V27.49h1.61v4.43q0,.48.06,1H82.6Z" transform="translate(-3.19 -2.41)"/><path class="a" d="M88.31,28.93c0-.37-.37-.53-.73-.53s-.65.13-.65.48c0,.85,3.09.37,3.09,2.39,0,1.18-1.44,1.78-2.44,1.78-1.26,0-2.36-.5-2.38-1.73h1.5c0,.42.41.66.88.66s.77-.18.77-.6-.77-.61-1.1-.69c-1-.25-2-.47-2-1.73s1.37-1.62,2.31-1.62c1.14,0,2.11.41,2.18,1.6Z" transform="translate(-3.19 -2.41)"/><path class="a" d="M97.68,25.12h1.61v6.69c0,.36,0,.72.05,1.08H97.73c0-.26,0-.51,0-.76h0a1.8,1.8,0,0,1-1.66.93c-1.58,0-2.32-1.47-2.32-2.86a2.61,2.61,0,0,1,2.53-2.86,1.82,1.82,0,0,1,1.44.79h0ZM96.52,32c.87,0,1.16-1,1.16-1.79s-.29-1.79-1.16-1.79c-1,0-1.16,1-1.16,1.79S95.48,32,96.52,32Z" transform="translate(-3.19 -2.41)"/><path class="a" d="M102,30.62c0,.7.1,1.36.93,1.36a.88.88,0,0,0,1-.7h1.45c-.14,1.33-1.18,1.78-2.44,1.78-1.85,0-2.59-1-2.59-2.85a2.59,2.59,0,0,1,2.59-2.87,2.32,2.32,0,0,1,2.3,1.29,2.94,2.94,0,0,1,.27,1,8.11,8.11,0,0,1,0,1Zm1.87-1.08c0-.59-.16-1.14-.95-1.14s-.9.55-.93,1.14Z" transform="translate(-3.19 -2.41)"/><path class="a" d="M107.86,27.49l0,1h0a1.7,1.7,0,0,1,1.84-1v1.43h-.7a1.16,1.16,0,0,0-.79.4,1.93,1.93,0,0,0-.22,1v2.68h-1.6V28.57c0-.23,0-.68-.05-1.08Z" transform="translate(-3.19 -2.41)"/><path class="a" d="M117.39,30V28.75h3.18v3.88a7.93,7.93,0,0,1-1.74.34,16.61,16.61,0,0,1-1.79.08c-1.54,0-3.65-1-3.65-4s2.11-4,3.65-4c2.25,0,3.64.68,3.65,2.53h-1.78c0-1-.65-1.32-1.56-1.32-1.47,0-2.18,1.09-2.18,2.84s.71,2.84,2.18,2.84a7.27,7.27,0,0,0,1.55-.17V30Z" transform="translate(-3.19 -2.41)"/><path class="a" d="M123.48,30.62c0,.7.1,1.36.93,1.36a.88.88,0,0,0,1-.7h1.45c-.14,1.33-1.18,1.78-2.44,1.78-1.85,0-2.59-1-2.59-2.85a2.59,2.59,0,0,1,2.59-2.87,2.32,2.32,0,0,1,2.3,1.29,2.94,2.94,0,0,1,.27,1,8.11,8.11,0,0,1,0,1Zm1.87-1.08c0-.59-.16-1.14-.95-1.14s-.9.55-.93,1.14Z" transform="translate(-3.19 -2.41)"/><path class="a" d="M130.76,28.93c0-.37-.37-.53-.73-.53s-.65.13-.65.48c0,.85,3.09.37,3.09,2.39,0,1.18-1.44,1.78-2.44,1.78-1.26,0-2.36-.5-2.38-1.73h1.5c0,.42.41.66.88.66s.77-.18.77-.6-.77-.61-1.1-.69c-1-.25-2-.47-2-1.73s1.37-1.62,2.31-1.62c1.14,0,2.11.41,2.18,1.6Z" transform="translate(-3.19 -2.41)"/><path class="a" d="M136.28,29.39c0-.44-.19-1-.82-1s-.7,1.29-.72,1.71.05,1.86.74,1.86.81-.61.82-1.05h1.57a2.09,2.09,0,0,1-2.39,2.13c-1.6,0-2.41-1.43-2.41-2.86s.81-2.86,2.41-2.86a2.12,2.12,0,0,1,2.39,2.06Z" transform="translate(-3.19 -2.41)"/><path class="a" d="M138.61,32.89V25.12h1.6v3l0,0a1.84,1.84,0,0,1,1.66-.82,2,2,0,0,1,1.78,1.18,3.69,3.69,0,0,1,.11.86v3.52h-1.61V29.64c0-.58-.17-1.24-1-1.24-.51,0-.95.45-1,1.24v3.25Z" transform="translate(-3.19 -2.41)"/><path class="a" d="M146.83,25.12v1.39H145.1V25.12Zm-.05,2.37v5.4h-1.61v-5.4Z" transform="translate(-3.19 -2.41)"/><path class="a" d="M151,29.39c0-.44-.19-1-.82-1s-.7,1.29-.72,1.71.05,1.86.74,1.86.81-.61.82-1.05h1.57a2.09,2.09,0,0,1-2.39,2.13c-1.6,0-2.41-1.43-2.41-2.86s.81-2.86,2.41-2.86a2.12,2.12,0,0,1,2.39,2.06Z" transform="translate(-3.19 -2.41)"/><path class="a" d="M153.35,32.89V25.12h1.6v3l0,0a1.84,1.84,0,0,1,1.66-.82,2,2,0,0,1,1.78,1.18,3.69,3.69,0,0,1,.11.86v3.52H156.9V29.64c0-.58-.17-1.24-1-1.24-.51,0-.95.45-1,1.24v3.25Z" transform="translate(-3.19 -2.41)"/><path class="a" d="M160.31,27.49V26.43l1.61-.58v1.65h1.22v1.08h-1.22v2.51c0,.71.11.9.67.9.17,0,.34,0,.52,0v.95a6,6,0,0,1-1.27.16c-1.26,0-1.53-.66-1.53-1.83V28.57h-1.09V27.49Z" transform="translate(-3.19 -2.41)"/><path class="a" d="M165.31,30.62c0,.7.1,1.36.93,1.36a.88.88,0,0,0,1-.7h1.45c-.14,1.33-1.18,1.78-2.44,1.78-1.85,0-2.59-1-2.59-2.85a2.59,2.59,0,0,1,2.59-2.87,2.32,2.32,0,0,1,2.3,1.29,3,3,0,0,1,.27,1,8.11,8.11,0,0,1,0,1Zm1.87-1.08c0-.59-.16-1.14-.95-1.14s-.9.55-.93,1.14Z" transform="translate(-3.19 -2.41)"/><path class="a" d="M69,37.93H70.6v6.69c0,.36,0,.72.05,1.08H69c0-.26,0-.51,0-.76h0a1.8,1.8,0,0,1-1.66.93C65.74,45.86,65,44.39,65,43a2.61,2.61,0,0,1,2.53-2.86,1.82,1.82,0,0,1,1.44.79h0Zm-1.16,6.85c.87,0,1.16-1,1.16-1.79s-.29-1.79-1.16-1.79c-1,0-1.16,1-1.16,1.79S66.79,44.79,67.82,44.79Z" transform="translate(-3.19 -2.41)"/><path class="a" d="M73.27,43.43c0,.7.1,1.36.93,1.36a.88.88,0,0,0,1-.7h1.45c-.14,1.33-1.18,1.78-2.44,1.78-1.85,0-2.59-1-2.59-2.85a2.59,2.59,0,0,1,2.59-2.87,2.32,2.32,0,0,1,2.3,1.29,3,3,0,0,1,.27,1,8.11,8.11,0,0,1,0,1Zm1.87-1.08c0-.59-.16-1.14-.95-1.14s-.9.55-.93,1.14Z" transform="translate(-3.19 -2.41)"/><path class="a" d="M79.19,40.3l0,1h0a1.7,1.7,0,0,1,1.84-1v1.43h-.7a1.16,1.16,0,0,0-.79.4,1.93,1.93,0,0,0-.22,1V45.7h-1.6V41.38c0-.23,0-.68-.05-1.08Z" transform="translate(-3.19 -2.41)"/><path class="a" d="M85.06,45.7V37.93H88c1.39-.09,2.81.49,2.81,2a1.81,1.81,0,0,1-1.37,1.7v0a2,2,0,0,1,1.71,2c0,1.54-1.94,2.1-3.13,2Zm3-4.65c.7,0,1.09-.29,1.09-.91s-.39-.91-1.09-.91h-1.3v1.83Zm0,3.36c.79,0,1.32-.14,1.32-1s-.54-1-1.32-1h-1.3v2.07Z" transform="translate(-3.19 -2.41)"/><path class="a" d="M95.73,45a1.88,1.88,0,0,1-1.67.83,2,2,0,0,1-1.78-1.19,3.7,3.7,0,0,1-.11-.86V40.3H93.8v3.24c0,.58.17,1.25,1,1.25.51,0,.95-.46,1-1.25V40.3h1.61v4.43q0,.48.06,1H95.8Z" transform="translate(-3.19 -2.41)"/><path class="a" d="M100.41,40.93l0,0a1.84,1.84,0,0,1,1.66-.82,2,2,0,0,1,1.78,1.18,3.69,3.69,0,0,1,.11.86V45.7h-1.61V42.45c0-.58-.17-1.24-1-1.24-.51,0-.95.45-1,1.24V45.7H98.81V40.3h1.6Z" transform="translate(-3.19 -2.41)"/><path class="a" d="M109.11,37.93h1.61v6.69c0,.36,0,.72.05,1.08h-1.61c0-.26,0-.51,0-.76h0a1.8,1.8,0,0,1-1.66.93c-1.58,0-2.32-1.47-2.32-2.86a2.61,2.61,0,0,1,2.53-2.86,1.82,1.82,0,0,1,1.44.79h0Zm-1.16,6.85c.87,0,1.16-1,1.16-1.79s-.29-1.79-1.16-1.79c-1,0-1.16,1-1.16,1.79S106.91,44.79,107.94,44.79Z" transform="translate(-3.19 -2.41)"/><path class="a" d="M113.39,43.43c0,.7.1,1.36.93,1.36a.88.88,0,0,0,1-.7h1.45c-.14,1.33-1.18,1.78-2.44,1.78-1.85,0-2.59-1-2.59-2.85a2.59,2.59,0,0,1,2.59-2.87,2.32,2.32,0,0,1,2.3,1.29,3,3,0,0,1,.27,1,8.11,8.11,0,0,1,0,1Zm1.87-1.08c0-.59-.16-1.14-.95-1.14s-.9.55-.93,1.14Z" transform="translate(-3.19 -2.41)"/><path class="a" d="M120.68,41.74c0-.37-.37-.53-.73-.53s-.65.13-.65.48c0,.85,3.09.37,3.09,2.39,0,1.18-1.44,1.78-2.44,1.78-1.26,0-2.36-.49-2.38-1.73h1.5c0,.42.41.66.88.66s.77-.18.77-.6-.77-.61-1.1-.69c-1-.25-2-.47-2-1.73S119,40.14,120,40.14c1.14,0,2.11.41,2.18,1.6Z" transform="translate(-3.19 -2.41)"/><path class="a" d="M124.69,40.3l0,1h0a1.7,1.7,0,0,1,1.84-1v1.43h-.7a1.16,1.16,0,0,0-.79.4,1.93,1.93,0,0,0-.22,1V45.7h-1.6V41.38c0-.23,0-.68-.05-1.08Z" transform="translate(-3.19 -2.41)"/><path class="a" d="M128.58,43.43c0,.7.1,1.36.93,1.36a.88.88,0,0,0,1-.7h1.45c-.14,1.33-1.18,1.78-2.44,1.78-1.85,0-2.59-1-2.59-2.85a2.59,2.59,0,0,1,2.59-2.87,2.32,2.32,0,0,1,2.3,1.29,3,3,0,0,1,.27,1,8.11,8.11,0,0,1,0,1Zm1.87-1.08c0-.59-.16-1.14-.95-1.14s-.9.55-.93,1.14Z" transform="translate(-3.19 -2.41)"/><path class="a" d="M134.63,40.93h0a1.83,1.83,0,0,1,1.44-.79A2.61,2.61,0,0,1,138.62,43c0,1.39-.74,2.86-2.32,2.86a1.77,1.77,0,0,1-1.65-.93h0v2.83H133V41.38c0-.36,0-.72-.05-1.08h1.64Zm1.16,3.86c1,0,1.16-1,1.16-1.79s-.13-1.79-1.16-1.79c-.87,0-1.16,1-1.16,1.79S134.92,44.79,135.79,44.79Z" transform="translate(-3.19 -2.41)"/><path class="a" d="M143.29,45a1.88,1.88,0,0,1-1.67.83,2,2,0,0,1-1.78-1.19,3.69,3.69,0,0,1-.11-.86V40.3h1.61v3.24c0,.58.17,1.25,1,1.25.51,0,.95-.46,1-1.25V40.3h1.61v4.43q0,.48.06,1h-1.61Z" transform="translate(-3.19 -2.41)"/><path class="a" d="M146.21,37.93h1.61v3h0a1.83,1.83,0,0,1,1.44-.79A2.61,2.61,0,0,1,151.82,43c0,1.39-.74,2.86-2.32,2.86a1.8,1.8,0,0,1-1.66-.93h0c0,.26,0,.51,0,.76h-1.61c0-.36.05-.72.05-1.08ZM149,44.79c1,0,1.16-1,1.16-1.79S150,41.22,149,41.22c-.87,0-1.16,1-1.16,1.79S148.12,44.79,149,44.79Z" transform="translate(-3.19 -2.41)"/><path class="a" d="M154.57,37.93V45.7H153V37.93Z" transform="translate(-3.19 -2.41)"/><path class="a" d="M157.65,37.93v1.39h-1.72V37.93Zm-.05,2.37v5.4H156V40.3Z" transform="translate(-3.19 -2.41)"/><path class="a" d="M160.65,42.48l0,0,1.59-2.27h1.8L162.2,42.6l2,3.1H162.3l-1.62-3,0,0V45.7H159V37.93h1.61Z" transform="translate(-3.19 -2.41)"/><path class="a" d="M168,37.93h2.65c2.42,0,3.93,1.18,3.93,3.88s-1.51,3.91-3.93,3.88H168Zm1.67,6.48h.86c2,0,2.27-1.36,2.27-2.59s-.29-2.61-2.27-2.59h-.86Z" transform="translate(-3.19 -2.41)"/><path class="a" d="M177.26,43.43c0,.7.1,1.36.93,1.36a.88.88,0,0,0,1-.7h1.45c-.14,1.33-1.18,1.78-2.44,1.78-1.85,0-2.59-1-2.59-2.85a2.59,2.59,0,0,1,2.59-2.87,2.32,2.32,0,0,1,2.3,1.29,3,3,0,0,1,.27,1,8.11,8.11,0,0,1,0,1Zm1.87-1.08c0-.59-.16-1.14-.95-1.14s-.9.55-.93,1.14Z" transform="translate(-3.19 -2.41)"/><path class="a" d="M185.38,45a1.88,1.88,0,0,1-1.67.83,2,2,0,0,1-1.78-1.19,3.69,3.69,0,0,1-.11-.86V40.3h1.61v3.24c0,.58.17,1.25,1,1.25.51,0,.95-.46,1-1.25V40.3H187v4.43q0,.48.06,1h-1.61Z" transform="translate(-3.19 -2.41)"/><path class="a" d="M188.86,40.3V39.24l1.61-.58V40.3h1.22v1.08h-1.22v2.51c0,.71.11.9.67.9.17,0,.34,0,.52,0v.95a6,6,0,0,1-1.27.16c-1.26,0-1.53-.66-1.53-1.83V41.38h-1.09V40.3Z" transform="translate(-3.19 -2.41)"/><path class="a" d="M195.4,41.74c0-.37-.37-.53-.73-.53s-.65.13-.65.48c0,.85,3.09.37,3.09,2.39,0,1.18-1.44,1.78-2.44,1.78-1.26,0-2.36-.49-2.38-1.73h1.5c0,.42.41.66.88.66s.77-.18.77-.6-.77-.61-1.1-.69c-1-.25-2-.47-2-1.73s1.37-1.62,2.31-1.62c1.14,0,2.11.41,2.18,1.6Z" transform="translate(-3.19 -2.41)"/><path class="a" d="M200.94,42.19c0-.44-.19-1-.82-1s-.7,1.29-.72,1.71.05,1.86.74,1.86.81-.61.82-1.05h1.57a2.09,2.09,0,0,1-2.39,2.13c-1.6,0-2.41-1.43-2.41-2.86s.81-2.86,2.41-2.86a2.12,2.12,0,0,1,2.39,2.05Z" transform="translate(-3.19 -2.41)"/><path class="a" d="M203.24,45.7V37.93h1.6v3l0,0a1.84,1.84,0,0,1,1.66-.82,2,2,0,0,1,1.78,1.18,3.69,3.69,0,0,1,.11.86V45.7h-1.61V42.45c0-.58-.17-1.24-1-1.24-.51,0-.95.45-1,1.24V45.7Z" transform="translate(-3.19 -2.41)"/><path class="a" d="M211.41,37.93V45.7H209.8V37.93Z" transform="translate(-3.19 -2.41)"/><path class="a" d="M212.79,41.83a1.46,1.46,0,0,1,.73-1.34,3.19,3.19,0,0,1,1.59-.34c1.09,0,2.3.4,2.3,2v2.95a4.73,4.73,0,0,0,.08.59H216A5.65,5.65,0,0,1,216,45h0a1.76,1.76,0,0,1-1.66.88,1.59,1.59,0,0,1-1.76-1.64,1.88,1.88,0,0,1,1.15-1.71,5.11,5.11,0,0,1,2.11-.29v-.51a.69.69,0,0,0-.74-.67.73.73,0,0,0-.72.77Zm1.3,2.18a.75.75,0,0,0,.79.77c.89,0,.93-1,.93-1.62C215.24,43.15,214.09,43.14,214.09,44Z" transform="translate(-3.19 -2.41)"/><path class="a" d="M220.39,40.93l0,0a1.84,1.84,0,0,1,1.66-.82,2,2,0,0,1,1.78,1.18,3.69,3.69,0,0,1,.11.86V45.7h-1.61V42.45c0-.58-.17-1.24-1-1.24-.51,0-.95.45-1,1.24V45.7h-1.61V40.3h1.6Z" transform="translate(-3.19 -2.41)"/><path class="a" d="M229.07,37.93h1.61v6.69c0,.36,0,.72.05,1.08h-1.61c0-.26,0-.51,0-.76h0a1.8,1.8,0,0,1-1.66.93c-1.58,0-2.32-1.47-2.32-2.86a2.61,2.61,0,0,1,2.53-2.86,1.82,1.82,0,0,1,1.44.79h0Zm-1.16,6.85c.87,0,1.16-1,1.16-1.79s-.29-1.79-1.16-1.79c-1,0-1.16,1-1.16,1.79S226.88,44.79,227.91,44.79Z" transform="translate(-3.19 -2.41)"/></svg>