<svg xmlns="http://www.w3.org/2000/svg" viewBox="0 0 446.74 101.64"><defs><style>.a{fill:#1d1d1b;}.b{fill:#e94e24;}.c{fill:#fc0;}</style></defs><title>2_zfl</title><rect class="a" x="50.82" width="33.88" height="33.88"/><rect class="b" x="25.41" y="33.88" width="33.88" height="33.88"/><rect class="c" y="67.76" width="33.88" height="33.88"/><path class="a" d="M123.18,36.16A4.31,4.31,0,0,1,118.75,32h1.44c0,2.29,1.73,2.95,3.73,2.95,1.67,0,3.59-1,3.59-2.86,0-1.48-1.07-2.18-2.33-2.6-2.41-.8-6.08-1.57-6.08-4.78,0-2.6,2.39-4,4.74-4,2,0,4.51.68,4.84,3.54h-1.44c0-1.83-1.71-2.31-3.24-2.31s-3.46.78-3.46,2.6c0,4.22,8.41,2.31,8.41,7.44C129,35.17,126.17,36.16,123.18,36.16Z" transform="translate(0 -2)"/><path class="a" d="M133.11,26.64h-2.06V25.51h2.06V23.3l1.24-.54v2.74h2.35v1.13h-2.35v6.92A1.28,1.28,0,0,0,135.77,35a3.64,3.64,0,0,0,1.07-.12V36a5.15,5.15,0,0,1-1.26.19c-2.62,0-2.47-1.67-2.47-3.07Z" transform="translate(0 -2)"/><path class="a" d="M140.88,22.52h-1.44V21h1.44Zm-.1,3V35.85h-1.24V25.51Z" transform="translate(0 -2)"/><path class="a" d="M145.42,35.85V26.64h-2.08V25.51h2.08V23.3c0-1.77.72-2.58,2.49-2.58a5.63,5.63,0,0,1,1.17.23v1a4.79,4.79,0,0,0-.76-.08c-1.69,0-1.73.84-1.67,2.33v1.32H149v1.13h-2.35v9.21Z" transform="translate(0 -2)"/><path class="a" d="M151.78,26.64h-2.06V25.51h2.06V23.3l1.24-.54v2.74h2.35v1.13H153v6.92A1.28,1.28,0,0,0,154.44,35a3.64,3.64,0,0,0,1.07-.12V36a5.15,5.15,0,0,1-1.26.19c-2.62,0-2.47-1.67-2.47-3.07Z" transform="translate(0 -2)"/><path class="a" d="M164.6,25.51h1.24v8c0,.8.06,1.63.1,2.33h-1.28l-.06-1.53,0,0a3.56,3.56,0,0,1-3.24,1.88c-3.38,0-3.65-3-3.65-4.18V25.51h1.24v6.68A2.56,2.56,0,0,0,161.63,35c2,0,3-1.71,3-3.57Z" transform="translate(0 -2)"/><path class="a" d="M170.78,35.85h-1.24v-8c0-.8-.06-1.63-.1-2.33h1.28l.06,1.52,0,0a3.56,3.56,0,0,1,3.24-1.88c3.38,0,3.65,3,3.65,4.18v6.47h-1.24V29.18a2.56,2.56,0,0,0-2.72-2.84c-2,0-3,1.71-3,3.57Z" transform="translate(0 -2)"/><path class="a" d="M188.63,25.51h1.28c0,.7-.1,1.52-.1,2.33V34c0,2.06.1,4.22-2.18,5.3a4.72,4.72,0,0,1-2.35.47c-1.88,0-4.1-.64-4.1-2.78h1.34c.14,1.24,1.61,1.65,2.93,1.65a3,3,0,0,0,3.13-2.86V33.87h0a3.79,3.79,0,0,1-3.36,1.94c-3.11,0-4.45-2.37-4.45-5.21s1.26-5.4,4.41-5.4a4,4,0,0,1,3.4,1.92l0-.08Zm-3.38.82c-2.25,0-3.19,2.27-3.19,4.16s1,4.18,3.24,4.18,3.28-2.2,3.28-4.22S187.48,26.33,185.25,26.33Z" transform="translate(0 -2)"/><path class="a" d="M199.86,35.85V21h1.34v6.53h8.12V21h1.34V35.85h-1.34V28.74H201.2v7.11Z" transform="translate(0 -2)"/><path class="a" d="M220.63,28.56c-.12-1.69-1-2.23-2.45-2.23-1.3,0-2.37.39-2.53,1.79h-1.32c.31-2.12,1.9-2.93,3.87-2.93,2.29,0,3.71,1.05,3.67,3.42v4.9c0,.8.06,1.63.1,2.33H220.7l0-1.53h0l-.06.14a3.88,3.88,0,0,1-3.24,1.69A3.2,3.2,0,0,1,216,30c1.38-.6,3.17-.39,4.68-.47ZM217.54,35c2.7,0,3.21-2.23,3.09-4.39-1.75.06-5.42-.27-5.42,2.33A2.07,2.07,0,0,0,217.54,35Z" transform="translate(0 -2)"/><path class="a" d="M232.44,25.51h1.24v8c0,.8.06,1.63.1,2.33H232.5l-.06-1.53,0,0a3.56,3.56,0,0,1-3.24,1.88c-3.38,0-3.65-3-3.65-4.18V25.51h1.24v6.68A2.56,2.56,0,0,0,229.47,35c2,0,3-1.71,3-3.57Z" transform="translate(0 -2)"/><path class="a" d="M240.85,25.2c2,0,3.61.68,3.77,2.86h-1.34c-.12-1.3-1.28-1.73-2.56-1.73s-2.33.45-2.33,1.67c0,1.53,2,1.38,4.8,2.37A2.52,2.52,0,0,1,245,32.78c0,2.33-2.16,3.38-4.35,3.38-1.79,0-3.85-.84-3.89-3.13H238c.1,1.55,1.46,2,2.86,2s2.7-.62,2.7-2.06-1.63-1.73-3.28-2.1-3.28-.87-3.28-2.78C237.06,25.94,239,25.2,240.85,25.2Z" transform="translate(0 -2)"/><path class="a" d="M261.42,34.33l0-.08a4.2,4.2,0,0,1-3.54,1.92c-3.07,0-4.25-2.93-4.25-5.52s1.17-5.44,4.25-5.44a4.13,4.13,0,0,1,3.54,1.88l0,0V21h1.24V33.52c0,.8.06,1.63.1,2.33h-1.28Zm-3.38-8c-2.35,0-3.11,2.18-3.11,4.16s.56,4.53,2.93,4.53c2.7,0,3.52-2.25,3.52-4.6C261.37,28.33,260.45,26.33,258,26.33Z" transform="translate(0 -2)"/><path class="a" d="M266.9,31c0,2.21,1.05,4.06,3.59,4.06a3.08,3.08,0,0,0,3-2.47h1.3a4.34,4.34,0,0,1-4.68,3.61c-3.09,0-4.53-2.66-4.53-5.48s1.55-5.48,4.62-5.48c3.46,0,4.72,2.53,4.72,5.77Zm6.66-1.13c-.14-2-1.22-3.5-3.36-3.5s-3.09,1.69-3.26,3.5Z" transform="translate(0 -2)"/><path class="a" d="M279.3,35.85h-1.24v-8c0-.8-.06-1.63-.1-2.33h1.28L279.3,27h0a2.66,2.66,0,0,1,2.33-1.83,12.36,12.36,0,0,1,1.24,0v1.2c-.25,0-.52-.08-.76-.08-1.83,0-2.8,1.32-2.84,3.3Z" transform="translate(0 -2)"/><path class="a" d="M302.86,28.27v7a13.88,13.88,0,0,1-5.34.93c-4.06,0-6.35-3.17-6.35-7.75,0-3.83,2-7.75,6.35-7.75,2.47,0,5,1.34,5.23,4h-1.52c-.27-1.9-1.94-2.74-3.71-2.74-3.57,0-4.91,3.42-4.91,6.51,0,3.79,1.59,6.51,5.61,6.51a12,12,0,0,0,3.3-.62V29.5h-3.73V28.27Z" transform="translate(0 -2)"/><path class="a" d="M307.54,31c0,2.21,1.05,4.06,3.59,4.06a3.08,3.08,0,0,0,3-2.47h1.3a4.34,4.34,0,0,1-4.68,3.61c-3.09,0-4.53-2.66-4.53-5.48s1.55-5.48,4.62-5.48c3.46,0,4.72,2.53,4.72,5.77Zm6.66-1.13c-.14-2-1.22-3.5-3.36-3.5s-3.09,1.69-3.26,3.5Z" transform="translate(0 -2)"/><path class="a" d="M322.15,25.2c2,0,3.61.68,3.77,2.86h-1.34c-.12-1.3-1.28-1.73-2.56-1.73s-2.33.45-2.33,1.67c0,1.53,2,1.38,4.8,2.37a2.52,2.52,0,0,1,1.75,2.41c0,2.33-2.16,3.38-4.35,3.38-1.79,0-3.85-.84-3.89-3.13h1.34c.1,1.55,1.46,2,2.86,2s2.7-.62,2.7-2.06-1.63-1.73-3.28-2.1-3.28-.87-3.28-2.78C318.35,25.94,320.33,25.2,322.15,25.2Z" transform="translate(0 -2)"/><path class="a" d="M336,28.68c-.1-1.59-1.11-2.35-2.82-2.35-1.9,0-3.07,2-3.07,4.33S331.26,35,333.15,35A2.62,2.62,0,0,0,336,32.62h1.34a3.68,3.68,0,0,1-4,3.54c-3.09,0-4.53-2.66-4.53-5.48s1.55-5.48,4.62-5.48a3.66,3.66,0,0,1,4,3.48Z" transform="translate(0 -2)"/><path class="a" d="M340.38,27.07h0a3.56,3.56,0,0,1,3.24-1.88c3.38,0,3.65,3,3.65,4.18v6.47h-1.24V29.18a2.56,2.56,0,0,0-2.72-2.84c-2,0-3,1.71-3,3.57v6h-1.24V21h1.24Z" transform="translate(0 -2)"/><path class="a" d="M352.4,22.52H351V21h1.44Zm-.1,3V35.85h-1.24V25.51Z" transform="translate(0 -2)"/><path class="a" d="M362.58,28.68c-.1-1.59-1.11-2.35-2.82-2.35-1.9,0-3.07,2-3.07,4.33S357.86,35,359.76,35a2.62,2.62,0,0,0,2.82-2.41h1.34a3.68,3.68,0,0,1-4,3.54c-3.09,0-4.53-2.66-4.53-5.48s1.55-5.48,4.62-5.48a3.66,3.66,0,0,1,4,3.48Z" transform="translate(0 -2)"/><path class="a" d="M367,27.07h0a3.56,3.56,0,0,1,3.24-1.88c3.38,0,3.65,3,3.65,4.18v6.47h-1.24V29.18A2.56,2.56,0,0,0,370,26.33c-2,0-3,1.71-3,3.57v6h-1.24V21H367Z" transform="translate(0 -2)"/><path class="a" d="M378.53,26.64h-2.06V25.51h2.06V23.3l1.24-.54v2.74h2.35v1.13h-2.35v6.92A1.28,1.28,0,0,0,381.19,35a3.65,3.65,0,0,0,1.07-.12V36a5.15,5.15,0,0,1-1.26.19c-2.62,0-2.47-1.67-2.47-3.07Z" transform="translate(0 -2)"/><path class="a" d="M385.66,31c0,2.21,1.05,4.06,3.59,4.06a3.08,3.08,0,0,0,3-2.47h1.3a4.34,4.34,0,0,1-4.68,3.61c-3.09,0-4.53-2.66-4.53-5.48s1.55-5.48,4.62-5.48c3.46,0,4.72,2.53,4.72,5.77Zm6.66-1.13c-.14-2-1.22-3.5-3.36-3.5s-3.09,1.69-3.26,3.5Z" transform="translate(0 -2)"/><path class="a" d="M126.33,58.86l0-.08a4.2,4.2,0,0,1-3.54,1.92c-3.07,0-4.25-2.93-4.25-5.52s1.17-5.44,4.25-5.44a4.14,4.14,0,0,1,3.54,1.88l0,0V45.51h1.24V58.06c0,.8.06,1.63.1,2.33H126.4Zm-3.38-8c-2.35,0-3.11,2.18-3.11,4.16s.56,4.53,2.93,4.53c2.7,0,3.52-2.25,3.52-4.6C126.29,52.87,125.36,50.87,123,50.87Z" transform="translate(0 -2)"/><path class="a" d="M131.79,55.5c0,2.2,1.05,4.06,3.59,4.06a3.08,3.08,0,0,0,3-2.47h1.3A4.34,4.34,0,0,1,135,60.7c-3.09,0-4.53-2.66-4.53-5.48s1.55-5.48,4.62-5.48c3.46,0,4.72,2.53,4.72,5.77Zm6.66-1.13c-.14-2-1.22-3.5-3.36-3.5s-3.09,1.69-3.26,3.5Z" transform="translate(0 -2)"/><path class="a" d="M144.18,60.39h-1.24v-8c0-.8-.06-1.63-.1-2.33h1.28l.06,1.52h0a2.66,2.66,0,0,1,2.33-1.83,12.36,12.36,0,0,1,1.24,0v1.2c-.25,0-.52-.08-.76-.08-1.83,0-2.8,1.32-2.84,3.3Z" transform="translate(0 -2)"/><path class="a" d="M156.77,60.39V45.51l5.34,0c2.2,0,4.14,1.34,4.14,3.71a3.5,3.5,0,0,1-2.76,3.36v0a3.67,3.67,0,0,1,3.38,3.77c0,2-1.2,4-4.43,4Zm4.58-8.33c1.73,0,3.46-.68,3.46-2.7s-1.77-2.6-3.52-2.62h-3.17v5.32Zm-3.24,7.09h3.28c2.56,0,4-.64,4-2.93,0-2.54-2-2.93-4.84-2.93h-2.47Z" transform="translate(0 -2)"/><path class="a" d="M177.44,50h1.24v8c0,.8.06,1.63.1,2.33H177.5l-.06-1.52,0,0a3.56,3.56,0,0,1-3.24,1.88c-3.38,0-3.65-3-3.65-4.18V50h1.24v6.68a2.56,2.56,0,0,0,2.72,2.84c2,0,3-1.71,3-3.57Z" transform="translate(0 -2)"/><path class="a" d="M183.62,60.39h-1.24v-8c0-.8-.06-1.63-.1-2.33h1.28l.06,1.52,0,0a3.56,3.56,0,0,1,3.24-1.88c3.38,0,3.65,3,3.65,4.18v6.47h-1.24V53.71a2.56,2.56,0,0,0-2.72-2.84c-2,0-3,1.71-3,3.56Z" transform="translate(0 -2)"/><path class="a" d="M201.39,58.86l0-.08a4.2,4.2,0,0,1-3.54,1.92c-3.07,0-4.25-2.93-4.25-5.52s1.17-5.44,4.25-5.44a4.14,4.14,0,0,1,3.54,1.88l0,0V45.51h1.24V58.06c0,.8.06,1.63.1,2.33h-1.28Zm-3.38-8c-2.35,0-3.11,2.18-3.11,4.16s.56,4.53,2.93,4.53c2.7,0,3.52-2.25,3.52-4.6C201.35,52.87,200.42,50.87,198,50.87Z" transform="translate(0 -2)"/><path class="a" d="M206.85,55.5c0,2.2,1.05,4.06,3.59,4.06a3.08,3.08,0,0,0,3-2.47h1.3A4.34,4.34,0,0,1,210,60.7c-3.09,0-4.53-2.66-4.53-5.48s1.55-5.48,4.62-5.48c3.46,0,4.72,2.53,4.72,5.77Zm6.66-1.13c-.14-2-1.22-3.5-3.36-3.5s-3.09,1.69-3.26,3.5Z" transform="translate(0 -2)"/><path class="a" d="M221.44,49.73c2,0,3.61.68,3.77,2.86h-1.34c-.12-1.3-1.28-1.73-2.56-1.73s-2.33.45-2.33,1.67c0,1.53,2,1.38,4.8,2.37a2.52,2.52,0,0,1,1.75,2.41c0,2.33-2.16,3.38-4.35,3.38-1.79,0-3.85-.85-3.9-3.13h1.34c.1,1.55,1.46,2,2.86,2s2.7-.62,2.7-2.06-1.63-1.73-3.28-2.1-3.28-.87-3.28-2.78C217.65,50.48,219.62,49.73,221.44,49.73Z" transform="translate(0 -2)"/><path class="a" d="M229.95,60.39h-1.24v-8c0-.8-.06-1.63-.1-2.33h1.28l.06,1.52h0a2.66,2.66,0,0,1,2.33-1.83,12.36,12.36,0,0,1,1.24,0v1.2c-.25,0-.52-.08-.76-.08-1.83,0-2.8,1.32-2.84,3.3Z" transform="translate(0 -2)"/><path class="a" d="M236.61,55.5c0,2.2,1.05,4.06,3.59,4.06a3.08,3.08,0,0,0,3-2.47h1.3a4.34,4.34,0,0,1-4.68,3.61c-3.09,0-4.53-2.66-4.53-5.48s1.55-5.48,4.62-5.48c3.46,0,4.72,2.53,4.72,5.77Zm6.66-1.13c-.14-2-1.22-3.5-3.36-3.5s-3.09,1.69-3.26,3.5Z" transform="translate(0 -2)"/><path class="a" d="M248.78,64.34h-1.24v-12c0-.8-.06-1.63-.1-2.33h1.28l.06,1.52,0,0a4.13,4.13,0,0,1,3.54-1.88c3.07,0,4.25,2.76,4.25,5.44s-1.17,5.52-4.18,5.52a4.23,4.23,0,0,1-3.61-1.92h0Zm3.52-4.78c2.37,0,3-2.62,3-4.53s-.8-4.16-3.15-4.16-3.34,2-3.34,4.1C248.78,57.32,249.61,59.56,252.31,59.56Z" transform="translate(0 -2)"/><path class="a" d="M266.55,50h1.24v8c0,.8.06,1.63.1,2.33h-1.28l-.06-1.52,0,0a3.56,3.56,0,0,1-3.24,1.88c-3.38,0-3.65-3-3.65-4.18V50h1.24v6.68a2.56,2.56,0,0,0,2.72,2.84c2,0,3-1.71,3-3.57Z" transform="translate(0 -2)"/><path class="a" d="M272.46,60.39h-1.28c0-.7.1-1.52.1-2.33V45.51h1.24v6.06l0,0a4.13,4.13,0,0,1,3.54-1.88c3.07,0,4.25,2.76,4.25,5.44s-1.17,5.52-4.18,5.52a4.23,4.23,0,0,1-3.61-1.92l0,.08Zm.06-5.38c0,2.35.82,4.55,3.52,4.55,2.37,0,3-2.58,3-4.49s-.8-4.2-3.15-4.2S272.53,52.91,272.53,55Z" transform="translate(0 -2)"/><path class="a" d="M284.62,60.39h-1.24V45.51h1.24Z" transform="translate(0 -2)"/><path class="a" d="M289.71,47.05h-1.44V45.51h1.44Zm-.1,3V60.39h-1.24V50Z" transform="translate(0 -2)"/><path class="a" d="M294.7,54.27l5-4.22h1.59l-5.23,4.47,5.65,5.87h-1.57l-5.44-5.61v5.61h-1.24V45.51h1.24Z" transform="translate(0 -2)"/><path class="a" d="M314.44,45.51c4.88,0,7.67,2.51,7.67,7.44s-2.78,7.44-7.67,7.44h-4V45.51Zm.33,13.64c4.18,0,5.89-2.45,5.89-6.2,0-4.39-2.58-6.33-6.8-6.2h-2.1V59.15Z" transform="translate(0 -2)"/><path class="a" d="M326.21,55.5c0,2.2,1.05,4.06,3.59,4.06a3.08,3.08,0,0,0,3-2.47h1.3a4.34,4.34,0,0,1-4.68,3.61c-3.09,0-4.53-2.66-4.53-5.48s1.55-5.48,4.62-5.48c3.46,0,4.72,2.53,4.72,5.77Zm6.66-1.13c-.14-2-1.22-3.5-3.36-3.5s-3.09,1.69-3.26,3.5Z" transform="translate(0 -2)"/><path class="a" d="M344.28,50h1.24v8c0,.8.06,1.63.1,2.33h-1.28l-.06-1.52,0,0A3.56,3.56,0,0,1,341,60.7c-3.38,0-3.65-3-3.65-4.18V50h1.24v6.68a2.56,2.56,0,0,0,2.72,2.84c2,0,3-1.71,3-3.57Z" transform="translate(0 -2)"/><path class="a" d="M350.11,51.18h-2.06V50h2.06V47.84l1.24-.54V50h2.35v1.13h-2.35V58.1a1.28,1.28,0,0,0,1.42,1.46,3.66,3.66,0,0,0,1.07-.12v1.07a5.17,5.17,0,0,1-1.26.19c-2.62,0-2.47-1.67-2.47-3.07Z" transform="translate(0 -2)"/><path class="a" d="M359.94,49.73c2,0,3.61.68,3.77,2.86h-1.34c-.12-1.3-1.28-1.73-2.56-1.73s-2.33.45-2.33,1.67c0,1.53,2,1.38,4.8,2.37A2.52,2.52,0,0,1,364,57.32c0,2.33-2.16,3.38-4.35,3.38-1.79,0-3.85-.85-3.89-3.13h1.34c.1,1.55,1.46,2,2.86,2s2.7-.62,2.7-2.06-1.63-1.73-3.28-2.1-3.28-.87-3.28-2.78C356.15,50.48,358.13,49.73,359.94,49.73Z" transform="translate(0 -2)"/><path class="a" d="M373.75,53.22c-.1-1.59-1.11-2.35-2.82-2.35-1.9,0-3.07,2-3.07,4.33s1.17,4.37,3.07,4.37a2.62,2.62,0,0,0,2.82-2.41h1.34a3.68,3.68,0,0,1-4,3.54c-3.09,0-4.53-2.66-4.53-5.48s1.55-5.48,4.62-5.48a3.66,3.66,0,0,1,4,3.48Z" transform="translate(0 -2)"/><path class="a" d="M378.16,51.61h0a3.56,3.56,0,0,1,3.24-1.88c3.38,0,3.65,3,3.65,4.18v6.47h-1.24V53.71a2.56,2.56,0,0,0-2.72-2.84c-2,0-3,1.71-3,3.56v6h-1.24V45.51h1.24Z" transform="translate(0 -2)"/><path class="a" d="M390,60.39h-1.24V45.51H390Z" transform="translate(0 -2)"/><path class="a" d="M399.63,53.09c-.12-1.69-1-2.23-2.45-2.23-1.3,0-2.37.39-2.53,1.79h-1.32c.31-2.12,1.9-2.93,3.87-2.93,2.29,0,3.71,1.05,3.67,3.42v4.9c0,.8.06,1.63.1,2.33h-1.28l0-1.52h0l-.06.14a3.88,3.88,0,0,1-3.24,1.69A3.2,3.2,0,0,1,395,54.51c1.38-.6,3.17-.39,4.68-.47Zm-3.09,6.47c2.7,0,3.21-2.23,3.09-4.39-1.75.06-5.42-.27-5.42,2.33A2.07,2.07,0,0,0,396.54,59.56Z" transform="translate(0 -2)"/><path class="a" d="M405.73,60.39H404.5v-8c0-.8-.06-1.63-.1-2.33h1.28l.06,1.52,0,0A3.56,3.56,0,0,1,409,49.73c3.38,0,3.65,3,3.65,4.18v6.47h-1.24V53.71a2.56,2.56,0,0,0-2.72-2.84c-2,0-3,1.71-3,3.56Z" transform="translate(0 -2)"/><path class="a" d="M423.5,58.86l0-.08a4.2,4.2,0,0,1-3.54,1.92c-3.07,0-4.25-2.93-4.25-5.52s1.17-5.44,4.25-5.44a4.13,4.13,0,0,1,3.54,1.88l0,0V45.51h1.24V58.06c0,.8.06,1.63.1,2.33h-1.28Zm-3.38-8c-2.35,0-3.11,2.18-3.11,4.16s.56,4.53,2.93,4.53c2.7,0,3.52-2.25,3.52-4.6C423.45,52.87,422.53,50.87,420.12,50.87Z" transform="translate(0 -2)"/><path class="a" d="M118.15,82.45l7.38-9.93h-6.9V70H129.4v2.47L122,82.45h7.52v2.47H118.15Z" transform="translate(0 -2)"/><path class="a" d="M134.21,80.58c0,1.34.19,2.6,1.77,2.6a1.69,1.69,0,0,0,1.9-1.34h2.78c-.27,2.56-2.27,3.4-4.68,3.4-3.54,0-5-2-5-5.46,0-3.11,1.81-5.5,5-5.5a4.44,4.44,0,0,1,4.41,2.47,5.64,5.64,0,0,1,.52,1.85,15.53,15.53,0,0,1,.08,2Zm3.59-2.06c0-1.13-.31-2.18-1.81-2.18s-1.73,1.05-1.77,2.18Z" transform="translate(0 -2)"/><path class="a" d="M146.12,70V72.7h-3.3V70Zm-.1,4.53V84.92h-3.09V74.58Z" transform="translate(0 -2)"/><path class="a" d="M149.43,74.58v-2l3.09-1.11v3.15h2.33v2.06h-2.33v4.8c0,1.36.21,1.73,1.28,1.73.33,0,.66,0,1-.06v1.81a11.53,11.53,0,0,1-2.43.31c-2.41,0-2.93-1.26-2.93-3.5V76.64h-2.08V74.58Z" transform="translate(0 -2)"/><path class="a" d="M166.66,84c0,2.41-.54,5-5.07,5-2.29,0-4.74-.56-4.8-3.34h2.93c0,.93.87,1.28,1.71,1.28,2.35,0,2.27-2.14,2.14-3.65h0a3.27,3.27,0,0,1-2.91,1.42c-2.8,0-4.25-2.64-4.25-5.15s1.5-5.3,4.39-5.3a2.69,2.69,0,0,1,2.76,1.5h0v-1.2h3.09Zm-5.09-1.34c1.69,0,2-1.73,2-3.07,0-1.53-.31-3.26-2-3.26s-2,1.73-2,3.26C159.57,80.93,159.88,82.66,161.57,82.66Z" transform="translate(0 -2)"/><path class="a" d="M171.61,80.58c0,1.34.19,2.6,1.77,2.6a1.69,1.69,0,0,0,1.9-1.34h2.78c-.27,2.56-2.27,3.4-4.68,3.4-3.54,0-5-2-5-5.46,0-3.11,1.81-5.5,5-5.5a4.44,4.44,0,0,1,4.41,2.47,5.64,5.64,0,0,1,.52,1.85,15.54,15.54,0,0,1,.08,2Zm3.59-2.06c0-1.13-.31-2.18-1.81-2.18s-1.73,1.05-1.77,2.18Z" transform="translate(0 -2)"/><path class="a" d="M185.56,77.34c0-.7-.7-1-1.4-1s-1.24.25-1.24.93c0,1.63,5.91.7,5.91,4.58,0,2.27-2.76,3.4-4.68,3.4-2.41,0-4.51-.95-4.55-3.32h2.86c.06.8.78,1.26,1.69,1.26s1.48-.35,1.48-1.15-1.48-1.17-2.1-1.32c-2-.47-3.81-.91-3.81-3.32,0-2.16,2.62-3.11,4.43-3.11,2.18,0,4,.78,4.18,3.07Z" transform="translate(0 -2)"/><path class="a" d="M196.13,78.21c0-.84-.37-1.87-1.57-1.87s-1.34,2.47-1.38,3.28.1,3.57,1.42,3.57,1.55-1.17,1.57-2h3c-.1,2.64-1.73,4.08-4.58,4.08-3.07,0-4.62-2.74-4.62-5.48s1.55-5.48,4.62-5.48c2.64,0,4.6,1.5,4.58,3.94Z" transform="translate(0 -2)"/><path class="a" d="M200.58,84.92V70h3.07v5.75l0,0a3.53,3.53,0,0,1,3.17-1.57c1,0,3,.76,3.4,2.27a7.07,7.07,0,0,1,.21,1.65v6.74h-3.09V78.7c0-1.11-.33-2.37-1.85-2.37-1,0-1.81.87-1.85,2.37v6.22Z" transform="translate(0 -2)"/><path class="a" d="M216.33,70V72.7H213V70Zm-.1,4.53V84.92h-3.09V74.58Z" transform="translate(0 -2)"/><path class="a" d="M224.36,78.21c0-.84-.37-1.87-1.57-1.87s-1.34,2.47-1.38,3.28.1,3.57,1.42,3.57,1.55-1.17,1.57-2h3c-.1,2.64-1.73,4.08-4.58,4.08-3.07,0-4.62-2.74-4.62-5.48s1.55-5.48,4.62-5.48c2.64,0,4.6,1.5,4.58,3.94Z" transform="translate(0 -2)"/><path class="a" d="M228.82,84.92V70h3.07v5.75l0,0a3.53,3.53,0,0,1,3.17-1.57c1,0,3,.76,3.4,2.27a7.11,7.11,0,0,1,.21,1.65v6.74h-3.09V78.7c0-1.11-.33-2.37-1.85-2.37-1,0-1.81.87-1.85,2.37v6.22Z" transform="translate(0 -2)"/><path class="a" d="M242.15,74.58v-2l3.09-1.11v3.15h2.33v2.06h-2.33v4.8c0,1.36.21,1.73,1.28,1.73.33,0,.66,0,1-.06v1.81a11.54,11.54,0,0,1-2.43.31c-2.41,0-2.93-1.26-2.93-3.5V76.64h-2.08V74.58Z" transform="translate(0 -2)"/><path class="a" d="M252.47,70V84.92h-3.09V70Z" transform="translate(0 -2)"/><path class="a" d="M258.3,70V72.7H255V70Zm-.1,4.53V84.92h-3.09V74.58Z" transform="translate(0 -2)"/><path class="a" d="M266.34,78.21c0-.84-.37-1.87-1.57-1.87s-1.34,2.47-1.38,3.28.1,3.57,1.42,3.57,1.55-1.17,1.57-2h3c-.1,2.64-1.73,4.08-4.58,4.08-3.07,0-4.62-2.74-4.62-5.48s1.55-5.48,4.62-5.48c2.64,0,4.6,1.5,4.58,3.94Z" transform="translate(0 -2)"/><path class="a" d="M270.79,84.92V70h3.07v5.75l0,0a3.53,3.53,0,0,1,3.17-1.57c1,0,3,.76,3.4,2.27a7.07,7.07,0,0,1,.21,1.65v6.74h-3.09V78.7c0-1.11-.33-2.37-1.85-2.37-1,0-1.81.87-1.85,2.37v6.22Z" transform="translate(0 -2)"/><path class="a" d="M286.08,80.58c0,1.34.19,2.6,1.77,2.6a1.69,1.69,0,0,0,1.9-1.34h2.78c-.27,2.56-2.27,3.4-4.68,3.4-3.54,0-5-2-5-5.46,0-3.11,1.81-5.5,5-5.5a4.44,4.44,0,0,1,4.41,2.47,5.64,5.64,0,0,1,.52,1.85,15.54,15.54,0,0,1,.08,2Zm3.59-2.06c0-1.13-.31-2.18-1.81-2.18s-1.73,1.05-1.77,2.18Z" transform="translate(0 -2)"/><path class="a" d="M300,77.34c0-.7-.7-1-1.4-1s-1.24.25-1.24.93c0,1.63,5.91.7,5.91,4.58,0,2.27-2.76,3.4-4.68,3.4-2.41,0-4.51-.95-4.55-3.32h2.86c.06.8.78,1.26,1.69,1.26s1.48-.35,1.48-1.15-1.48-1.17-2.1-1.32c-2-.47-3.81-.91-3.81-3.32,0-2.16,2.62-3.11,4.43-3.11,2.18,0,4,.78,4.18,3.07Z" transform="translate(0 -2)"/><path class="a" d="M310.94,84.92V70h9.6v2.47h-6.41V76.1h6v2.47h-6v6.35Z" transform="translate(0 -2)"/><path class="a" d="M326.89,85.23c-3.38,0-5.4-2.23-5.4-5.48s2-5.48,5.4-5.48,5.4,2.23,5.4,5.48S330.27,85.23,326.89,85.23Zm0-2.06c1.9,0,2.21-1.77,2.21-3.42s-.31-3.42-2.21-3.42-2.21,1.77-2.21,3.42S325,83.17,326.89,83.17Z" transform="translate(0 -2)"/><path class="a" d="M337.09,74.58l.06,1.88h0c.66-1.63,2-2,3.52-2V77.2h-1.34a2.23,2.23,0,0,0-1.5.76,3.7,3.7,0,0,0-.41,1.83v5.13h-3.07l0-8.28c0-.43-.06-1.3-.1-2.06Z" transform="translate(0 -2)"/><path class="a" d="M348.46,83.65a3.6,3.6,0,0,1-3.19,1.59c-1,0-3-.78-3.4-2.29a7.08,7.08,0,0,1-.21-1.65V74.58h3.09v6.2c0,1.11.33,2.39,1.85,2.39,1,0,1.81-.89,1.85-2.39v-6.2h3.09v8.49q0,.93.12,1.85h-3.09Z" transform="translate(0 -2)"/><path class="a" d="M357.43,75.79h0a3.59,3.59,0,0,1,3.17-1.52,3.9,3.9,0,0,1,3.3,2,4,4,0,0,1,3.5-2,3.9,3.9,0,0,1,3.3,2A6.3,6.3,0,0,1,371,78.7v6.22H368V78.7c0-1.11-.33-2.37-1.85-2.37-1,0-1.81.87-1.85,2.37v6.22h-3.09V78.7c0-1.11-.33-2.37-1.85-2.37-1,0-1.81.87-1.85,2.37v6.22h-3.09V74.58h3.07Z" transform="translate(0 -2)"/><path class="a" d="M379.58,84.92V70h3.19V82.45h6.45v2.47Z" transform="translate(0 -2)"/><path class="a" d="M393.68,80.58c0,1.34.19,2.6,1.77,2.6a1.69,1.69,0,0,0,1.9-1.34h2.78c-.27,2.56-2.27,3.4-4.68,3.4-3.54,0-5-2-5-5.46,0-3.11,1.81-5.5,5-5.5a4.44,4.44,0,0,1,4.41,2.47,5.64,5.64,0,0,1,.52,1.85,15.54,15.54,0,0,1,.08,2Zm3.59-2.06c0-1.13-.31-2.18-1.81-2.18s-1.73,1.05-1.77,2.18Z" transform="translate(0 -2)"/><path class="a" d="M405.59,70V72.7h-3.3V70Zm-.1,4.53V84.92h-3.09V74.58Z" transform="translate(0 -2)"/><path class="a" d="M410.93,75.77h0a3.5,3.5,0,0,1,2.76-1.5c3.21,0,4.84,2.7,4.84,5.48s-1.42,5.48-4.45,5.48A3.39,3.39,0,0,1,411,83.46h0v5.42h-3.09V76.64c0-.68-.06-1.38-.1-2.06h3.13Zm2.23,7.4c2,0,2.23-1.83,2.23-3.42s-.25-3.42-2.23-3.42c-1.67,0-2.23,2-2.23,3.42S411.48,83.17,413.15,83.17Z" transform="translate(0 -2)"/><path class="a" d="M420.12,84.92V82.86l5.69-6.22h-5.54V74.58h8.53v2.06l-5.69,6.22H429v2.06Z" transform="translate(0 -2)"/><path class="a" d="M434.21,70V72.7h-3.3V70Zm-.1,4.53V84.92H431V74.58Z" transform="translate(0 -2)"/><path class="a" d="M446.74,84c0,2.41-.54,5-5.07,5-2.29,0-4.74-.56-4.8-3.34h2.93c0,.93.87,1.28,1.71,1.28,2.35,0,2.27-2.14,2.14-3.65h0a3.27,3.27,0,0,1-2.91,1.42c-2.8,0-4.25-2.64-4.25-5.15s1.5-5.3,4.39-5.3a2.69,2.69,0,0,1,2.76,1.5h0v-1.2h3.09Zm-5.09-1.34c1.69,0,2-1.73,2-3.07,0-1.53-.31-3.26-2-3.26s-2,1.73-2,3.26C439.65,80.93,440,82.66,441.65,82.66Z" transform="translate(0 -2)"/></svg>