<svg xmlns="http://www.w3.org/2000/svg" viewBox="0 0 141.33 64.53"><defs><style>.a,.f{fill:#fff;}.a{stroke:#fff;stroke-width:0.01px;}.b{fill:#ffed00;stroke:#ffed00;}.b,.c,.d{stroke-width:0.15px;}.c,.d{fill:#e30613;stroke:#e30613;}.d{stroke-miterlimit:3.86;}.e,.g{fill:#1d1d1b;}.g{fill-rule:evenodd;}.h{fill:#b71e3f;}</style></defs><title>5_SGD_Nord</title><path class="a" d="M25.29,18.16A4.27,4.27,0,1,1,21,14,4.17,4.17,0,0,1,25.29,18.16Z" transform="translate(-0.71 -0.72)"/><path class="b" d="M16,25c.08.07,0,.2.13.27a1,1,0,0,1,.41.38.4.4,0,0,0,0-.18c0-.28-.29-.34-.38-.56a.12.12,0,0,1,0-.15c.1-.17-.1-.29,0-.47s.21.21.38.15v-.16c-.16-.19-.08-.51-.08-.74.11,0,0-.15.05-.23s-.06,0-.1,0-.13.2-.23.15.1-.24.15-.35,0-.09,0-.13a.19.19,0,0,0-.21.06c-.07,0-.11.09-.18,0s.06-.16.12-.22-.06-.27-.06-.4a3.76,3.76,0,0,0-.45-.11.43.43,0,0,1-.11,0,5,5,0,0,0-1-.09l-.1.2c-.1.12-.25.1-.38.16s-.16,0-.21.09a.08.08,0,0,0,0,.11s.06-.11.13-.08a.2.2,0,0,1,.16.11.21.21,0,0,1,0,.14c-.08.06-.16,0-.21-.05s0,.2,0,.29a.74.74,0,0,0,.32,0,4.57,4.57,0,0,1,.63.24c.06,0,.11.14.18.13s-.05,0-.06-.08,0-.05,0-.07.09,0,.12,0a.31.31,0,0,1,.17.29c0,.15,0,.29-.19.35s0-.1,0-.18,0,0-.06,0-.14-.3-.29-.31a.68.68,0,0,1,.24.57.38.38,0,0,1-.15.18,1.58,1.58,0,0,1-.64,0c.07-.18.34,0,.43-.16-.18,0-.32,0-.5,0s-.08-.12-.17-.09,0,.15-.06.25.23.1.39.11.09.1.09.17a.34.34,0,0,1-.05.19l-.34.05s-.05.09-.11.09c-.25-.07-.45.14-.68.2h-.4c-.08,0-.07-.13-.15-.14a.7.7,0,0,1-.49.61.05.05,0,0,1-.06,0s0-.08.09-.08.34-.27.3-.46-.21-.2-.26-.34-.08-.66.19-.82a.31.31,0,0,0,.07-.29.53.53,0,0,1-.11-.17L12,23.35h0a.18.18,0,0,1-.05.09.62.62,0,0,1-.21.07c-.12,0-.27,0-.29-.25h0l0,0a.15.15,0,0,1-.12.09.39.39,0,0,1,0,.35.27.27,0,0,1-.25.16H11l-.05.09h0a.07.07,0,0,1,0,0,.12.12,0,0,1-.06.14c.16.1.12.32.13.51s0,.25-.1.3a1,1,0,0,0-.34,0c-.12,0-.14.16-.21.25l.1.07a.16.16,0,0,1,0,.14.14.14,0,0,0,.15,0c.1,0,.14-.2.28-.17a.16.16,0,0,1,.06.12.77.77,0,0,1-.32.38c.17.08.27-.16.43-.1,0,.13-.16.22-.22.35l-.31.16a.38.38,0,0,0,.18,0c.23.05.41-.14.53-.3s.08,0,.11,0c.06.22-.12.39-.28.5a1.21,1.21,0,0,1-.55.11s0,.07,0,.09c.43.14.72-.25,1-.48.07,0,.14-.15.22-.09l-.3.63a1.37,1.37,0,0,1-1.06.85c-.36.13-.59-.23-.89-.31a.21.21,0,0,0,.06.14,1.38,1.38,0,0,0,1.39.2c.59-.2.69-.88,1.06-1.3l.1-.07a.22.22,0,0,1,.18,0s0,.06,0,.07c-.21,0-.3.26-.41.41s-.2.48-.26.74a1.09,1.09,0,0,0,.56-.36s.08,0,.09,0a1.28,1.28,0,0,0-.13.3c.09,0,.13-.09.2-.15s.41-.09.59,0a.43.43,0,0,0,.35-.28s.05-.06.09,0a.24.24,0,0,1,0,.14.51.51,0,0,1-.3.27c-.2.15-.37-.14-.56,0,0,.05.09.09.06.16a.29.29,0,0,0,.27.2.87.87,0,0,0,.4-.18c.12-.08.13-.32.29-.26s.05.31.18.41a.38.38,0,0,0,.44-.15c.37-.44.51-1,.9-1.4.08-.08.12-.23.26-.26s0,0,0,0c0,.21-.21.34-.31.51s0,.42.13.59V27a1.15,1.15,0,0,0-.11.22l.18,0a.33.33,0,0,0,.21-.24c.09-.16,0-.35.07-.49a.81.81,0,0,0-.05-.49s0-.08.06-.08c.22.11.14.39.26.57,0,0,.06,0,.09,0a.52.52,0,0,0,0-.49.37.37,0,0,1,.13-.34c.1,0,.07.16.1.22a.44.44,0,0,0,.19.22c.05-.06,0-.15,0-.22-.06-.27-.35-.35-.43-.6C15.94,25.15,15.87,25,16,25Z" transform="translate(-0.71 -0.72)"/><path class="b" d="M13.88,23.36v0s.13,0,.11.06,0,0-.06.06A.08.08,0,0,1,13.88,23.36Z" transform="translate(-0.71 -0.72)"/><path class="b" d="M14.12,23.33c.06,0,.15,0,.19.08s0,.07-.09.08a.12.12,0,0,1-.13,0S14.08,23.35,14.12,23.33Z" transform="translate(-0.71 -0.72)"/><path class="b" d="M14.42,23.45s.1,0,.09,0v0C14.46,23.53,14.45,23.46,14.42,23.45Z" transform="translate(-0.71 -0.72)"/><path class="b" d="M15.68,30.51c-.05-.12,0-.25-.15-.34a1.34,1.34,0,0,0-.24-.22l0,0a.41.41,0,0,1,.09.27c0,.07.11.15.08.22s-.11,0-.15-.05-.12-.22-.12-.33h0c-.12,0,0,.11-.05.18s.12.23.15.38-.06,0-.09,0a.46.46,0,0,1-.23-.44h0s-.07,0-.09.08a.55.55,0,0,1,.11.32c0,.07.09.13,0,.18s-.14-.06-.2-.11,0-.25-.09-.36a.49.49,0,0,0-.22,0c-.18-.06-.41,0-.61-.06a.68.68,0,0,0-.44.33s-.09.11-.15.07-.12,0-.2-.05c-.26-.19-.54.06-.75.2s-.16.08-.22,0-.08-.1,0-.15,0,0,0,0-.09,0-.11.09.06.14.11.21a.63.63,0,0,0,.46,0c.06-.11.19,0,.23-.15a.12.12,0,0,1,.13.07c-.05.13,0,.23.06.34s-.32.21-.4.39a.36.36,0,0,0,.09.39c0,.11.16.25.06.35s-.6.11-.87.25-.22.24-.35.35-.19,0-.2-.07a.43.43,0,0,1-.28-.22l-.25.06c.11.08,0,.22,0,.33s-.19.26-.34.24l.1.34a.29.29,0,0,1,.31.08.31.31,0,0,1,.1.3h0l.18.26h0c.08,0,.1-.15.21-.1a2.44,2.44,0,0,0,.3-.09c.09,0,.16,0,.23.07S11.92,34,12,34s-.06.24,0,.4a.23.23,0,0,0,.21-.09c.13-.09.15-.31.34-.26s0,.19,0,.29a.37.37,0,0,0,0,.37.44.44,0,0,0,.17-.23,5.35,5.35,0,0,1,.32-.66.06.06,0,0,1,.09,0c0,.06,0,.08-.06.11a.83.83,0,0,0-.1.6H13c.19-.12.18-.35.27-.53a.32.32,0,0,1,.12-.19c.12,0,0,.13,0,.2a.39.39,0,0,0,.08.38c.13-.09.12-.29.11-.43a.83.83,0,0,1,.31-.77.29.29,0,0,1-.12-.14,3.92,3.92,0,0,1,0-1.1c0-.07,0-.18.08-.23.09.22,0,.52.1.74,0,0,0,0,0,0,.16-.27.07-.55.14-.85,0,0,0-.12.1-.11s.06.2.06.29c.13-.2.36-.27.53-.4a1.14,1.14,0,0,0,.48-.25.53.53,0,0,0,.39-.25C15.72,30.76,15.71,30.63,15.68,30.51Z" transform="translate(-0.71 -0.72)"/><path class="b" d="M21.19,29.61c-.09-.15-.22-.31-.42-.28-.51.13-.81.72-1.31.86-.09,0-.22,0-.28-.11s0-.16.09-.21c.28-.18.29-.53.54-.73s.47-.27.42-.53c-.14.16-.35.18-.5.32s-.15.21-.26.23-.11,0-.12-.06a1.43,1.43,0,0,1,0-.6c0-.34.34-.57.41-.89-.15.18-.37.25-.5.45a1.18,1.18,0,0,0-.09.44c0,.05,0,.06-.08.05a.5.5,0,0,1-.19-.28,3.75,3.75,0,0,1,0-.95c.08-.34.26-.63.34-1a.51.51,0,0,0-.13.13c0,.21-.21.35-.31.53s0,.34-.17.46-.07,0-.1,0a.85.85,0,0,1-.26-.89,1.35,1.35,0,0,1,.22-.73.4.4,0,0,0,0-.28.37.37,0,0,0-.2.21c-.15.2-.12.46-.27.66,0,0-.09,0-.13,0a2,2,0,0,1-.24-.84c0-.1,0-.22,0-.31a2.21,2.21,0,0,1,.34-1.37c-.15,0-.2.25-.34.21s0-.19,0-.3a1.9,1.9,0,0,0-.11-1.11c-.06-.13-.12-.29-.27-.34a3.17,3.17,0,0,1,.15.52,2.05,2.05,0,0,1,0,.71c-.08.21-.22-.1-.34-.07a3.3,3.3,0,0,1,.11.45c.13.51-.12,1,0,1.5a4.44,4.44,0,0,0,.45,1.82,5.21,5.21,0,0,1,1,2.4.59.59,0,0,1-.37.46.85.85,0,0,1-.59.07,5.73,5.73,0,0,0-1.55-2.36c-.2-.23-.54-.29-.67-.57a1.21,1.21,0,0,1-.34.11c-.07,0-.16,0-.23-.07s0-.17.06-.27,0-.33-.12-.47a.34.34,0,0,0-.08.09c-.08.32-.4.52-.47.86a.56.56,0,0,1-.42.24.43.43,0,0,1-.38-.17c0-.06,0-.16-.11-.19a.73.73,0,0,1-.4.27c-.15.08-.27,0-.4-.06s-.1-.11-.16-.15a1.62,1.62,0,0,1-.62.42c-.5.07-1,.26-1.45.34a1.91,1.91,0,0,0-.74.11,1,1,0,0,1-.66-.21A.16.16,0,0,1,8.85,28l-.25.05a.39.39,0,0,1,0,.19.57.57,0,0,1-.26.22.29.29,0,0,1-.26-.08h0l0,.28c.14.05.18.23.2.35h0l.21.27c0-.07.05-.1.11-.14a.8.8,0,0,1,.78.12,1.33,1.33,0,0,1,.07.22c.08,0,.15,0,.24,0a1.12,1.12,0,0,1-.16.39c.07,0,.08.1.15,0s.3-.38.41-.58a.06.06,0,0,1,.09,0c0,.14.22,0,.28.11s-.08.27,0,.39.28-.28.48-.35c.05,0,0,.07,0,.09a.48.48,0,0,0,0,.38,1.07,1.07,0,0,0,.16-.3c.08-.25.36-.31.56-.42.23.09,0,.26,0,.4s0,.07,0,.06a.63.63,0,0,0,.14-.22c.09-.14.09-.4.31-.41s0,.28.08.43a.23.23,0,0,0,.08.1c.17-.2.21-.45.4-.62s.14,0,.2,0,0,.37-.08.51-.08.16-.05.24a.32.32,0,0,0,.17-.2c.1-.21.11-.46.3-.63s.19.14.28.19c.19-.15.28-.37.45-.52a.22.22,0,0,1,.27,0c.2.47.7.53,1.05.78a2.45,2.45,0,0,1,.65,1.43s0,0,.08,0,.1-.05.11-.11,0-.24.19-.21.06.13.09.19,0,.41-.07.59-.29.16-.4.33a.84.84,0,0,1,.09.9c-.13.24-.46.24-.55.49a3.83,3.83,0,0,0,.48-.11c.16,0,.12-.21.2-.28s0,.16,0,.24.07-.05.1,0a4.93,4.93,0,0,1,.32,1c0,.11-.07.15-.16.2a.36.36,0,0,1-.14.24c-.07.07-.2,0-.28,0l-.35.22h0c0,.09.08.15.12.21s0,.15,0,.24l.07.13a.51.51,0,0,1,.39.07c.16.1.1.33.08.44l0,0,.15.08c.05-.11.2-.08.3-.11s.1-.15.16-.23.09-.39.12-.59,0-.2.14-.23a.17.17,0,0,1,.08.15c0,.06,0,.15,0,.22a.58.58,0,0,1,.33.06.37.37,0,0,1,.18.34c.09-.12.08-.32.18-.45s.07,0,.1,0,.18.32.33.37c.06-.18-.11-.3-.2-.44s-.15-.25,0-.38.25.17.3.3.1.19.21.18l0-.09c0-.09.1,0,.17,0a.54.54,0,0,0,0-.24c0-.2-.23-.22-.27-.4s.08-.12.15-.13.38,0,.55.08,0-.09,0-.12-.3-.17-.47-.15-.12,0-.11-.07.12-.09.18-.11.41.09.56-.07c0-.05-.14,0-.13-.11s.28-.14.28-.28c-.09.07-.21,0-.33,0s-.32.26-.53.26a.07.07,0,0,1-.09,0c.1-.14.28-.09.37-.24A.57.57,0,0,0,19,33a1.24,1.24,0,0,1-.32,0s-.09,0-.08-.06.23-.12.31-.25l.23,0a.86.86,0,0,1,.51.07c.12-.05.33-.08.33-.26-.08,0-.12,0-.19,0l0-.13c-.08,0-.14.06-.21.08-.31.14-.52-.17-.79,0a1.24,1.24,0,0,1-.44.38c-.18,0-.37.17-.52,0a.45.45,0,0,1-.09-.21c0-.22.09-.45.16-.66s-.13-.59-.14-.91a.28.28,0,0,1,.23-.15,2.06,2.06,0,0,1,.23,0c.12,0,.16.15.22.24s0,.14.12.17a4.51,4.51,0,0,0,.12-.5c.14-.24.23.15.36.16.05-.16.08-.38.29-.4a1.46,1.46,0,0,0,.79-.37c.29-.16.5-.55.83-.58a.32.32,0,0,1,.2.13c0,.12-.06.19-.12.27A.25.25,0,0,0,21,30a.17.17,0,0,0,.09,0C21.13,29.87,21.23,29.78,21.19,29.61Z" transform="translate(-0.71 -0.72)"/><path class="b" d="M15.54,11c.54,0,1,0,1.55,0,.25,0,.48.05.73,0s.8,0,1.2.07l0,0a7.74,7.74,0,0,1,.9.08c.38,0,.72.09,1.09.11,1.54.19,3.13.44,4.66.76l.15,0a2.14,2.14,0,0,1,.46.12.27.27,0,0,1,.07.2.28.28,0,0,1-.31.14c-1.2-.28-2.5-.5-3.75-.67-.59-.07-1.17-.16-1.76-.22s-1.11-.12-1.65-.15l-1-.07c-.59,0-1.21,0-1.79-.08-.87,0-1.78,0-2.66,0-.27,0-.46,0-.73,0-.42,0-.84,0-1.24,0-.1,0-.23,0-.34,0-.37,0-.74,0-1.1.08-1.19.07-2.33.21-3.48.37-.12.05-.27,0-.38.07l-.24,0c-.17.06-.38,0-.54.1-.61.08-1.23.2-1.85.32-.13.06-.25,0-.38.08s-.53.1-.8.16a.18.18,0,0,1-.17-.09s0-.11,0-.15.3-.12.45-.19c1.08-.23,2.15-.44,3.23-.6.28,0,.56-.08.83-.12,1-.15,2-.29,3-.34.45-.06.89-.1,1.35-.12.21,0,.45,0,.66,0s.27,0,.38,0C13.29,11,14.36,11,15.54,11Z" transform="translate(-0.71 -0.72)"/><path class="b" d="M27.32,7.46c-.07,0-.12.09-.18.07,0-.21,0-.44-.06-.62s0-.16-.12-.13c-.25.14-.37.39-.55.57a.89.89,0,0,0-.54-.13l-.06.06.09,0c.12.11.27.22.24.41A.71.71,0,0,1,26,8c0,.08-.12.07-.18.12a.58.58,0,0,1-.43,0,.37.37,0,0,1-.13-.23c-.18,0-.17.17-.23.32a2.13,2.13,0,0,0-.54.2c-.07.07-.18.1-.19.21a.87.87,0,0,0,.47.36s.08,0,.05.08-.29.13-.33.27.08,0,.12,0a1,1,0,0,1,.52.32.7.7,0,0,1,.07.54.83.83,0,0,1-.54.42c-.13,0-.23.08-.35,0a2,2,0,0,1-.62-.14l-.27-.18a.69.69,0,0,1-.27-.6.44.44,0,0,1,.38-.41s.14,0,.13-.06a.46.46,0,0,0-.27-.18,1,1,0,0,0-.16-.7s-.06-.1-.11-.1a1,1,0,0,0-.27.4c-.06.1-.22,0-.32.08s-.18.07-.16.15.24.11.27.23a.77.77,0,0,1-.25.8,1.13,1.13,0,0,1-1.1.23.73.73,0,0,1-.52-.55.75.75,0,0,1,.31-.7.62.62,0,0,1,.55,0l0-.1c0-.14-.09-.21-.18-.32a1.66,1.66,0,0,0,.6-.42,1.19,1.19,0,0,0-.53-.6l.09-.09c0-.05,0-.16,0-.18s0,0,0,0c-.15.1-.32.2-.48.09a.49.49,0,0,1-.21-.26A.46.46,0,0,1,21,6.77c.1-.1.29,0,.4,0a.85.85,0,0,0-.49-.34,1,1,0,0,0-.24-.72h0a2.37,2.37,0,0,0-.64.69c-.07.08-.14,0-.21,0a.27.27,0,0,0-.26.06c.12.05.32,0,.39.17a.43.43,0,0,1-.32.64.76.76,0,0,1-.44-.07c-.06.05-.07.13-.1.19s.09.13.07.21l-.35.08c-.1.07-.27.08-.29.21a1.75,1.75,0,0,0,.45.6c0,.06-.11.06-.13.12s-.11.09-.13.14h.3a.58.58,0,0,1,.42.48.75.75,0,0,1-.39.67,1.13,1.13,0,0,1-1.2,0,.59.59,0,0,1-.26-.6c.06-.22.2-.47.45-.5,0-.09-.1-.1-.17-.11s-.1.05-.15,0A1.79,1.79,0,0,0,17.43,8h0a1.34,1.34,0,0,0-.15.36c-.05.09,0,.21-.11.29l-.13,0a.38.38,0,0,0-.38.11l.15.11a.58.58,0,0,1,.11.52,1,1,0,0,1-.79.56,1.4,1.4,0,0,1-.57,0,.63.63,0,0,1-.42-.55A.68.68,0,0,1,16,8.56l0,0a.89.89,0,0,0-.17-.38c.25-.12.59-.24.68-.54a1,1,0,0,0-.29-.38c-.05-.08-.17-.07-.21-.15a.44.44,0,0,0,.14-.34c0-.05,0-.13-.1-.15a.92.92,0,0,1-.48.44.43.43,0,0,1-.34,0,.56.56,0,0,1-.26-.41.63.63,0,0,1,.35-.42c.08,0,.13,0,.19,0A.25.25,0,0,0,15.3,6a.61.61,0,0,0-.42,0,2.22,2.22,0,0,0-.57-.8h0a1.62,1.62,0,0,0-.42.54c-.07.1-.11.28-.21.35a.4.4,0,0,0-.45,0c.21.11.5.25.5.54a.46.46,0,0,1-.22.35A.59.59,0,0,1,12.82,7c-.05-.05-.09-.15-.15-.17a.58.58,0,0,0-.08.21c0,.07,0,.17,0,.23-.21.06-.45.13-.5.38a1,1,0,0,0,.44.4c.09.05.21,0,.28.11s-.07,0-.1.09-.1.12-.08.17.08,0,.12,0a.72.72,0,0,1,.68.37.7.7,0,0,1,0,.71c0,.08-.11.11-.14.19a1.42,1.42,0,0,1-1.41.22.78.78,0,0,1-.36-.51c-.08-.27.11-.47.28-.66a.51.51,0,0,0-.45-.07,1,1,0,0,0-.25-.55,1.65,1.65,0,0,0-.25.58c-.1,0-.26,0-.32.07s.13.08.18.13.25.25.2.45a.85.85,0,0,1-.44.6,1,1,0,0,1-1.14,0,.61.61,0,0,1-.25-.62.37.37,0,0,1,0-.11.93.93,0,0,1,.67-.64l0,0a.65.65,0,0,0-.21-.24l.22-.08c.21-.08.33-.17.35-.4a.46.46,0,0,0-.24-.24,1,1,0,0,0-.39-.08A.5.5,0,0,0,9.31,7,.43.43,0,0,1,8.82,7a.42.42,0,0,1-.18-.26c0-.25.06-.41.29-.47,0,0-.07,0-.07,0a.25.25,0,0,0-.3.08c-.05,0,0,0-.11,0l0-.18c-.11-.14-.21-.33-.38-.4a2.62,2.62,0,0,0-.47,1l0,0a.42.42,0,0,0-.4-.05c-.06,0-.09,0-.08.07a.89.89,0,0,1,.46.34.41.41,0,0,1-.13.44c-.17.16-.48.07-.65,0-.06.09,0,.18.06.27l0,0a.46.46,0,0,0-.29.1c-.07.08-.19.13-.19.25a1.09,1.09,0,0,0,.47.46c.12.06.27.06.37.14a.12.12,0,0,1-.06,0c-.07,0-.17.1-.15.2.26,0,.55,0,.72.22a.51.51,0,0,1,.09.4.81.81,0,0,1-.53.63,1.15,1.15,0,0,1-1,0,.69.69,0,0,1-.34-.69.5.5,0,0,1,.29-.37S6.07,9.18,6,9.19a.19.19,0,0,0-.21,0,.17.17,0,0,1-.11,0c0-.1-.08-.21-.11-.32s-.14-.29-.29-.35a.72.72,0,0,0-.11.34c0,.08,0,.15,0,.24s0,.09,0,.1a.48.48,0,0,0-.38,0c-.07,0-.14.09-.14.15A.9.9,0,0,1,5,9.58a.62.62,0,0,1,.17.63,1.2,1.2,0,0,1-.86.63,1,1,0,0,1-1.14-.37.92.92,0,0,1,.11-.88c.17-.21.42-.18.67-.18,0-.09,0-.16-.05-.24S3.74,9,3.75,8.89H4a.41.41,0,0,0,.37-.36,1,1,0,0,0-.7-.39.6.6,0,0,0-.31-.45c0,.05,0,.1,0,.16a.59.59,0,0,1-.5.38.47.47,0,0,1-.5-.2c-.11-.15,0-.42,0-.56s.15-.17.25-.25c-.19-.09-.34,0-.5.11-.15-.2-.23-.43-.5-.53a.64.64,0,0,0-.16.5s-.08,0-.12,0-.14,0-.16.08a1.55,1.55,0,0,1,.23.29A1.17,1.17,0,0,1,1.42,8a3.46,3.46,0,0,1,0,.73c0,.12,0,.26,0,.36a1.26,1.26,0,0,0,.5,1,1.63,1.63,0,0,1,.83.86l.4.41v0l-.41.44c0,.05-.05.13,0,.18.72-.13,1.42-.3,2.15-.41s1.18-.2,1.77-.28c.28,0,.55-.1.84-.12.6-.11,1.25-.12,1.84-.21.12,0,.28,0,.39,0s.52,0,.79-.06c.55,0,1.1-.08,1.67-.09a3.37,3.37,0,0,1,.51,0c.21,0,.41,0,.61,0,.44,0,.89,0,1.31,0a.56.56,0,0,0,.27,0c.7,0,1.34,0,2,0,.15,0,.34,0,.49,0,.59,0,1,0,1.64.09a8.9,8.9,0,0,0,1,.08l1.62.18,0,0c.63.09,1.2.15,1.82.27s1.33.24,2,.34c.13.08.3,0,.44.1.07-.18-.18-.28-.27-.41a.36.36,0,0,1-.14-.16,2.58,2.58,0,0,1,.4-.43.93.93,0,0,1,.14-.46c.29-.48.93-.67,1-1.29.07-.29,0-.61.11-.88a1.59,1.59,0,0,1,.48-.74A.21.21,0,0,0,27.32,7.46Z" transform="translate(-0.71 -0.72)"/><path class="b" d="M15.37,9.21s-.08,0-.08,0a.6.6,0,0,1,0-.16S15.4,9.15,15.37,9.21Z" transform="translate(-0.71 -0.72)"/><path class="b" d="M13.35,9.25v0s-.05,0-.08,0l.06-.16A.13.13,0,0,1,13.35,9.25Z" transform="translate(-0.71 -0.72)"/><path class="b" d="M19.21,9.13c0,.05,0,.12,0,.13A.07.07,0,0,1,19.21,9.13Z" transform="translate(-0.71 -0.72)"/><path class="b" d="M16.68,9.43s0,0-.05,0l.13-.17A.29.29,0,0,1,16.68,9.43Z" transform="translate(-0.71 -0.72)"/><path class="b" d="M9.36,9.34a.46.46,0,0,1,.09.2l-.09.07a.34.34,0,0,1-.06-.33l0,0A.09.09,0,0,1,9.36,9.34Z" transform="translate(-0.71 -0.72)"/><path class="b" d="M15.59,9.46c0,.05,0,.12-.08.14a.24.24,0,0,1-.17-.21.24.24,0,0,1,.1-.07A.78.78,0,0,1,15.59,9.46Z" transform="translate(-0.71 -0.72)"/><path class="b" d="M19.14,9.41s0,.1-.09.12,0,0-.06,0,0-.11.1-.13S19.15,9.38,19.14,9.41Z" transform="translate(-0.71 -0.72)"/><path class="b" d="M21,9.59l-.07,0c0-.06,0-.14,0-.21S21,9.53,21,9.59Z" transform="translate(-0.71 -0.72)"/><path class="b" d="M11.82,9.46a.08.08,0,0,1,0,.07s-.1-.12-.06-.17S11.77,9.42,11.82,9.46Z" transform="translate(-0.71 -0.72)"/><path class="b" d="M17.78,9.52l0,0s-.08-.1-.06-.13S17.74,9.49,17.78,9.52Z" transform="translate(-0.71 -0.72)"/><path class="b" d="M13.27,9.47a.23.23,0,0,1-.1.11s-.05,0-.06,0a.44.44,0,0,1,.1-.13A.12.12,0,0,1,13.27,9.47Z" transform="translate(-0.71 -0.72)"/><path class="b" d="M16.54,9.53s0,0-.05.08-.09,0-.11-.06.07-.07.11-.08S16.54,9.5,16.54,9.53Z" transform="translate(-0.71 -0.72)"/><path class="b" d="M10.61,9.65a.11.11,0,0,1-.06-.05.45.45,0,0,1,.16-.18C10.75,9.51,10.65,9.59,10.61,9.65Z" transform="translate(-0.71 -0.72)"/><path class="b" d="M15.92,9.72a.21.21,0,0,1-.21,0c0-.05,0-.13.06-.15l.14,0Z" transform="translate(-0.71 -0.72)"/><path class="b" d="M16.25,9.61c0,.09-.06.09-.12.12s0-.1,0-.14S16.26,9.52,16.25,9.61Z" transform="translate(-0.71 -0.72)"/><path class="b" d="M18.89,9.67s-.06,0-.1,0-.07-.07,0-.11S19,9.6,18.89,9.67Z" transform="translate(-0.71 -0.72)"/><path class="b" d="M12,9.66s0,.07-.05.08-.1,0-.12-.08,0-.08.06-.09S12,9.62,12,9.66Z" transform="translate(-0.71 -0.72)"/><path class="b" d="M18,9.65s0,.11-.05.1-.08,0-.11-.06S18,9.56,18,9.65Z" transform="translate(-0.71 -0.72)"/><path class="b" d="M13,9.67a.15.15,0,0,1-.11.08l0-.07C12.9,9.61,13,9.55,13,9.67Z" transform="translate(-0.71 -0.72)"/><path class="b" d="M18.64,9.73c0,.08-.09,0-.12.09s-.06-.06-.06-.1.06,0,.09-.07S18.63,9.69,18.64,9.73Z" transform="translate(-0.71 -0.72)"/><path class="b" d="M21.24,9.79c0,.06,0,.09-.05.14s-.14-.08-.18-.13.06-.07.08-.11A.46.46,0,0,1,21.24,9.79Z" transform="translate(-0.71 -0.72)"/><path class="b" d="M18.3,9.71v.11c-.06,0-.17,0-.19,0s0-.09,0-.12S18.27,9.65,18.3,9.71Z" transform="translate(-0.71 -0.72)"/><path class="b" d="M9.69,9.73c0,.05,0,.13-.06.15a.23.23,0,0,1-.15-.1c0-.07.06-.08.09-.14S9.67,9.7,9.69,9.73Z" transform="translate(-0.71 -0.72)"/><path class="b" d="M22.37,9.72c-.06.06-.09.16-.17.14l0,0c0-.08.11-.09.15-.16S22.37,9.7,22.37,9.72Z" transform="translate(-0.71 -0.72)"/><path class="b" d="M10.43,9.73c0,.1-.12.1-.18.14a.13.13,0,0,1-.05-.12C10.28,9.75,10.36,9.59,10.43,9.73Z" transform="translate(-0.71 -0.72)"/><path class="b" d="M12.35,9.74v.1a.25.25,0,0,1-.2,0,.16.16,0,0,1,0-.12A.7.7,0,0,1,12.35,9.74Z" transform="translate(-0.71 -0.72)"/><path class="b" d="M12.75,9.76c0,.1-.1.06-.15.09s-.07,0-.07,0,0-.08.07-.1S12.73,9.67,12.75,9.76Z" transform="translate(-0.71 -0.72)"/><path class="b" d="M10,9.76c0,.06.07.17,0,.17s-.14,0-.18,0a.19.19,0,0,1,0-.15Z" transform="translate(-0.71 -0.72)"/><path class="b" d="M21.56,9.92s0,.14-.07.14-.15,0-.13-.09a.25.25,0,0,1,.06-.1S21.53,9.87,21.56,9.92Z" transform="translate(-0.71 -0.72)"/><path class="b" d="M22.11,9.93s0,.06-.08.07,0-.06-.07-.08S22.11,9.85,22.11,9.93Z" transform="translate(-0.71 -0.72)"/><path class="b" d="M5,9.92C5,10,5,9.87,5,9.83l0-.09C5,9.8,5,9.85,5,9.92Z" transform="translate(-0.71 -0.72)"/><path class="b" d="M7.56,9.81c0,.06,0,.12-.07.15s-.06,0,0,0S7.53,9.8,7.56,9.81Z" transform="translate(-0.71 -0.72)"/><path class="b" d="M21.86,10c0,.08-.07,0-.12.06h0s0-.12,0-.15S21.88,9.92,21.86,10Z" transform="translate(-0.71 -0.72)"/><path class="b" d="M23.44,10.05c-.09,0-.07-.07-.09-.12v0C23.41,9.94,23.5,10,23.44,10.05Z" transform="translate(-0.71 -0.72)"/><path class="b" d="M6.17,10s-.07,0-.07,0L6,9.9A.22.22,0,0,1,6.17,10Z" transform="translate(-0.71 -0.72)"/><path class="b" d="M7.33,10.06c0,.08-.12.09-.17.14s-.05,0-.08-.08.13-.07.2-.12S7.32,10,7.33,10.06Z" transform="translate(-0.71 -0.72)"/><path class="b" d="M5.06,10.11s0,.11-.06.14a.26.26,0,0,1-.09-.07s0-.1.08-.13S5.06,10.06,5.06,10.11Z" transform="translate(-0.71 -0.72)"/><path class="b" d="M6.5,10.22a.2.2,0,0,1-.21,0s0-.09,0-.13S6.54,10.07,6.5,10.22Z" transform="translate(-0.71 -0.72)"/><path class="b" d="M23.71,10.19a.08.08,0,0,1,0,.1c-.07,0-.12,0-.18-.07V10.1C23.61,10.06,23.63,10.19,23.71,10.19Z" transform="translate(-0.71 -0.72)"/><path class="b" d="M6.91,10.15c0,.09,0,.13-.08.13s-.15,0-.16,0,0-.12.05-.12S6.88,10.06,6.91,10.15Z" transform="translate(-0.71 -0.72)"/><path class="b" d="M25,10.16c0,.06-.05.15-.12.18S25,10.2,25,10.16Z" transform="translate(-0.71 -0.72)"/><path class="b" d="M3.41,10.34l-.06,0a.31.31,0,0,1,0-.25A.21.21,0,0,1,3.41,10.34Z" transform="translate(-0.71 -0.72)"/><path class="b" d="M24.06,10.37c0,.1-.1.09-.16.06s-.11-.05-.11-.12S24,10.31,24.06,10.37Z" transform="translate(-0.71 -0.72)"/><path class="b" d="M24.71,10.4c0,.07-.06,0-.1.08s-.07,0-.09-.06.12-.06.17-.09Z" transform="translate(-0.71 -0.72)"/><path class="b" d="M4.89,10.37c0,.05,0,.06-.07.09s-.05-.08-.09-.1,0-.07.05-.09A.19.19,0,0,1,4.89,10.37Z" transform="translate(-0.71 -0.72)"/><path class="b" d="M24.41,10.51c-.08,0-.18.06-.22,0s0-.07,0-.1S24.44,10.32,24.41,10.51Z" transform="translate(-0.71 -0.72)"/><path class="b" d="M3.68,10.48c0,.05,0,.19-.13.13s-.09-.08-.05-.13l.06-.09C3.61,10.4,3.68,10.42,3.68,10.48Z" transform="translate(-0.71 -0.72)"/><path class="b" d="M4.64,10.54c0,.06-.09.06-.14.08a.38.38,0,0,1-.07-.17s.16-.1.17,0Z" transform="translate(-0.71 -0.72)"/><path class="b" d="M4.35,10.64a.33.33,0,0,1-.17.05.27.27,0,0,1,0-.2C4.28,10.4,4.34,10.55,4.35,10.64Z" transform="translate(-0.71 -0.72)"/><path class="b" d="M4,10.62a.08.08,0,0,1-.11.08s-.09,0-.11-.06,0-.14.07-.15S4,10.5,4,10.62Z" transform="translate(-0.71 -0.72)"/><path class="c" d="M13.32,23.46c.28.07.53.24.8.34a.78.78,0,0,1,.56.13c-.24.13-.48-.07-.74-.08s-.8-.11-.86-.53a1.4,1.4,0,0,1,0-.5s0,.11,0,.15A.5.5,0,0,0,13.32,23.46Z" transform="translate(-0.71 -0.72)"/><path class="c" d="M15.13,21.22c.1-.07.2.07.28,0a.1.1,0,0,1,.09-.07l.05.14s.09.07.13,0l.12,0c0,.13-.16.24-.08.38s.12.23.25.17a.72.72,0,0,1,.24-.12s0,0,0,0a.2.2,0,0,1,0-.06c.07,0,0-.13.09-.12s0,.15.11.19h.2c0,.06-.07.1-.11.14l-.05,0a2.86,2.86,0,0,0-.42.37,1.4,1.4,0,0,1-.47-.07,6.79,6.79,0,0,0-.87-.11c-.09,0-.21,0-.25,0s0-.08,0-.12,0-.11-.05-.23-.08-.07-.07-.11,0-.09-.06-.11c.13.05.24-.13.31-.11a.28.28,0,0,0,.12.28s.06,0,.05.05.16.11.25,0a.31.31,0,0,0,.23-.29C15.14,21.36,15.17,21.25,15.13,21.22Z" transform="translate(-0.71 -0.72)"/><path class="c" d="M11.49,23c0-.14-.22,0-.26-.11s0-.08-.08-.07,0,.08,0,.11,0,0,0,0-.14.15-.16.21,0,0,0,0,0,0,0,0l0,0c.06,0,0,.05.11,0h0c.05,0,.12,0,.15,0l0,0s.07-.11.14-.1.09,0,.08.08h0l0,0C11.4,23.1,11.48,23.11,11.49,23Z" transform="translate(-0.71 -0.72)"/><path class="c" d="M11,23.83l0,0,0,0,0,0,0,0-.06-.06s0,0,0,0l0,0-.06.07a.09.09,0,0,1-.07.05h-.1l-.11,0s0,0,0,0,0,0,0,0,0,0,0,0,.06,0,.08.06a.17.17,0,0,1,0,0,.14.14,0,0,1,0,0,.3.3,0,0,0,0,.1.08.08,0,0,0,.07.06h0l0,0,.08,0a.23.23,0,0,1,.08,0s.1,0,.09,0h0a0,0,0,0,1,0,0,.07.07,0,0,1,0-.05l0,0,0,0,0,0h0l.05-.09Z" transform="translate(-0.71 -0.72)"/><path class="c" d="M12.28,23.41l.13-.18c0-.07-.08-.09-.14-.13s0-.13,0-.2-.06-.1-.11-.09-.09.2-.18.26,0,0,0,.07,0,0,0,.05a.32.32,0,0,1,0,.16l.31.06Z" transform="translate(-0.71 -0.72)"/><path class="c" d="M10.83,34.07a.32.32,0,0,1-.18.27l-.15,0c-.08.07,0,.16,0,.24h0c0,.09-.1.21,0,.26s.17-.26.35-.27l.16.09s0,0,0-.06a.37.37,0,0,1,0-.25l-.18-.26Z" transform="translate(-0.71 -0.72)"/><path class="c" d="M10.93,32.73c0-.05,0-.13,0-.16a.21.21,0,0,0-.09-.18.57.57,0,0,0-.27.07s-.07-.05-.06-.06,0-.06-.05,0h0l0,0,0,.14s-.05,0-.05.09a.28.28,0,0,1-.1.08c0,.11.22,0,.31.1h0l.25-.06Z" transform="translate(-0.71 -0.72)"/><path class="c" d="M10.33,33.35c-.1,0-.06-.2-.2-.17a.46.46,0,0,0-.17.18c0,.12-.2.07-.25.15s.2,0,.31,0,0,.15.09.18.23,0,.32,0h0l-.1-.34Z" transform="translate(-0.71 -0.72)"/><path class="c" d="M8.85,28c0-.1.09-.2.07-.3s-.09,0-.17,0-.09-.1-.12-.15-.1,0-.14,0v.08c0,.16-.19.14-.24.23s0,.06,0,.05.24,0,.33.1a.22.22,0,0,1,.06.11h0L8.85,28Z" transform="translate(-0.71 -0.72)"/><path class="c" d="M8.06,28.4h0s0-.08-.05-.13-.14.08-.21.15-.13-.06-.2,0-.13,0-.15.08v0a.29.29,0,0,1,.23.21s0,0,0,.09a.21.21,0,0,0,.1.15c.15,0,.16-.14.25-.22H8l0-.28Z" transform="translate(-0.71 -0.72)"/><path class="c" d="M8,29.23c-.13.07,0,.14,0,.26h0s0,.08,0,.12,0,0,0,0,0,.08,0,.09.09,0,.07-.09v0s.1-.1.18-.12a.28.28,0,0,0,.26,0c.05-.06,0-.11,0-.18h0L8.21,29A.26.26,0,0,1,8,29.23Z" transform="translate(-0.71 -0.72)"/><path class="c" d="M16.25,35.66c-.06.12-.2.08-.26.2s.05.05.09,0-.05.15,0,.25,0,0,.08,0,.22-.11.35-.15-.13-.17-.11-.28h0l-.15-.08Z" transform="translate(-0.71 -0.72)"/><path class="c" d="M15.74,35a1.22,1.22,0,0,1-.42.2.22.22,0,0,0,.09.1c0,.11-.08.13-.15.19s-.07.1,0,.13l.25-.09a.46.46,0,0,0,.22.05.38.38,0,0,0,0-.29c0-.08,0-.1.09-.15h0L15.74,35Z" transform="translate(-0.71 -0.72)"/><path class="c" d="M16,34.32c-.11,0-.26-.07-.27-.2s.05-.15,0-.19-.12.13-.19.19-.1,0-.15,0a.13.13,0,0,0-.15,0l0,0a.38.38,0,0,1,.19.07.11.11,0,0,1,0,.14c-.06,0-.07.15-.08.15s0,.08,0,.11,0,0,.09,0,.05-.07.1-.12a.14.14,0,0,1,.13,0l.35-.22Z" transform="translate(-0.71 -0.72)"/><path class="c" d="M21.32,18a.35.35,0,0,1-.05.34.36.36,0,0,1-.37.1.39.39,0,0,1-.2-.34c0-.06,0-.14.1-.16a.33.33,0,0,1,.2-.11A.37.37,0,0,1,21.32,18Z" transform="translate(-0.71 -0.72)"/><path class="c" d="M22.91,15.7a4.79,4.79,0,0,1,.52.49l0,0a5,5,0,0,0-1.09.53l0,0,0,0c-.16.05-.29.4-.47.17h0l0,0c0-.05-.25-.06-.19-.18a4.19,4.19,0,0,0,.05-.47,5.78,5.78,0,0,0-.06-1.17A3.39,3.39,0,0,1,22.91,15.7Zm-4,.22c.05-.07.14-.11.18-.15a2.94,2.94,0,0,1,1.4-.63c0,.13-.05.27,0,.4a3.63,3.63,0,0,0,0,1.21v.1l-.36.21-.49-.36a5.79,5.79,0,0,0-1-.47C18.68,16.13,18.82,16,18.91,15.92Zm-.84,3.2a4.55,4.55,0,0,1-.15-.68v-.25c0-.05,0-.08,0-.12s0-.33,0-.39,0-.22.07-.33a.3.3,0,0,1,.06-.16,4.7,4.7,0,0,0,1.23.69c.07.05.17,0,.24.1a1,1,0,0,1,0,.4,4.27,4.27,0,0,0-1.46.8Zm2.3,1.41a1.63,1.63,0,0,0,0,.2c0,.17,0,.31,0,.44l-.13,0a3.12,3.12,0,0,1-1-.47,2.6,2.6,0,0,1-.61-.54,3,3,0,0,1,.47-.22,3.94,3.94,0,0,0,1-.63,1.83,1.83,0,0,0,.38.22,6.26,6.26,0,0,0-.11.82A1.16,1.16,0,0,0,20.37,20.54Zm3-.38a3.11,3.11,0,0,1-1.78,1h0a2.19,2.19,0,0,0,.08-.55,2.55,2.55,0,0,0,0-.45,2.07,2.07,0,0,1,0-.22c0-.13,0-.28-.06-.4s0-.05,0-.06a1.06,1.06,0,0,0,.24-.13c.08-.07.08-.1.13-.08a3.36,3.36,0,0,0,1.18.7l.29.09Zm.72-1.63a2.57,2.57,0,0,1-.13.57A.62.62,0,0,1,23.8,19a4.49,4.49,0,0,0-1.3-.63s0-.09,0-.1a.32.32,0,0,0,0-.13c0-.12.1-.1.17-.14a4.54,4.54,0,0,0,.93-.43,4.09,4.09,0,0,0,.38-.28h0a2.77,2.77,0,0,1,.14,1S24.14,18.37,24.13,18.53Z" transform="translate(-0.71 -0.72)"/><path class="d" d="M14.6,10.16a1.91,1.91,0,0,1-.26.26.58.58,0,0,1-.24-.22l0,0v-.05l.25-.24A1,1,0,0,1,14.6,10.16Z" transform="translate(-0.71 -0.72)"/><path class="d" d="M19.94,10.16c0,.09.2.18.11.27s-.18.14-.29.15a1.41,1.41,0,0,1-.21-.3l0,0C19.7,10.22,19.85,9.91,19.94,10.16Z" transform="translate(-0.71 -0.72)"/><path class="c" d="M8.47,10.31c.06.06.15.1.2.17s-.12.11-.12.16a.64.64,0,0,1-.12.13,1.5,1.5,0,0,1-.31-.23c0-.11.17-.2.24-.3S8.42,10.3,8.47,10.31Z" transform="translate(-0.71 -0.72)"/><path class="d" d="M26.13,11.4a1.35,1.35,0,0,1-.27.27,1.47,1.47,0,0,1-.27-.25c0-.1.15-.18.23-.27S26,11.31,26.13,11.4Z" transform="translate(-0.71 -0.72)"/><path class="d" d="M2.76,11.47a1.88,1.88,0,0,1-.28.27h0l-.22-.23c0-.11.17-.2.26-.29A1,1,0,0,1,2.76,11.47Z" transform="translate(-0.71 -0.72)"/><path class="c" d="M9.21,11.94c0,.45,0,.9,0,1.32s0,.85,0,1.21v.09c0,.83,0,1.63,0,2.48v.65l0,0c1.22,0,2.42,0,3.62,0a.51.51,0,0,1-.09.28c-.06.21-.18.4-.25.61-.22.5-.45,1-.68,1.47,0,.09,0,.11-.09.19l-.09.06c-.59,0-1.19,0-1.75,0H9.26l0,0c0,1,0,1.84,0,2.79v0c0,.48,0,.94,0,1.36-.29.39-.53.74-.84,1.12-.13.14-.48.51-.49.56-.32.33-.59.69-.94,1.05a1,1,0,0,0-.23.24l-.21.19a11.63,11.63,0,0,1,0-1.31,1.32,1.32,0,0,1,0-.32c0-.26,0-.52,0-.75v0c0-.31,0-.6,0-.93s0-.8,0-1.17c0-.16,0-.33,0-.5,0-.38,0-.78,0-1.21a3.51,3.51,0,0,1,0-.54c0-.22,0-.37,0-.59l0,0H3.57a4.29,4.29,0,0,1-.65,0,3.3,3.3,0,0,0,0-.51c0-.5,0-1.08,0-1.57,0-.17,0-.33,0-.52l.05,0,3.34,0c.05,0,.15,0,.17-.07,0-.39,0-.73,0-1.13,0-.07,0-.14,0-.21s0-.4,0-.57,0-.24,0-.34a1.06,1.06,0,0,0,0-.28c0-.72,0-1.46,0-2.19a3.91,3.91,0,0,1,0-.71c.08-.08.2,0,.31-.07.56-.1,1.25-.19,1.86-.26a4.13,4.13,0,0,1,.55,0Z" transform="translate(-0.71 -0.72)"/><path class="c" d="M20.26,25.76c0-.08-.1-.06-.09-.13s-.11-.09-.12-.15,0-.1-.1-.1-.12-.15-.16-.22-.11-.11-.13-.16l-.17-.23h0a1.32,1.32,0,0,1-.28-.4c-.29-.36-.45-.63-.69-1l-.07-.12c-.19-.25-.38-.59-.54-.84s-.14-.19-.18-.32-.1-.23-.19-.31-.15-.28-.22-.41-.18-.34-.25-.54a4.1,4.1,0,0,1-.27-.53c-.21-.46-.68-1.59-.71-1.65-.11-.21-.14-.46-.25-.66s-.08-.14-.07-.2-.55-1.7-.73-2.29c0-.11,0-.18-.06-.29a8,8,0,0,1-.22-1c0-.2,0-.35-.1-.57s0-.33-.07-.5c-.08-.43-.12-.88-.18-1.34v-.12l.21,0c.17,0,.33,0,.49,0,.34.05.74,0,1.09,0l1.4.07c.35,0,.6.05.94.06s.8.07,1.21.11c1.08.07,2.16.24,3.23.39a3.17,3.17,0,0,0,.41.07c.74.13,1.46.26,2.19.41h0v0c0,.32,0,1,0,1,0,.53,0,1.11,0,1.65V17c0,.6,0,6,0,7.06,0,0,0,0,0,.07,0,.66,0,1.27,0,1.92,0,.21,0,.52,0,.73a7.19,7.19,0,0,1-.17,1.42,5.48,5.48,0,0,1-.19.78s-.1.36-.11.43a6.46,6.46,0,0,1-.29.78c-.41-.23-.8-.61-1.16-.86-.18-.15-.29-.29-.47-.42,0,0-.09-.08-.1-.11h0a4.88,4.88,0,0,0-.38-.35,1.43,1.43,0,0,0-.2-.2c-.27-.25-.53-.54-.76-.77h0s-.21-.21-.31-.31a3.45,3.45,0,0,0-.36-.38h0c-.09-.09-.19-.23-.33-.36A7.88,7.88,0,0,0,20.26,25.76Zm.56-11.92a4.46,4.46,0,0,0-2.27.76A4.38,4.38,0,0,0,17,16.54l-.11.25c0,.21-.12.44-.16.63a2.18,2.18,0,0,0-.07.52,4.5,4.5,0,0,0,0,.56,4.37,4.37,0,0,0,.13.75,1.09,1.09,0,0,0,.11.32,3.52,3.52,0,0,0,.64,1.22,4.45,4.45,0,0,0,7.23-.3s.06-.06.05-.09a4.14,4.14,0,0,0,.54-1.32,2.17,2.17,0,0,0,.06-.38c0-.06,0-.15,0-.23a1.18,1.18,0,0,0,0-.3c0-.13,0-.16,0-.28a4.49,4.49,0,0,0-.1-.71,4.37,4.37,0,0,0-1.69-2.51A4.42,4.42,0,0,0,20.82,13.84Z" transform="translate(-0.71 -0.72)"/><path class="e" d="M27.67,7.63a.52.52,0,0,0-.29-.35A1,1,0,0,0,27,6.55c-.31.07-.48.37-.71.57l-.27,0a.58.58,0,0,0-.6.25c0,.08.09.09.14.11a.39.39,0,0,1,.23.36c0,.08-.08.14-.14.17a.27.27,0,0,1-.2,0c-.14-.09-.05-.24-.11-.36-.29,0-.44.31-.6.5a1,1,0,0,0-.78.53.91.91,0,0,0,.41.52c0,.14-.2.24-.16.39s.13,0,.21,0l.28.11a.35.35,0,0,1,.21.3.51.51,0,0,1-.24.26.92.92,0,0,1-1-.19c-.09-.12-.23-.24-.18-.39s.22-.12.34-.14A.41.41,0,0,0,23.63,9a1.15,1.15,0,0,0-.37-.84c-.05,0-.08-.08-.15-.06a1.09,1.09,0,0,0-.45.45c-.08.1-.22,0-.31.13s-.23.18-.23.32a.43.43,0,0,1,.23.22v.18a.48.48,0,0,1-.35.29c-.32,0-.71,0-.88-.25,0-.1-.05-.26.07-.33s.28,0,.41,0,.13-.28.16-.43a1.34,1.34,0,0,0,.49-.52,1.1,1.1,0,0,0-.49-.69.53.53,0,0,0,0-.31c-.06,0-.11-.17-.2-.12a.31.31,0,0,1-.25.19.3.3,0,0,1-.15-.08c0-.07,0-.15,0-.21s.26-.08.38-.08V6.74a.63.63,0,0,0-.39-.48,1,1,0,0,0-.51-.76,1.55,1.55,0,0,0-.66.59c-.05.14-.15,0-.25.06a.61.61,0,0,0-.55.37l0,0a.42.42,0,0,1,.42.1.35.35,0,0,1,0,.27c-.05.06-.11.16-.2.15A.41.41,0,0,1,19,6.9a.91.91,0,0,0-.24.5l0,0a1.3,1.3,0,0,0-.61.3,1.91,1.91,0,0,0,.34.78.45.45,0,0,0-.15.39c.17,0,.34-.12.51,0a.32.32,0,0,1,.17.24L19,9.28a.8.8,0,0,1-.67.25c-.2,0-.42,0-.49-.24a.32.32,0,0,1,.08-.37c.06-.08.26,0,.24-.13a.33.33,0,0,0-.23-.25s-.1,0-.14-.05a1.84,1.84,0,0,0-.35-.79,2,2,0,0,0-.45.76,1.37,1.37,0,0,0-.28,0,.51.51,0,0,0-.4.36l.22,0c.05,0,.12.1.13.16a.52.52,0,0,1-.23.33.73.73,0,0,1-.73,0,.41.41,0,0,1-.2-.29.31.31,0,0,1,.18-.23.55.55,0,0,1,.41.07c.1-.14,0-.3,0-.46a2.89,2.89,0,0,0,.54-.57c.14-.22-.1-.4-.22-.58s-.15-.11-.17-.19a.48.48,0,0,0,0-.45.36.36,0,0,0-.33-.23.79.79,0,0,1-.31.42c-.09,0-.18.08-.27,0a.25.25,0,0,1-.13-.29.47.47,0,0,1,.32-.27c.05-.07.28,0,.2-.12a.67.67,0,0,0-.71-.3,2.57,2.57,0,0,0-.44-.61c-.13-.09-.29-.31-.45-.11a2.42,2.42,0,0,0-.49.59.49.49,0,0,1-.11.22A.76.76,0,0,0,13,6c-.09.09-.22.14-.22.28a.54.54,0,0,1,.54.23.37.37,0,0,1,0,.26.3.3,0,0,1-.29.16.53.53,0,0,1-.32-.41h-.05a1.11,1.11,0,0,0-.28.63l-.21.12a.69.69,0,0,0-.34.46,1.48,1.48,0,0,0,.59.56v0a.66.66,0,0,0-.11.46.7.7,0,0,1,.31-.14.52.52,0,0,1,.46.23c0,.1.09.21,0,.31-.07.28-.34.35-.6.4a.59.59,0,0,1-.59-.27.45.45,0,0,1-.06-.41c0-.08.13-.15.16-.25a.6.6,0,0,0-.52-.19,1.88,1.88,0,0,0-.38-.64l-.06,0a1.9,1.9,0,0,0-.31.5,1,1,0,0,1-.06.19.45.45,0,0,0-.41.18c0,.05-.06.1,0,.14a.38.38,0,0,1,.31.22c.09.2-.08.34-.2.46a.72.72,0,0,1-.64.06c-.09-.07-.21-.15-.22-.27a.52.52,0,0,1,.09-.35c.11-.14.3-.13.47-.15a.35.35,0,0,0,0-.27c-.09-.08,0-.16.06-.22s.34-.48.17-.71a1,1,0,0,0-.55-.3.79.79,0,0,0-.32-.46c-.08,0-.19-.09-.24,0s-.16.09-.24,0a.33.33,0,0,1-.13-.25c0-.11.12-.19.22-.22s.11,0,.15,0a.35.35,0,0,0-.25-.3.6.6,0,0,0-.33,0A1.93,1.93,0,0,0,8,5.59a1.66,1.66,0,0,0-.48.7c0,.09,0,.21-.13.25a.5.5,0,0,0-.52.14c-.06.09-.14.21-.1.31a.68.68,0,0,1,.43.21c0,.06.07.15,0,.21a.24.24,0,0,1-.27.13.67.67,0,0,1-.23-.19c-.07,0-.09.05-.13.09s0,.24,0,.33A1.25,1.25,0,0,0,6,8.29a1.26,1.26,0,0,0,.66.66c0,.06,0,.13,0,.2s0,.21,0,.27a.73.73,0,0,1,.64,0c.07.05.13.1.14.19-.08.25-.34.27-.56.36a.82.82,0,0,1-.71-.15.31.31,0,0,1-.09-.27.19.19,0,0,1,.19-.13.36.36,0,0,0,0-.19A.43.43,0,0,0,5.83,9a1,1,0,0,0-.58-.62,1,1,0,0,0-.31.71l-.12,0a.58.58,0,0,0-.41.47h.11a.46.46,0,0,1,.23.31.35.35,0,0,1-.22.34.94.94,0,0,1-.9,0c-.09-.11-.17-.16-.19-.29a.41.41,0,0,1,.15-.31c.18-.13.37,0,.54.06a.56.56,0,0,0,0-.59,1.51,1.51,0,0,0,.36-.56c0-.2-.19-.34-.34-.44a3.09,3.09,0,0,1-.42-.19.57.57,0,0,0-.27-.4.62.62,0,0,0-.38-.1A.48.48,0,0,1,3,7.89a.47.47,0,0,1-.4.15.43.43,0,0,1-.2-.14c-.08-.08-.05-.2,0-.3a.52.52,0,0,1,.31-.27c.05,0,.11,0,.16,0s0-.05,0-.08A.53.53,0,0,0,2.29,7c-.09,0-.14.11-.22.07a1.16,1.16,0,0,0-.58-.5,1.2,1.2,0,0,0-.36.56c0,.12-.19,0-.26.13a.47.47,0,0,0-.15.33A.38.38,0,0,1,1,7.65a1.7,1.7,0,0,1,.17,1.21,1.58,1.58,0,0,0,0,.64,1.65,1.65,0,0,0,1,1.17.85.85,0,0,1,.23.44c-.1.15-.28.27-.39.42a3.71,3.71,0,0,0,.37.38l0,.12c0,.21-.21.2-.33.26a.4.4,0,0,0-.15.3.51.51,0,0,0,.38.44c0,.61,0,12.17,0,13a10.74,10.74,0,0,0,.1,1.67,11.7,11.7,0,0,0,2.8,6.2,12,12,0,0,0,6.4,3.75,10.52,10.52,0,0,0,1.91.27c.37,0,.71,0,1.05,0l.05,0c.33,0,.62-.06.95-.05l0,0a12.18,12.18,0,0,0,4.2-1.29,11.78,11.78,0,0,0,6.39-10.09c0-.81,0-1.62,0-2.43,0-.64,0-1.35,0-2l0-.08c.05-1.18,0-2.33,0-3.52l0-.18c0-1.37,0-2.85,0-4.21,0-.34,0-.76,0-1.12l0-.05a.54.54,0,0,0,.36-.32.31.31,0,0,0,0-.25c-.08-.34-.57-.23-.57-.42s.11-.18.21-.22.2-.14.2-.27L26,11.06a.88.88,0,0,1,.32-.67,1.85,1.85,0,0,0,.9-1.13,2.33,2.33,0,0,1,.32-1.4A1.2,1.2,0,0,0,27.67,7.63ZM25,10.16c0,.06-.05.15-.12.18S25,10.2,25,10.16Zm-.3.17,0,.07c0,.07-.06,0-.1.08s-.07,0-.09-.06S24.64,10.37,24.7,10.33Zm-.48,0c.05.06.23,0,.19.15-.08,0-.18.06-.22,0S24.17,10.39,24.22,10.36Zm-.16,0c0,.1-.1.09-.16.06s-.11-.05-.11-.12S24,10.31,24.06,10.37Zm-.55-.27c.1,0,.12.09.2.09a.08.08,0,0,1,0,.1c-.07,0-.12,0-.18-.07Zm-.07-.05c-.09,0-.07-.07-.09-.12v0C23.41,9.94,23.5,10,23.44,10.05Zm-1.1-.37s0,0,0,0-.09.16-.17.14l0,0C22.21,9.76,22.29,9.75,22.34,9.68Zm-.24.25s0,.06-.08.07,0-.06-.07-.08S22.11,9.85,22.11,9.93Zm-.38,0c.06,0,.16,0,.13.09s-.07,0-.12.06h0S21.68,9.94,21.72,9.91Zm-.36.06a.25.25,0,0,1,.06-.1s.1,0,.14.05,0,.14-.07.14S21.35,10.06,21.36,10Zm-.12-.18c0,.06,0,.09-.05.14s-.14-.08-.18-.13.06-.07.08-.11A.46.46,0,0,1,21.24,9.79ZM19.1,9.35s.06,0,0,.05,0,.1-.09.12,0,0-.06,0S19,9.38,19.1,9.35Zm-.33.25c.06-.07.21,0,.12.07s-.06,0-.1,0S18.73,9.64,18.77,9.61Zm-.29.11c0-.06.06,0,.09-.07s.08,0,.09.08-.09,0-.12.09S18.47,9.76,18.47,9.72Zm-.33-.06s.13,0,.17,0v.11c-.06,0-.17,0-.19,0S18.09,9.69,18.14,9.66Zm-.15,0s0,.11-.05.1-.08,0-.11-.06S18,9.56,18,9.65Zm-.2-.12,0,0s-.08-.1-.06-.13S17.74,9.49,17.78,9.52Zm-1-.3a.29.29,0,0,1-.08.21s0,0-.05,0Zm-.26.24s0,0,.05.07,0,0-.05.08-.09,0-.11-.06S16.45,9.47,16.49,9.46Zm-.41.12s.17-.06.17,0-.06.09-.12.12S16.1,9.63,16.08,9.58Zm-.31-.06.14,0v.16a.21.21,0,0,1-.21,0C15.73,9.62,15.72,9.54,15.78,9.52Zm-.19-.05c0,.05,0,.12-.08.14a.24.24,0,0,1-.17-.21.24.24,0,0,1,.1-.07A.78.78,0,0,1,15.59,9.46Zm-.29-.26a.6.6,0,0,1,0-.16s.07.11,0,.17S15.3,9.25,15.29,9.2Zm-2.09.2a.12.12,0,0,1,.06.07.23.23,0,0,1-.1.11s-.05,0-.06,0A.44.44,0,0,1,13.21,9.4Zm.06-.15.06-.16a.13.13,0,0,1,0,.16v0S13.29,9.27,13.27,9.25ZM13,9.67a.15.15,0,0,1-.11.08l0-.07C12.9,9.61,13,9.55,13,9.67Zm-.43,0c.05,0,.14,0,.15,0s-.1.06-.15.09-.07,0-.07,0S12.56,9.73,12.6,9.71Zm-.41,0a.7.7,0,0,1,.16.05v.1a.25.25,0,0,1-.2,0A.16.16,0,0,1,12.18,9.69Zm-.25-.11c.06,0,.08.05.12.09s0,.07-.05.08-.1,0-.12-.08S11.9,9.58,11.93,9.57Zm-.1-.12a.08.08,0,0,1,0,.07s-.1-.12-.06-.17S11.77,9.42,11.82,9.46Zm-1.11,0c0,.1-.06.17-.1.24a.11.11,0,0,1-.06-.05A.45.45,0,0,1,10.71,9.42Zm-.51.33c.08,0,.16-.16.23,0s-.12.1-.18.14A.13.13,0,0,1,10.2,9.74Zm-.33,0,.18,0c0,.06.07.17,0,.17s-.14,0-.18,0A.19.19,0,0,1,9.87,9.74Zm-.29-.1c.05,0,.09.05.12.09s0,.13-.06.15a.23.23,0,0,1-.15-.1C9.46,9.72,9.54,9.7,9.57,9.65Zm-2.13.29s.08-.13.12-.12,0,.12-.07.15S7.43,10,7.44,9.93ZM7.28,10c.05,0,0,0,.05.06s-.12.09-.17.14-.05,0-.08-.08S7.22,10.06,7.28,10Zm-.56.12c.07,0,.16-.07.19,0s0,.13-.08.13-.15,0-.16,0S6.65,10.12,6.72,10.12Zm-.44-.06c.08.06.26,0,.22.16a.2.2,0,0,1-.21,0S6.27,10.1,6.28,10.06Zm-.11,0s-.07,0-.07,0L6,9.9A.22.22,0,0,1,6.17,10Zm-1.4.25a.19.19,0,0,1,.11.09c0,.05,0,.06-.07.09s-.05-.08-.09-.1S4.74,10.3,4.77,10.28Zm-.16.18,0,.08c0,.06-.09.06-.14.08a.38.38,0,0,1-.07-.17S4.59,10.34,4.61,10.46Zm-.46,0c.13-.09.19.05.2.15a.33.33,0,0,1-.17.05A.27.27,0,0,1,4.15,10.5Zm-.31,0c.07,0,.21,0,.15.14a.08.08,0,0,1-.11.08s-.09,0-.11-.06S3.77,10.49,3.84,10.48Zm-.35,0,.06-.09c.05,0,.12,0,.12.09s0,.19-.13.13S3.46,10.53,3.5,10.48Zm-1.28,1c0-.11.16-.2.26-.29a1,1,0,0,1,.28.27,2.08,2.08,0,0,1-.28.26h0Zm4.5,16.09-.21.19a11.45,11.45,0,0,1,0-1.32,1.36,1.36,0,0,1,0-.32c0-.26,0-.52,0-.75v0c0-.31,0-.6,0-.93s0-.8,0-1.17c0-.16,0-.33,0-.5,0-.38,0-.78,0-1.21a3.5,3.5,0,0,1,0-.54,5.8,5.8,0,0,0,0-.58l-.05,0H3.56a4.27,4.27,0,0,1-.65,0,3.41,3.41,0,0,0,0-.51c0-.5,0-1.08,0-1.57a4.54,4.54,0,0,1,0-.52l.05,0,3.34,0c.05,0,.15,0,.17-.07,0-.39,0-.73,0-1.12,0-.07,0-.14,0-.21s0-.41,0-.57,0-.24,0-.34a1,1,0,0,0,0-.28c0-.72,0-1.46,0-2.19a3.77,3.77,0,0,1,0-.71c.08-.08.2-.05.31-.07.56-.1,1.25-.19,1.86-.26a3.59,3.59,0,0,1,.55,0l0,0c0,.45,0,.9,0,1.31s0,.85,0,1.21v.09c0,.83,0,1.63,0,2.49v.65l0,0c1.22,0,2.42,0,3.62,0a.5.5,0,0,1-.09.28c-.06.2-.18.4-.24.61-.22.5-.45,1-.68,1.47,0,.09,0,.1-.09.19l-.09.06c-.59,0-1.19,0-1.75,0H9.26l0,0c0,1,0,1.84,0,2.79v0c0,.48,0,.94,0,1.36-.3.39-.53.74-.84,1.12-.13.15-.48.51-.49.56-.32.33-.59.69-.94,1.05A.93.93,0,0,0,6.71,27.59Zm6.47-4.32a.43.43,0,0,0,.14.19,3.31,3.31,0,0,1,.61.25l.19.09h0a.74.74,0,0,1,.53.13c-.24.14-.48-.07-.74-.08a1.4,1.4,0,0,1-.75-.28.44.44,0,0,1-.11-.25,1.35,1.35,0,0,1,0-.5s0,0,0,.05,0,.08,0,.1A.59.59,0,0,0,13.19,23.26Zm.7.1v0s.13,0,.11.06h0s0,0-.06.06h0A.08.08,0,0,1,13.88,23.36Zm.43.05c0,.05,0,.07-.09.08a.12.12,0,0,1-.13,0s0-.1,0-.11.15,0,.19.08Zm.1,0h.06s0,0,0,0v0a0,0,0,0,1-.05,0S14.44,23.46,14.42,23.45Zm-1.31,1.7h0c.22-.05.42-.26.67-.2.06,0,.07-.07.11-.09l.34-.05a.34.34,0,0,0,.05-.19c0-.07,0-.17-.09-.16s-.29,0-.39-.11h0c0-.1-.09-.23.06-.25a.08.08,0,0,1,.1,0h0a.2.2,0,0,0,.07.06c.18,0,.32,0,.5,0-.09.15-.36,0-.43.16a1.59,1.59,0,0,0,.64,0,.38.38,0,0,0,.15-.18,1,1,0,0,0-.06-.32.54.54,0,0,0-.19-.25h0c.15,0,.23.18.29.31s.05,0,.06,0h0c0,.06,0,.13,0,.16l.05,0c.15-.07.18-.21.19-.35a.26.26,0,0,0,0-.14.37.37,0,0,0-.13-.14s-.09-.05-.12,0a0,0,0,0,0,0,.07s.06,0,.06.08h0c-.07,0-.12-.1-.18-.13a4.31,4.31,0,0,0-.63-.24.77.77,0,0,1-.32,0,.79.79,0,0,1-.05-.15.15.15,0,0,1,0-.14h0s.12.09.18,0a.2.2,0,0,0,0-.14l0,0a.18.18,0,0,0-.14-.09c-.08,0-.11,0-.14.09a.08.08,0,0,1,0,0,.07.07,0,0,1,0-.07c0-.07.13-.07.21-.09s.28,0,.38-.16l.1-.2a5,5,0,0,1,1,.09.45.45,0,0,0,.11,0,3.83,3.83,0,0,1,.45.11h0c0,.09.06.18.08.27v0a.18.18,0,0,1,0,.11c-.05.06-.15.14-.12.22s.11,0,.18,0a.19.19,0,0,1,.21-.06s0,.09,0,.13-.16.23-.15.35.13-.14.23-.15.06,0,.1,0a.41.41,0,0,0,0,.1c0,.05,0,.11-.06.14s0,.31,0,.47a.47.47,0,0,0,.09.27h0v.15c-.17.06-.21-.24-.39-.15s.14.29,0,.47a.13.13,0,0,0,0,.12s0,0,0,0c.09.23.43.28.38.56h0a.34.34,0,0,1,0,.17,1,1,0,0,0-.41-.38h0a.3.3,0,0,1-.09-.18A.18.18,0,0,0,16,25c-.12,0-.05.18-.06.27h0c.06.19.24.28.35.43l0,0a.39.39,0,0,1,.06.13v.06a.2.2,0,0,1,0,.16.32.32,0,0,1-.11-.09.69.69,0,0,1-.08-.12.47.47,0,0,1,0-.12s0,0,0,0,0,0,0,0a.37.37,0,0,0-.13.34.58.58,0,0,1,0,.23s0,0,0,0a.46.46,0,0,1-.07.24s-.06.05-.09,0a.48.48,0,0,1,0-.13l0-.2a.31.31,0,0,0-.16-.24s-.06,0-.06.08a.81.81,0,0,1,0,.49c-.12.14,0,.33-.07.49a.34.34,0,0,1-.22.24l-.18,0h0a1.14,1.14,0,0,1,.11-.22v-.21a.89.89,0,0,1-.17-.44.33.33,0,0,1,0-.16c.1-.17.31-.3.31-.51,0,0,0,0,0,0s-.18.18-.26.26c-.39.43-.53,1-.89,1.4a.38.38,0,0,1-.44.15h0a.28.28,0,0,1-.07-.12.61.61,0,0,1,0-.08,1.55,1.55,0,0,0-.06-.21c-.16-.05-.17.19-.29.26a.87.87,0,0,1-.4.18.3.3,0,0,1-.27-.2s0,0,0,0a.09.09,0,0,0,0-.06l0-.07h0c.19-.09.36.19.56,0a.52.52,0,0,0,.3-.27.25.25,0,0,0,0-.14s-.06,0-.09,0a.43.43,0,0,1-.35.28c-.18-.08-.42-.17-.59,0s-.11.15-.2.15h0a1.36,1.36,0,0,1,.13-.3s-.06,0-.09,0a1.09,1.09,0,0,1-.56.36h0c.06-.26.18-.49.26-.74s.19-.39.41-.41c0,0,0,0,0-.07a.21.21,0,0,0-.17,0l-.1.07c-.36.42-.46,1.1-1.06,1.3a1.37,1.37,0,0,1-1.39-.2h0s0-.05,0-.08,0,0,0-.06h0c.31.08.53.43.89.31a1.37,1.37,0,0,0,1.06-.85l.3-.63c-.08-.07-.16,0-.22.09-.29.24-.57.62-1,.48h0l0,0a.06.06,0,0,1,0,0s0,0,0,0h0a1.2,1.2,0,0,0,.55-.11c.15-.11.31-.27.28-.47,0,0,0,0,0,0s-.08-.08-.11,0-.29.35-.53.3a.38.38,0,0,1-.18,0h0l.31-.16c.05-.13.17-.22.22-.35-.16-.06-.26.18-.43.1h0a.77.77,0,0,0,.32-.38.16.16,0,0,0-.06-.12c-.13,0-.17.13-.28.17a.15.15,0,0,1-.15,0h0a.16.16,0,0,0,0-.14l-.11-.07h0c.07-.09.09-.23.21-.25a1,1,0,0,1,.34,0c.12-.05.1-.18.1-.3s0-.1,0-.14,0-.29-.13-.36h0A.12.12,0,0,0,11,24a.06.06,0,0,0,0,0h0l0,0,0,0,0,0a.08.08,0,0,0,0,.05v0h0s-.08,0-.09,0a.25.25,0,0,0-.08,0s0,0-.08,0l0,0h0a.07.07,0,0,1-.07-.05h0a.22.22,0,0,1,0-.1.2.2,0,0,0,0,0,.14.14,0,0,0,0,0s0,0-.08-.06h0v0h0s0,0,0,0,0,0,0,0h0s0,0,0,0l.11,0h.11s0,0,.07-.05l.06-.07,0,0s0,0,0,0l.06.06,0,0,0,0h0l0,0,0,0H11a.27.27,0,0,0,.24-.16.39.39,0,0,0,0-.35.15.15,0,0,0,.12-.09h0a0,0,0,0,0,0,0h0l-.06,0c-.07,0-.09.05-.14.09l0,0h0s-.09,0-.15,0h0c-.07,0-.05,0-.11,0h0l0,0s0,0,0,0,0,0,0,0,.2-.12.16-.21,0,0,0,0a.07.07,0,0,1,0-.05v-.05h0s0,0,.06,0l0,0,0,0c.05.09.2,0,.24.08h0c0,.13-.09.12-.09.27h0c0,.21.17.21.29.25a.6.6,0,0,0,.21-.07.18.18,0,0,0,.05-.09.29.29,0,0,0,0-.15s0,0,0-.05h0s0,0,0-.07.19-.17.18-.26.07.06.1.09h0c0,.05,0,.1,0,.16s0,0,0,0l.11.08a.08.08,0,0,1,0,0l-.13.18,0,.06a.36.36,0,0,0,.08.11.29.29,0,0,1,0,.15.3.3,0,0,1-.07.14.64.64,0,0,0-.21.65c0,.06,0,.11,0,.17s.11.29.26.34h0c.05.19-.16.35-.29.46s-.07,0-.09.08a.05.05,0,0,0,.06,0,.7.7,0,0,0,.49-.61c.08,0,.07.12.15.14Zm1.43-3.82a.28.28,0,0,0,.12.28,0,0,0,0,1,0,0h0s0,0,0,0,.16.11.25,0a.31.31,0,0,0,.23-.29.44.44,0,0,1,0-.15s0,0,0,0,.2.07.29,0a.1.1,0,0,1,.09-.07h0l0,.09,0,.05s.09.07.13,0l.12,0c0,.1-.11.18-.11.28a.17.17,0,0,0,0,.1c.07.08.12.23.25.17a.75.75,0,0,1,.24-.12s0,0,0,0h0v-.06c.07,0,0-.13.09-.12h0a.19.19,0,0,1,0,.07.17.17,0,0,0,.08.12h.21c0,.06-.07.09-.11.14l-.05,0a2.83,2.83,0,0,0-.42.37,1.49,1.49,0,0,1-.47-.07,6.49,6.49,0,0,0-.87-.11c-.09,0-.21,0-.25,0s0-.08,0-.12a.18.18,0,0,1,0-.11.78.78,0,0,0,0-.13s0,0,0,0-.08,0-.07-.08,0-.09-.06-.11C14.35,21.48,14.46,21.31,14.54,21.32Zm-.2,10.48h0c0-.1,0-.21-.06-.29s-.08.07-.11.11c-.07.3,0,.59-.14.85,0,0,0,.06,0,0h0a1.24,1.24,0,0,1-.06-.56.55.55,0,0,0,0-.18c-.06.05,0,.16-.08.23a3.92,3.92,0,0,0,0,1s0,.05,0,.07a.3.3,0,0,0,.12.14h0a.83.83,0,0,0-.31.77c0,.14,0,.34-.11.43h0a.27.27,0,0,1-.05-.1.29.29,0,0,1,0-.08.54.54,0,0,1,0-.2c0-.05.07-.12.05-.16a.07.07,0,0,0-.05,0,.32.32,0,0,0-.11.19c-.09.18-.08.41-.27.53H13s0,0,0-.07a.78.78,0,0,1,.1-.53s.09-.05.06-.11a.06.06,0,0,0-.09,0,5.06,5.06,0,0,0-.32.66.44.44,0,0,1-.17.23.38.38,0,0,1,0-.37c0-.08.08-.15.07-.22l0,0s0,0,0,0c-.2,0-.21.17-.34.26a.24.24,0,0,1-.21.09h0c0-.12.1-.22.09-.31s0-.06-.09-.09-.17.11-.27.16-.14-.1-.23-.07a2.43,2.43,0,0,1-.3.09c-.1,0-.13.08-.21.1a.4.4,0,0,0,0,.25s0,.06,0,.06l-.16-.09c-.18,0-.23.25-.36.27a.06.06,0,0,1,0,0c0-.06.06-.14.05-.21h0c0-.08-.05-.17,0-.24l.15,0a.32.32,0,0,0,.18-.27.31.31,0,0,0-.1-.3.29.29,0,0,0-.31-.08c-.1,0-.22.09-.32,0s0,0,0,0,0-.08,0-.11,0,0,0,0-.22.06-.31,0h0c.05-.09.26,0,.25-.15a.5.5,0,0,1,.17-.18.09.09,0,0,1,.09,0,1,1,0,0,0,.09.12l0,0c.15,0,.28-.11.34-.24s.08-.18.06-.26a.12.12,0,0,0-.05-.07c-.07-.05-.2,0-.27,0a.07.07,0,0,1,0-.05.27.27,0,0,0,.1-.08c0-.05.05,0,.05-.09l0-.14,0,0h0s0,0,0,0l0,0s0,0,0,0h0l0,0a.57.57,0,0,1,.27-.07h0a.21.21,0,0,1,.09.18c-.05,0,0,.11,0,.16h0a.43.43,0,0,0,.28.22c0,.12.13.05.2.07h0c.13-.11.18-.28.35-.35s.63-.07.87-.25a.16.16,0,0,0,0-.19c0-.06-.06-.11-.08-.17a.46.46,0,0,1-.12-.28.22.22,0,0,1,0-.1c.08-.18.3-.22.4-.39l0-.09a.3.3,0,0,1,0-.24.1.1,0,0,0-.05-.05h-.08c0,.14-.17,0-.23.15A.63.63,0,0,1,12,31l-.08-.1a.16.16,0,0,1,0-.12c0-.05,0-.1.11-.09s0,0,0,0h0c-.07,0,0,.1,0,.15h0c.06,0,.13,0,.2,0,.21-.14.49-.39.75-.2.08,0,.16-.08.2.05s.1,0,.15-.07a.69.69,0,0,1,.44-.33c.19,0,.42,0,.6.06a.51.51,0,0,1,.22,0h0a1.21,1.21,0,0,1,.06.26.33.33,0,0,0,0,.1c.06.05.12.12.2.11s0-.05,0-.08a.21.21,0,0,1,0-.09.34.34,0,0,0,0-.08.37.37,0,0,0,0-.09,1,1,0,0,0-.08-.15h0s.05-.09.1-.08h0a.31.31,0,0,0,0,.15.54.54,0,0,0,.22.29s.07.05.09,0-.11-.18-.14-.27a.21.21,0,0,1,0-.11c0-.07-.07-.17.05-.18h0a.76.76,0,0,0,0,.21.21.21,0,0,0,.08.12s.09.09.15.05-.05-.15-.08-.21a.41.41,0,0,0-.09-.27l0,0a1.31,1.31,0,0,1,.24.22.34.34,0,0,1,.09.16v0a1,1,0,0,0,0,.14c0,.11,0,.25.06.39a.53.53,0,0,1-.39.25,1.16,1.16,0,0,1-.48.25C14.7,31.54,14.46,31.61,14.33,31.81ZM21.05,30A.16.16,0,0,1,21,30h0a.23.23,0,0,1,0-.13c.06-.09.17-.15.12-.27a.32.32,0,0,0-.2-.13c-.33,0-.54.42-.83.58a1.46,1.46,0,0,1-.79.37c-.21,0-.23.24-.29.4a.16.16,0,0,1-.09-.07h0c-.08-.11-.16-.27-.26-.09a4.51,4.51,0,0,1-.11.5h0a.17.17,0,0,1-.07-.07h0l0-.09c-.05-.1-.09-.22-.21-.24a1.7,1.7,0,0,0-.23,0,.29.29,0,0,0-.23.15,6.27,6.27,0,0,0,.14.67.8.8,0,0,1,0,.24c-.06.22-.11.44-.16.66a.46.46,0,0,0,.09.21c.16.16.34,0,.52,0a1.24,1.24,0,0,0,.44-.38c.28-.13.48.18.79,0,.07,0,.13-.09.21-.08h0l0,.11v0c.07,0,.11.07.19,0,0,.17-.21.21-.33.26a.86.86,0,0,0-.51-.07l-.22,0c-.09.13-.22.13-.31.25s.05,0,.08.06A1.25,1.25,0,0,0,19,33a.57.57,0,0,1-.1.26c-.09.15-.27.1-.37.24a.07.07,0,0,0,.09,0c.21,0,.32-.28.54-.26s.24,0,.33,0h0c0,.15-.16.22-.28.28s.08.06.13.11h0c-.15.15-.37,0-.56.07s-.17,0-.18.11a0,0,0,0,0,0,0l.07,0c.17,0,.31.11.47.15h0l0,0h0a.06.06,0,0,1,0,0h0c-.17-.1-.36,0-.55-.08s-.11.08-.15.13a.26.26,0,0,0,.06.11,2,2,0,0,1,.17.17.22.22,0,0,1,0,.12.57.57,0,0,1,0,.24c-.07,0-.15,0-.17,0l0,.09c-.11,0-.17-.11-.21-.18s-.15-.3-.3-.3a.16.16,0,0,0,0,.1h0c0,.09.08.18.08.27s.27.26.2.44c-.15-.05-.24-.25-.33-.37s-.08,0-.1,0-.09.33-.18.45a.45.45,0,0,0-.1-.25s0-.07-.08-.08h-.06a.6.6,0,0,0-.27,0h0c0-.07,0-.16,0-.22a.21.21,0,0,0,0-.08.15.15,0,0,0,0-.05l0,0c-.09,0-.12.14-.14.23s-.1.4-.12.59-.05.19-.16.23-.25,0-.3.11.07.12.1.19a.12.12,0,0,1,0,.08c-.14,0-.27,0-.36.15h0l-.06,0h0c0-.07.06-.14.05-.19s0,0,0,0-.08,0-.09,0h0c.06-.11.2-.08.26-.2h0l0,0a1.11,1.11,0,0,0,0-.23.25.25,0,0,0-.11-.21.52.52,0,0,0-.4-.07c-.05,0-.09.07-.1.15a.23.23,0,0,1,0,.15,1.17,1.17,0,0,1,0,.14c-.06,0-.15,0-.22,0l-.25.09h0s0-.09,0-.13.18-.08.15-.19-.06,0-.09-.09h0a1.19,1.19,0,0,0,.42-.2h0a.36.36,0,0,1,0-.12s0,0,0-.07,0,0,0-.06l-.05-.06,0,0a.14.14,0,0,1,0-.11.15.15,0,0,0-.13,0c0,.05,0,.11-.1.12s-.05,0-.09,0h0s0-.09,0-.11,0-.13.08-.15a.08.08,0,0,0,0-.07l0,0,0,0a.41.41,0,0,0-.19-.07h0l0,0a.13.13,0,0,1,.15,0s.1.05.14,0,0-.21.19-.19h0c.06,0,0,.13,0,.19a.18.18,0,0,0,.1.14l.1,0,.07,0h0c.08,0,.2,0,.27,0a.35.35,0,0,0,.14-.24c.09,0,.17-.09.16-.2a4.89,4.89,0,0,0-.31-1s-.07,0-.1,0,0-.16,0-.21,0,0-.06,0,0,.26-.2.28a3.51,3.51,0,0,1-.48.11h0c.1-.26.42-.25.55-.49a.93.93,0,0,0,0-.7.62.62,0,0,0-.13-.2h0c.11-.16.34-.12.4-.33s.05-.4.07-.59,0-.16-.09-.19-.1.16-.19.21-.08.08-.11.11,0,0-.08,0h0a2.46,2.46,0,0,0-.65-1.43,6.62,6.62,0,0,1-.86-.5.81.81,0,0,1-.2-.28.22.22,0,0,0-.27,0c-.17.16-.26.38-.45.52h0l-.06-.06,0,0c0-.07-.1-.15-.2-.1s-.2.42-.29.63a.32.32,0,0,1-.17.21h0c0-.09,0-.16.05-.24a.69.69,0,0,0,.13-.38.24.24,0,0,0-.05-.13c-.06,0-.15-.1-.2,0s-.24.43-.4.63h0l0,0a.25.25,0,0,1-.07-.08.24.24,0,0,1,0-.12s0-.08,0-.12a.17.17,0,0,0-.08-.2c-.22,0-.22.27-.31.41a.67.67,0,0,1-.14.22h0a.12.12,0,0,1,0,0h0c0-.1.12-.22.09-.32a.15.15,0,0,0-.1-.08c-.2.11-.48.17-.56.42a1,1,0,0,1-.16.3.91.91,0,0,1,0-.19.3.3,0,0,1,.05-.19s0,0,0-.06a0,0,0,0,0,0,0h0c-.21.07-.26.32-.48.35h0c-.08-.12,0-.27,0-.39s-.17,0-.24,0a.07.07,0,0,1,0-.06.06.06,0,0,0-.09,0c-.11.21-.19.46-.41.58s-.08-.08-.14,0h0a1.14,1.14,0,0,0,.16-.39c-.09,0-.16-.07-.24,0h0l0-.14a.34.34,0,0,0,0-.08.79.79,0,0,0-.77-.12c-.06,0-.12.07-.11.14s.05.12,0,.18a.26.26,0,0,1-.23,0h0c-.08,0-.14.09-.18.12v0H8c0,.06,0,.06-.07.09s0,0,0,0,0-.05,0-.08,0,0,0,0h0c.05,0,0-.07,0-.12h0c0-.11-.1-.19,0-.26a.25.25,0,0,0,.23-.17v0h0s0-.06,0-.09a.52.52,0,0,0,0-.13A.26.26,0,0,0,8,28.69c-.09.09-.1.24-.25.22a.17.17,0,0,1-.07-.06.32.32,0,0,1,0-.08s0,0,0-.09a.31.31,0,0,0-.08-.13.28.28,0,0,0-.15-.08h0c0-.05.11-.08.15-.08s.12,0,.19,0h0c.07-.07.09-.14.21-.15a.22.22,0,0,0,0,.07s0,0,0,.06h0a.29.29,0,0,0,.23.08h0a.59.59,0,0,0,.26-.22.39.39,0,0,0,0-.18s0,0,0,0h0A.22.22,0,0,0,8.53,28c-.07-.05-.23,0-.3,0a0,0,0,0,1,0-.06s0,0,0-.05.25-.08.24-.23v-.08s.11,0,.14,0,0,.13.12.15.14-.07.17,0h0c0,.11-.08.21-.07.3a.17.17,0,0,0,.08.12h0a1,1,0,0,0,.66.21,1.94,1.94,0,0,1,.74-.11c.5-.07.95-.27,1.45-.34a1.61,1.61,0,0,0,.62-.42c.06,0,.1.11.16.15s.25.14.39.06a.73.73,0,0,0,.4-.27c.07,0,.07.13.11.19a.43.43,0,0,0,.38.17.56.56,0,0,0,.42-.24c.07-.34.39-.54.47-.86a.43.43,0,0,1,.08-.09c0,.07.09.14.12.22a.26.26,0,0,1,0,.25c0,.07-.1.14-.1.2a.08.08,0,0,0,0,.06c.07,0,.15,0,.22.07a1.17,1.17,0,0,0,.34-.11c.13.28.46.34.67.57h0a5.22,5.22,0,0,1,1.26,1.71c.1.21.2.43.28.65a.85.85,0,0,0,.59-.07.6.6,0,0,0,.37-.46,5.23,5.23,0,0,0-1-2.4,3.61,3.61,0,0,1-.22-.55,4.87,4.87,0,0,1-.22-1.18s0-.06,0-.09a1.61,1.61,0,0,1,0-.39c0-.25.08-.49.08-.73a1.3,1.3,0,0,0,0-.37,3.08,3.08,0,0,0-.11-.45h0c.13,0,.27.28.34.07a2.54,2.54,0,0,0,.05-.65.47.47,0,0,0,0-.05,1.16,1.16,0,0,0-.09-.33,1.35,1.35,0,0,1-.06-.19.32.32,0,0,1,.16.14,1.94,1.94,0,0,1,.1.2,1.89,1.89,0,0,1,.11,1.11c0,.06,0,.12,0,.17a.16.16,0,0,0,0,.12c.15,0,.19-.21.35-.21h0a2.2,2.2,0,0,0-.34,1.37c0,.09,0,.21,0,.31a1.8,1.8,0,0,0,.16.66c0,.06,0,.13.08.19s.09,0,.13,0c.15-.2.13-.46.27-.66a.37.37,0,0,1,.2-.21h0a.4.4,0,0,1,0,.28,1.38,1.38,0,0,0-.22.73,1.62,1.62,0,0,0,0,.24,1,1,0,0,0,0,.11,1,1,0,0,0,0,.13.72.72,0,0,0,.07.19v0a.56.56,0,0,0,.17.17h0s.07,0,.1,0,.05-.33.17-.46.29-.32.31-.53a.5.5,0,0,1,.14-.13h0c-.08.34-.26.63-.34,1a1.66,1.66,0,0,0-.05.47c0,.17,0,.33,0,.47a.51.51,0,0,0,.19.28s.09,0,.08-.05a1.21,1.21,0,0,1,.09-.44c.13-.2.35-.27.5-.45h0c-.07.33-.38.55-.41.89a1.43,1.43,0,0,0,0,.6v0a.1.1,0,0,0,.1,0c.11,0,.18-.15.26-.23s.36-.17.5-.32h0c.05.27-.28.37-.42.53s-.26.55-.54.73c-.06.05-.12.12-.09.21s.18.09.28.11c.5-.15.8-.74,1.31-.86.21,0,.34.13.42.28h0C21.23,29.78,21.13,29.87,21.05,30Zm4.58-3.2a7.41,7.41,0,0,1-.17,1.42,5.48,5.48,0,0,1-.19.77s-.1.37-.11.43a6.41,6.41,0,0,1-.29.78c-.41-.23-.8-.61-1.16-.86-.18-.15-.29-.29-.47-.42,0,0-.09-.08-.1-.11a5,5,0,0,0-.38-.35,1.67,1.67,0,0,0-.2-.2c-.27-.25-.53-.54-.76-.77l-.31-.32-.35-.38c-.1-.11-.15-.17-.32-.36s-1.32-1.64-1.32-1.64l-.32-.45c-.29-.36-.4-.58-.64-.92l-.08-.12c-.19-.25-.37-.59-.53-.84s-.14-.19-.18-.32-.1-.23-.19-.31-.15-.29-.22-.41-.18-.34-.25-.54a4.25,4.25,0,0,1-.27-.53c-.21-.46-.68-1.59-.71-1.65-.11-.26-.16-.44-.25-.66l-.07-.2c-.07-.2-.55-1.7-.73-2.29a2.5,2.5,0,0,1-.06-.29s-.15-.67-.21-1c0-.2,0-.35-.1-.57s0-.33-.07-.5c-.08-.43-.12-.88-.18-1.34v-.12l.21,0a4.59,4.59,0,0,0,.49,0c.34.05.74,0,1.09,0l1.4.07c.35,0,.6.05.94.06s.8.07,1.21.11c1.07.07,2.16.24,3.23.39a3.07,3.07,0,0,0,.41.07c.74.12,1.46.26,2.19.41h0c0,.32,0,1,0,1,0,.53,0,1.11,0,1.65V17c0,.6,0,6,0,7.06,0,0,0,0,0,.07,0,.66,0,1.26,0,1.92C25.64,26.25,25.69,26.56,25.63,26.77Zm.69-14.48a.26.26,0,0,1,.07.2.28.28,0,0,1-.31.14c-1.21-.28-2.5-.5-3.75-.67-.59-.07-1.17-.16-1.77-.23s-1.11-.12-1.65-.15l-1-.08c-.59,0-1.2,0-1.79-.08-.87,0-1.79,0-2.66,0-.27,0-.46,0-.73,0-.42,0-.84,0-1.24,0-.1,0-.23,0-.34,0-.37,0-.74,0-1.1.08-1.19.07-2.33.21-3.48.37-.12.05-.27,0-.38.07l-.24,0c-.17.06-.38,0-.54.1-.61.08-1.22.2-1.85.32-.13.06-.25,0-.38.08s-.53.1-.8.16a.19.19,0,0,1-.17-.09c-.05,0,0-.11,0-.15s.3-.12.45-.19c1.08-.23,2.16-.44,3.23-.6.28,0,.56-.08.83-.12,1-.15,2-.29,3-.34.45-.06.9-.1,1.35-.12.21,0,.45,0,.65,0s.27,0,.38,0c1.16,0,2.23-.06,3.41,0,.54,0,1,0,1.55,0,.25,0,.48.05.73,0s.8,0,1.2.08l0,0a7.77,7.77,0,0,1,.9.08c.38,0,.72.09,1.08.11,1.54.19,3.13.44,4.66.76l.15,0A2.09,2.09,0,0,1,26.32,12.3Zm-.19-.9a1.27,1.27,0,0,1-.27.27,1.52,1.52,0,0,1-.27-.25c0-.1.15-.18.22-.27S26,11.31,26.13,11.39Zm.88-3c-.1.27,0,.59-.11.88-.05.61-.7.8-1,1.28a1,1,0,0,0-.14.46,2.5,2.5,0,0,0-.4.43.36.36,0,0,0,.14.16c.09.13.33.23.27.41-.14-.05-.31,0-.44-.1-.65-.1-1.33-.25-2-.34s-1.2-.18-1.83-.27l0,0-1.62-.18a8.45,8.45,0,0,1-1-.08c-.59,0-1.05,0-1.64-.08-.14,0-.34,0-.49,0-.67,0-1.31,0-2,0a.56.56,0,0,1-.27,0c-.42,0-.87,0-1.31,0-.2,0-.4,0-.61,0a3.12,3.12,0,0,0-.51,0c-.58,0-1.12,0-1.67.08-.27,0-.54,0-.79.06s-.27,0-.39,0c-.6.08-1.24.1-1.84.21-.28,0-.55.08-.84.12-.6.08-1.19.18-1.78.29s-1.42.28-2.15.41c0-.05,0-.13,0-.18l.41-.44v0L2.65,11a1.61,1.61,0,0,0-.83-.86,1.27,1.27,0,0,1-.49-1c0-.1,0-.24,0-.36a3.42,3.42,0,0,0,0-.73,1.13,1.13,0,0,0-.12-.39,1.55,1.55,0,0,0-.23-.29c0-.06.11-.05.16-.08s.08.05.12,0a.63.63,0,0,1,.16-.5c.27.1.35.33.5.53.15-.08.31-.21.5-.11-.1.09-.19.11-.25.25s-.12.42,0,.56a.47.47,0,0,0,.5.2.59.59,0,0,0,.5-.38c0-.06,0-.11,0-.16a.61.61,0,0,1,.31.45,1,1,0,0,1,.7.39A.42.42,0,0,1,4,8.89H3.75c0,.12.15.17.18.29s.09.15.05.24c-.25,0-.5,0-.67.18a.91.91,0,0,0-.11.88c.21.4.73.43,1.14.37a1.2,1.2,0,0,0,.86-.63A.63.63,0,0,0,5,9.58a.86.86,0,0,0-.34-.18c0-.06.07-.13.14-.15a.48.48,0,0,1,.38,0c.05,0,0-.08,0-.1s0-.15,0-.24a.75.75,0,0,1,.11-.34c.15.07.21.22.29.35s.07.22.11.32a.19.19,0,0,0,.11,0,.18.18,0,0,1,.21,0s.07,0,.1.07a.49.49,0,0,0-.29.37.69.69,0,0,0,.34.69,1.14,1.14,0,0,0,1,0,.82.82,0,0,0,.53-.63.51.51,0,0,0-.09-.4c-.17-.25-.46-.23-.72-.22,0-.1.08-.15.15-.2a.11.11,0,0,0,.06,0c-.1-.08-.25-.08-.37-.14a1.08,1.08,0,0,1-.47-.46c0-.12.12-.17.19-.25a.45.45,0,0,1,.29-.1l0,0c0-.09-.12-.17-.06-.27.16.09.48.18.65,0a.41.41,0,0,0,.13-.44A.88.88,0,0,0,7,6.85c0-.07,0,0,.08-.07a.42.42,0,0,1,.4.05l0,0a2.61,2.61,0,0,1,.47-1c.17.07.27.26.38.4l0,.18c.07,0,.06,0,.11,0a.25.25,0,0,1,.3-.08s.08,0,.07,0c-.23.07-.27.23-.29.48A.42.42,0,0,0,8.82,7,.43.43,0,0,0,9.3,7a.5.5,0,0,1,.23.5,1,1,0,0,1,.39.08.47.47,0,0,1,.24.24c0,.23-.14.32-.35.4l-.22.08a.66.66,0,0,1,.21.24l0,0a.93.93,0,0,0-.67.64.44.44,0,0,0,0,.11.62.62,0,0,0,.25.62,1,1,0,0,0,1.14,0,.86.86,0,0,0,.44-.6c0-.2-.1-.32-.21-.45s-.12-.08-.18-.13.21-.08.32-.07a1.54,1.54,0,0,1,.25-.58,1.06,1.06,0,0,1,.25.55.52.52,0,0,1,.45.07c-.17.19-.36.38-.28.66a.76.76,0,0,0,.36.51,1.42,1.42,0,0,0,1.4-.21c0-.08.11-.11.14-.19a.69.69,0,0,0,0-.7.72.72,0,0,0-.68-.37s-.08,0-.12,0,.05-.11.08-.17.09,0,.1-.09-.19-.06-.28-.11a1,1,0,0,1-.44-.4c0-.25.29-.32.5-.38a1.8,1.8,0,0,1,0-.23.54.54,0,0,1,.08-.21c.06,0,.1.11.15.16a.59.59,0,0,0,.64.06.46.46,0,0,0,.22-.35c0-.29-.29-.44-.5-.54a.4.4,0,0,1,.45,0c.09-.07.14-.24.21-.35a1.63,1.63,0,0,1,.42-.54h0a2.24,2.24,0,0,1,.57.8.6.6,0,0,1,.42,0,.26.26,0,0,1,.18.08c-.06,0-.12,0-.19,0a.63.63,0,0,0-.35.42.56.56,0,0,0,.26.41.44.44,0,0,0,.35,0A1,1,0,0,0,16,6.61c.06,0,.09.09.1.15a.43.43,0,0,1-.14.34c0,.09.16.08.21.16a1,1,0,0,1,.29.38c-.08.3-.42.42-.67.54a.9.9,0,0,1,.17.38l0,0a.86.86,0,0,0-.53.08.85.85,0,0,0-.31.65.63.63,0,0,0,.42.55,1.42,1.42,0,0,0,.57,0,1,1,0,0,0,.79-.56.58.58,0,0,0-.11-.52l-.15-.1A.38.38,0,0,1,17,8.58l.13,0c.07-.09.05-.21.1-.29A1.35,1.35,0,0,1,17.39,8h0a1.7,1.7,0,0,1,.21.66c.05.05.1,0,.16,0s.15,0,.17.11a.62.62,0,0,0-.45.5.59.59,0,0,0,.25.59,1.13,1.13,0,0,0,1.2,0,.76.76,0,0,0,.39-.67.59.59,0,0,0-.42-.48h-.3c0-.05.06-.13.13-.14s.1-.06.13-.12a1.7,1.7,0,0,1-.44-.6c0-.12.2-.14.29-.21l.35-.08c0-.08-.09-.11-.07-.21s0-.14.1-.19a.77.77,0,0,0,.44.07A.41.41,0,0,0,19.89,7a.4.4,0,0,0,0-.44c-.07-.13-.27-.12-.39-.17a.27.27,0,0,1,.26-.06c.08,0,.14.12.21,0a2.3,2.3,0,0,1,.64-.69h0a1,1,0,0,1,.24.71.86.86,0,0,1,.49.35c-.11,0-.3-.06-.4,0a.47.47,0,0,0-.11.34.51.51,0,0,0,.21.26c.16.1.34,0,.48-.09,0,0,0,0,0,0s0,.13,0,.18l-.1.09a1.18,1.18,0,0,1,.53.6,1.67,1.67,0,0,1-.6.42c.09.1.19.17.18.32l0,.09a.62.62,0,0,0-.55,0,.76.76,0,0,0-.31.7.74.74,0,0,0,.52.55,1.13,1.13,0,0,0,1.1-.23.77.77,0,0,0,.25-.8c0-.12-.15-.17-.27-.23s.11-.13.17-.15.26,0,.32-.09.11-.28.27-.4.1.06.11.1a1,1,0,0,1,.16.7.49.49,0,0,1,.27.18c0,.07-.1,0-.13.06a.44.44,0,0,0-.37.41.69.69,0,0,0,.27.6c.09.07.19.12.27.18a2,2,0,0,0,.62.14c.12.06.22,0,.35,0a.82.82,0,0,0,.54-.42.69.69,0,0,0-.07-.54,1,1,0,0,0-.52-.32s-.09,0-.12,0,.2-.21.33-.28,0-.07-.05-.08a.88.88,0,0,1-.47-.36c0-.11.12-.14.19-.21A2.08,2.08,0,0,1,25,8.21c.06-.15.05-.29.23-.32a.37.37,0,0,0,.13.23.58.58,0,0,0,.43,0c.06-.05.14,0,.18-.12a.71.71,0,0,0,.13-.28c0-.19-.12-.3-.24-.41l-.09,0,.06-.06a.9.9,0,0,1,.54.13c.18-.19.3-.44.55-.57.09,0,.08.09.12.13s0,.41.06.62c.06,0,.11-.07.18-.07a.22.22,0,0,1,.17.15A1.57,1.57,0,0,0,27,8.35Zm-23.6,2-.06,0a.31.31,0,0,1,0-.25A.21.21,0,0,1,3.41,10.34ZM5,10s.08,0,.08.06,0,.11-.06.14a.26.26,0,0,1-.09-.07S4.95,10.07,5,10Zm0-.21,0-.09c0,.06.07.11.07.18S5,9.87,5,9.83Zm4.5-.3-.09.07a.34.34,0,0,1-.06-.33l0,0a.09.09,0,0,1,0,.08A.46.46,0,0,1,9.45,9.54Zm9.76-.41c0,.05,0,.12,0,.13A.07.07,0,0,1,19.21,9.13ZM21,9.59l-.07,0c0-.06,0-.14,0-.21S21,9.53,21,9.59Z" transform="translate(-0.71 -0.72)"/><path class="e" d="M12,23.35h0s0,.07,0,.06a.1.1,0,0,0,.1,0h0A.09.09,0,0,0,12,23.35Zm-3.38,4.7a.1.1,0,0,0,.12,0,.08.08,0,0,0,0,0s0,0-.08-.06A.1.1,0,0,0,8.66,28.05Z" transform="translate(-0.71 -0.72)"/><path class="e" d="M15.42,23.72a.65.65,0,0,1-.27.6H15.1a.9.9,0,0,0,.19-.64.77.77,0,0,0-.14-.26,0,0,0,0,1,0-.05A.39.39,0,0,1,15.42,23.72Z" transform="translate(-0.71 -0.72)"/><path class="e" d="M15.07,24.34c0,.06-.09.08-.15.1l-.06,0C14.9,24.34,15,24.35,15.07,24.34Z" transform="translate(-0.71 -0.72)"/><path class="e" d="M15.05,22.62s0,.07,0,.1-.2,0-.24.11,0-.22-.21-.22c0,0,0,0,0,0C14.74,22.43,14.9,22.6,15.05,22.62Z" transform="translate(-0.71 -0.72)"/><path class="e" d="M17.57,24.4a2.91,2.91,0,0,1-.08.91.08.08,0,0,1-.05.05.29.29,0,0,1,0-.19,2.85,2.85,0,0,0,0-.77.2.2,0,0,1,0-.14C17.53,24.24,17.53,24.35,17.57,24.4Z" transform="translate(-0.71 -0.72)"/><path class="e" d="M11.94,24.3s0,.07-.08.09-.1,0-.12,0,.11,0,.14-.11S11.94,24.26,11.94,24.3Z" transform="translate(-0.71 -0.72)"/><path class="e" d="M11.48,24.75c-.06.11-.15.27-.29.28s.06-.12.1-.18.05-.39.15-.59C11.56,24.36,11.5,24.6,11.48,24.75Z" transform="translate(-0.71 -0.72)"/><path class="e" d="M15.52,24.56a.87.87,0,0,1,0,.77s0,0-.06,0,0-.21,0-.34,0-.08,0-.11-.09-.21-.1-.34,0-.09.06-.09Z" transform="translate(-0.71 -0.72)"/><path class="e" d="M11.93,24.54c0,.05,0,.08-.06.11s-.1,0-.1-.06A.14.14,0,0,1,11.93,24.54Z" transform="translate(-0.71 -0.72)"/><path class="e" d="M12,24.8c0,.07-.09.08-.14.09h-.08c0-.09.09-.07.13-.13A.08.08,0,0,1,12,24.8Z" transform="translate(-0.71 -0.72)"/><path class="e" d="M15.28,25.23a1.15,1.15,0,0,1-.36.62c0-.26.25-.41.24-.67C15.21,25.09,15.3,25.17,15.28,25.23Z" transform="translate(-0.71 -0.72)"/><path class="e" d="M12.14,25.18c0,.1-.12.09-.18.13s0-.07,0-.11a.27.27,0,0,1,.09-.06S12.12,25.15,12.14,25.18Z" transform="translate(-0.71 -0.72)"/><path class="e" d="M14.93,25.28a.88.88,0,0,1-.69.6s0,0,0,0,.12,0,.17,0a1.21,1.21,0,0,1,.21-.09,1,1,0,0,1-.53.72s-.05,0-.08,0c0-.19.29-.22.3-.43a.94.94,0,0,0-.7.15s-.1,0-.09-.06c.23-.08.27-.37.52-.42s.59-.11.74-.4l.14-.2S14.91,25.25,14.93,25.28Z" transform="translate(-0.71 -0.72)"/><path class="e" d="M14.5,25.24a2.15,2.15,0,0,1-.32.39.16.16,0,0,1-.16,0s0,0,0-.06.27-.33.47-.38Z" transform="translate(-0.71 -0.72)"/><path class="e" d="M14,25.3c0,.15-.23.15-.29.3s-.12,0-.14,0,.22-.17.27-.3S13.94,25.24,14,25.3Z" transform="translate(-0.71 -0.72)"/><path class="e" d="M12.74,25.28a.2.2,0,0,1-.09.17s-.08,0-.07-.05A.16.16,0,0,1,12.74,25.28Z" transform="translate(-0.71 -0.72)"/><path class="e" d="M13.45,25.37a.8.8,0,0,1-.42.38s-.08,0-.09,0,.13-.08.18-.15.17-.27.33-.22Z" transform="translate(-0.71 -0.72)"/><path class="e" d="M12.33,25.8a.34.34,0,0,1-.34.13s-.06,0-.06,0a.92.92,0,0,1,.37-.11Z" transform="translate(-0.71 -0.72)"/><path class="e" d="M13.4,26.08c-.26.34-.74.24-1,.53a.21.21,0,0,1-.16.12.24.24,0,0,1,0-.1,1.57,1.57,0,0,1,.86-.44c.1-.08.24-.11.29-.24S13.41,26,13.4,26.08Z" transform="translate(-0.71 -0.72)"/><path class="e" d="M18,27.18h0c0-.15,0-.32.1-.41a1.64,1.64,0,0,1,0,.71c-.1,0-.14-.16-.21-.25a3.84,3.84,0,0,1-.25-.54l0-.06C17.86,26.77,17.88,27,18,27.18Z" transform="translate(-0.71 -0.72)"/><path class="e" d="M13.25,26.69c0,.08-.16.05-.22.12s0,0-.05,0,0-.11.08-.15S13.22,26.62,13.25,26.69Z" transform="translate(-0.71 -0.72)"/><path class="e" d="M13.81,26.91c0,.07,0,.2.12.22s.19-.22.31-.28c.07.12,0,.25-.1.34a.34.34,0,0,1-.35.09c-.14-.06-.09-.22-.12-.33s0-.15.09-.15Z" transform="translate(-0.71 -0.72)"/><path class="e" d="M18.83,27.59a5.32,5.32,0,0,1-.16.92h0a1.94,1.94,0,0,1-.2-.59s.08,0,.09,0,.05.12.09.18c.1-.15,0-.4.17-.52Z" transform="translate(-0.71 -0.72)"/><path class="e" d="M15,28.42a1,1,0,0,1-.53.37l0,0c.06-.19.28-.18.4-.32l.17-.16S15,28.38,15,28.42Z" transform="translate(-0.71 -0.72)"/><path class="e" d="M15.15,28.53c0,.2-.24.22-.36.33s-.05,0-.06,0c.06-.19.26-.24.39-.35S15.15,28.53,15.15,28.53Z" transform="translate(-0.71 -0.72)"/><path class="e" d="M8.22,28.63s0,.07-.06,0-.05,0-.05,0S8.21,28.58,8.22,28.63Z" transform="translate(-0.71 -0.72)"/><path class="e" d="M15.23,28.73A.48.48,0,0,1,15,29s-.06,0-.08,0,.07-.15.15-.17.06-.06.11-.08S15.22,28.7,15.23,28.73Z" transform="translate(-0.71 -0.72)"/><path class="e" d="M15.38,28.89a.34.34,0,0,1-.22.2.07.07,0,0,1-.05,0C15.18,29,15.26,28.8,15.38,28.89Z" transform="translate(-0.71 -0.72)"/><path class="e" d="M13.26,28c0,.14.18.33,0,.43a.63.63,0,0,0-.55,0c-.23.1-.24.45-.5.5a.64.64,0,0,1,.18-.38.42.42,0,0,0,.22-.4l.07-.06c.05,0,.05.11.06.17s.07-.23.21-.28a.29.29,0,0,1,.09.22c.15,0,.06-.21.2-.27Z" transform="translate(-0.71 -0.72)"/><path class="e" d="M11.6,28.25s0,0,0,.07-.16,0-.23,0a.76.76,0,0,1-.7.12c.15-.07.35-.08.5-.17S11.47,28.1,11.6,28.25Z" transform="translate(-0.71 -0.72)"/><path class="e" d="M9.06,28.79a.11.11,0,0,1,0,.13c-.14.07-.25-.08-.39-.07a.07.07,0,0,1,0-.1C8.8,28.64,8.91,28.79,9.06,28.79Z" transform="translate(-0.71 -0.72)"/><path class="e" d="M10,28.83s0,.12,0,.14a.1.1,0,0,1-.09-.12C9.92,28.77,10,28.77,10,28.83Z" transform="translate(-0.71 -0.72)"/><path class="e" d="M10.27,28.85s0,.08,0,.1-.09,0-.09-.09,0-.06,0-.08S10.26,28.83,10.27,28.85Z" transform="translate(-0.71 -0.72)"/><path class="e" d="M9.64,28.88a.09.09,0,0,1,0,.08.1.1,0,0,1,0-.13C9.59,28.75,9.69,28.83,9.64,28.88Z" transform="translate(-0.71 -0.72)"/><path class="e" d="M9.82,28.89s0,.08-.05.08,0-.09,0-.13S9.81,28.84,9.82,28.89Z" transform="translate(-0.71 -0.72)"/><path class="e" d="M8.4,28.89s0,.12-.1.09a.11.11,0,0,1-.06-.09.05.05,0,0,1,0-.06C8.32,28.83,8.38,28.83,8.4,28.89Z" transform="translate(-0.71 -0.72)"/><path class="e" d="M15.53,29a.25.25,0,0,1-.15.17.21.21,0,0,1-.1,0,.81.81,0,0,1,.18-.2A.06.06,0,0,1,15.53,29Z" transform="translate(-0.71 -0.72)"/><path class="e" d="M19.07,29.26c0,.16,0,.35-.09.45a.81.81,0,0,1,0-.38c0-.06,0-.13,0-.17S19,29.24,19.07,29.26Z" transform="translate(-0.71 -0.72)"/><path class="e" d="M15.65,29.22c0,.09-.08.1-.13.15s-.07,0-.1,0,0-.07,0-.11S15.6,29.09,15.65,29.22Z" transform="translate(-0.71 -0.72)"/><path class="e" d="M15.77,29.41a.25.25,0,0,1-.17.14l-.05-.05C15.6,29.45,15.73,29.24,15.77,29.41Z" transform="translate(-0.71 -0.72)"/><path class="e" d="M15.86,29.61s-.1.1-.15.05,0-.05,0-.08S15.89,29.51,15.86,29.61Z" transform="translate(-0.71 -0.72)"/><path class="e" d="M16,29.72s-.05.08-.09.09a.05.05,0,0,1-.07,0s0-.06.06-.07S15.95,29.69,16,29.72Z" transform="translate(-0.71 -0.72)"/><path class="e" d="M18.79,29.83s0,.09-.05.09-.05,0-.06-.06,0-.06,0-.08S18.77,29.82,18.79,29.83Z" transform="translate(-0.71 -0.72)"/><path class="e" d="M16.05,29.87c0,.06,0,.1-.07.11a.08.08,0,0,1-.1,0s0-.05.08-.07S16,29.85,16.05,29.87Z" transform="translate(-0.71 -0.72)"/><path class="e" d="M16.12,30.11a.23.23,0,0,1-.08.2.27.27,0,0,1-.05-.21C16,30,16.12,30,16.12,30.11Z" transform="translate(-0.71 -0.72)"/><path class="e" d="M18.37,30.26s0,.09-.09.08a.07.07,0,0,1-.06-.06s0-.06.05-.09S18.38,30.21,18.37,30.26Z" transform="translate(-0.71 -0.72)"/><path class="e" d="M17.9,30.39s0,.08,0,.09a.08.08,0,0,1-.09-.08.06.06,0,0,1,0-.07S17.9,30.35,17.9,30.39Z" transform="translate(-0.71 -0.72)"/><path class="e" d="M17.67,30.43s0,.08,0,.09-.06,0-.08-.07S17.66,30.36,17.67,30.43Z" transform="translate(-0.71 -0.72)"/><path class="e" d="M16.58,30.43a0,0,0,0,1,0,.07s-.09,0-.13,0,0-.09,0-.1A.21.21,0,0,1,16.58,30.43Z" transform="translate(-0.71 -0.72)"/><path class="e" d="M18.67,30.06a.09.09,0,0,1-.07,0c-.05,0,0-.08,0-.11S18.71,30,18.67,30.06Z" transform="translate(-0.71 -0.72)"/><path class="e" d="M18.55,30.16c0,.05-.05,0-.09,0s-.06,0-.06,0,0-.06.07-.08S18.58,30.1,18.55,30.16Z" transform="translate(-0.71 -0.72)"/><path class="e" d="M18.12,30.35s0,.1-.08.09,0,0-.05-.08A.09.09,0,0,1,18,30.3.08.08,0,0,1,18.12,30.35Z" transform="translate(-0.71 -0.72)"/><path class="e" d="M18.9,30.38c0,.07-.07.05-.1,0s0-.09,0-.11S18.86,30.36,18.9,30.38Z" transform="translate(-0.71 -0.72)"/><path class="e" d="M18.7,30.49a.07.07,0,0,1,0,.05.13.13,0,0,1-.07,0s0-.06,0-.06S18.68,30.45,18.7,30.49Z" transform="translate(-0.71 -0.72)"/><path class="e" d="M14,30.55s0,.06,0,.08-.09,0-.08-.05,0-.09,0-.09S14,30.51,14,30.55Z" transform="translate(-0.71 -0.72)"/><path class="e" d="M14.32,30.56c0,.05-.06.07-.1.09s-.13,0-.12-.07,0-.05,0-.06S14.29,30.52,14.32,30.56Z" transform="translate(-0.71 -0.72)"/><path class="e" d="M13.83,30.62s0,.05-.08.07-.05,0-.08-.06a.16.16,0,0,1,0-.1C13.78,30.51,13.85,30.55,13.83,30.62Z" transform="translate(-0.71 -0.72)"/><path class="e" d="M16.65,30.64a.07.07,0,0,1,0,.07.15.15,0,0,1-.13-.05s0,0,0-.06S16.62,30.59,16.65,30.64Z" transform="translate(-0.71 -0.72)"/><path class="e" d="M17.49,30.79s0,0-.05.06-.06,0-.06,0,0-.06,0-.07S17.49,30.76,17.49,30.79Z" transform="translate(-0.71 -0.72)"/><path class="e" d="M13.29,30.87c0,.08-.09.09-.14.13s-.16.08-.18,0,.21-.06.29-.18S13.29,30.84,13.29,30.87Z" transform="translate(-0.71 -0.72)"/><path class="e" d="M16.69,30.87v.06a.17.17,0,0,1-.16,0s0-.08,0-.08A.12.12,0,0,1,16.69,30.87Z" transform="translate(-0.71 -0.72)"/><path class="e" d="M15.47,30.91s0,.09-.05.1-.05,0-.05-.07,0-.09,0-.09S15.47,30.87,15.47,30.91Z" transform="translate(-0.71 -0.72)"/><path class="e" d="M17.53,30.91s0,.07-.06.08-.06,0-.08,0S17.48,30.89,17.53,30.91Z" transform="translate(-0.71 -0.72)"/><path class="e" d="M15.27,31a.05.05,0,0,1-.06.06s0,0-.05-.05S15.28,31,15.27,31Z" transform="translate(-0.71 -0.72)"/><path class="e" d="M16.68,31.05c0,.06-.06.09-.11.11s0,0-.06-.06,0-.09.07-.11A.1.1,0,0,1,16.68,31.05Z" transform="translate(-0.71 -0.72)"/><path class="e" d="M17.58,31.11a.1.1,0,0,1-.16,0s0,0,0-.05a.11.11,0,0,1,.13,0S17.58,31.09,17.58,31.11Z" transform="translate(-0.71 -0.72)"/><path class="e" d="M15.05,31.11s0,.08-.06.08-.07,0-.06-.06a.06.06,0,0,1,0-.08S15,31.08,15.05,31.11Z" transform="translate(-0.71 -0.72)"/><path class="e" d="M14.38,31.09a.2.2,0,0,1-.11.14.18.18,0,0,1,.05-.18A.06.06,0,0,1,14.38,31.09Z" transform="translate(-0.71 -0.72)"/><path class="e" d="M14.85,31.2s0,.06,0,.08a.09.09,0,0,1-.09-.05s0-.06,0-.08A.06.06,0,0,1,14.85,31.2Z" transform="translate(-0.71 -0.72)"/><path class="e" d="M17.58,31.25c0,.07-.06.06-.1.08s-.05,0-.07,0,0-.07,0-.08S17.56,31.2,17.58,31.25Z" transform="translate(-0.71 -0.72)"/><path class="e" d="M14.67,31.31s0,0-.07,0-.05-.06,0-.09S14.71,31.24,14.67,31.31Z" transform="translate(-0.71 -0.72)"/><path class="e" d="M13.19,31.3c0,.14-.12.18-.14.29s0,0-.06-.05.08-.2.11-.29A.09.09,0,0,1,13.19,31.3Z" transform="translate(-0.71 -0.72)"/><path class="e" d="M14.54,31.33a.06.06,0,0,1-.05.06s0,0-.06-.05S14.54,31.24,14.54,31.33Z" transform="translate(-0.71 -0.72)"/><path class="e" d="M16.54,31.35c-.08.06,0,.15-.08.21s0,.15-.13.2-.15,0-.16-.09.12-.09.1-.19.17,0,.14-.16S16.53,31.28,16.54,31.35Z" transform="translate(-0.71 -0.72)"/><path class="e" d="M14,31.36c0,.1,0,.16-.11.22s0-.1,0-.13S13.91,31.19,14,31.36Z" transform="translate(-0.71 -0.72)"/><path class="e" d="M17.6,31.44a.26.26,0,0,1-.19.14s-.09,0-.09,0,.16-.11.27-.13Z" transform="translate(-0.71 -0.72)"/><path class="e" d="M13.19,31.75c0,.21-.23.11-.35.18s0-.08,0-.09.2,0,.23-.14A.06.06,0,0,1,13.19,31.75Z" transform="translate(-0.71 -0.72)"/><path class="e" d="M17.57,31.75a.26.26,0,0,1-.25.14s-.1,0-.05-.1.19,0,.28-.08S17.59,31.73,17.57,31.75Z" transform="translate(-0.71 -0.72)"/><path class="e" d="M16.37,32s0,.05-.07.05-.1,0-.13,0-.05-.06,0-.1S16.34,31.93,16.37,32Z" transform="translate(-0.71 -0.72)"/><path class="e" d="M17.54,32c0,.13-.17.14-.27.19a.05.05,0,0,1-.06,0C17.26,32,17.43,32,17.54,32Z" transform="translate(-0.71 -0.72)"/><path class="e" d="M13,32.1a.64.64,0,0,1-.17.43s-.05,0-.09,0,.05-.1.07-.16,0-.28.1-.36S13,32.07,13,32.1Z" transform="translate(-0.71 -0.72)"/><path class="e" d="M17.5,32.29c-.11.08-.2.2-.33.14a.06.06,0,0,1,0-.09,2.29,2.29,0,0,1,.33-.09Z" transform="translate(-0.71 -0.72)"/><path class="e" d="M17.51,32.5c-.07.1-.18.22-.32.21a.08.08,0,0,1,0-.08c.09-.09.23-.07.33-.14Z" transform="translate(-0.71 -0.72)"/><path class="e" d="M18.48,32.76c0,.13-.16.23-.23.35.1,0,.18-.06.29,0a.32.32,0,0,1-.28.2c.07.05.2,0,.24.06s-.16.09-.26.12-.06,0-.1,0,0,0,.06.06.06,0,.08,0-.21,0-.22.18-.09,0-.13,0a.43.43,0,0,0-.26.13c.05,0,.11.11.17.16s0,.11,0,.14-.27-.09-.32-.23a.21.21,0,0,1,.06-.2c.18-.15.56-.18.53-.49-.1,0-.24,0-.27-.14v0a.71.71,0,0,0,.61-.29Z" transform="translate(-0.71 -0.72)"/><path class="e" d="M12.85,32.77a.09.09,0,0,1-.06.09s-.1,0-.08,0,0-.09.07-.09A.07.07,0,0,1,12.85,32.77Z" transform="translate(-0.71 -0.72)"/><path class="e" d="M12.16,32.84c-.12.21-.4.12-.54.31s-.11.14-.18.21h0a.64.64,0,0,1,.38-.47c.11.07.08-.08.17-.07S12.12,32.79,12.16,32.84Z" transform="translate(-0.71 -0.72)"/><path class="e" d="M12.65,32.95a.13.13,0,0,1-.11,0s0,0,0-.05S12.72,32.86,12.65,32.95Z" transform="translate(-0.71 -0.72)"/><path class="e" d="M12.49,32.94c0,.06-.05.1-.1.11h-.06a.23.23,0,0,1,0-.14S12.5,32.86,12.49,32.94Z" transform="translate(-0.71 -0.72)"/><path class="e" d="M16.82,33c0,.05,0,.11-.06.1s-.11-.05-.06-.11A.06.06,0,0,1,16.82,33Z" transform="translate(-0.71 -0.72)"/><path class="e" d="M11,33a.14.14,0,0,1-.07.13s-.06,0-.08-.05S10.92,32.92,11,33Z" transform="translate(-0.71 -0.72)"/><path class="e" d="M16.8,33.38s0,.09-.05.09-.07,0-.07-.06,0-.07.05-.08S16.78,33.36,16.8,33.38Z" transform="translate(-0.71 -0.72)"/><path class="e" d="M11.12,33.7c0,.07,0,.18,0,.23A.29.29,0,0,1,11,34c-.05-.1.1-.21,0-.32s-.22-.11-.34-.16.08-.06.13-.06A.37.37,0,0,1,11.12,33.7Z" transform="translate(-0.71 -0.72)"/><path class="e" d="M16.82,33.68s0,0,0,.06-.09,0-.08-.09S16.81,33.6,16.82,33.68Z" transform="translate(-0.71 -0.72)"/><path class="e" d="M16.8,34c0,.07-.06,0-.1,0s-.05,0-.06-.06,0-.08.06-.08S16.78,34,16.8,34Z" transform="translate(-0.71 -0.72)"/><path class="e" d="M11.44,33.93c0,.09-.11.14-.17.16s-.11,0-.14-.05.08,0,.12-.07S11.39,33.85,11.44,33.93Z" transform="translate(-0.71 -0.72)"/><path class="e" d="M16.81,34.23c0,.05-.07.08-.1.11a.21.21,0,0,1-.18,0s0-.06,0-.09.18,0,.28,0Z" transform="translate(-0.71 -0.72)"/><path class="e" d="M16.93,34.8s0,.1-.1.09a0,0,0,0,1,0-.05s0-.09.08-.1S16.91,34.78,16.93,34.8Z" transform="translate(-0.71 -0.72)"/><path class="e" d="M16.82,35s0,0,0,.05-.09,0-.09,0a.11.11,0,0,1,0-.09A.11.11,0,0,1,16.82,35Z" transform="translate(-0.71 -0.72)"/><path class="e" d="M16.74,35.22s0,0,0,0-.14,0-.09-.12S16.75,35.15,16.74,35.22Z" transform="translate(-0.71 -0.72)"/><path class="e" d="M16.64,35.38s0,.06-.06.08a.07.07,0,0,1-.08-.05s0-.07.05-.09S16.66,35.33,16.64,35.38Z" transform="translate(-0.71 -0.72)"/><path class="e" d="M16.32,35.82s0,.06-.08,0,0,0,0,0S16.31,35.75,16.32,35.82Z" transform="translate(-0.71 -0.72)"/><path class="e" d="M14.41,6.53c.15.6-.07,1.22,0,1.83h0a1.58,1.58,0,0,1,1-.85c.08,0,.13,0,.2,0s0,.08-.08.12a1.37,1.37,0,0,0-1.1.84,1,1,0,0,0-.11.54c0,.05-.08,0-.12,0s0-.12,0-.21A1.12,1.12,0,0,0,13.72,8c-.25-.14-.54-.18-.78-.33,0,0,0-.06,0-.09a1.62,1.62,0,0,1,.59.16,1.81,1.81,0,0,1,.74.59.52.52,0,0,0,0-.3c0-.25,0-.52,0-.79s0-.59,0-.82C14.39,6.4,14.39,6.48,14.41,6.53Z" transform="translate(-0.71 -0.72)"/><path class="e" d="M20.49,6.84a15.34,15.34,0,0,1-.28,1.77h0a1.91,1.91,0,0,1,.86-.56c.1,0,.19-.07.27,0-.12.18-.38.09-.54.2l-.24.17c-.09,0-.08.11-.16.15a.56.56,0,0,0-.15.19.42.42,0,0,0-.16.36c0,.1,0,.28-.09.32s0-.22,0-.34-.07-.39-.13-.57A2,2,0,0,0,19.22,8s-.06,0-.08-.05.2,0,.27,0a1.73,1.73,0,0,1,.61.72c.07,0,.05-.16.08-.24a2.19,2.19,0,0,0,.07-.48c.05-.06,0-.16,0-.23s0-.21.05-.33.12-.4.18-.6C20.48,6.77,20.47,6.82,20.49,6.84Z" transform="translate(-0.71 -0.72)"/><path class="e" d="M8.24,7.3c.07.38.18.73.22,1.12,0,.06,0,.15.06.21s.07-.17.13-.24A1.42,1.42,0,0,1,9.5,7.7s0,.1,0,.15S9.16,8,9,8.11a1.62,1.62,0,0,0-.44,1.36s0,.08-.07.09a.13.13,0,0,1-.09-.08,1,1,0,0,0-.26-.71,1.73,1.73,0,0,0-1.08-.51C7,8.22,7,8.13,7,8.06s.14.05.21.07a1.42,1.42,0,0,1,1.12.52.22.22,0,0,0,0-.18,8,8,0,0,1-.21-1.58s.05,0,.07,0A.94.94,0,0,1,8.24,7.3Z" transform="translate(-0.71 -0.72)"/><path class="e" d="M1.78,7.71C2.12,8,2,8.57,2,9a.75.75,0,0,0,.24.42c.19-.3.35-.69.71-.84a.76.76,0,0,1,.54,0s0,.07,0,.09-.2,0-.29.09a1.14,1.14,0,0,0-.74.7c-.08.16.09.23.15.34a1.09,1.09,0,0,1,.24.56s-.09,0-.14,0h0c-.06-.5-.68-.69-.78-1.17s.07-.83-.09-1.2c0-.09-.07-.17,0-.24Z" transform="translate(-0.71 -0.72)"/><path class="e" d="M26.89,7.94c-.37.42-.18,1-.42,1.44s-.66.63-.88,1c0,.07-.08.07-.11.11s0-.19,0-.27.27-.28.36-.45a.91.91,0,0,0-.42-1,.37.37,0,0,1-.11-.23s0-.08,0-.1c.23.27.56.49.63.86,0,.1,0,.2,0,.3s.12-.11.18-.16c.33-.42.19-1,.44-1.48C26.7,8,26.78,7.89,26.89,7.94Z" transform="translate(-0.71 -0.72)"/><path class="e" d="M11.33,9.73a.28.28,0,0,0-.21-.16.51.51,0,0,0-.19.09.32.32,0,0,0,0,.21.31.31,0,0,0,.21.16.29.29,0,0,0,.2-.09C11.36,9.88,11.33,9.79,11.33,9.73Zm-.2.19c-.06,0-.08-.05-.12-.09a.1.1,0,0,1,.08-.11c.05,0,.09,0,.12.08S11.18,9.89,11.13,9.91Z" transform="translate(-0.71 -0.72)"/><path class="e" d="M17.25,9.71c0-.11-.16-.11-.25-.11a.26.26,0,0,0-.16.14c0,.09,0,.17,0,.23a.35.35,0,0,0,.18.08.27.27,0,0,0,.18-.09C17.26,9.88,17.32,9.77,17.25,9.71Zm-.2.21c-.05,0-.09-.05-.1-.09s0-.11.07-.11.14,0,.13.11S17.11,9.92,17.06,9.92Z" transform="translate(-0.71 -0.72)"/><path class="e" d="M22.77,10.2a.27.27,0,0,0-.2,0,.22.22,0,0,0-.13.26.31.31,0,0,0,.16.16.22.22,0,0,0,.22,0,.26.26,0,0,0,.08-.24A.33.33,0,0,0,22.77,10.2Zm-.08.3c-.06,0-.13,0-.11-.12s0-.06.07-.08a.15.15,0,0,1,.12.06A.1.1,0,0,1,22.69,10.5Z" transform="translate(-0.71 -0.72)"/><path class="e" d="M17.72,10.31a.23.23,0,0,0-.23-.13.27.27,0,0,0-.2.15.3.3,0,0,0,.06.22c0,.05.1.05.15.07a.28.28,0,0,0,.2-.1C17.73,10.46,17.77,10.37,17.72,10.31Zm-.19.18a.09.09,0,0,1-.11-.05.11.11,0,0,1,.08-.14c.05,0,.08,0,.11.08S17.57,10.47,17.53,10.49Z" transform="translate(-0.71 -0.72)"/><path class="e" d="M16.53,10.12a.23.23,0,0,0-.25.12c0,.06-.05.13,0,.18a.28.28,0,0,0,.21.15l.13,0a.23.23,0,0,0,.11-.25A.26.26,0,0,0,16.53,10.12Zm0,.32c-.06,0-.09,0-.1-.09s0-.1.08-.1.11,0,.12.1S16.55,10.44,16.49,10.44Z" transform="translate(-0.71 -0.72)"/><path class="e" d="M11.81,10.17a.31.31,0,0,0-.17-.06.28.28,0,0,0-.17.12.26.26,0,0,0,0,.25.28.28,0,0,0,.26.07c.05,0,.12-.07.14-.16S11.85,10.23,11.81,10.17Zm-.14.26c-.05,0-.1,0-.09-.07s0-.1.06-.12.1,0,.13.08S11.72,10.44,11.66,10.42Z" transform="translate(-0.71 -0.72)"/><path class="e" d="M10.84,10.27a.26.26,0,0,0-.26-.09c-.05,0-.13.08-.15.14s0,.16.05.22a.52.52,0,0,0,.17.08.33.33,0,0,0,.2-.13A.24.24,0,0,0,10.84,10.27Zm-.16.23a.09.09,0,0,1-.11-.06.12.12,0,0,1,.05-.13s.13,0,.15.06A.13.13,0,0,1,10.67,10.49Z" transform="translate(-0.71 -0.72)"/><path class="e" d="M22.25,10.77c0-.1-.15-.13-.25-.14a.28.28,0,0,0-.19.19c0,.09,0,.21.13.24a.29.29,0,0,0,.26,0C22.27,11,22.25,10.86,22.25,10.77Zm-.16.19c-.08,0-.15,0-.16-.09s.06-.08.11-.11.08.05.1.08S22.13,10.95,22.08,11Z" transform="translate(-0.71 -0.72)"/><path class="e" d="M6.33,10.71a.28.28,0,0,0-.21-.06.23.23,0,0,0-.17.16A.31.31,0,0,0,6,11c.06,0,.11.07.18.05a.26.26,0,0,0,.21-.15A.28.28,0,0,0,6.33,10.71ZM6.19,11c-.06,0-.09,0-.12-.06s0-.09.07-.13a.15.15,0,0,1,.13.05C6.28,10.91,6.25,11,6.19,11Z" transform="translate(-0.71 -0.72)"/><path class="e" d="M23.28,10.9a.3.3,0,0,0-.2-.09.32.32,0,0,0-.17.09c0,.08-.09.15,0,.24a.22.22,0,0,0,.19.12c.09,0,.18,0,.22-.12A.39.39,0,0,0,23.28,10.9Zm-.17.25A.14.14,0,0,1,23,11c0-.05,0-.05.07-.07a.13.13,0,0,1,.16.07S23.16,11.14,23.11,11.15Z" transform="translate(-0.71 -0.72)"/><path class="e" d="M5.34,10.93a.29.29,0,0,0-.34,0,.28.28,0,0,0,0,.24.2.2,0,0,0,.24.13c.05,0,.06,0,.09,0a.21.21,0,0,0,.1-.13A.27.27,0,0,0,5.34,10.93Zm-.13.26a.11.11,0,0,1-.13-.07c0-.07,0-.09.08-.12a.12.12,0,0,1,.11.07A.1.1,0,0,1,5.21,11.19Z" transform="translate(-0.71 -0.72)"/><path class="e" d="M5.79,10.36a.28.28,0,0,0-.23-.16.29.29,0,0,0-.17.09.25.25,0,0,0,0,.23.25.25,0,0,0,.21.15c.08,0,.16,0,.21-.11A.25.25,0,0,0,5.79,10.36Zm-.2.18c-.07,0-.1-.06-.12-.1s0-.08.07-.09a.12.12,0,0,1,.15.08A.16.16,0,0,1,5.58,10.54Z" transform="translate(-0.71 -0.72)"/><path class="e" d="M15.87,10.12s0,.11,0,.15a3.64,3.64,0,0,1-.76,0c-.06,0,0-.09,0-.14l0,0Z" transform="translate(-0.71 -0.72)"/><path class="e" d="M13.11,10.16c0,.2-.24.07-.33.12h-.43a.11.11,0,0,1,0-.14,5.05,5.05,0,0,1,.62,0C13,10.1,13.1,10.08,13.11,10.16Z" transform="translate(-0.71 -0.72)"/><path class="e" d="M18.84,10.29s0,.09,0,.13a1,1,0,0,1-.35,0l-.41,0a.12.12,0,0,1,0-.12s0,0,.06,0A5.78,5.78,0,0,1,18.84,10.29Z" transform="translate(-0.71 -0.72)"/><path class="e" d="M10,10.3s0,.08,0,.09l-.69.06c-.07,0,0-.07-.07-.12s.16,0,.22-.07a2.12,2.12,0,0,0,.41,0C9.92,10.23,10,10.2,10,10.3Z" transform="translate(-0.71 -0.72)"/><path class="e" d="M13.12,10.4a.13.13,0,0,1,0,.12,7,7,0,0,1-.76,0,.14.14,0,0,1,0-.13,4.89,4.89,0,0,1,.62,0C13,10.35,13.09,10.35,13.12,10.4Z" transform="translate(-0.71 -0.72)"/><path class="e" d="M15.87,10.4a.12.12,0,0,1,0,.13,3.57,3.57,0,0,1-.75,0s0-.08,0-.12l0,0A4.2,4.2,0,0,1,15.87,10.4Z" transform="translate(-0.71 -0.72)"/><path class="e" d="M21.4,10.58s0,.09,0,.13a2.19,2.19,0,0,1-.76-.12s0-.12,0-.14A6.15,6.15,0,0,1,21.4,10.58Z" transform="translate(-0.71 -0.72)"/><path class="e" d="M18.72,10.54s.12,0,.12.06v.1a2.8,2.8,0,0,1-.76,0s0-.14,0-.14A4.72,4.72,0,0,1,18.72,10.54Z" transform="translate(-0.71 -0.72)"/><path class="e" d="M10,10.49a.25.25,0,0,1,0,.15,5,5,0,0,1-.73.06c-.06,0,0-.09,0-.15a3.14,3.14,0,0,1,.58-.07Z" transform="translate(-0.71 -0.72)"/><path class="e" d="M7.54,10.63c0,.09-.12.08-.18.09s-.29,0-.43.07-.16.05-.18-.06,0-.1.05-.1.15,0,.21,0a2.54,2.54,0,0,0,.41-.06C7.5,10.5,7.53,10.57,7.54,10.63Z" transform="translate(-0.71 -0.72)"/><path class="e" d="M21.37,10.84c0,.05,0,.13,0,.15-.26,0-.46-.11-.71-.12-.07,0,0-.09,0-.13s.19,0,.29,0S21.2,10.84,21.37,10.84Z" transform="translate(-0.71 -0.72)"/><path class="e" d="M7.56,10.82c0,.06,0,.15-.09.14a4.39,4.39,0,0,1-.65.06.11.11,0,0,1,0-.11c.08-.09.2,0,.29-.07l.3,0S7.54,10.76,7.56,10.82Z" transform="translate(-0.71 -0.72)"/><path class="e" d="M24.47,11a1.32,1.32,0,0,1,.43.13l0,.12-.53-.1c-.06-.07-.22,0-.21-.12S24.35,11.06,24.47,11Z" transform="translate(-0.71 -0.72)"/><path class="e" d="M4.41,11.13s0,.09,0,.11a2.88,2.88,0,0,1-.72.1.16.16,0,0,1,0-.13,4.26,4.26,0,0,1,.73-.13Z" transform="translate(-0.71 -0.72)"/><path class="e" d="M24.83,11.41a.12.12,0,0,1,0,.12,1,1,0,0,1-.44-.07l-.3-.06a.15.15,0,0,1,0-.14,4.44,4.44,0,0,1,.67.12Z" transform="translate(-0.71 -0.72)"/><path class="e" d="M4.45,11.38c0,.06,0,.13-.05.14s-.46.08-.68.1c0,0-.06-.08,0-.14a3.49,3.49,0,0,1,.53-.12C4.29,11.37,4.4,11.29,4.45,11.38Z" transform="translate(-0.71 -0.72)"/><path class="e" d="M8.38,10l.53.43a4.1,4.1,0,0,1-.44.56H8.4l-.51-.4a.14.14,0,0,1,0-.1c.15-.19.29-.34.44-.51Zm0,.22c-.07.1-.19.19-.23.3a1.41,1.41,0,0,0,.31.23.58.58,0,0,0,.12-.13c0-.05.1-.09.12-.16s-.14-.11-.2-.17S8.41,10.22,8.35,10.23Z" transform="translate(-0.71 -0.72)"/><path class="e" d="M14.62,9.9c.08.1.24.15.23.29-.16.15-.35.34-.52.49l-.06,0-.47-.48,0-.06.49-.48C14.44,9.7,14.5,9.82,14.62,9.9Zm-.3,0-.25.24v.05l0,0a.58.58,0,0,0,.24.22,1.9,1.9,0,0,0,.26-.26A1,1,0,0,0,14.32,9.89Z" transform="translate(-0.71 -0.72)"/><path class="e" d="M20.34,10.39c0,.09-.11.1-.16.15l-.45.31a5.47,5.47,0,0,1-.45-.6,2,2,0,0,1,.35-.26l.28-.19h0Zm-.75-.16,0,0a1.55,1.55,0,0,0,.21.3c.1,0,.17-.12.28-.15s-.09-.17-.11-.27C19.85,9.91,19.7,10.22,19.59,10.23Z" transform="translate(-0.71 -0.72)"/><path class="f" d="M14.22,11.65a16.84,16.84,0,0,1-.36,3.13c-.1.28-.1.61-.22.89a13.19,13.19,0,0,1-.6,1.83l0,0c-1,0-2,0-3,0H9.5l0-.13c0-1,0-1.92,0-3,0-.83,0-1.7,0-2.55a6.8,6.8,0,0,1,1-.1c.21,0,.69,0,.69,0,.55,0,1.05-.08,1.61-.05a12.72,12.72,0,0,1,1.42,0Z" transform="translate(-0.71 -0.72)"/><path class="f" d="M6.23,12.27c0,.46,0,1,0,1.41V17.5l0,0H4.42l-1.52,0,0,0c0-.41,0-.86,0-1.28,0-.11,0-.13,0-.21,0-.62,0-1.4,0-2l0-1.13c1-.22,1.94-.4,2.95-.54l0,0A1.65,1.65,0,0,1,6.23,12.27Z" transform="translate(-0.71 -0.72)"/><path class="f" d="M11.65,20.66a33,33,0,0,1-2.08,3.45s0,.09-.1.08c0-.87,0-1.59,0-2.43V20.62l0,0h1.19l0,0,1,0Z" transform="translate(-0.71 -0.72)"/><path class="f" d="M6.24,20.66c0,1,0,2.23,0,3.32,0,.68,0,1.33,0,2l0,.07,0,2a30.43,30.43,0,0,1-2.51,2.21c-.1,0-.09-.15-.15-.22a9.61,9.61,0,0,1-.47-1.6,11.31,11.31,0,0,1-.22-1.77l0,0V25.57c0-.7,0-1.34,0-2a3.89,3.89,0,0,1,0-.53c0-.79,0-1.56,0-2.34v0H5.49l.12,0h.63Z" transform="translate(-0.71 -0.72)"/><path class="f" d="M26,12.87c0,1.31,0,2.48,0,3.81v2.07c0,.05,0,.1,0,.16-.05,1.44,0,2.79,0,4.2,0,.79,0,1.66,0,2.44a.62.62,0,0,1,0,.31c0,.49,0,.87,0,1.36,0,.26-.08.51-.11.76s-.09.51-.18.8A11.56,11.56,0,0,1,20,36.17a11.9,11.9,0,0,1-4.87,1.49l-.67,0a12.46,12.46,0,0,1-1.37,0l-.46-.05a1.78,1.78,0,0,1-.23,0A11.59,11.59,0,0,1,3,29.37a10.33,10.33,0,0,1-.4-2.18l0,0v-.45c-.07-.76,0-1.45,0-2.18l0-.13c0-1.76,0-3.41,0-5.12v-.89c0-.58,0-1.17,0-1.77l0,0c0-1.19,0-2.43,0-3.65a.12.12,0,0,1,.1,0l0,0c0,.54,0,1.13,0,1.66l0,1.95,0,.07c0,1.4,0,2.61,0,4s0,2.4,0,3.6l0,.06,0,2.19,0,.16c0,.28,0,.55,0,.85l0,0A11.06,11.06,0,0,0,4,31.5,11.32,11.32,0,0,0,7.22,35.3a5.42,5.42,0,0,0,.64.43c.2.15.41.24.61.38a12.53,12.53,0,0,0,2,.86,11.35,11.35,0,0,0,3.32.6l.13,0a5.53,5.53,0,0,0,.67,0,6.39,6.39,0,0,0,1.16-.1,11.35,11.35,0,0,0,3.45-1A11.49,11.49,0,0,0,25.8,27.2c0-.09,0-.21,0-.29v-.39c0-.4,0-.83,0-1.25v-1.4a1.13,1.13,0,0,1,0-.17c0-1.39,0-2.76,0-4.15a9.61,9.61,0,0,0,0-1V16.9l0-.05,0-1.48,0,0c0-.65,0-1.41,0-2.07v-.4C25.86,12.8,25.91,12.85,26,12.87Z" transform="translate(-0.71 -0.72)"/><path class="e" d="M21.39,17.79a1.23,1.23,0,0,1,.14.21.56.56,0,0,1-.09.51.51.51,0,0,1-.43.21.59.59,0,0,1-.35-.14.54.54,0,0,1-.14-.56.58.58,0,0,1,.44-.37A.64.64,0,0,1,21.39,17.79Zm-.4.08a.33.33,0,0,0-.2.11c-.05,0-.08.1-.1.16a.39.39,0,0,0,.2.34.36.36,0,0,0,.37-.1.35.35,0,0,0,.05-.34A.37.37,0,0,0,21,17.87Z" transform="translate(-0.71 -0.72)"/><path class="e" d="M23.63,14.66a4.37,4.37,0,0,1,1.69,2.51,4.49,4.49,0,0,1,.1.71c.05.12,0,.15,0,.28a1.18,1.18,0,0,1,0,.3c0,.08,0,.17,0,.23a2.17,2.17,0,0,1-.06.38,4.14,4.14,0,0,1-.54,1.32s0,.06-.05.09a4.45,4.45,0,0,1-7.23.3,3.52,3.52,0,0,1-.64-1.22,1.09,1.09,0,0,1-.11-.32,4.37,4.37,0,0,1-.13-.75,4.5,4.5,0,0,1,0-.56,2.18,2.18,0,0,1,.07-.52c0-.2.11-.43.16-.63l.11-.25a4.38,4.38,0,0,1,1.59-1.94,4.45,4.45,0,0,1,5.08.06Zm-1.91-.54c-.13,0-.23-.06-.36,0a4.37,4.37,0,0,0-1.52.16,4.14,4.14,0,0,0-2.92,3.29c0,.17-.06.33-.07.49a4.06,4.06,0,0,0,1,2.81,4.1,4.1,0,0,0,2.54,1.4,4.35,4.35,0,0,0,2-.16,3.5,3.5,0,0,0,.88-.44,4,4,0,0,0,1.82-2.45c.07-.14,0-.34.11-.5a4.18,4.18,0,0,0,0-1A3.85,3.85,0,0,0,25,17a4.1,4.1,0,0,0-2.45-2.64A4.61,4.61,0,0,0,21.72,14.12Z" transform="translate(-0.71 -0.72)"/><path class="e" d="M24.49,16.25a.25.25,0,0,0-.31,0,.28.28,0,0,0,0,.25.25.25,0,0,0,.19.12.26.26,0,0,0,.2-.11A.22.22,0,0,0,24.49,16.25Zm-.17.24a.08.08,0,0,1-.08-.09c0-.06,0-.06.09-.09s.08,0,.08.08S24.4,16.5,24.33,16.49Z" transform="translate(-0.71 -0.72)"/><path class="e" d="M21.22,14.32c-.07,0-.13-.1-.22-.08a.27.27,0,0,0-.17.24c0,.05.05.13.12.15a.22.22,0,0,0,.29-.07A.24.24,0,0,0,21.22,14.32Zm-.15.23c-.06,0-.1,0-.11-.09a.12.12,0,0,1,.09-.1s.08,0,.09.06S21.11,14.51,21.07,14.55Z" transform="translate(-0.71 -0.72)"/><path class="e" d="M17.89,16.23a.21.21,0,0,0-.36,0,.24.24,0,0,0,0,.24.29.29,0,0,0,.22.06.32.32,0,0,0,.13-.11A.25.25,0,0,0,17.89,16.23Zm-.16.23s-.07,0-.08-.06,0-.13.08-.13a.09.09,0,0,1,.08.09C17.81,16.41,17.77,16.44,17.72,16.46Z" transform="translate(-0.71 -0.72)"/><path class="e" d="M24.5,19.8a.24.24,0,0,0-.34,0,.22.22,0,0,0,0,.22c0,.1.13.12.21.13s.15-.05.18-.13A.37.37,0,0,0,24.5,19.8Zm-.15.25s-.11,0-.09-.09,0-.08.08-.09a.11.11,0,0,1,.09.08A.08.08,0,0,1,24.35,20.05Z" transform="translate(-0.71 -0.72)"/><path class="e" d="M17.87,19.8a.41.41,0,0,0-.21,0c-.05,0-.11,0-.13.1a.2.2,0,0,0,0,.25.23.23,0,0,0,.2.08.3.3,0,0,0,.18-.2A.39.39,0,0,0,17.87,19.8Zm-.14.24a.08.08,0,0,1-.1-.05.08.08,0,0,1,.07-.11c.06,0,.07,0,.09.09S17.77,20.05,17.73,20Z" transform="translate(-0.71 -0.72)"/><path class="e" d="M21.19,21.75a.26.26,0,0,0-.38,0l0,.13c0,.11.1.16.18.2s.18,0,.23-.1A.25.25,0,0,0,21.19,21.75ZM21,22s-.07,0-.09-.06a.1.1,0,0,1,.07-.1c.05,0,.07.05.1.06S21.09,22,21,22Z" transform="translate(-0.71 -0.72)"/><path class="e" d="M22.83,15.37a3.3,3.3,0,0,0-1-.42,3.37,3.37,0,0,0-4.15,2.9,3.29,3.29,0,0,0,.12,1.27,3.37,3.37,0,0,0,2.58,2.3l.38.06a2.93,2.93,0,0,0,.55,0A3.49,3.49,0,0,0,22.72,21a3.28,3.28,0,0,0,.11-5.66ZM23.91,17c0,.13-.2.19-.28.27a3.42,3.42,0,0,1-1.21.54,2,2,0,0,0-.26-.5.2.2,0,0,1,.12-.14,3.74,3.74,0,0,1,1.33-.7A1.51,1.51,0,0,1,23.91,17Zm-1.66,1.47a1.25,1.25,0,0,1-.92.93A1.23,1.23,0,1,1,20.9,17a1.29,1.29,0,0,1,1.25.72A1.35,1.35,0,0,1,22.25,18.44Zm.66-2.74a4.79,4.79,0,0,1,.52.49l0,0a5,5,0,0,0-1.09.53l0,0,0,0c-.16.05-.29.4-.47.17h0l0,0c0-.05-.25-.06-.19-.18a4.19,4.19,0,0,0,.05-.47,5.78,5.78,0,0,0-.06-1.17A3.39,3.39,0,0,1,22.91,15.7Zm-2.15-.58a.09.09,0,0,1,.09,0h.44a2.94,2.94,0,0,1,.13.72,4,4,0,0,1-.09,1,.4.4,0,0,1-.17,0,2.13,2.13,0,0,0-.4,0l0-.05a5.4,5.4,0,0,1-.06-1C20.68,15.52,20.71,15.3,20.76,15.12Zm-1.85.8c.05-.07.14-.11.18-.15a2.94,2.94,0,0,1,1.4-.63c0,.13-.05.27,0,.4a3.63,3.63,0,0,0,0,1.21v.1l-.36.21-.49-.36a5.79,5.79,0,0,0-1-.47C18.68,16.13,18.82,16,18.91,15.92Zm-.46.52a3.24,3.24,0,0,1,1.49.8,1.94,1.94,0,0,0-.27.47c-.07.05-.13,0-.2,0a3.71,3.71,0,0,1-1.28-.77A1.26,1.26,0,0,1,18.45,16.44Zm-.38,2.68a4.55,4.55,0,0,1-.15-.68v-.25c0-.05,0-.08,0-.12s0-.33,0-.39,0-.22.07-.33a.3.3,0,0,1,.06-.16,4.7,4.7,0,0,0,1.23.69c.07.05.17,0,.24.1a1,1,0,0,1,0,.4,4.27,4.27,0,0,0-1.46.8Zm.37.78a1.57,1.57,0,0,1-.26-.47,3.54,3.54,0,0,1,1.45-.84v0a2.14,2.14,0,0,0,.27.5,3.5,3.5,0,0,1-1.42.79Zm1.93.64a1.63,1.63,0,0,0,0,.2c0,.17,0,.31,0,.44l-.13,0a3.12,3.12,0,0,1-1-.47,2.6,2.6,0,0,1-.61-.54,3,3,0,0,1,.47-.22,3.94,3.94,0,0,0,1-.63,1.83,1.83,0,0,0,.38.22,6.26,6.26,0,0,0-.11.82A1.16,1.16,0,0,0,20.37,20.54Zm1,.63a.31.31,0,0,1,0,.09,1.83,1.83,0,0,1-.62,0,3.49,3.49,0,0,1,0-1.61c.19,0,.37.06.54,0s.12-.05.13,0A3.5,3.5,0,0,1,21.34,21.16Zm2.07-1a3.11,3.11,0,0,1-1.78,1h0a2.19,2.19,0,0,0,.08-.55,2.55,2.55,0,0,0,0-.45,2.07,2.07,0,0,1,0-.22c0-.13,0-.28-.06-.4s0-.05,0-.06a1.06,1.06,0,0,0,.24-.13c.08-.07.08-.1.13-.08a3.36,3.36,0,0,0,1.18.7l.29.09Zm.23-.3,0,0a3.31,3.31,0,0,1-1.47-.77c0-.08.08-.13.1-.18s.11-.22.17-.33a3.3,3.3,0,0,1,1.46.76l0,0A1.7,1.7,0,0,1,23.64,19.86Zm.49-1.33a2.57,2.57,0,0,1-.13.57A.62.62,0,0,1,23.8,19a4.49,4.49,0,0,0-1.3-.63s0-.09,0-.1a.32.32,0,0,0,0-.13c0-.12.1-.1.17-.14a4.54,4.54,0,0,0,.93-.43,4.09,4.09,0,0,0,.38-.28h0a2.77,2.77,0,0,1,.14,1S24.14,18.37,24.13,18.53Z" transform="translate(-0.71 -0.72)"/><path class="g" d="M69.54,18.82c.05,1.76.31,2,1,2.1l.25,0,.38-.07c.68-.13.8-.33.82-2.06,0-1.41.06-2.19,0-3.5a3.65,3.65,0,0,0-.12-.59,1,1,0,0,0-.43-.62L71.22,14c-.1-.08-.38-.21,0-.46a8.81,8.81,0,0,0,2.09-1.84.2.2,0,0,1,.16.14v1.14c0,.19.09.26.21.26a.26.26,0,0,0,.19-.11A3,3,0,0,1,76.48,12c1.55.12,2.23,1.25,2.16,3.08s-.11,2.73-.08,3.68c.06,1.61.1,2.08.79,2.18l.4.07.35-.07c.68-.13,1-.45,1-2.18.06-3.4.08-6.64,0-9.28-.08-1.6-.17-1.52-.65-1.91l-.2-.16c-.09-.08-.09-.4,0-.44a21.73,21.73,0,0,0,2.39-1,.2.2,0,0,1,.18.14c0,.24-.08,1.89-.13,3.36-.11,3.31,0,6.17,0,9.27,0,1.73.06,2.05.75,2.18l.38.07a.62.62,0,0,1,0,.58c-.75,0-1.37-.07-2-.07s-1.22,0-2,.07-1.42-.07-2.1-.07-1.17,0-1.8.07a.61.61,0,0,1,0-.58l.25,0c.68-.13.83-.48.83-2.21,0-1.18,0-2.28-.09-3.28-.16-1.44-.39-2.27-1.55-2.27a1.8,1.8,0,0,0-1.44.75,2.51,2.51,0,0,0-.37,1.53c-.06,1,0,2,0,3.26.06,1.81.32,2.08,1,2.21l.25,0a.62.62,0,0,1,0,.58c-.64,0-1.26-.07-1.93-.07s-1.21,0-2,.07-1.3-.07-2-.07-1.2,0-2,.07a.62.62,0,0,1,0-.58l.38-.07c.68-.13.8-.33.82-2.06,0-1.41.06-2.19,0-3.5a3.43,3.43,0,0,0-.12-.59,1,1,0,0,0-.42-.62L67.28,14c-.1-.08-.38-.21,0-.46a8.87,8.87,0,0,0,2.09-1.84.21.21,0,0,1,.16.14A66.42,66.42,0,0,0,69.54,18.82ZM69.05,8.63a1.15,1.15,0,0,0,1.1-1.26,1.11,1.11,0,1,0-2.19,0A1.14,1.14,0,0,0,69.05,8.63Zm59.22,8.43a1.35,1.35,0,0,0-.74.28,2.3,2.3,0,0,0-1.09,2.12c0,.63.37,1.31,1.09,1.05a1.6,1.6,0,0,0,1-1.45c0-.51.06-1,.06-1.56C128.56,17.14,128.42,17.06,128.27,17.06Zm.28-1.42c0,.41-.23.57-.63.78a9.79,9.79,0,0,0-1.75,1,3.67,3.67,0,0,0-1.47,2.4c-.15.9.16,2,1.35,2a3.53,3.53,0,0,0,1.78-.91l.32-.25a.39.39,0,0,1,.21-.1.24.24,0,0,1,.17.1l.08.09.09.12a1.38,1.38,0,0,0,1.32.52c.5,0,.85-.27,1.3-.9a.89.89,0,0,0,.17-.5c0-.09,0-.16-.23,0s-.15.11-.25.16a.68.68,0,0,1-.37.1c-.37,0-.5-.23-.56-.53a9,9,0,0,1-.08-1c0-1-.05-2.21,0-4.1.12-2.08-.78-2.85-2.18-2.9a3,3,0,0,0-2.76,1.48,2.33,2.33,0,0,0-.66,1.5c0,.21.06.41.31.46.43.09,1-.15,1.33-1.25s.75-1.47,1.22-1.47c.9,0,1.23.9,1.26,2.15C128.56,15,128.56,15.37,128.55,15.64Zm-41,1.42a1.35,1.35,0,0,0-.75.28,2.31,2.31,0,0,0-1.09,2.12c0,.63.37,1.31,1.09,1.05a1.6,1.6,0,0,0,1-1.45q.05-.76.05-1.56C87.85,17.14,87.71,17.06,87.57,17.06Zm.28-1.42c0,.41-.23.57-.63.78a9.89,9.89,0,0,0-1.75,1A3.66,3.66,0,0,0,84,19.85c-.15.9.16,2,1.35,2a3.53,3.53,0,0,0,1.78-.91l.32-.25a.39.39,0,0,1,.21-.1.25.25,0,0,1,.18.1l.08.09.09.12a1.38,1.38,0,0,0,1.32.52c.5,0,.86-.27,1.31-.9a.9.9,0,0,0,.17-.5c0-.09,0-.16-.23,0s-.15.11-.25.16a.68.68,0,0,1-.37.1c-.37,0-.5-.23-.56-.53a8.36,8.36,0,0,1-.08-1c0-1-.05-2.21,0-4.1.11-2.08-.78-2.85-2.18-2.9a3,3,0,0,0-2.76,1.48,2.33,2.33,0,0,0-.66,1.5c0,.21.06.41.31.46.43.09,1-.15,1.33-1.25s.76-1.47,1.22-1.47c.9,0,1.23.9,1.26,2.15C87.85,15,87.85,15.37,87.85,15.64Zm50.47,4a47.41,47.41,0,0,1,3.73-7c0-.11,0-.17-.08-.21-.28,0-1.17.06-1.77.07-1.15,0-1.54,0-2.62-.05a.72.72,0,0,1-.69-.45,1.6,1.6,0,0,1-.1-.38c0-.12,0-.23,0-.33a.25.25,0,0,0-.23,0,19.69,19.69,0,0,0-.81,2.79.28.28,0,0,0,.4.13,1.89,1.89,0,0,0,.32-.37c.13-.18.28-.38.42-.55a.92.92,0,0,1,.63-.24,12.74,12.74,0,0,1,1.76,0h.18l.14,0c.07,0,.15.05.15.15a2,2,0,0,1-.25.69,57.29,57.29,0,0,1-2.94,5.6l-1,1.77a.2.2,0,0,0,.09.22c.51,0,1.23-.07,2.21-.07h1.66c.83,0,1.43,0,2.08.07A9.45,9.45,0,0,0,142,19a.27.27,0,0,0-.38-.09,2.79,2.79,0,0,1-.6,1.11,2,2,0,0,1-1.56.58,5.73,5.73,0,0,1-1.07,0S137.88,20.54,138.31,19.65ZM51.66,20.76s-.91.61-2.2-1.28A19.31,19.31,0,0,1,46.93,14a1.18,1.18,0,0,1-.05-.23.35.35,0,0,1,.23-.38A3.06,3.06,0,0,0,49,10.24c0-1.68-.52-2.66-1.48-3.22s-2.37-.43-4.1-.35c-2.36.11-3.08,0-4,0a.28.28,0,0,0-.28.28.28.28,0,0,0,.21.27l.38.07c1.13.18,1,.16,1.13,2.78.09,2.35.08,5.14,0,8.05,0,2.49-.4,2.59-1.48,2.77L39,21a.54.54,0,0,0,0,.58c.84,0,2.07-.07,2.87-.07s1.63,0,2.43.07a.61.61,0,0,0,0-.58L44,20.89c-.92-.15-1.05-.24-1.12-2.73,0-1.43,0-2.32,0-3.26,0-.53.11-.58.69-.58a1.35,1.35,0,0,1,1.4.9c.44.92,1.06,2.17,1.45,3.2,1,2.6.06,3.32,3.78,3.13.32,0,2.08-.09,2.68-.09s1.3,0,2,.07a.61.61,0,0,0,0-.58l-.38-.07c-.68-.13-.73-.42-.75-2.15q0-1.79.06-3.39a3.28,3.28,0,0,1,.35-1.43,1.77,1.77,0,0,1,1.45-.75c1.16,0,1.4.83,1.55,2.27q.11,1.5.09,3.28c0,1.73-.15,2.08-.84,2.21l-.25,0a.62.62,0,0,0,0,.58c.64,0,1.2-.07,1.8-.07s1.3,0,2.06.07a.61.61,0,0,0,0-.58l-.4-.07c-.68-.1-.73-.57-.79-2.18,0-.95,0-1.76.08-3.68s-.61-3-2.16-3.08A3.11,3.11,0,0,0,54.2,13.1a.26.26,0,0,1-.19.11c-.13,0-.21-.07-.21-.26,0-2.21.06-5.38.16-6.88,0-.09-.11-.15-.18-.14a22.21,22.21,0,0,1-2.42,1c-.08,0-.08.37,0,.45l.2.16c.49.4.58.32.65,1.92.13,2.64.11,5.88,0,9.28C52.25,20.06,52.07,20.51,51.66,20.76Zm12.4-6.12c.56,0,.67-.08.82-.19a.76.76,0,0,0,.22-.57,1.47,1.47,0,0,0-1.4-1.64c-1.35,0-2,1.64-2,2.16,0,.14.08.23.33.23Zm1.26.55c.79,0,1.15-.09,1.25-.27a.73.73,0,0,0,.12-.55,2.93,2.93,0,0,0-2.84-2.71c-2.54,0-4.06,2-4.06,5.46,0,2.8,1.54,4.83,3.72,4.83a3,3,0,0,0,3.11-2.27c-.06-.18-.19-.36-.32-.34a1.92,1.92,0,0,1-1.94,1.14c-2.49,0-2.94-2.5-2.85-4.73,0-.45.2-.55.59-.55ZM42.87,12.68c0,.79.09.86,1,.86,1.85,0,3-.84,3-3.1,0-1.88-1.1-3.19-2.75-3.19-1,0-1.08.29-1.16,1.29Q42.86,10.31,42.87,12.68Zm65.53,12c-.1,2.55-.28,3-1.31,3.13l-.72.1a.81.81,0,0,0,0,.87c1.14-.07,2.25-.1,3.19-.1s1.34,0,2.81.1a.8.8,0,0,0,0-.87l-1-.13c-1.11-.15-1.24-1-1.26-5.16,0-.69.24-1,.52-1.13a1.26,1.26,0,0,1,1,.14c4,1.8,8.24-1.28,8-7.92-.12-3.75-2.65-6.78-5.7-6.47a5.69,5.69,0,0,0-2,.65l-.76.38a1.83,1.83,0,0,1-.62.19.25.25,0,0,1-.23-.18.85.85,0,0,1-.06-.32c0-.3.05-1.52.14-2.15a.4.4,0,0,0-.38-.28A15.89,15.89,0,0,1,109,6.69a3.57,3.57,0,0,1-1.42.81c-.76.19-.72.25-.72.25s-.09.49.7.62c.62.1.67.44.77,2.54.07,1.44.06,3.2.08,4.68l-2.24,1.51c0-8.21.17-11.12.17-11.12a.2.2,0,0,0-.17-.21,4.65,4.65,0,0,0-1-.09c-.73,0-1.26.1-1.36.26a.28.28,0,0,0,.07.36l.27.16c.38.19.59.13.63,2.74,0,.59,0,1.51,0,2.48,0,.25-.07.44-.23.48a3.8,3.8,0,0,0-1.21-.2c-2.26,0-4.36,2-4.36,5.38,0,2.35,1.3,4.48,3.35,4.48a3.45,3.45,0,0,0,2.27-1l.16.07a1.7,1.7,0,0,1,0,.69l0,.34a.3.3,0,0,0,.15.2,8.45,8.45,0,0,0,2.72-.74.75.75,0,0,0,0-.72,1.85,1.85,0,0,1-.76.2c-.32,0-.58-.77-.64-2.21l2.23-1.5C108.45,19.47,108.47,21.63,108.4,24.65ZM93.57,13.1a.26.26,0,0,1-.19.11c-.13,0-.21-.07-.21-.26V11.81a.2.2,0,0,0-.16-.14,8.84,8.84,0,0,1-2.09,1.84c-.39.25-.12.38,0,.46l.21.16a1,1,0,0,1,.43.62,3.76,3.76,0,0,1,.12.59c.07,1.3,0,2.09,0,3.5,0,1.73-.13,1.93-.82,2.06l-.38.07a.62.62,0,0,0,0,.58c.76,0,1.38-.07,2-.07s1.29,0,1.93.07a.6.6,0,0,0,0-.58l-.25,0c-.68-.13-.94-.39-1-2.21,0-1.29-.06-2.23,0-3.26a2.51,2.51,0,0,1,.37-1.53A1.81,1.81,0,0,1,95,13.16c1.16,0,1.4.83,1.55,2.27.07,1,.11,2.09.09,3.28,0,1.73-.16,2.08-.84,2.21l-.25,0a.62.62,0,0,0,0,.58c.64,0,1.2-.07,1.81-.07s1.3,0,2.06.07a.62.62,0,0,0,0-.58l-.4-.07c-.68-.1-.73-.57-.79-2.18,0-.95,0-1.76.08-3.68s-.61-3-2.16-3.08A3,3,0,0,0,93.57,13.1Zm7.17,3.34c0,2.43,1,4.28,2.54,4.28a1.27,1.27,0,0,0,1.07-.51,1.28,1.28,0,0,0,.31-.88c.12-1.55.09-2.62.08-4.65a2.28,2.28,0,0,0-.26-1.23,1.49,1.49,0,0,0-1.46-.8C101.53,12.63,100.73,14.46,100.73,16.44ZM125.66,5.56c-2.5,0-4.42,2.24-4.42,5.8a1.19,1.19,0,0,1-.45,1.06,2.63,2.63,0,0,1-.48.3c-.45.22-.42.56-.19.55h.6c.38,0,.38.14.42.77.08,1.29.05,2.71,0,4.68,0,1.73-.23,2.05-.92,2.18l-.38.07a.61.61,0,0,0,0,.57c.75,0,1.37-.07,2-.07.86,0,1.57,0,2.39.07a.59.59,0,0,0,0-.57l-.69-.09c-.7-.1-.78-.43-.82-2.16s0-3,0-4.43c0-.31,0-.47,0-.57a.62.62,0,0,1,.07-.32c.07-.11.24-.12.42-.12h1.39a.83.83,0,0,0,.22-.67.54.54,0,0,0-.08-.32h-1.52c-.45,0-.46-.11-.46-.81v-.71c0-3.51,1-4.16,1.65-4.18.33,0,.61,0,1.16.73a.76.76,0,0,0,.55.39c.4,0,.76-.25.76-.89,0-1-.45-1.24-1.42-1.25Zm6.9,13.15c0,1.73-.34,2.05-1,2.18l-.36.07a.62.62,0,0,0,0,.58c.75,0,1.37-.07,2-.07s1.3,0,2,.07a.62.62,0,0,0,0-.58l-.38-.07c-.68-.13-.73-.45-.75-2.18,0-3.09-.1-6,0-9.27,0-1.48.17-3.13.13-3.36a.19.19,0,0,0-.18-.14,21.66,21.66,0,0,1-2.39,1c-.08,0-.08.37,0,.44l.2.16c.49.4.58.32.65,1.91C132.65,12.07,132.63,15.31,132.56,18.71ZM110.5,16.85a5.58,5.58,0,0,0,.83,3.43,3.55,3.55,0,0,0,2.47.95c3-.1,4.15-3.7,4-6.8-.18-3.88-2.55-5.77-4.78-5.81a2.31,2.31,0,0,0-2,.81c-.21.32-.4.66-.47,2.25S110.47,15.09,110.5,16.85Z" transform="translate(-0.71 -0.72)"/><path class="h" d="M39.21,40.09a2,2,0,0,0,1.12.35c.5,0,1-.2,1-.75,0-1.15-2.22-1-2.22-2.53a1.37,1.37,0,0,1,1.54-1.33,2.71,2.71,0,0,1,1.15.25v.62a2.4,2.4,0,0,0-1.12-.28c-.42,0-.85.18-.85.68,0,1.08,2.23,1,2.23,2.55,0,.86-.69,1.39-1.69,1.39a2.53,2.53,0,0,1-1.4-.4Z" transform="translate(-0.71 -0.72)"/><path class="h" d="M44,36.44H42.56v-.56h3.75l-.19.56H44.7v4.51H44Z" transform="translate(-0.71 -0.72)"/><path class="h" d="M47,35.87h1.15a2.16,2.16,0,0,1,1.12.25,1.27,1.27,0,0,1,.65,1.16,1.31,1.31,0,0,1-1,1.33v0a2.49,2.49,0,0,1,.62.82l.9,1.51h-.8l-.83-1.41c-.24-.42-.43-.65-.58-.69h-.52v2.1H47Zm1.14,2.41a1.24,1.24,0,0,0,.65-.16.93.93,0,0,0,.09-1.48,1.17,1.17,0,0,0-.74-.21h-.46v1.85Z" transform="translate(-0.71 -0.72)"/><path class="h" d="M51.36,40a2.48,2.48,0,0,1-.14-.87V35.87h.69v3.18a1.74,1.74,0,0,0,.12.69,1.32,1.32,0,0,0,2.32,0,1.93,1.93,0,0,0,.12-.72V35.87h.68v3.23A2.22,2.22,0,0,1,55,40a2.09,2.09,0,0,1-3.62,0Z" transform="translate(-0.71 -0.72)"/><path class="h" d="M56.39,35.87h.69v2.27h0L59,35.87h.8l-2.08,2.5,2.22,2.58H59l-2-2.29h0v2.29h-.69Z" transform="translate(-0.71 -0.72)"/><path class="h" d="M61.64,36.44H60.17v-.56h3.75l-.19.56H62.32v4.51h-.69Z" transform="translate(-0.71 -0.72)"/><path class="h" d="M64.7,40a2.48,2.48,0,0,1-.14-.87V35.87h.69v3.18a1.74,1.74,0,0,0,.12.69,1.32,1.32,0,0,0,2.32,0,1.93,1.93,0,0,0,.12-.72V35.87h.68v3.23a2.22,2.22,0,0,1-.15.89,2.09,2.09,0,0,1-3.62,0Z" transform="translate(-0.71 -0.72)"/><path class="h" d="M69.73,35.87h1.15a2.16,2.16,0,0,1,1.12.25,1.27,1.27,0,0,1,.65,1.16,1.31,1.31,0,0,1-1,1.33v0a2.49,2.49,0,0,1,.62.82l.9,1.51h-.8l-.83-1.41c-.24-.42-.43-.65-.58-.69h-.52v2.1h-.69Zm1.14,2.41a1.24,1.24,0,0,0,.65-.16.93.93,0,0,0,.09-1.48,1.17,1.17,0,0,0-.74-.21h-.46v1.85Z" transform="translate(-0.71 -0.72)"/><path class="h" d="M73.77,38.08h2v.58h-2Z" transform="translate(-0.71 -0.72)"/><path class="h" d="M78.59,40a2.46,2.46,0,0,1-.14-.87V35.87h.68v3.18a1.72,1.72,0,0,0,.12.69,1.31,1.31,0,0,0,2.32,0,1.91,1.91,0,0,0,.12-.72V35.87h.68v3.23a2.22,2.22,0,0,1-.15.89,2.09,2.09,0,0,1-3.62,0Z" transform="translate(-0.71 -0.72)"/><path class="h" d="M83.62,35.87h.66l2.29,3c.3.38.52.69.69.95h0c0-.28,0-.52,0-.88v-3h.68v5.07h-.6L85,37.85c-.29-.37-.49-.66-.67-.92h0c0,.24,0,.49,0,.85v3.17h-.69Z" transform="translate(-0.71 -0.72)"/><path class="h" d="M89.23,35.87h1.33a2.41,2.41,0,0,1,2.72,2.51,2.47,2.47,0,0,1-2.76,2.56H89.23Zm1.29,4.51a2,2,0,1,0,0-4h-.59v4Z" transform="translate(-0.71 -0.72)"/><path class="h" d="M43.21,49.87a4,4,0,0,1-1.72.39,2.41,2.41,0,0,1-2.56-2.53,2.55,2.55,0,0,1,2.68-2.66,3.83,3.83,0,0,1,1.41.27V46a3,3,0,0,0-1.37-.32,1.87,1.87,0,0,0-2,2,1.82,1.82,0,0,0,1.9,2,2.37,2.37,0,0,0,1-.18V47.77h.68Z" transform="translate(-0.71 -0.72)"/><path class="h" d="M44.44,45.11H47l-.2.56H45.13v1.63h1.66v.57H45.13v1.75H47v.56H44.44Z" transform="translate(-0.71 -0.72)"/><path class="h" d="M48.13,45.11h.66l2.29,3c.3.38.52.69.69.95h0c0-.28,0-.52,0-.88v-3h.69v5.07h-.6l-2.38-3.1c-.28-.37-.49-.66-.67-.92h0c0,.24,0,.49,0,.85v3.17h-.69Z" transform="translate(-0.71 -0.72)"/><path class="h" d="M53.74,45.11h2.56l-.2.56H54.43v1.63h1.66v.57H54.43v1.75h1.91v.56H53.74Z" transform="translate(-0.71 -0.72)"/><path class="h" d="M57.43,45.11h.68V47.3H60.8V45.11h.68v5.07H60.8v-2.3H58.12v2.3h-.68Z" transform="translate(-0.71 -0.72)"/><path class="h" d="M62.77,45.11h.63l1.39,2.06c.2.31.33.5.45.71h0c.12-.2.25-.43.45-.74l1.29-2h.64v5.07H67V47.05c0-.24,0-.55,0-.8h0a6.91,6.91,0,0,1-.36.6l-1.17,1.86h-.34l-1.29-1.9a5.18,5.18,0,0,1-.35-.55h0c0,.22,0,.55,0,.77v3.15h-.69Z" transform="translate(-0.71 -0.72)"/><path class="h" d="M68.94,45.11h.69v5.07h-.69Z" transform="translate(-0.71 -0.72)"/><path class="h" d="M75,49.87a4,4,0,0,1-1.72.39,2.41,2.41,0,0,1-2.56-2.53,2.55,2.55,0,0,1,2.68-2.66,3.83,3.83,0,0,1,1.41.27V46a3,3,0,0,0-1.37-.32,1.87,1.87,0,0,0-2,2,1.82,1.82,0,0,0,1.9,2,2.36,2.36,0,0,0,1-.18V47.77H75Z" transform="translate(-0.71 -0.72)"/><path class="h" d="M76.29,49.22a2.5,2.5,0,0,1-.14-.87V45.11h.69v3.18a1.75,1.75,0,0,0,.12.69,1.32,1.32,0,0,0,2.32,0,2,2,0,0,0,.12-.72V45.11h.68v3.23a2.23,2.23,0,0,1-.15.89,2.1,2.1,0,0,1-3.62,0Z" transform="translate(-0.71 -0.72)"/><path class="h" d="M81.32,45.11H82l2.29,3c.3.38.52.69.69.95h0c0-.28,0-.52,0-.88v-3h.69v5.07H85l-2.38-3.1c-.28-.37-.49-.66-.67-.92h0c0,.24,0,.49,0,.85v3.17h-.68Z" transform="translate(-0.71 -0.72)"/><path class="h" d="M91,49.87a4,4,0,0,1-1.72.39,2.41,2.41,0,0,1-2.56-2.53,2.55,2.55,0,0,1,2.68-2.66,3.83,3.83,0,0,1,1.41.27V46a3,3,0,0,0-1.37-.32,1.87,1.87,0,0,0-2,2,1.82,1.82,0,0,0,1.9,2,2.36,2.36,0,0,0,1-.18V47.77H91Z" transform="translate(-0.71 -0.72)"/><path class="h" d="M92.23,49.33a2,2,0,0,0,1.12.35c.5,0,1-.2,1-.75,0-1.15-2.22-1-2.22-2.53a1.37,1.37,0,0,1,1.54-1.33,2.71,2.71,0,0,1,1.15.25v.62a2.4,2.4,0,0,0-1.12-.28c-.42,0-.85.18-.85.68,0,1.08,2.23,1,2.23,2.55,0,.86-.69,1.39-1.69,1.39a2.52,2.52,0,0,1-1.4-.4Z" transform="translate(-0.71 -0.72)"/><path class="h" d="M96.08,45.11h1.33a2.41,2.41,0,0,1,2.72,2.51,2.47,2.47,0,0,1-2.76,2.56H96.08Zm1.29,4.51a2,2,0,1,0,0-4h-.59v4Z" transform="translate(-0.71 -0.72)"/><path class="h" d="M101.19,45.11h.68v5.07h-.68Z" transform="translate(-0.71 -0.72)"/><path class="h" d="M103.17,45.11h1.15a2.17,2.17,0,0,1,1.12.25,1.27,1.27,0,0,1,.65,1.16,1.31,1.31,0,0,1-1,1.33v0a2.5,2.5,0,0,1,.62.82l.9,1.51h-.8L105,48.78q-.36-.64-.58-.69h-.52v2.1h-.68Zm1.14,2.41a1.23,1.23,0,0,0,.65-.16.93.93,0,0,0,.09-1.48,1.17,1.17,0,0,0-.74-.21h-.46v1.85Z" transform="translate(-0.71 -0.72)"/><path class="h" d="M107.45,45.11H110l-.2.56h-1.68v1.63h1.66v.57h-1.66v1.75H110v.56h-2.59Z" transform="translate(-0.71 -0.72)"/><path class="h" d="M111.14,45.11h.69v2.27h0l1.86-2.27h.8l-2.08,2.5,2.22,2.58h-.85l-2-2.29h0v2.29h-.69Z" transform="translate(-0.71 -0.72)"/><path class="h" d="M116.38,45.68h-1.46v-.56h3.75l-.19.56h-1.41v4.51h-.69Z" transform="translate(-0.71 -0.72)"/><path class="h" d="M119.34,45.11H120v5.07h-.69Z" transform="translate(-0.71 -0.72)"/><path class="h" d="M121.08,47.67a2.5,2.5,0,1,1,2.5,2.6A2.45,2.45,0,0,1,121.08,47.67Zm4.27,0a1.79,1.79,0,1,0-1.77,2A1.79,1.79,0,0,0,125.36,47.67Z" transform="translate(-0.71 -0.72)"/><path class="h" d="M127.14,45.11h.66l2.29,3c.3.38.52.69.69.95h0c0-.28,0-.52,0-.88v-3h.68v5.07h-.6l-2.38-3.1c-.29-.37-.49-.66-.67-.92h0c0,.24,0,.49,0,.85v3.17h-.69Z" transform="translate(-0.71 -0.72)"/><path class="h" d="M39.18,54.35h.66l2.29,3c.3.38.52.69.69.95h0c0-.28,0-.52,0-.88v-3h.69v5.07h-.6l-2.38-3.1c-.28-.37-.49-.66-.67-.92h0c0,.24,0,.49,0,.85v3.17h-.69Z" transform="translate(-0.71 -0.72)"/><path class="h" d="M44.55,56.91a2.5,2.5,0,1,1,2.5,2.6A2.45,2.45,0,0,1,44.55,56.91Zm4.27,0a1.79,1.79,0,1,0-1.77,2A1.79,1.79,0,0,0,48.82,56.91Z" transform="translate(-0.71 -0.72)"/><path class="h" d="M50.61,54.35h1.15a2.16,2.16,0,0,1,1.12.25,1.27,1.27,0,0,1,.65,1.16,1.31,1.31,0,0,1-1,1.33v0a2.5,2.5,0,0,1,.62.82l.9,1.51h-.8L52.4,58q-.36-.64-.58-.69h-.52v2.1h-.68Zm1.14,2.41a1.24,1.24,0,0,0,.65-.16.93.93,0,0,0,.09-1.48,1.17,1.17,0,0,0-.74-.21h-.46v1.85Z" transform="translate(-0.71 -0.72)"/><path class="h" d="M54.89,54.35h1.33a2.41,2.41,0,0,1,2.72,2.51,2.47,2.47,0,0,1-2.76,2.56H54.89Zm1.29,4.51a2,2,0,1,0,0-4h-.59v4Z" transform="translate(-0.71 -0.72)"/><rect class="e" x="32.28" width="0.72" height="64.53"/></svg>