<?xml version="1.0" encoding="UTF-8"?>
<svg width="70px" height="70px" viewBox="0 0 70 70" version="1.1" xmlns="http://www.w3.org/2000/svg" xmlns:xlink="http://www.w3.org/1999/xlink">
    <!-- Generator: Sketch 46.2 (44496) - http://www.bohemiancoding.com/sketch -->
    <title>5. Leica_ CMYK</title>
    <desc>Created with Sketch.</desc>
    <defs></defs>
    <g id="image-upload" stroke="none" stroke-width="1" fill="none" fill-rule="evenodd">
        <g id="Prices" transform="translate(-720.000000, -1108.000000)">
            <g id="5.-Leica_-CMYK" transform="translate(720.000000, 1108.000000)">
                <path d="M35,70 C54.3286531,70 70,54.333592 70,35.0098779 C70,15.6738164 54.3286531,0 35,0 C15.666408,0 0,15.6738164 0,35.0098779 C0,54.333592 15.666408,70 35,70" id="Fill-1" fill="#D8232A"></path>
                <path d="M63.5892744,37.2574691 C63.5892744,37.2574691 62.676276,37.9346462 62.0280223,37.9346462 C61.5356465,37.9346462 61.2659532,37.512047 61.2659532,37.0487153 C61.2659532,36.0049461 62.854422,30.8650192 62.854422,30.8650192 L58.9698487,30.9184805 L58.7669601,31.6134781 C58.7669601,31.6134781 58.2003568,30.4347826 56.1615743,30.4347826 C52.207722,30.4347826 50.0402785,33.9403197 49.946257,36.0049461 C49.9289372,36.4530031 49.9239887,36.5166476 49.9239887,36.5166476 C49.8324415,36.6261161 48.4344899,38.2630517 46.7198343,38.2630517 C45.3466252,38.2630517 45.1189942,37.0792646 45.1189942,36.3231684 C45.1189942,35.5034277 45.7820933,32.2601058 47.6526267,32.2601058 C48.672018,32.2601058 49.2955291,33.1714946 49.2955291,33.1714946 L49.8448127,31.315622 C49.8448127,31.315622 48.9763508,30.6206244 47.2023131,30.6155329 C43.3795961,30.6104413 40.7692618,33.5635445 40.6777145,36.223883 C40.6603947,36.6210245 40.6455492,36.7508592 40.6504977,36.776317 C40.5243109,36.9341553 39.5816215,38.0492063 38.3593417,38.0492063 C37.5230451,38.0492063 37.5230451,37.3771207 37.5230451,37.0792646 C37.5230451,36.6770316 39.1758444,30.8879312 39.1758444,30.8879312 L34.855803,30.9541214 L33.3143449,36.5726547 C33.3143449,36.5726547 30.9464871,38.3368792 27.6359399,38.581274 C25.9287071,38.7009256 25.3398354,37.6367901 25.3398354,37.0079828 C25.3398354,36.7508592 25.3398354,36.7508592 25.3398354,36.7508592 C25.3398354,36.7508592 26.0350998,36.7966832 26.5571667,36.7966832 C26.9629438,36.7966832 32.0079406,36.4377284 32.0079406,33.2605968 C32.0079406,31.4454567 30.2462742,30.7530049 28.012026,30.7530049 C23.8899246,30.7530049 21,33.38534 21,36.5064645 C21,39.3551907 23.3678578,40.5797101 26.4186087,40.5797101 C29.8776109,40.5797101 33.2549629,38.4005237 33.2549629,38.4005237 C33.2549629,38.4005237 33.4430059,40.5797101 36.1745785,40.5797101 C38.9927499,40.5797101 41.1997813,38.4005237 41.1997813,38.4005237 C41.1997813,38.4005237 42.4270096,40.4956995 45.2303355,40.4956995 C48.0955176,40.4956995 50.2951263,38.1128507 50.2951263,38.1128507 C50.2951263,38.1128507 51.062144,40.3607732 53.9001093,40.3607732 C56.1170378,40.3607732 57.3071523,38.8638554 57.3071523,38.8638554 C57.3071523,38.8638554 57.9405604,40.3607732 59.8729501,40.3607732 C62.2309109,40.3607732 64,38.65001 64,38.65001 L63.5892744,37.2574691 Z M28.190172,32.0462604 C28.7716209,32.0819013 29.1625525,32.5095921 29.1427585,32.947466 C29.0462627,35.7707345 25.6639623,35.3328605 25.6639623,35.3328605 C25.6639623,35.3328605 26.2157201,31.9240631 28.190172,32.0462604 Z M55.3599171,38.2630517 C54.2959894,38.2630517 54.2959894,37.0588984 54.2959894,36.7101267 C54.2959894,35.7911007 54.9962023,32.1379085 56.9261177,32.1379085 C57.7376719,32.1379085 58.17314,32.8430891 58.17314,33.3700653 C58.17314,33.4795338 57.6832384,38.2630517 55.3599171,38.2630517 L55.3599171,38.2630517 Z" id="Fill-2" fill="#FFFFFE"></path>
                <path d="M64.5914457,40.412099 C64.5914457,40.412099 55.5066843,43.5399905 38.1740787,43.3295064 C26.219533,43.1851045 17.1050586,39.6949846 17.1050586,39.6949846 C17.1050586,39.6949846 17.3997129,39.127167 17.5928476,38.7453586 C18.7912735,36.3296865 20.2051189,31.4298126 20.2051189,31.4298126 C20.2051189,31.4298126 28.420774,29.1658849 28.420774,22.7167501 C28.420774,20.6755439 26.5018069,19.3612421 24.6051246,19.2804749 C17.9840693,19.025936 16.1468131,28.3533184 15.7407349,29.9392916 C15.7159741,30.0543236 15.7060697,30.0885884 15.7060697,30.0885884 C13.6608223,29.8095746 12.509442,29.3983964 12.509442,29.3983964 L12.0414617,30.656406 C13.4206419,31.3025432 15.4262719,31.5130273 15.4262719,31.5130273 C15.0300981,34.011914 13.0665615,38.7453586 13.0665615,38.7453586 C13.0665615,38.7453586 11.2540662,38.1506187 9.00330352,38.1506187 C6.08399753,38.1506187 5.08118249,39.5236603 5.00937598,40.3851766 C4.81624123,42.612392 7.6488842,43.65747 9.62727732,43.65747 C13.4874962,43.65747 15.4931263,41.5991314 15.4931263,41.5991314 C15.4931263,41.5991314 26.3507656,45.6521739 37.6763853,45.6521739 C52.5007153,45.6521739 65,41.7508757 65,41.7508757 L64.5914457,40.412099 Z M24.9195876,21.1283295 C26.1922961,21.1283295 26.6132308,22.1489326 26.5067591,23.0667411 C25.8877375,28.4536654 20.4750123,29.6872001 20.4750123,29.6872001 C20.4750123,29.6872001 21.8195273,21.1283295 24.9195876,21.1283295 Z M8.79531226,41.9222 C7.7033581,41.9564648 6.99272128,41.2393504 6.99272128,40.8379621 C6.99272128,39.9495235 8.09457977,39.8100166 8.79531226,39.8589664 C10.4889554,39.9495235 11.9448943,40.522236 11.9448943,40.522236 C11.9448943,40.522236 10.2264903,41.8805926 8.79531226,41.9222 L8.79531226,41.9222 Z" id="Fill-3" fill="#FFFFFE"></path>
                <path d="M36.5261506,25.3623188 C35.0721757,25.3623188 34,26.0110227 34,27.4998979 C34,29.0059196 35.2395397,29.4202899 36.5261506,29.4202899 C37.8206067,29.4202899 39,28.7544397 39,27.2198408 C39,25.6795264 37.5800209,25.3623188 36.5261506,25.3623188" id="Fill-4" fill="#FFFFFE"></path>
            </g>
        </g>
    </g>
</svg>