<?xml version="1.0" encoding="UTF-8"?>
<svg width="313px" height="70px" viewBox="0 0 313 70" version="1.1" xmlns="http://www.w3.org/2000/svg" xmlns:xlink="http://www.w3.org/1999/xlink">
    <!-- Generator: Sketch 55.2 (78181) - https://sketchapp.com -->
    <title>competition2019</title>
    <desc>Created with Sketch.</desc>
    <defs>
        <linearGradient x1="54.4545369%" y1="50%" x2="32.7701431%" y2="-301.346179%" id="linearGradient-1">
            <stop stop-color="#FFFFFF" stop-opacity="0.5" offset="0%"></stop>
            <stop stop-color="#000000" stop-opacity="0.5" offset="100%"></stop>
        </linearGradient>
        <linearGradient x1="54.4545369%" y1="50%" x2="32.7701431%" y2="28.5932728%" id="linearGradient-2">
            <stop stop-color="#FFFFFF" stop-opacity="0.5" offset="0%"></stop>
            <stop stop-color="#000000" stop-opacity="0.5" offset="100%"></stop>
        </linearGradient>
        <linearGradient x1="54.4545369%" y1="50%" x2="32.7701431%" y2="-302.85114%" id="linearGradient-3">
            <stop stop-color="#FFFFFF" stop-opacity="0.5" offset="0%"></stop>
            <stop stop-color="#000000" stop-opacity="0.5" offset="100%"></stop>
        </linearGradient>
        <linearGradient x1="54.4545369%" y1="50%" x2="32.7701431%" y2="28.5015789%" id="linearGradient-4">
            <stop stop-color="#FFFFFF" stop-opacity="0.5" offset="0%"></stop>
            <stop stop-color="#000000" stop-opacity="0.5" offset="100%"></stop>
        </linearGradient>
    </defs>
    <g id="Page-1" stroke="none" stroke-width="1" fill="none" fill-rule="evenodd">
        <g id="competition2019" transform="translate(-7.000000, -7.000000)">
            <g id="badge_2019" transform="translate(42.000000, 42.000000) rotate(-11.000000) translate(-42.000000, -42.000000) translate(7.000000, 7.000000)">
                <g id="Group-7" transform="translate(0.667854, 0.449463)">
                    <g id="Oval-4">
                        <g id="path-1-link" fill="#000000" fill-rule="nonzero">
                            <path d="M34.3577848,68.7155696 C53.3330654,68.7155696 68.7155696,53.3330654 68.7155696,34.3577848 C68.7155696,15.3825042 53.3330654,0 34.3577848,0 C32.708611,0 30.3046194,0.252728936 27.14581,0.758186809 L1.44038034,25.8957873 C0.480126782,29.5248903 0,32.3455562 0,34.3577848 C0,53.3330654 15.3825042,68.7155696 34.3577848,68.7155696 Z" id="path-1"></path>
                        </g>
                        <g id="path-1-link" fill="#FFFFFF">
                            <path d="M34.3577848,68.7155696 C53.3330654,68.7155696 68.7155696,53.3330654 68.7155696,34.3577848 C68.7155696,15.3825042 53.3330654,0 34.3577848,0 C32.708611,0 30.3046194,0.252728936 27.14581,0.758186809 L1.44038034,25.8957873 C0.480126782,29.5248903 0,32.3455562 0,34.3577848 C0,53.3330654 15.3825042,68.7155696 34.3577848,68.7155696 Z" id="path-1"></path>
                        </g>
                    </g>
                    <g id="Oval-4-Copy" transform="translate(3.000000, 2.000000)">
                        <g id="path-4-link" fill="#000000" fill-rule="nonzero">
                            <path d="M0.11619638,24.2734318 C13.5428539,20.9090192 22.0776476,12.4456543 24.5257054,0.53367086 C24.5615929,0.35865531 0.11619638,24.2734318 0.11619638,24.2734318 Z" id="path-4"></path>
                        </g>
                        <g id="path-4-link" fill="#DBDBDB">
                            <path d="M0.11619638,24.2734318 C13.5428539,20.9090192 22.0776476,12.4456543 24.5257054,0.53367086 C24.5615929,0.35865531 0.11619638,24.2734318 0.11619638,24.2734318 Z" id="path-4"></path>
                        </g>
                        <g id="path-4-link" fill="url(#linearGradient-2)">
                            <path d="M0.11619638,24.2734318 C13.5428539,20.9090192 22.0776476,12.4456543 24.5257054,0.53367086 C24.5615929,0.35865531 0.11619638,24.2734318 0.11619638,24.2734318 Z" id="path-4"></path>
                        </g>
                    </g>
                    <g id="Oval-4-Copy-2" transform="translate(1.000000, 0.000000)">
                        <g id="path-7-link" fill="#000000" fill-rule="nonzero">
                            <path d="M0.30266483,26.0532965 C14.454389,22.4996122 23.450079,13.560124 26.0303369,0.978008346 C26.0681623,0.793146949 0.30266483,26.0532965 0.30266483,26.0532965 Z" id="path-7"></path>
                        </g>
                        <g id="path-7-link" fill="#DBDBDB">
                            <path d="M0.30266483,26.0532965 C14.454389,22.4996122 23.450079,13.560124 26.0303369,0.978008346 C26.0681623,0.793146949 0.30266483,26.0532965 0.30266483,26.0532965 Z" id="path-7"></path>
                        </g>
                        <g id="path-7-link" fill="url(#linearGradient-4)">
                            <path d="M0.30266483,26.0532965 C14.454389,22.4996122 23.450079,13.560124 26.0303369,0.978008346 C26.0681623,0.793146949 0.30266483,26.0532965 0.30266483,26.0532965 Z" id="path-7"></path>
                        </g>
                    </g>
                </g>
                <path d="M31.8162948,44.1747298 C32.1476645,40.2517669 35.8172767,40.1332484 35.8172767,38.485841 C35.8172767,37.762878 35.2159021,37.4902854 34.5654357,37.4902854 C33.743148,37.4902854 33.0681358,37.7510261 32.4790341,38.0236187 L32.0862997,36.9213965 C32.749039,36.6132484 33.6817833,36.2932484 34.7863488,36.2932484 C36.5291078,36.2932484 37.3759414,37.1584335 37.3759414,38.3436187 C37.3759414,40.559915 34.1972472,40.9984335 33.6940562,43.0132484 L37.4495791,43.0132484 L37.4495791,44.1747298 L31.8162948,44.1747298 Z M41.5732904,44.2932484 C39.7691667,44.2932484 38.6523282,42.9065817 38.6523282,40.2873224 C38.6523282,37.679915 39.7691667,36.2932484 41.5732904,36.2932484 C43.3774141,36.2932484 44.4942526,37.679915 44.4942526,40.2873224 C44.4942526,42.9065817 43.3774141,44.2932484 41.5732904,44.2932484 Z M41.5732904,43.0962113 C42.5551264,43.0962113 42.9355879,42.1243595 42.9355879,40.2873224 C42.9355879,38.4621372 42.5551264,37.4902854 41.5732904,37.4902854 C40.5914544,37.4902854 40.2109929,38.4621372 40.2109929,40.2873224 C40.2109929,42.1243595 40.5914544,43.0962113 41.5732904,43.0962113 Z" id="2019" fill="#000000" fill-rule="nonzero"></path>
                <path d="M45.2998161,44.1531689 C45.6311858,40.230206 49.300798,40.1116875 49.300798,38.4642801 C49.300798,37.7413171 48.6994234,37.4687245 48.048957,37.4687245 C47.2266693,37.4687245 46.5516571,37.7294652 45.9625554,38.0020578 L45.569821,36.8998356 C46.2325603,36.5916875 47.1653046,36.2716875 48.2698701,36.2716875 C50.0126291,36.2716875 50.8594627,37.1368726 50.8594627,38.3220578 C50.8594627,40.5383541 47.6807685,40.9768726 47.1775775,42.9916875 L50.9331004,42.9916875 L50.9331004,44.1531689 L45.2998161,44.1531689 Z M55.0568117,44.2716875 C53.252688,44.2716875 52.1358495,42.8850208 52.1358495,40.2657615 C52.1358495,37.6583541 53.252688,36.2716875 55.0568117,36.2716875 C56.8609354,36.2716875 57.9777739,37.6583541 57.9777739,40.2657615 C57.9777739,42.8850208 56.8609354,44.2716875 55.0568117,44.2716875 Z M55.0568117,43.0746504 C56.0386477,43.0746504 56.4191092,42.1027986 56.4191092,40.2657615 C56.4191092,38.4405763 56.0386477,37.4687245 55.0568117,37.4687245 C54.0749757,37.4687245 53.6945142,38.4405763 53.6945142,40.2657615 C53.6945142,42.1027986 54.0749757,43.0746504 55.0568117,43.0746504 Z" id="2019-copy" fill="#000000" fill-rule="nonzero"></path>
                <path d="M30.9959187,33.3134552 C30.3262655,33.3134552 29.7570602,33.1795245 29.3552682,32.9563068 L29.3552682,25.2999376 L30.5160006,25.2999376 L30.5160006,27.9785507 C30.8285054,27.8669418 31.1521712,27.7888156 31.5874458,27.7888156 C32.960235,27.7888156 34.0651629,28.7040084 34.0651629,30.4004634 C34.0651629,32.2420099 32.7481782,33.3134552 30.9959187,33.3134552 Z M31.1744929,32.3424579 C32.2012946,32.3424579 32.8709479,31.5946784 32.8709479,30.4674288 C32.8709479,29.4629488 32.3352253,28.7598129 31.4088716,28.7598129 C30.9512752,28.7598129 30.6834139,28.8937435 30.5160006,28.9607089 L30.5160006,32.2308491 C30.7392183,32.3089753 30.973597,32.3424579 31.1744929,32.3424579 Z M35.1924126,32.0857575 C35.1924126,32.8558588 35.5942046,33.2799725 36.4089494,33.2799725 C36.6879716,33.2799725 37.0339591,33.2241681 37.3129813,33.1013983 L37.0786027,32.1973664 C36.9781547,32.2308491 36.8219023,32.2643317 36.7437761,32.2643317 C36.4870756,32.2643317 36.353145,32.1527228 36.353145,31.7620918 L36.353145,25.2999376 L35.1924126,25.2999376 L35.1924126,32.0857575 Z M40.5273171,33.3134552 C38.6857706,33.3134552 37.8933475,32.0076313 37.8933475,30.545555 C37.8933475,28.949548 38.7750577,27.7888156 40.2036513,27.7888156 C41.6434059,27.7888156 42.4693116,28.8602609 42.4693116,30.5678767 L42.4693116,30.8468989 L39.0764017,30.8468989 C39.0987234,31.7509309 39.6902505,32.3871015 40.6500869,32.3871015 C41.1746486,32.3871015 41.5987623,32.2420099 41.9782325,32.0299531 L42.3242201,32.8223761 C41.8108192,33.1572028 41.1523268,33.3134552 40.5273171,33.3134552 Z M39.0652408,30.0209932 L41.2862575,30.0209932 C41.2639357,29.35134 40.9402699,28.6928476 40.1924905,28.6928476 C39.4893545,28.6928476 39.0764017,29.3066964 39.0652408,30.0209932 Z M43.5407569,33.2018463 L44.7014892,33.2018463 L44.7014892,29.4406271 C45.1256029,29.0834786 45.6055211,28.8044564 46.0966002,28.8044564 C46.7997361,28.8044564 46.9559886,29.3625008 46.9559886,30.0544759 L46.9559886,33.2018463 L48.1167209,33.2018463 L48.1167209,29.6861666 C48.1167209,28.2352512 47.3019761,27.7888156 46.4649095,27.7888156 C45.8064171,27.7888156 45.2037292,28.0901596 44.6568457,28.547756 L44.522915,27.9227463 L43.5407569,27.9227463 L43.5407569,33.2018463 Z M52.0899971,33.3134552 C50.4381856,33.3134552 49.1658444,32.3759406 49.1658444,30.6125203 C49.1658444,28.9383871 50.3823812,27.7888156 52.0118708,27.7888156 C52.2462495,27.7888156 52.5475935,27.8111374 52.7819721,27.8669418 L52.7819721,25.2999376 L53.9427045,25.2999376 L53.9427045,32.933985 C53.4739472,33.1795245 52.7484895,33.3134552 52.0899971,33.3134552 Z M52.0899971,32.3424579 C52.3020539,32.3424579 52.592237,32.3089753 52.7819721,32.2308491 L52.7819721,28.8491 C52.5587544,28.7932956 52.3801802,28.7598129 52.0788362,28.7598129 C51.1078389,28.7598129 50.3600594,29.4294662 50.3600594,30.5901985 C50.3600594,31.6839655 51.0520345,32.3424579 52.0899971,32.3424579 Z M57.6927628,33.3134552 C55.8512163,33.3134552 55.0587933,32.0076313 55.0587933,30.545555 C55.0587933,28.949548 55.9405034,27.7888156 57.3690971,27.7888156 C58.8088516,27.7888156 59.6347574,28.8602609 59.6347574,30.5678767 L59.6347574,30.8468989 L56.2418474,30.8468989 C56.2641692,31.7509309 56.8556962,32.3871015 57.8155326,32.3871015 C58.3400943,32.3871015 58.7642081,32.2420099 59.1436783,32.0299531 L59.4896658,32.8223761 C58.976265,33.1572028 58.3177726,33.3134552 57.6927628,33.3134552 Z M56.2306865,30.0209932 L58.4517032,30.0209932 C58.4293814,29.35134 58.1057157,28.6928476 57.3579362,28.6928476 C56.6548003,28.6928476 56.2418474,29.3066964 56.2306865,30.0209932 Z" id="blende" fill="#000000" fill-rule="nonzero" transform="translate(44.495013, 29.306696) rotate(-2.000000) translate(-44.495013, -29.306696) "></path>
                <path d="M7.07508866,34.0620194 L7.07508866,26.7069942 L8.91663519,26.7069942 C9.63093202,26.7069942 10.133172,26.829764 10.5126421,27.0418208 C11.2380999,27.4101301 11.528283,28.0574616 11.528283,28.7717585 C11.528283,29.7650775 10.9590777,30.412409 10.0773675,30.6914312 L10.0773675,30.713753 C10.3005853,30.8365227 10.5907684,31.2383147 10.9813994,31.8968071 L12.2425798,34.0620194 L10.8921123,34.0620194 L9.76486267,32.108864 C9.40771426,31.4726934 9.13985295,31.1601885 8.93895696,31.1155449 L8.24698191,31.1155449 L8.24698191,34.0620194 L7.07508866,34.0620194 Z M8.24698191,30.1445477 L8.87199163,30.1445477 C9.24030094,30.1445477 9.50816225,30.0775824 9.75370179,29.9436517 C10.0885284,29.7427557 10.3117462,29.3856073 10.3117462,28.8945282 C10.3117462,28.4815754 10.1554937,28.124427 9.831828,27.923531 C9.63093202,27.7672785 9.34074893,27.6668306 8.88315252,27.6668306 L8.24698191,27.6668306 L8.24698191,30.1445477 Z M14.8988711,34.1736283 C15.5908462,34.1736283 16.1488906,33.8722843 16.5730043,33.4928141 L16.7627394,34.0620194 L17.7672194,34.0620194 C17.6890931,33.7829972 17.6667714,33.3254008 17.6667714,32.5999431 L17.6667714,28.7829194 L16.506039,28.7829194 L16.506039,32.6111039 C16.2493386,32.9124479 15.7917422,33.1691483 15.2895022,33.1691483 C14.8765494,33.1691483 14.608688,33.001735 14.4747574,32.6557475 C14.3966312,32.4660124 14.3743094,32.2427946 14.3743094,31.9414507 L14.3743094,28.7829194 L13.213577,28.7829194 L13.213577,32.0977031 C13.213577,32.5664604 13.2582206,32.8678044 13.3698295,33.1579875 C13.6711735,33.9615714 14.3854703,34.1736283 14.8988711,34.1736283 Z M14.4412747,27.9346919 C14.7761014,27.9346919 15.0551236,27.6556697 15.0551236,27.3096821 C15.0551236,26.9636946 14.7761014,26.6846724 14.4412747,26.6846724 C14.0952872,26.6846724 13.816265,26.9636946 13.816265,27.3096821 C13.816265,27.6556697 14.0952872,27.9346919 14.4412747,27.9346919 Z M16.5171999,27.9346919 C16.8520265,27.9346919 17.1310487,27.6556697 17.1310487,27.3096821 C17.1310487,26.9636946 16.8520265,26.6846724 16.5171999,26.6846724 C16.1712124,26.6846724 15.9033511,26.9636946 15.9033511,27.3096821 C15.9033511,27.6556697 16.1712124,27.9346919 16.5171999,27.9346919 Z M21.4391515,34.1736283 C22.1311266,34.1736283 22.7784581,33.9504105 23.18025,33.6713883 L22.8454234,32.8678044 C22.4771141,33.0687003 22.1088048,33.2249528 21.5954039,33.2249528 C20.6355676,33.2249528 20.0105578,32.5776213 20.0105578,31.4280498 C20.0105578,30.3789263 20.6355676,29.5976642 21.6623693,29.5976642 C22.1757701,29.5976642 22.5775621,29.7427557 22.9458714,29.9882953 L22.9458714,28.9949762 C22.6445274,28.816402 22.1757701,28.6489887 21.5507604,28.6489887 C19.9659143,28.6489887 18.8163428,29.8543646 18.8163428,31.4615325 C18.8163428,32.9794132 19.7538574,34.1736283 21.4391515,34.1736283 Z M24.0396384,34.0620194 L25.2003708,34.0620194 L25.2003708,31.5284978 L25.2226925,31.5284978 L27.2204915,34.0620194 L28.5821198,34.0620194 L26.171368,31.0597405 L28.3812238,28.7829194 L27.0419173,28.7829194 L25.2226925,30.6579485 L25.2003708,30.6579485 L25.2003708,26.1601107 L24.0396384,26.1601107 L24.0396384,34.0620194 Z" id="Rück" fill="#AB002C" fill-rule="nonzero" transform="translate(17.828604, 30.166869) rotate(-2.000000) translate(-17.828604, -30.166869) "></path>
                <g id="Path-2" transform="translate(19.000000, 35.000000)">
                    <g id="path-9-link" fill="#D8073D">
                        <polygon id="path-9" points="0.5929513 4.6268985 11.5929513 8.612759 9.0048163 4.6268985 11.5929513 0.612759"></polygon>
                    </g>
                    <g id="path-9-link" fill="#000000" fill-rule="nonzero">
                        <polygon id="path-9" points="0.5929513 4.6268985 11.5929513 8.612759 9.0048163 4.6268985 11.5929513 0.612759"></polygon>
                    </g>
                </g>
            </g>
            <path d="M102,39 L102,23.184 L104.88,23.184 L104.88,29.712 L112.44,29.712 L112.44,23.184 L115.344,23.184 L115.344,39 L112.44,39 L112.44,32.16 L104.88,32.16 L104.88,39 L102,39 Z M118.656,39 L118.656,27.648 L121.536,27.648 L121.536,39 L118.656,39 Z M120.096,25.8 C119.088,25.8 118.344,25.056 118.344,24.096 C118.344,23.136 119.088,22.368 120.096,22.368 C121.104,22.368 121.872,23.112 121.872,24.096 C121.872,25.032 121.104,25.8 120.096,25.8 Z M133.968,34.104 L126.696,34.104 C126.768,35.856 128.016,36.984 129.912,36.984 C131.04,36.984 131.952,36.672 132.768,36.216 L133.632,38.184 C132.432,38.928 131.016,39.24 129.624,39.24 C125.496,39.24 123.816,36.408 123.816,33.336 C123.816,29.928 125.688,27.36 128.928,27.36 C132.12,27.36 133.968,29.664 133.968,33.432 L133.968,34.104 Z M126.672,32.112 L131.064,32.112 C131.04,30.816 130.392,29.544 128.88,29.544 C127.464,29.544 126.696,30.744 126.672,32.112 Z M136.104,39 L136.104,27.648 L138.528,27.648 L138.84,28.92 C139.872,27.888 140.808,27.36 141.96,27.36 C142.488,27.36 143.112,27.504 143.568,27.816 L142.56,30.24 C142.056,29.928 141.6,29.856 141.264,29.856 C140.52,29.856 139.896,30.168 138.96,30.984 L138.96,39 L136.104,39 Z M154.32,44.688 C150.984,44.688 149.04,43.32 149.04,41.352 C149.04,40.104 149.904,39.12 151.08,38.616 C150.6,38.328 150.336,37.8 150.336,37.2 C150.336,36.528 150.768,35.712 151.704,35.064 C150.504,34.368 149.808,33.048 149.808,31.536 C149.808,29.448 151.344,27.36 154.44,27.36 C155.448,27.36 156.24,27.6 156.696,27.864 C156.816,27.912 156.888,27.888 156.984,27.816 C157.584,27.216 158.328,26.832 159.72,26.832 C159.984,26.832 160.32,26.856 160.488,26.88 L159.912,28.944 C159.648,28.872 159.336,28.824 159.072,28.824 C158.832,28.824 158.472,28.872 158.232,29.016 C158.904,29.736 159.24,30.696 159.24,31.704 C159.24,34.248 157.296,35.904 154.536,35.904 C154.008,35.904 153.528,35.832 153.144,35.712 C152.928,36.072 152.856,36.312 152.856,36.552 C152.856,38.592 160.32,36.696 160.32,40.944 C160.32,43.008 158.256,44.688 154.32,44.688 Z M154.704,42.672 C156.432,42.672 157.584,42.096 157.584,41.256 C157.584,39.624 154.056,39.96 152.52,39.36 C152.16,39.624 151.608,40.104 151.608,40.848 C151.608,41.976 152.808,42.672 154.704,42.672 Z M154.512,33.744 C155.664,33.744 156.528,33.024 156.528,31.656 C156.528,30.528 155.76,29.52 154.488,29.52 C153.36,29.52 152.52,30.264 152.52,31.632 C152.52,32.76 153.24,33.744 154.512,33.744 Z M171.816,34.104 L164.544,34.104 C164.616,35.856 165.864,36.984 167.76,36.984 C168.888,36.984 169.8,36.672 170.616,36.216 L171.48,38.184 C170.28,38.928 168.864,39.24 167.472,39.24 C163.344,39.24 161.664,36.408 161.664,33.336 C161.664,29.928 163.536,27.36 166.776,27.36 C169.968,27.36 171.816,29.664 171.816,33.432 L171.816,34.104 Z M164.52,32.112 L168.912,32.112 C168.888,30.816 168.24,29.544 166.728,29.544 C165.312,29.544 164.544,30.744 164.52,32.112 Z M174.096,39 L174.096,22.008 L176.952,22.008 L176.952,28.896 C177.984,28.032 179.28,27.36 180.72,27.36 C182.52,27.36 184.344,28.248 184.344,31.488 L184.344,39 L181.488,39 L181.488,32.376 C181.488,30.984 181.2,29.856 179.736,29.856 C178.776,29.856 177.792,30.36 176.952,31.056 L176.952,39 L174.096,39 Z M191.328,39.24 C189.312,39.24 188.088,38.088 188.088,36.192 L188.088,29.88 L186.048,29.88 L186.048,27.648 L188.088,27.648 L188.088,25.008 L190.944,24.168 L190.944,27.648 L194.376,27.648 L193.68,29.88 L190.944,29.88 L190.944,35.496 C190.944,36.552 191.304,36.936 192.048,36.936 C192.72,36.936 193.344,36.672 193.776,36.384 L194.64,38.352 C193.824,38.904 192.456,39.24 191.328,39.24 Z M211.128,34.104 L203.856,34.104 C203.928,35.856 205.176,36.984 207.072,36.984 C208.2,36.984 209.112,36.672 209.928,36.216 L210.792,38.184 C209.592,38.928 208.176,39.24 206.784,39.24 C202.656,39.24 200.976,36.408 200.976,33.336 C200.976,29.928 202.848,27.36 206.088,27.36 C209.28,27.36 211.128,29.664 211.128,33.432 L211.128,34.104 Z M203.832,32.112 L208.224,32.112 C208.2,30.816 207.552,29.544 206.04,29.544 C204.624,29.544 203.856,30.744 203.832,32.112 Z M212.448,38.136 L213.336,36.048 C214.2,36.6 215.28,36.984 216.432,36.984 C217.584,36.984 218.424,36.648 218.424,35.784 C218.424,33.864 213.096,34.584 213.096,30.792 C213.096,28.776 214.728,27.36 217.392,27.36 C218.664,27.36 219.792,27.576 220.728,27.912 L220.728,30.336 C219.768,29.928 218.712,29.616 217.512,29.616 C216.552,29.616 215.904,29.904 215.904,30.648 C215.904,32.448 221.232,31.752 221.232,35.712 C221.232,38.208 219.072,39.24 216.624,39.24 C214.848,39.24 213.384,38.712 212.448,38.136 Z M227.568,39 L232.824,29.88 L228.48,29.88 L227.904,27.648 L237,27.648 L231.792,36.768 L236.904,36.768 L236.904,39 L227.568,39 Z M242.28,39.24 C241.176,39.24 239.568,38.784 238.872,37.008 C238.608,36.384 238.488,35.688 238.488,34.632 L238.488,27.648 L241.344,27.648 L241.344,34.344 C241.344,34.944 241.416,35.4 241.584,35.76 C241.872,36.432 242.424,36.792 243.288,36.792 C244.224,36.792 245.112,36.336 245.616,35.784 L245.616,27.648 L248.496,27.648 L248.496,36.192 C248.496,37.416 248.52,38.4 248.688,39 L246.24,39 L245.808,37.824 C244.944,38.592 243.768,39.24 242.28,39.24 Z M251.328,39 L251.328,27.648 L253.728,27.648 L254.016,28.92 C255.144,28.032 256.44,27.36 257.832,27.36 C259.224,27.36 260.304,27.984 260.856,29.112 C262.224,27.96 263.664,27.36 264.936,27.36 C266.928,27.36 268.704,28.464 268.704,31.464 L268.704,39 L265.848,39 L265.848,32.256 C265.848,30.912 265.584,29.856 264.12,29.856 C263.208,29.856 262.248,30.312 261.432,30.984 C261.456,31.104 261.456,31.248 261.456,31.416 L261.456,39 L258.576,39 L258.576,32.28 C258.576,30.96 258.36,29.856 256.896,29.856 C255.984,29.856 255.024,30.312 254.184,30.984 L254.184,39 L251.328,39 Z M147.84,69.096 L142.248,53.184 L145.512,53.184 L148.416,62.28 C148.68,63.096 148.92,63.984 149.184,64.944 L149.232,64.944 C149.496,63.984 149.76,63.168 150.048,62.304 L152.184,55.944 L151.2,53.184 L154.128,53.184 L157.176,62.136 C157.488,63.024 157.824,63.984 158.064,64.92 L158.136,64.92 C158.376,63.96 158.568,63.12 158.856,62.184 L161.592,53.184 L164.568,53.184 L159.24,69.096 L156.792,69.096 L154.416,62.4 C154.08,61.464 153.768,60.6 153.552,59.76 L153.48,59.76 C153.24,60.624 152.976,61.44 152.64,62.376 L150.24,69.096 L147.84,69.096 Z M174.72,64.104 L167.448,64.104 C167.52,65.856 168.768,66.984 170.664,66.984 C171.792,66.984 172.704,66.672 173.52,66.216 L174.384,68.184 C173.184,68.928 171.768,69.24 170.376,69.24 C166.248,69.24 164.568,66.408 164.568,63.336 C164.568,59.928 166.44,57.36 169.68,57.36 C172.872,57.36 174.72,59.664 174.72,63.432 L174.72,64.104 Z M167.424,62.112 L171.816,62.112 C171.792,60.816 171.144,59.544 169.632,59.544 C168.216,59.544 167.448,60.744 167.424,62.112 Z M181.2,69.24 C179.184,69.24 177.96,68.088 177.96,66.192 L177.96,59.88 L175.92,59.88 L175.92,57.648 L177.96,57.648 L177.96,55.008 L180.816,54.168 L180.816,57.648 L184.248,57.648 L183.552,59.88 L180.816,59.88 L180.816,65.496 C180.816,66.552 181.176,66.936 181.92,66.936 C182.592,66.936 183.216,66.672 183.648,66.384 L184.512,68.352 C183.696,68.904 182.328,69.24 181.2,69.24 Z M190.464,69.24 C188.448,69.24 187.224,68.088 187.224,66.192 L187.224,59.88 L185.184,59.88 L185.184,57.648 L187.224,57.648 L187.224,55.008 L190.08,54.168 L190.08,57.648 L193.512,57.648 L192.816,59.88 L190.08,59.88 L190.08,65.496 C190.08,66.552 190.44,66.936 191.184,66.936 C191.856,66.936 192.48,66.672 192.912,66.384 L193.776,68.352 C192.96,68.904 191.592,69.24 190.464,69.24 Z M199.248,69.24 C197.784,69.24 196.488,68.952 195.528,68.448 L195.528,52.008 L198.384,52.008 L198.384,57.696 C199.032,57.504 199.704,57.36 200.592,57.36 C203.616,57.36 206.04,59.352 206.04,62.952 C206.04,66.936 203.112,69.24 199.248,69.24 Z M199.704,66.864 C201.768,66.864 203.088,65.352 203.088,63.12 C203.088,61.128 201.984,59.736 200.112,59.736 C199.248,59.736 198.744,59.952 198.384,60.096 L198.384,66.672 C198.84,66.816 199.296,66.864 199.704,66.864 Z M217.872,64.104 L210.6,64.104 C210.672,65.856 211.92,66.984 213.816,66.984 C214.944,66.984 215.856,66.672 216.672,66.216 L217.536,68.184 C216.336,68.928 214.92,69.24 213.528,69.24 C209.4,69.24 207.72,66.408 207.72,63.336 C207.72,59.928 209.592,57.36 212.832,57.36 C216.024,57.36 217.872,59.664 217.872,63.432 L217.872,64.104 Z M210.576,62.112 L214.968,62.112 C214.944,60.816 214.296,59.544 212.784,59.544 C211.368,59.544 210.6,60.744 210.576,62.112 Z M222.96,69.072 L218.856,57.648 L221.76,57.648 L224.16,65.352 L224.208,65.352 L226.608,57.648 L228.84,57.648 L231.336,65.352 L231.384,65.352 L233.736,57.648 L236.568,57.648 L232.368,69.072 L230.256,69.072 L227.76,61.368 L227.712,61.368 L225.168,69.072 L222.96,69.072 Z M247.656,64.104 L240.384,64.104 C240.456,65.856 241.704,66.984 243.6,66.984 C244.728,66.984 245.64,66.672 246.456,66.216 L247.32,68.184 C246.12,68.928 244.704,69.24 243.312,69.24 C239.184,69.24 237.504,66.408 237.504,63.336 C237.504,59.928 239.376,57.36 242.616,57.36 C245.808,57.36 247.656,59.664 247.656,63.432 L247.656,64.104 Z M240.36,62.112 L244.752,62.112 C244.728,60.816 244.08,59.544 242.568,59.544 C241.152,59.544 240.384,60.744 240.36,62.112 Z M249.792,69 L249.792,57.648 L252.216,57.648 L252.528,58.92 C253.56,57.888 254.496,57.36 255.648,57.36 C256.176,57.36 256.8,57.504 257.256,57.816 L256.248,60.24 C255.744,59.928 255.288,59.856 254.952,59.856 C254.208,59.856 253.584,60.168 252.648,60.984 L252.648,69 L249.792,69 Z M262.392,69.24 C260.928,69.24 259.632,68.952 258.672,68.448 L258.672,52.008 L261.528,52.008 L261.528,57.696 C262.176,57.504 262.848,57.36 263.736,57.36 C266.76,57.36 269.184,59.352 269.184,62.952 C269.184,66.936 266.256,69.24 262.392,69.24 Z M262.848,66.864 C264.912,66.864 266.232,65.352 266.232,63.12 C266.232,61.128 265.128,59.736 263.256,59.736 C262.392,59.736 261.888,59.952 261.528,60.096 L261.528,66.672 C261.984,66.816 262.44,66.864 262.848,66.864 Z" id="HiergehteszumWettbewerb" fill="#FFFFFF" fill-rule="nonzero"></path>
            <g id="Group-2-Copy-11" transform="translate(299.000000, 27.000000)" fill="#AA012D" fill-rule="nonzero">
                <g id="Group">
                    <path d="M0.671826595,11.8950239 C0.0398486462,10.8347587 0.412558281,9.4803082 1.50056774,8.87185947 L16.8378725,0.294761529 C17.9275515,-0.314620891 19.3235243,0.0513851294 19.9552082,1.111157 L20.2929224,1.67773786 C20.9249004,2.73800304 20.5521907,4.09245355 19.4641813,4.70090228 L4.12687654,13.2780002 C3.03719749,13.8873826 1.6412247,13.5213766 1.00954079,12.4616047" id="Rectangle-5-Copy-4"></path>
                    <path d="M1.00977619,9.36084908 C1.64175414,8.30058389 3.03910248,7.93600487 4.12711193,8.54445361 L19.4644167,17.1215515 C20.5540957,17.730934 20.9248417,19.0849441 20.2931578,20.144716 L19.9554436,20.7112968 C19.3234657,21.771562 17.9261173,22.136141 16.8381079,21.5276923 L1.50080313,12.9505944 C0.411124089,12.3412119 0.0403780874,10.9872018 0.67206199,9.92742994" id="Rectangle-5-Copy-5"></path>
                </g>
            </g>
        </g>
    </g>
</svg>