
<svg width="189px" height="191px" viewBox="0 0 189 191" version="1.1" xmlns="http://www.w3.org/2000/svg" xmlns:xlink="http://www.w3.org/1999/xlink">
    <!-- Generator: Sketch 47.1 (45422) - http://www.bohemiancoding.com/sketch -->
    <desc>Created with Sketch.</desc>
    <defs></defs>
    <g id="Index" stroke="none" stroke-width="1" fill="none" fill-rule="evenodd">
        <g id="start" transform="translate(-83.000000, -2090.000000)" fill="#FFFFFF">
            <g id="Group-2-Copy" transform="translate(54.000000, 2062.000000)">
                <g id="shade_icon">
                    <polygon id="Path-2" points="92 121.576 142 143 130.23575 121.576 142 100"></polygon>
                    <path d="M169.411219,126.281707 C170.589866,137.327322 165.47431,196.301249 148.839261,216.728429 C179.270481,208.260088 203.489106,184.847666 213.115423,154.882012 C211.693376,147.820495 194.742373,120.43367 163.064743,99.8547855 C164.883061,103.577171 169.283611,120.25367 169.411219,126.281707 Z" id="Oval"></path>
                    <path d="M168.734774,58.6356496 C169.913421,69.6812646 164.797866,128.655192 148.162817,149.082372 C178.594037,140.614031 202.812661,117.201609 212.438978,87.2359555 C211.016932,80.1744381 194.065928,52.7876133 162.388299,32.2087285 C164.206617,35.9311144 168.607166,52.6076135 168.734774,58.6356496 Z" id="Oval-Copy" transform="translate(180.300898, 90.645550) rotate(-60.000000) translate(-180.300898, -90.645550) "></path>
                    <path d="M112.334483,25.0778938 C113.51313,36.1235088 108.397575,95.0974361 91.7625257,115.524617 C122.193745,107.056275 146.41237,83.6438533 156.038687,53.6781998 C154.61664,46.6166823 137.665637,19.2298575 105.988008,-1.34902725 C107.806326,2.37335865 112.206875,19.0498577 112.334483,25.0778938 Z" id="Oval-Copy-2" transform="translate(123.900606, 57.087795) rotate(-120.000000) translate(-123.900606, -57.087795) "></path>
                    <path d="M54.9758454,58.3477131 C56.1544923,69.3933282 51.0389371,128.367255 34.4038879,148.794436 C64.8351075,140.326095 89.0537322,116.913673 98.6800492,86.9480191 C97.2580025,79.8865016 80.3069992,52.4996768 48.6293698,31.9207921 C50.4476878,35.643178 54.8482374,52.3196771 54.9758454,58.3477131 Z" id="Oval-Copy-3" transform="translate(66.541969, 90.357614) rotate(-180.000000) translate(-66.541969, -90.357614) "></path>
                    <path d="M55.1167966,124.932679 C56.2954434,135.978294 51.1798882,194.952222 34.5448391,215.379402 C64.9760587,206.911061 89.1946834,183.498639 98.8210004,153.532985 C97.3989537,146.471468 80.4479503,119.084643 48.770321,98.5057582 C50.588639,102.228144 54.9891886,118.904643 55.1167966,124.932679 Z" id="Oval-Copy-4" transform="translate(66.682920, 156.942580) rotate(-240.000000) translate(-66.682920, -156.942580) "></path>
                    <path d="M112.334483,158.490435 C113.51313,169.53605 108.397575,228.509977 91.7625257,248.937158 C122.193745,240.468817 146.41237,217.056395 156.038687,187.090741 C154.61664,180.029224 137.665637,152.642399 105.988008,132.063514 C107.806326,135.7859 112.206875,152.462399 112.334483,158.490435 Z" id="Oval-Copy-5" transform="translate(123.900606, 190.500336) rotate(-300.000000) translate(-123.900606, -190.500336) "></path>
                </g>
            </g>
        </g>
    </g>
</svg>
