<svg xmlns="http://www.w3.org/2000/svg" viewBox="0 0 573.75 152.38"><defs><style>.a{fill:#1a1a18;}.b{fill:#b61c3e;}</style></defs><title>Element 1</title><path class="a" d="M152.84,81.88h6.28c7.15,0,11,4,11,10s-4.35,10.24-11.37,10.24h-5.95Zm6,17.2c5.33,0,7.35-3.38,7.35-7.18,0-4.23-2.48-7-7.41-7h-2.27v14.2Z"/><path class="a" d="M173,94.85c0-4.36,2.39-7.64,6.53-7.64s6.44,3,6.44,7.76v.86h-9.29c.06,2.23,1.66,3.67,4.08,3.67a7.17,7.17,0,0,0,3.67-1l1.11,2.51a9.7,9.7,0,0,1-5.12,1.35C175.07,102.38,173,98.77,173,94.85Zm9.26-1.57c-.06-1.65-.86-3.28-2.79-3.28s-2.82,1.54-2.82,3.28Z"/><path class="a" d="M188.8,87.58h3.1l.4,1.63a5.49,5.49,0,0,1,4-2,3.78,3.78,0,0,1,2.05.59l-1.28,3.09a3.11,3.11,0,0,0-1.66-.49,4.37,4.37,0,0,0-2.94,1.44v10.24H188.8Z"/><path class="a" d="M205.66,95c0-4.6,3.34-7.76,7.94-7.76a10.24,10.24,0,0,1,2,.19v-7h3.68v20.93a13.21,13.21,0,0,1-5.33,1.07C209.19,102.38,205.66,99.75,205.66,95Zm9.9,4.14V90.43a7.27,7.27,0,0,0-1.74-.21c-2.55,0-4.42,1.71-4.42,4.69a4.14,4.14,0,0,0,4.45,4.44A5.61,5.61,0,0,0,215.56,99.11Z"/><path class="a" d="M222.31,94.85c0-4.36,2.39-7.64,6.53-7.64s6.43,3,6.43,7.76v.86H226c.06,2.23,1.65,3.67,4.07,3.67a7.18,7.18,0,0,0,3.68-1l1.11,2.51a9.75,9.75,0,0,1-5.12,1.35C224.42,102.38,222.31,98.77,222.31,94.85Zm9.26-1.57c-.07-1.65-.86-3.28-2.79-3.28S226,91.54,226,93.28Z"/><path class="a" d="M238.65,99.54a7.44,7.44,0,0,1-.49-3V87.58h3.65v8.55a4.35,4.35,0,0,0,.3,1.81,2.15,2.15,0,0,0,2.18,1.32,4.17,4.17,0,0,0,3-1.29V87.58h3.68V98.49a15.38,15.38,0,0,0,.25,3.59h-3.13l-.55-1.5a6.79,6.79,0,0,1-4.51,1.8A4.5,4.5,0,0,1,238.65,99.54Z"/><path class="a" d="M256.12,98.49V90.43h-2.6V87.58h2.6V84.21l3.65-1.07v4.44h4.38l-.88,2.85h-3.5V97.6c0,1.35.46,1.84,1.41,1.84a4.08,4.08,0,0,0,2.21-.7l1.1,2.51a8.33,8.33,0,0,1-4.23,1.13C257.69,102.38,256.12,100.91,256.12,98.49Z"/><path class="a" d="M266.79,98.31a7.5,7.5,0,0,0,4,1.19c1.47,0,2.54-.42,2.54-1.53,0-2.45-6.8-1.53-6.8-6.37,0-2.58,2.08-4.39,5.48-4.39a12.57,12.57,0,0,1,4.26.71V91a10.33,10.33,0,0,0-4.1-.92c-1.23,0-2.06.37-2.06,1.32,0,2.3,6.81,1.41,6.81,6.47,0,3.18-2.76,4.5-5.89,4.5a10.27,10.27,0,0,1-5.33-1.41Z"/><path class="a" d="M279.12,94.94a7.49,7.49,0,0,1,7.66-7.73,7.27,7.27,0,0,1,3.89,1v3.1a5.66,5.66,0,0,0-3.52-1.13c-2.7,0-4.29,2-4.29,4.69,0,3,1.62,4.59,4.1,4.59a6.7,6.7,0,0,0,3.37-1l1.08,2.51a9.08,9.08,0,0,1-5,1.41C281.72,102.38,279.12,99.14,279.12,94.94Z"/><path class="a" d="M293.77,80.38h3.65v8.8a7.61,7.61,0,0,1,4.82-2c2.3,0,4.62,1.14,4.62,5.28v9.59h-3.64V93.62c0-1.78-.37-3.22-2.24-3.22a5.86,5.86,0,0,0-3.56,1.53v10.15h-3.65Z"/><path class="a" d="M309.78,94.85c0-4.36,2.39-7.64,6.53-7.64s6.43,3,6.43,7.76v.86h-9.28c.06,2.23,1.65,3.67,4.07,3.67a7.18,7.18,0,0,0,3.68-1l1.11,2.51a9.72,9.72,0,0,1-5.12,1.35C311.89,102.38,309.78,98.77,309.78,94.85ZM319,93.28c-.06-1.65-.86-3.28-2.79-3.28s-2.82,1.54-2.82,3.28Z"/><path class="a" d="M333.17,81.88H338a10.27,10.27,0,0,1,4.54.86,6,6,0,0,1,3.28,5.76A6.06,6.06,0,0,1,342,94.42a11.69,11.69,0,0,1-4.29.7h-.86v7h-3.68ZM338,92.12a5.21,5.21,0,0,0,2.36-.46A3.21,3.21,0,0,0,342,88.5a3.41,3.41,0,0,0-1.6-3.09,5,5,0,0,0-2.51-.53h-1v7.24Z"/><path class="a" d="M349.23,87.58h3.1l.4,1.63a5.51,5.51,0,0,1,4-2,3.82,3.82,0,0,1,2.06.59l-1.29,3.09a3.09,3.09,0,0,0-1.66-.49,4.41,4.41,0,0,0-2.94,1.44v10.24h-3.65Z"/><path class="a" d="M359.44,94.85c0-4.36,2.4-7.64,6.53-7.64s6.44,3,6.44,7.76v.86h-9.29c.06,2.23,1.66,3.67,4.08,3.67a7.21,7.21,0,0,0,3.68-1L372,101a9.7,9.7,0,0,1-5.12,1.35C361.56,102.38,359.44,98.77,359.44,94.85Zm9.26-1.57c-.06-1.65-.86-3.28-2.79-3.28s-2.82,1.54-2.82,3.28Z"/><path class="a" d="M375,83.05a2.25,2.25,0,1,1,2.24,2.17A2.16,2.16,0,0,1,375,83.05Zm.4,4.53h3.67v14.5h-3.67Z"/><path class="a" d="M382.84,98.31a7.44,7.44,0,0,0,4,1.19c1.47,0,2.54-.42,2.54-1.53,0-2.45-6.8-1.53-6.8-6.37,0-2.58,2.08-4.39,5.49-4.39a12.65,12.65,0,0,1,4.26.71V91a10.42,10.42,0,0,0-4.11-.92c-1.23,0-2.06.37-2.06,1.32,0,2.3,6.81,1.41,6.81,6.47,0,3.18-2.76,4.5-5.89,4.5A10.33,10.33,0,0,1,381.7,101Z"/><path class="a" d="M403.07,90.43h-2.15V87.58h2.15v-2c0-3.4,2-5.18,4.93-5.18a7.32,7.32,0,0,1,3,.64l-.74,2.91a5.72,5.72,0,0,0-1.78-.39c-1.22,0-1.77.73-1.77,2v2h3.77l-.89,2.85h-2.88v11.65h-3.68Z"/><path class="a" d="M413.12,99.54a7.62,7.62,0,0,1-.49-3V87.58h3.65v8.55a4.18,4.18,0,0,0,.31,1.81,2.13,2.13,0,0,0,2.17,1.32,4.19,4.19,0,0,0,3-1.29V87.58h3.68V98.49a16.08,16.08,0,0,0,.24,3.59h-3.13l-.55-1.5a6.74,6.74,0,0,1-4.5,1.8A4.51,4.51,0,0,1,413.12,99.54Zm1.2-16a1.89,1.89,0,1,1,1.87,1.87A1.88,1.88,0,0,1,414.32,83.54Zm5.85,0A1.87,1.87,0,1,1,422,85.41,1.86,1.86,0,0,1,420.17,83.54Z"/><path class="a" d="M429.19,87.58h3.09l.4,1.63a5.53,5.53,0,0,1,4-2,3.78,3.78,0,0,1,2.05.59l-1.29,3.09a3.06,3.06,0,0,0-1.65-.49,4.37,4.37,0,0,0-2.94,1.44v10.24h-3.65Z"/><path class="a" d="M447.27,88.13a17.11,17.11,0,0,1,5.49-.92c5.21,0,7.94,3,7.94,7.57a7.2,7.2,0,0,1-7.54,7.6,7.6,7.6,0,0,1-2.24-.34v7.3h-3.65Zm5.61,11.22c2.7,0,4.08-1.78,4.08-4.57,0-3.09-1.72-4.56-4.32-4.56a6.21,6.21,0,0,0-1.72.24V99A5,5,0,0,0,452.88,99.35Z"/><path class="a" d="M463,94.78c0-4.35,2.91-7.57,7.24-7.57s7.26,3.22,7.26,7.57-2.94,7.6-7.26,7.6S463,99.14,463,94.78Zm10.73,0c0-2.66-1.2-4.62-3.49-4.62s-3.5,2-3.5,4.62,1.2,4.66,3.5,4.66S473.7,97.48,473.7,94.78Z"/><path class="a" d="M480.54,80.38h3.65V97.82c0,1,.4,1.32,1.07,1.32a2.89,2.89,0,0,0,.92-.19l.7,2.82a7.1,7.1,0,0,1-2.69.52c-2.42,0-3.65-1.19-3.65-3.49Z"/><path class="a" d="M489,83.05a2.25,2.25,0,1,1,2.24,2.17A2.16,2.16,0,0,1,489,83.05Zm.4,4.53H493v14.5h-3.67Z"/><path class="a" d="M498.1,98.49V90.43h-2.6V87.58h2.6V84.21l3.65-1.07v4.44h4.38l-.89,2.85h-3.49V97.6c0,1.35.46,1.84,1.41,1.84a4.08,4.08,0,0,0,2.21-.7l1.1,2.51a8.33,8.33,0,0,1-4.23,1.13C499.67,102.38,498.1,100.91,498.1,98.49Z"/><path class="a" d="M508.41,83.05a2.25,2.25,0,1,1,2.23,2.17A2.16,2.16,0,0,1,508.41,83.05Zm.39,4.53h3.68v14.5H508.8Z"/><path class="a" d="M516.22,98.31a7.48,7.48,0,0,0,4,1.19c1.47,0,2.54-.42,2.54-1.53,0-2.45-6.8-1.53-6.8-6.37,0-2.58,2.08-4.39,5.48-4.39a12.57,12.57,0,0,1,4.26.71V91a10.33,10.33,0,0,0-4.1-.92c-1.23,0-2.06.37-2.06,1.32,0,2.3,6.81,1.41,6.81,6.47,0,3.18-2.76,4.5-5.89,4.5a10.27,10.27,0,0,1-5.33-1.41Z"/><path class="a" d="M528.52,94.94a7.49,7.49,0,0,1,7.66-7.73,7.27,7.27,0,0,1,3.89,1v3.1a5.66,5.66,0,0,0-3.52-1.13c-2.7,0-4.29,2-4.29,4.69,0,3,1.62,4.59,4.1,4.59a6.7,6.7,0,0,0,3.37-1l1.08,2.51a9.08,9.08,0,0,1-5,1.41C531.12,102.38,528.52,99.14,528.52,94.94Z"/><path class="a" d="M543.2,80.38h3.65v8.8a7.58,7.58,0,0,1,4.81-2c2.3,0,4.63,1.14,4.63,5.28v9.59h-3.65V93.62c0-1.78-.37-3.22-2.24-3.22a5.84,5.84,0,0,0-3.55,1.53v10.15H543.2Z"/><path class="a" d="M559.17,94.85c0-4.36,2.39-7.64,6.53-7.64s6.44,3,6.44,7.76v.86h-9.29c.06,2.23,1.66,3.67,4.08,3.67a7.24,7.24,0,0,0,3.68-1l1.1,2.51a9.7,9.7,0,0,1-5.12,1.35C561.29,102.38,559.17,98.77,559.17,94.85Zm9.26-1.57c-.06-1.65-.86-3.28-2.79-3.28s-2.82,1.54-2.82,3.28Z"/><path class="a" d="M152.84,124.92H164l-.95,3h-6.56v5.4H163v3h-6.43v8.8h-3.68Z"/><path class="a" d="M165.75,137.82c0-4.35,2.91-7.57,7.23-7.57s7.27,3.22,7.27,7.57-2.95,7.6-7.27,7.6S165.75,142.18,165.75,137.82Zm10.73,0c0-2.66-1.2-4.62-3.5-4.62s-3.49,2-3.49,4.62,1.19,4.66,3.49,4.66S176.48,140.52,176.48,137.82Z"/><path class="a" d="M184.54,141.53v-8.06h-2.6v-2.85h2.6v-3.37l3.65-1.07v4.44h4.38l-.89,2.85h-3.49v7.17c0,1.35.46,1.84,1.41,1.84a4,4,0,0,0,2.2-.7l1.11,2.51a8.24,8.24,0,0,1-4.23,1.13C186.1,145.42,184.54,144,184.54,141.53Z"/><path class="a" d="M194.5,137.82c0-4.35,2.92-7.57,7.24-7.57s7.26,3.22,7.26,7.57-2.94,7.6-7.26,7.6S194.5,142.18,194.5,137.82Zm10.73,0c0-2.66-1.19-4.62-3.49-4.62s-3.5,2-3.5,4.62,1.2,4.66,3.5,4.66S205.23,140.52,205.23,137.82Z"/><path class="a" d="M210.63,148.12a3.9,3.9,0,0,1,2.6-3.49,2.07,2.07,0,0,1-.95-1.81,3.57,3.57,0,0,1,1.75-2.73,5.07,5.07,0,0,1-2.42-4.5c0-2.67,2-5.34,5.92-5.34a6,6,0,0,1,2.88.65.32.32,0,0,0,.36-.06,4.45,4.45,0,0,1,3.5-1.26,8.56,8.56,0,0,1,1,.06l-.74,2.64a3.91,3.91,0,0,0-1.07-.16,2.18,2.18,0,0,0-1.07.25,5,5,0,0,1,1.29,3.43c0,3.25-2.49,5.36-6,5.36a6.18,6.18,0,0,1-1.78-.24,2,2,0,0,0-.37,1.07c0,2.61,9.53.19,9.53,5.61,0,2.64-2.63,4.78-7.66,4.78C213.11,152.38,210.63,150.63,210.63,148.12Zm10.91-.12c0-2.09-4.5-1.66-6.47-2.42a2.42,2.42,0,0,0-1.16,1.9c0,1.44,1.53,2.33,4,2.33C220.07,149.81,221.54,149.07,221.54,148Zm-1.35-12.26a2.59,2.59,0,0,0-2.6-2.73,2.44,2.44,0,0,0-2.52,2.7,2.52,2.52,0,0,0,2.55,2.7A2.44,2.44,0,0,0,220.19,135.74Z"/><path class="a" d="M227.46,130.62h3.1l.39,1.63a5.53,5.53,0,0,1,4-2,3.78,3.78,0,0,1,2.05.59l-1.29,3.09a3.06,3.06,0,0,0-1.65-.49,4.37,4.37,0,0,0-2.94,1.44v10.24h-3.65Z"/><path class="a" d="M247.05,143.74a6,6,0,0,1-4.17,1.68,4.52,4.52,0,0,1-4.81-4.62,4.14,4.14,0,0,1,2.45-4,9,9,0,0,1,3.74-.82l2.48-.1v-.46c0-1.68-1.1-2.42-2.79-2.42a8.23,8.23,0,0,0-3.8,1L239,131.69a11.37,11.37,0,0,1,5.61-1.44c3.89,0,5.82,1.78,5.82,5.27v5.89a16.2,16.2,0,0,0,.27,3.71H247.6Zm-2.27-5.3a4.6,4.6,0,0,0-2.12.46,1.74,1.74,0,0,0-.88,1.65,1.9,1.9,0,0,0,2.14,2,4.48,4.48,0,0,0,2.82-1.07v-3.09Z"/><path class="a" d="M255.17,133.47H253v-2.85h2.14v-2c0-3.4,2-5.18,4.94-5.18a7.28,7.28,0,0,1,3,.64l-.73,2.91a5.84,5.84,0,0,0-1.78-.39c-1.23,0-1.78.73-1.78,2v2.05h3.77l-.89,2.85h-2.88v11.65h-3.68Zm9.14-7.39a2.25,2.25,0,0,1,4.5,0,2.21,2.21,0,0,1-2.27,2.18A2.16,2.16,0,0,1,264.31,126.08Zm.4,4.54h3.67v14.5h-3.67Z"/><path class="a" d="M271.39,137.88c0-4.35,2.39-7.63,6.53-7.63s6.44,2.95,6.44,7.76v.86h-9.29c.06,2.23,1.65,3.67,4.08,3.67a7.17,7.17,0,0,0,3.67-1l1.11,2.52a9.71,9.71,0,0,1-5.12,1.34C273.51,145.42,271.39,141.81,271.39,137.88Zm9.26-1.56c-.06-1.65-.86-3.28-2.79-3.28s-2.82,1.53-2.82,3.28Z"/><path class="a" d="M294.54,142.57a7.36,7.36,0,0,1-.49-3v-8.92h3.65v8.55A4.35,4.35,0,0,0,298,141a2.15,2.15,0,0,0,2.18,1.32,4.19,4.19,0,0,0,3-1.29V130.62h3.67v10.91a15.33,15.33,0,0,0,.25,3.59H304l-.55-1.5a6.7,6.7,0,0,1-4.51,1.8A4.49,4.49,0,0,1,294.54,142.57Z"/><path class="a" d="M310.61,130.62h3.12l.37,1.63a8.08,8.08,0,0,1,5-2c2.29,0,4.66,1.14,4.66,5.27v9.6h-3.68v-8.46c0-1.78-.37-3.22-2.24-3.22a5.94,5.94,0,0,0-3.56,1.53v10.15h-3.64Z"/><path class="a" d="M326.61,138c0-4.6,3.34-7.76,7.94-7.76a10.24,10.24,0,0,1,2,.19v-7h3.68v20.93a13.09,13.09,0,0,1-5.34,1.07C330.13,145.42,326.61,142.79,326.61,138Zm9.9,4.14v-8.68a7.29,7.29,0,0,0-1.75-.21c-2.54,0-4.41,1.71-4.41,4.69a4.13,4.13,0,0,0,4.44,4.44A5.67,5.67,0,0,0,336.51,142.15Z"/><path class="a" d="M351.41,124.92h3.68v8.61h.09l6.9-8.61h4.29l-8.12,9.81,8.58,10.39h-4.51l-7.14-8.86h-.09v8.86h-3.68Z"/><path class="a" d="M377.44,143.74a6,6,0,0,1-4.17,1.68,4.52,4.52,0,0,1-4.81-4.62,4.14,4.14,0,0,1,2.45-4,9,9,0,0,1,3.74-.82l2.48-.1v-.46c0-1.68-1.1-2.42-2.79-2.42a8.23,8.23,0,0,0-3.8,1l-1.19-2.36a11.36,11.36,0,0,1,5.6-1.44c3.9,0,5.83,1.78,5.83,5.27v5.89a16.2,16.2,0,0,0,.27,3.71H378Zm-2.27-5.3a4.57,4.57,0,0,0-2.12.46,1.74,1.74,0,0,0-.88,1.65,1.9,1.9,0,0,0,2.14,2,4.48,4.48,0,0,0,2.82-1.07v-3.09Z"/><path class="a" d="M384.37,130.62h3.09l.4,1.63a5.51,5.51,0,0,1,4-2,3.78,3.78,0,0,1,2,.59l-1.29,3.09a3.06,3.06,0,0,0-1.65-.49,4.37,4.37,0,0,0-2.94,1.44v10.24h-3.65Z"/><path class="a" d="M395.37,126.08a2.26,2.26,0,1,1,2.24,2.18A2.16,2.16,0,0,1,395.37,126.08Zm.4,4.54h3.68v14.5h-3.68Z"/><path class="a" d="M403.28,123.42h3.65v12.23H407l4.75-5h4.17l-6,6.31,6.44,8.19h-4.26L407,138.41h-.06v6.71h-3.65Z"/><path class="a" d="M426.64,143.74a6,6,0,0,1-4.17,1.68,4.52,4.52,0,0,1-4.81-4.62,4.14,4.14,0,0,1,2.45-4,9,9,0,0,1,3.74-.82l2.48-.1v-.46c0-1.68-1.1-2.42-2.78-2.42a8.23,8.23,0,0,0-3.8,1l-1.2-2.36a11.43,11.43,0,0,1,5.61-1.44c3.89,0,5.82,1.78,5.82,5.27v5.89a15.52,15.52,0,0,0,.28,3.71h-3.07Zm-2.27-5.3a4.52,4.52,0,0,0-2.11.46,1.75,1.75,0,0,0-.89,1.65,1.91,1.91,0,0,0,2.15,2,4.47,4.47,0,0,0,2.81-1.07v-3.09Z"/><path class="a" d="M435,141.53v-8.06h-2.6v-2.85H435v-3.37l3.65-1.07v4.44H443l-.89,2.85h-3.49v7.17c0,1.35.46,1.84,1.41,1.84a4,4,0,0,0,2.2-.7l1.11,2.51a8.24,8.24,0,0,1-4.23,1.13C436.54,145.42,435,144,435,141.53Z"/><path class="a" d="M446.05,142.57a7.36,7.36,0,0,1-.49-3v-8.92h3.65v8.55a4.35,4.35,0,0,0,.3,1.81,2.15,2.15,0,0,0,2.18,1.32,4.17,4.17,0,0,0,3-1.29V130.62h3.68v10.91a16,16,0,0,0,.24,3.59h-3.12l-.55-1.5a6.74,6.74,0,0,1-4.51,1.8A4.49,4.49,0,0,1,446.05,142.57Z"/><path class="a" d="M462.11,130.62h3.1l.4,1.63a5.51,5.51,0,0,1,4-2,3.76,3.76,0,0,1,2.05.59l-1.28,3.09a3.11,3.11,0,0,0-1.66-.49,4.37,4.37,0,0,0-2.94,1.44v10.24h-3.65Z"/><path class="b" d="M0,0H15.69c8.47,0,15.84,3.61,15.84,14.2,0,8.47-5.18,11.45-10.67,12.78v.16c7.37,1.57,8.16,6.27,9.34,11.92l3.21,15.06H26.27L23,42.12c-2.2-7.77-3.14-11.3-10.67-11.3H7.84v23.3H0ZM7.84,24.55h4.55c5.49,0,11.3-2.2,11.3-9.41,0-6.59-3.69-8.87-9.49-8.87H7.84Z"/><path class="b" d="M63.76,46.12H63.6C62.43,49.25,59.37,55,51.76,55c-8.63,0-10-7.69-10-12.31V16.78h7.06v20.4c0,7,0,10.74,5.1,10.74,5.8,0,9.88-7.84,9.88-15.29V16.78h7.06V54.12H63.76ZM43.76.71h9.65V9.33H43.76Zm16.16,0h9.64V9.33H59.92Z"/><path class="b" d="M109,53.57A33.64,33.64,0,0,1,98.66,55C84.38,55,80.38,43.37,80.38,34.12c0-10.43,4.79-18.2,15.92-18.2,10.59,0,13.34,6.9,13.34,13h-8.08c0-2.82-.55-7.53-5.73-7.53-4.62,0-7.6,4.47-7.6,11.37,0,7.38,3.06,16.71,14.82,16.71a20,20,0,0,0,6-.78Z"/><path class="b" d="M116.93,0H124V31.69l13-14.91h8.86L132.07,33.1l15.13,21h-8.86l-14.2-19.3H124v19.3h-7.06Z"/><path class="a" d="M158.49,23h.16a10.27,10.27,0,0,1,10.12-7.06c10.27,0,13.33,10.28,13.33,19.92,0,10.75-4.31,19.14-15,19.14-13.33,0-14-11.37-14-16.23V0h5.33ZM167,50.51c6.67,0,9-7.37,9-14.82,0-7.14-2-15.3-8.23-15.3-6.67,0-9.26,9.18-9.26,16.55C158.49,41.25,159.12,50.51,167,50.51Z"/><path class="a" d="M192.76,0h5.34V54.12h-5.34Z"/><path class="a" d="M235.74,53.88a28.89,28.89,0,0,1-8.55,1.1C215.66,55,209,48,209,34.2c0-11.14,4.62-18.28,14.58-18.28,8.79,0,13,6,13,14.2v1.8H215.11v2.2c0,5.64,2.51,16.39,13.26,16.39a24.3,24.3,0,0,0,7.37-1Zm-5.25-26.43a7,7,0,0,0-7.14-7.06c-5.57,0-7.37,4.55-7.84,7.06Z"/><path class="a" d="M246.72,16.78h5.33v8.63h.16c1-3.06,3.37-9.49,11.68-9.49,6.36,0,9.57,5.33,9.57,11.53V54.12h-5.33V33.41c0-6.43,0-12.16-5.49-12.16-7.06,0-10.59,10.75-10.59,17.5V54.12h-5.33Z"/><path class="a" d="M306.16,47.76H306A10.16,10.16,0,0,1,296.28,55c-9,0-12.78-7.37-12.78-19.22,0-10,3.53-19.84,12.7-19.84a9.72,9.72,0,0,1,9.81,7h.15V0h5.34V54.12h-5.34Zm-8.78,2.75c6.12,0,8.78-8.47,8.78-14.9,0-8.32-3-15.22-8.62-15.22-6.36,0-7.92,8.47-7.92,16.39C289.62,41.57,290.32,50.51,297.38,50.51Z"/><path class="a" d="M348.59,53.88A28.89,28.89,0,0,1,340,55c-11.53,0-18.19-7-18.19-20.78,0-11.14,4.62-18.28,14.58-18.28,8.79,0,13,6,13,14.2v1.8H328v2.2c0,5.64,2.51,16.39,13.26,16.39a24.3,24.3,0,0,0,7.37-1Zm-5.25-26.43a7,7,0,0,0-7.14-7.06c-5.57,0-7.37,4.55-7.84,7.06Z"/><path class="a" d="M427.33,48.86c5.1-4.15,23-20.39,23-32.15,0-4.63-2.51-8.71-8.23-8.71-6.91,0-8.16,5.25-8.16,7.61h-6.59c.16-4,2.67-12.08,15.14-12.08,8.16,0,14,5.33,14,13.8,0,13.57-17.1,27.45-21.49,31.45h22.2v5.34H427.33Z"/><path class="a" d="M465.21,29.25c0-12.86,3.45-25.72,16.94-25.72s16.94,12.86,16.94,25.72S495.64,55,482.15,55,465.21,42,465.21,29.25Zm16.94,21.26c9.33,0,10.82-11,10.82-21.26S491.48,8,482.15,8s-10.82,11-10.82,21.25S472.9,50.51,482.15,50.51Z"/><path class="a" d="M518.62,10.43l-9.41,6.35v-6l10.27-6.43h5V54.12h-5.88Z"/><path class="a" d="M567.63,28.47h-.15a13.81,13.81,0,0,1-11.85,5.88c-9.64,0-13.72-7.06-13.72-15.6,0-9.42,6.27-15.22,15.14-15.22,14.74,0,16.7,12.16,16.7,25.65S571,55,556.89,55c-11.29,0-14-8-14-11.14h7a6.7,6.7,0,0,0,7.14,6.67c8.86,0,10.58-10.51,10.58-18.43Zm-10.51,1.41c6.12,0,9.65-4.55,9.65-11.06,0-6.19-3.45-10.82-9.72-10.82-7,0-9,5-9,10.75C548,25.8,550.69,29.88,557.12,29.88Z"/><polygon class="b" points="413.94 9.17 401.19 31.11 413.94 53.05 360.23 31.11 413.94 9.17"/></svg>