<?xml version="1.0" encoding="UTF-8"?>
<svg width="579px" height="153px" viewBox="0 0 579 153" version="1.1" xmlns="http://www.w3.org/2000/svg" xmlns:xlink="http://www.w3.org/1999/xlink">
    <!-- Generator: Sketch 55.2 (78181) - https://sketchapp.com -->
    <title>logo_subline_2019</title>
    <desc>Created with Sketch.</desc>
    <g id="Page-1" stroke="none" stroke-width="1" fill="none" fill-rule="evenodd">
        <g id="logo_subline_2019" fill-rule="nonzero">
            <path d="M152.84,81.88 L159.12,81.88 C166.27,81.88 170.12,85.88 170.12,91.88 C170.12,97.88 165.77,102.12 158.75,102.12 L152.8,102.12 L152.84,81.88 Z M158.84,99.08 C164.17,99.08 166.19,95.7 166.19,91.9 C166.19,87.67 163.71,84.9 158.78,84.9 L156.51,84.9 L156.51,99.1 L158.84,99.08 Z" id="Shape" fill="#1A1A18"></path>
            <path d="M173,94.85 C173,90.49 175.39,87.21 179.53,87.21 C183.67,87.21 185.97,90.21 185.97,94.97 L185.97,95.83 L176.68,95.83 C176.74,98.06 178.34,99.5 180.76,99.5 C182.051054,99.5031632 183.31901,99.1576713 184.43,98.5 L185.54,101.01 C183.991559,101.926119 182.218839,102.393536 180.42,102.36 C175.07,102.38 173,98.77 173,94.85 Z M182.26,93.28 C182.2,91.63 181.4,90 179.47,90 C177.54,90 176.65,91.54 176.65,93.28 L182.26,93.28 Z" id="Shape" fill="#1A1A18"></path>
            <path d="M188.8,87.58 L191.9,87.58 L192.3,89.21 C193.289073,88.0058701 194.743252,87.2787808 196.3,87.2099358 C197.025806,87.2057721 197.737483,87.4105963 198.35,87.8 L197.07,90.89 C196.57418,90.5728819 195.998552,90.4029676 195.41,90.4 C194.280436,90.4809263 193.226397,90.9971903 192.47,91.84 L192.47,102.08 L188.8,102.08 L188.8,87.58 Z" id="Path" fill="#1A1A18"></path>
            <path d="M205.66,95 C205.66,90.4 209,87.24 213.6,87.24 C214.271283,87.2376249 214.941173,87.3012644 215.6,87.43 L215.6,80.43 L219.28,80.43 L219.28,101.36 C217.596732,102.082341 215.781635,102.446722 213.95,102.43 C209.19,102.38 205.66,99.75 205.66,95 Z M215.56,99.14 L215.56,90.43 C214.990591,90.2900881 214.406346,90.2195759 213.82,90.2199981 C211.27,90.2199981 209.4,91.93 209.4,94.91 C209.308775,96.114997 209.748599,97.2997017 210.60406,98.1532398 C211.45952,99.0067779 212.645211,99.4439356 213.85,99.35 C214.42897,99.3587282 215.005802,99.2777694 215.56,99.11 L215.56,99.14 Z" id="Shape" fill="#1A1A18"></path>
            <path d="M222.31,94.85 C222.31,90.49 224.7,87.21 228.84,87.21 C232.98,87.21 235.27,90.21 235.27,94.97 L235.27,95.83 L226,95.83 C226.06,98.06 227.65,99.5 230.07,99.5 C231.36438,99.5044698 232.635897,99.1589491 233.75,98.5 L234.86,101.01 C233.31054,101.923682 231.538523,102.390913 229.74,102.36 C224.42,102.38 222.31,98.77 222.31,94.85 Z M231.57,93.28 C231.5,91.63 230.71,90 228.78,90 C226.85,90 226,91.54 226,93.28 L231.57,93.28 Z" id="Shape" fill="#1A1A18"></path>
            <path d="M238.65,99.54 C238.281946,98.5843786 238.115131,97.5630655 238.16,96.54 L238.16,87.58 L241.81,87.58 L241.81,96.13 C241.780182,96.7478003 241.882457,97.3648562 242.11,97.94 C242.469483,98.8096701 243.352762,99.3444997 244.29,99.26 C245.423788,99.2557211 246.506955,98.7899594 247.29,97.97 L247.29,87.58 L250.97,87.58 L250.97,98.49 C250.912563,99.6923266 250.99647,100.897239 251.22,102.08 L248.09,102.08 L247.54,100.58 C246.309947,101.715427 244.703819,102.356454 243.03,102.38 C241.113984,102.463397 239.355652,101.323291 238.65,99.54 L238.65,99.54 Z" id="Path" fill="#1A1A18"></path>
            <path d="M256.12,98.49 L256.12,90.43 L253.52,90.43 L253.52,87.58 L256.12,87.58 L256.12,84.21 L259.77,83.14 L259.77,87.58 L264.15,87.58 L263.27,90.43 L259.77,90.43 L259.77,97.6 C259.77,98.95 260.23,99.44 261.18,99.44 C261.968854,99.4252601 262.736512,99.1821103 263.39,98.74 L264.49,101.25 C263.205986,101.997113 261.745536,102.387256 260.26,102.380099 C257.69,102.380099 256.12,100.91 256.12,98.49 Z" id="Path" fill="#1A1A18"></path>
            <path d="M266.79,98.31 C267.9839,99.0771054 269.370936,99.4897485 270.79,99.5 C272.26,99.5 273.33,99.08 273.33,97.97 C273.33,95.52 266.53,96.44 266.53,91.6 C266.53,89.02 268.61,87.21 272.01,87.21 C273.460327,87.1991279 274.901595,87.4393393 276.27,87.92 L276.27,91 C274.980797,90.4156758 273.585264,90.1025317 272.17,90.08 C270.94,90.08 270.11,90.45 270.11,91.4 C270.11,93.7 276.92,92.81 276.92,97.87 C276.92,101.05 274.16,102.37 271.03,102.37 C269.158027,102.394592 267.314942,101.907022 265.7,100.96 L266.79,98.31 Z" id="Path" fill="#1A1A18"></path>
            <path d="M279.12,94.94 C279.05348,92.8824281 279.836778,90.8881839 281.285825,89.4258949 C282.734872,87.9636058 284.721908,87.1622001 286.78,87.21 C288.144845,87.1714261 289.492966,87.5179869 290.67,88.21 L290.67,91.31 C289.656222,90.5499575 288.416739,90.1520553 287.15,90.18 C284.45,90.18 282.86,92.18 282.86,94.87 C282.86,97.87 284.48,99.46 286.96,99.46 C288.152314,99.4325453 289.31569,99.0873299 290.33,98.46 L291.41,100.97 C289.916224,101.916926 288.178419,102.406987 286.41,102.38 C281.72,102.38 279.12,99.14 279.12,94.94 Z" id="Path" fill="#1A1A18"></path>
            <path d="M293.77,80.38 L297.42,80.38 L297.42,89.18 C298.740725,87.9660761 300.447827,87.2577352 302.24,87.18 C304.54,87.18 306.86,88.32 306.86,92.46 L306.86,102.05 L303.22,102.05 L303.22,93.62 C303.22,91.84 302.85,90.4 300.98,90.4 C299.654171,90.4915597 298.398841,91.0310697 297.42,91.93 L297.42,102.08 L293.77,102.08 L293.77,80.38 Z" id="Path" fill="#1A1A18"></path>
            <path d="M309.78,94.85 C309.78,90.49 312.17,87.21 316.31,87.21 C320.45,87.21 322.74,90.21 322.74,94.97 L322.74,95.83 L313.46,95.83 C313.52,98.06 315.11,99.5 317.53,99.5 C318.82438,99.5044698 320.095897,99.1589491 321.21,98.5 L322.32,101.01 C320.77115,101.925141 318.998712,102.392483 317.2,102.36 C311.89,102.38 309.78,98.77 309.78,94.85 Z M319,93.28 C318.94,91.63 318.14,90 316.21,90 C314.28,90 313.39,91.54 313.39,93.28 L319,93.28 Z" id="Shape" fill="#1A1A18"></path>
            <path d="M333.17,81.88 L338,81.88 C339.559013,81.8180814 341.11164,82.1121915 342.54,82.74 C344.690906,83.8270298 345.98268,86.0955115 345.82,88.5 C345.942437,91.0868565 344.407486,93.4656276 342,94.42 C340.626337,94.9194804 339.171187,95.1569175 337.71,95.12 L336.85,95.12 L336.85,102.12 L333.17,102.12 L333.17,81.88 Z M338,92.12 C338.811772,92.15277 339.619959,91.9952421 340.36,91.66 C341.494227,91.0340956 342.141059,89.7877615 342,88.5 C342.071859,87.2549098 341.458268,86.0699115 340.4,85.41 C339.623663,85.0180533 338.758521,84.8353739 337.89,84.88 L336.89,84.88 L336.89,92.12 L338,92.12 Z" id="Shape" fill="#1A1A18"></path>
            <path d="M349.23,87.58 L352.33,87.58 L352.73,89.21 C353.72068,88.0078855 355.1739,87.2812753 356.73,87.2099454 C357.458893,87.206102 358.173686,87.4108243 358.79,87.8 L357.5,90.89 C357.004643,90.5718675 356.428713,90.4018642 355.84,90.4 C354.711539,90.4850014 353.65894,91.0005602 352.9,91.84 L352.9,102.08 L349.25,102.08 L349.23,87.58 Z" id="Path" fill="#1A1A18"></path>
            <path d="M359.44,94.85 C359.44,90.49 361.84,87.21 365.97,87.21 C370.1,87.21 372.41,90.21 372.41,94.97 L372.41,95.83 L363.12,95.83 C363.18,98.06 364.78,99.5 367.2,99.5 C368.494184,99.5029861 369.765315,99.1575703 370.88,98.5 L372,101 C370.451559,101.916119 368.678839,102.383536 366.88,102.35 C361.56,102.38 359.44,98.77 359.44,94.85 Z M368.7,93.28 C368.64,91.63 367.84,90 365.91,90 C363.98,90 363.09,91.54 363.09,93.28 L368.7,93.28 Z" id="Shape" fill="#1A1A18"></path>
            <path d="M375,83.05 C374.967363,82.1324734 375.495472,81.2871493 376.334379,80.9141126 C377.173285,80.541076 378.154696,80.7151615 378.814117,81.3539759 C379.473538,81.9927902 379.678684,82.9681813 379.332461,83.8185045 C378.986237,84.6688277 378.1581,85.2235002 377.24,85.22 C376.651661,85.2418136 376.079911,85.0225269 375.657052,84.612882 C375.234193,84.2032371 374.99687,83.6387351 375,83.05 L375,83.05 Z M375.4,87.58 L379.07,87.58 L379.07,102.08 L375.4,102.08 L375.4,87.58 Z" id="Shape" fill="#1A1A18"></path>
            <path d="M382.84,98.31 C384.032501,99.0801495 385.420443,99.4930622 386.84,99.5 C388.31,99.5 389.38,99.08 389.38,97.97 C389.38,95.52 382.58,96.44 382.58,91.6 C382.58,89.02 384.66,87.21 388.07,87.21 C389.5202,87.2007281 390.961196,87.4408941 392.33,87.92 L392.33,91 C391.036905,90.4167705 389.638341,90.1037099 388.22,90.08 C386.99,90.08 386.16,90.45 386.16,91.4 C386.16,93.7 392.97,92.81 392.97,97.87 C392.97,101.05 390.21,102.37 387.08,102.37 C385.195252,102.412816 383.334722,101.939039 381.7,101 L382.84,98.31 Z" id="Path" fill="#1A1A18"></path>
            <path d="M403.07,90.43 L400.92,90.43 L400.92,87.58 L403.07,87.58 L403.07,85.58 C403.07,82.18 405.07,80.399997 408,80.399997 C409.033978,80.3990582 410.056425,80.6171802 411,81.04 L410.26,83.95 C409.691319,83.7257187 409.090361,83.5940483 408.48,83.56 C407.26,83.56 406.71,84.29 406.71,85.56 L406.71,87.56 L410.48,87.56 L409.59,90.41 L406.71,90.41 L406.71,102.06 L403.03,102.06 L403.07,90.43 Z" id="Path" fill="#1A1A18"></path>
            <path d="M413.12,99.54 C412.756841,98.5830578 412.590193,97.5627601 412.63,96.54 L412.63,87.58 L416.28,87.58 L416.28,96.13 C416.247889,96.7488533 416.353778,97.3671043 416.59,97.94 C416.943182,98.8103187 417.824747,99.3465706 418.76,99.26 C419.893309,99.2534219 420.975616,98.78803 421.76,97.97 L421.76,87.58 L425.44,87.58 L425.44,98.49 C425.385445,99.6918769 425.465949,100.89608 425.68,102.08 L422.55,102.08 L422,100.58 C420.775077,101.717216 419.1713,102.358727 417.5,102.38 C415.58482,102.460333 413.828108,101.321278 413.12,99.54 L413.12,99.54 Z M414.32,83.54 C414.311915,82.7719864 414.769409,82.0754566 415.477443,81.7778034 C416.185478,81.4801503 417.003229,81.6405752 417.546327,82.1836729 C418.089425,82.7267706 418.24985,83.5445224 417.952197,84.2525569 C417.654543,84.9605915 416.958014,85.418085 416.19,85.41 C415.1595,85.404533 414.325467,84.5704995 414.32,83.54 L414.32,83.54 Z M420.169971,83.54 C420.170174,82.7800528 420.630235,82.0957891 421.333929,81.8088495 C422.037623,81.52191 422.844983,81.6893682 423.376507,82.2325096 C423.90803,82.7756511 424.057995,83.5864428 423.755909,84.2837692 C423.453823,84.9810956 422.759773,85.4262555 422,85.41 C420.98058,85.3935711 420.164386,84.559537 420.169971,83.54 Z" id="Shape" fill="#1A1A18"></path>
            <path d="M429.19,87.58 L432.28,87.58 L432.68,89.21 C433.672271,88.0098852 435.124545,87.2837481 436.68,87.2099358 C437.405806,87.2057721 438.117483,87.4105963 438.73,87.8 L437.44,90.89 C436.948212,90.57216 436.375554,90.402098 435.79,90.4 C434.660436,90.4809263 433.606397,90.9971903 432.85,91.84 L432.85,102.08 L429.2,102.08 L429.19,87.58 Z" id="Path" fill="#1A1A18"></path>
            <path d="M447.27,88.13 C449.037511,87.5257083 450.892049,87.2149296 452.76,87.21 C457.97,87.21 460.7,90.21 460.7,94.78 C460.815863,96.8183974 460.060866,98.8101417 458.622908,100.259543 C457.184949,101.708944 455.199252,102.479703 453.16,102.38 C452.400539,102.379224 451.645485,102.264617 450.92,102.04 L450.92,109.34 L447.27,109.34 L447.27,88.13 Z M452.88,99.35 C455.58,99.35 456.96,97.57 456.96,94.78 C456.96,91.69 455.24,90.2199916 452.64,90.2199916 C452.058255,90.2190413 451.479262,90.2998311 450.92,90.46 L450.92,99 C451.543264,99.2468813 452.20981,99.3659073 452.88,99.35 L452.88,99.35 Z" id="Shape" fill="#1A1A18"></path>
            <path d="M463,94.78 C463,90.43 465.91,87.21 470.24,87.21 C474.57,87.21 477.5,90.43 477.5,94.78 C477.5,99.13 474.56,102.38 470.24,102.38 C465.92,102.38 463,99.14 463,94.78 Z M473.73,94.78 C473.73,92.12 472.53,90.16 470.24,90.16 C467.95,90.16 466.74,92.16 466.74,94.78 C466.74,97.4 467.94,99.44 470.24,99.44 C472.54,99.44 473.7,97.48 473.7,94.78 L473.73,94.78 Z" id="Shape" fill="#1A1A18"></path>
            <path d="M480.54,80.38 L484.19,80.38 L484.19,97.82 C484.19,98.82 484.59,99.14 485.26,99.14 C485.574977,99.1272662 485.885748,99.0630851 486.18,98.95 L486.88,101.77 C486.025598,102.116336 485.111923,102.292958 484.19,102.290037 C481.77,102.290037 480.54,101.1 480.54,98.8 L480.54,80.38 Z" id="Path" fill="#1A1A18"></path>
            <path d="M489,83.05 C488.967363,82.1324734 489.495472,81.2871493 490.334379,80.9141126 C491.173285,80.541076 492.154696,80.7151615 492.814117,81.3539759 C493.473538,81.9927902 493.678684,82.9681813 493.332461,83.8185045 C492.986237,84.6688277 492.1581,85.2235002 491.24,85.22 C490.651661,85.2418136 490.079911,85.0225269 489.657052,84.612882 C489.234193,84.2032371 488.99687,83.6387351 489,83.05 Z M489.4,87.58 L493,87.58 L493,102.08 L489.33,102.08 L489.4,87.58 Z" id="Shape" fill="#1A1A18"></path>
            <path d="M498.1,98.49 L498.1,90.43 L495.5,90.43 L495.5,87.58 L498.1,87.58 L498.1,84.21 L501.75,83.14 L501.75,87.58 L506.13,87.58 L505.24,90.43 L501.75,90.43 L501.75,97.6 C501.75,98.95 502.21,99.44 503.16,99.44 C503.948854,99.4252601 504.716512,99.1821103 505.37,98.74 L506.47,101.25 C505.185986,101.997113 503.725536,102.387256 502.24,102.380099 C499.67,102.380099 498.1,100.91 498.1,98.49 Z" id="Path" fill="#1A1A18"></path>
            <path d="M508.41,83.05 C508.377355,82.1315669 508.906552,81.2855943 509.746708,80.9131399 C510.586864,80.5406855 511.569089,80.7166218 512.227729,81.3575411 C512.88637,81.9984604 513.089023,82.9755221 512.739617,83.825522 C512.39021,84.6755219 511.558982,85.227589 510.64,85.22 C510.053363,85.2390292 509.484242,85.0185053 509.063588,84.6091697 C508.642935,84.1998341 508.406974,83.6369378 508.41,83.05 L508.41,83.05 Z M508.8,87.58 L512.48,87.58 L512.48,102.08 L508.8,102.08 L508.8,87.58 Z" id="Shape" fill="#1A1A18"></path>
            <path d="M516.22,98.31 C517.413437,99.0781144 518.800772,99.4908467 520.22,99.5 C521.69,99.5 522.76,99.08 522.76,97.97 C522.76,95.52 515.96,96.44 515.96,91.6 C515.96,89.02 518.04,87.21 521.44,87.21 C522.890327,87.1991279 524.331595,87.4393393 525.7,87.92 L525.7,91 C524.410797,90.4156758 523.015264,90.1025317 521.6,90.08 C520.37,90.08 519.54,90.45 519.54,91.4 C519.54,93.7 526.35,92.81 526.35,97.87 C526.35,101.05 523.59,102.37 520.46,102.37 C518.588027,102.394592 516.744942,101.907022 515.13,100.96 L516.22,98.31 Z" id="Path" fill="#1A1A18"></path>
            <path d="M528.52,94.94 C528.45348,92.8824281 529.236778,90.8881839 530.685825,89.4258949 C532.134872,87.9636058 534.121908,87.1622001 536.18,87.21 C537.544845,87.1714261 538.892966,87.5179869 540.07,88.21 L540.07,91.31 C539.056222,90.5499575 537.816739,90.1520553 536.55,90.18 C533.85,90.18 532.26,92.18 532.26,94.87 C532.26,97.87 533.88,99.46 536.36,99.46 C537.552314,99.4325453 538.71569,99.0873299 539.73,98.46 L540.81,100.97 C539.316224,101.916926 537.578419,102.406987 535.81,102.38 C531.12,102.38 528.52,99.14 528.52,94.94 Z" id="Path" fill="#1A1A18"></path>
            <path d="M543.2,80.38 L546.85,80.38 L546.85,89.18 C548.166716,87.9660351 549.870742,87.2575003 551.66,87.18 C553.96,87.18 556.29,88.32 556.29,92.46 L556.29,102.05 L552.64,102.05 L552.64,93.62 C552.64,91.84 552.27,90.4 550.4,90.4 C549.077292,90.4922147 547.825336,91.0317901 546.85,91.93 L546.85,102.08 L543.2,102.08 L543.2,80.38 Z" id="Path" fill="#1A1A18"></path>
            <path d="M559.17,94.85 C559.17,90.49 561.56,87.21 565.7,87.21 C569.84,87.21 572.14,90.21 572.14,94.97 L572.14,95.83 L562.85,95.83 C562.91,98.06 564.51,99.5 566.93,99.5 C568.22399,99.5015155 569.494738,99.1562033 570.61,98.5 L571.71,101.01 C570.161559,101.926119 568.388839,102.393536 566.59,102.36 C561.29,102.38 559.17,98.77 559.17,94.85 Z M568.43,93.28 C568.37,91.63 567.57,90 565.64,90 C563.71,90 562.82,91.54 562.82,93.28 L568.43,93.28 Z" id="Shape" fill="#1A1A18"></path>
            <polygon id="Path" fill="#1A1A18" points="152.84 124.92 164 124.92 163.05 127.92 156.49 127.92 156.49 133.32 163 133.32 163 136.32 156.57 136.32 156.57 145.12 152.89 145.12"></polygon>
            <path d="M165.75,137.82 C165.75,133.47 168.66,130.25 172.98,130.25 C177.3,130.25 180.25,133.47 180.25,137.82 C180.25,142.17 177.3,145.42 172.98,145.42 C168.66,145.42 165.75,142.18 165.75,137.82 Z M176.48,137.82 C176.48,135.16 175.28,133.2 172.98,133.2 C170.68,133.2 169.49,135.2 169.49,137.82 C169.49,140.44 170.68,142.48 172.98,142.48 C175.28,142.48 176.48,140.52 176.48,137.82 Z" id="Shape" fill="#1A1A18"></path>
            <path d="M184.54,141.53 L184.54,133.47 L181.94,133.47 L181.94,130.62 L184.54,130.62 L184.54,127.25 L188.19,126.18 L188.19,130.62 L192.57,130.62 L191.68,133.47 L188.19,133.47 L188.19,140.64 C188.19,141.99 188.65,142.48 189.6,142.48 C190.386194,142.467967 191.151406,142.224491 191.8,141.78 L192.91,144.29 C191.627702,145.041231 190.166103,145.431682 188.68,145.42 C186.1,145.42 184.54,144 184.54,141.53 Z" id="Path" fill="#1A1A18"></path>
            <path d="M194.5,137.82 C194.5,133.47 197.42,130.25 201.74,130.25 C206.06,130.25 209,133.47 209,137.82 C209,142.17 206.06,145.42 201.74,145.42 C197.42,145.42 194.5,142.18 194.5,137.82 Z M205.23,137.82 C205.23,135.16 204.04,133.2 201.74,133.2 C199.44,133.2 198.24,135.2 198.24,137.82 C198.24,140.44 199.44,142.48 201.74,142.48 C204.04,142.48 205.23,140.52 205.23,137.82 Z" id="Shape" fill="#1A1A18"></path>
            <path d="M210.63,148.12 C210.706661,146.536308 211.734479,145.156661 213.23,144.63 C212.616741,144.236011 212.2559,143.548515 212.28,142.82 C212.392549,141.682282 213.043185,140.667291 214.03,140.09 C212.471214,139.135824 211.546621,137.41654 211.61,135.59 C211.61,132.92 213.61,130.25 217.53,130.25 C218.529155,130.223402 219.519125,130.446833 220.41,130.9 C220.530761,130.957099 220.674285,130.933178 220.77,130.84 C221.696744,129.92913 222.975326,129.46884 224.27,129.58 C224.604219,129.580461 224.938124,129.600495 225.27,129.64 L224.53,132.28 C224.182471,132.177341 223.822358,132.123492 223.46,132.12 C223.087838,132.110604 222.71947,132.196671 222.39,132.37 C223.238584,133.308878 223.699575,134.534613 223.68,135.8 C223.68,139.05 221.19,141.16 217.68,141.16 C217.078145,141.167108 216.47848,141.086254 215.9,140.92 C215.676182,141.233585 215.5477,141.605141 215.53,141.99 C215.53,144.6 225.06,142.18 225.06,147.6 C225.06,150.24 222.43,152.38 217.4,152.38 C213.11,152.38 210.63,150.63 210.63,148.12 Z M221.54,148 C221.54,145.91 217.04,146.34 215.07,145.58 C214.397697,145.987345 213.965133,146.695856 213.91,147.48 C213.91,148.92 215.44,149.81 217.91,149.81 C220.07,149.81 221.54,149.07 221.54,148 Z M220.19,135.74 C220.228584,135.027429 219.971454,134.330512 219.479306,133.813756 C218.987158,133.297001 218.303604,133.006201 217.59,133.01 C216.881412,132.982656 216.195981,133.264926 215.712138,133.783329 C215.228295,134.301732 214.993911,135.004978 215.07,135.71 C215.019497,136.414195 215.266713,137.107281 215.751471,137.620555 C216.23623,138.133829 216.91407,138.420213 217.62,138.41 C218.331301,138.451247 219.025096,138.17953 219.519202,137.666198 C220.013308,137.152866 220.258356,136.449209 220.19,135.74 Z" id="Shape" fill="#1A1A18"></path>
            <path d="M227.46,130.62 L230.56,130.62 L230.95,132.25 C231.942271,131.049885 233.394545,130.323748 234.95,130.249936 C235.675806,130.245772 236.387483,130.450596 237,130.84 L235.71,133.93 C235.218212,133.61216 234.645554,133.442098 234.06,133.44 C232.930436,133.520926 231.876397,134.03719 231.12,134.88 L231.12,145.12 L227.47,145.12 L227.46,130.62 Z" id="Path" fill="#1A1A18"></path>
            <path d="M247.05,143.74 C245.930258,144.819268 244.435198,145.421595 242.88,145.42 C241.614236,145.501751 240.372366,145.047902 239.457586,144.169256 C238.542805,143.29061 238.039301,142.06803 238.07,140.8 C237.979692,139.088003 238.953905,137.49745 240.52,136.8 C241.693422,136.261579 242.968949,135.981917 244.26,135.98 L246.74,135.88 L246.74,135.42 C246.74,133.74 245.64,133 243.95,133 C242.621172,133.021626 241.317346,133.364739 240.15,134 L239,131.69 C240.714341,130.733774 242.647048,130.237679 244.61,130.25 C248.5,130.25 250.43,132.03 250.43,135.52 L250.43,141.41 C250.37725,142.652932 250.467847,143.897803 250.7,145.12 L247.6,145.12 L247.05,143.74 Z M244.78,138.44 C244.046766,138.422128 243.319888,138.579847 242.66,138.9 C242.070933,139.232243 241.727746,139.875719 241.78,140.55 C241.745507,141.115531 241.965202,141.666948 242.379147,142.053813 C242.793092,142.440677 243.358092,142.622619 243.92,142.55 C244.955418,142.529994 245.951927,142.151886 246.74,141.48 L246.74,138.39 L244.78,138.44 Z" id="Shape" fill="#1A1A18"></path>
            <path d="M255.17,133.47 L253,133.47 L253,130.62 L255.14,130.62 L255.14,128.62 C255.14,125.22 257.14,123.439984 260.08,123.439984 C261.114105,123.43784 262.136805,123.656016 263.08,124.08 L262.35,126.99 C261.780728,126.767663 261.180085,126.636062 260.57,126.6 C259.34,126.6 258.79,127.33 258.79,128.6 L258.79,130.65 L262.56,130.65 L261.67,133.5 L258.79,133.5 L258.79,145.15 L255.11,145.15 L255.17,133.47 Z M264.31,126.08 C264.31,124.837359 265.317359,123.83 266.56,123.83 C267.802641,123.83 268.81,124.837359 268.81,126.08 C268.80219,126.671453 268.557609,127.235091 268.13098,127.644805 C267.704351,128.054519 267.131285,128.276111 266.54,128.26 C265.951615,128.279106 265.380923,128.05723 264.95996,127.645706 C264.538997,127.234182 264.304239,126.668667 264.31,126.08 L264.31,126.08 Z M264.71,130.62 L268.38,130.62 L268.38,145.12 L264.71,145.12 L264.71,130.62 Z" id="Shape" fill="#1A1A18"></path>
            <path d="M271.39,137.88 C271.39,133.53 273.78,130.25 277.92,130.25 C282.06,130.25 284.36,133.2 284.36,138.01 L284.36,138.87 L275.07,138.87 C275.13,141.1 276.72,142.54 279.15,142.54 C280.441054,142.543163 281.70901,142.197671 282.82,141.54 L283.93,144.06 C282.380333,144.972133 280.60782,145.436033 278.81,145.4 C273.51,145.42 271.39,141.81 271.39,137.88 Z M280.65,136.32 C280.59,134.67 279.79,133.04 277.86,133.04 C275.93,133.04 275.04,134.57 275.04,136.32 L280.65,136.32 Z" id="Shape" fill="#1A1A18"></path>
            <path d="M294.54,142.57 C294.169691,141.614991 294.002799,140.593202 294.05,139.57 L294.05,130.65 L297.7,130.65 L297.7,139.2 C297.671609,139.814462 297.773859,140.42796 298,141 C298.359483,141.86967 299.242762,142.4045 300.18,142.32 C301.313309,142.313422 302.395616,141.84803 303.18,141.03 L303.18,130.62 L306.85,130.62 L306.85,141.53 C306.792099,142.732332 306.876011,143.937299 307.1,145.12 L304,145.12 L303.45,143.62 C302.224635,144.76284 300.615524,145.405057 298.94,145.42 C297.013419,145.513715 295.242249,144.36648 294.54,142.57 Z" id="Path" fill="#1A1A18"></path>
            <path d="M310.61,130.62 L313.73,130.62 L314.1,132.25 C315.488937,131.031206 317.25367,130.325313 319.1,130.25 C321.39,130.25 323.76,131.39 323.76,135.52 L323.76,145.12 L320.08,145.12 L320.08,136.66 C320.08,134.88 319.71,133.44 317.84,133.44 C316.515672,133.537731 315.262285,134.076406 314.28,134.97 L314.28,145.12 L310.64,145.12 L310.61,130.62 Z" id="Path" fill="#1A1A18"></path>
            <path d="M326.61,138 C326.61,133.4 329.95,130.24 334.55,130.24 C335.221283,130.237625 335.891173,130.301264 336.55,130.43 L336.55,123.43 L340.23,123.43 L340.23,144.36 C338.544703,145.087105 336.725331,145.451661 334.89,145.43 C330.13,145.42 326.61,142.79 326.61,138 Z M336.51,142.14 L336.51,133.46 C335.937307,133.31948 335.34968,133.248965 334.76,133.249989 C332.22,133.249989 330.35,134.96 330.35,137.94 C330.255659,139.144014 330.693053,140.328995 331.547029,141.182971 C332.401005,142.036947 333.585986,142.474341 334.79,142.38 C335.371738,142.392042 335.951864,142.314467 336.51,142.15 L336.51,142.14 Z" id="Shape" fill="#1A1A18"></path>
            <polygon id="Path" fill="#1A1A18" points="351.41 124.92 355.09 124.92 355.09 133.53 355.18 133.53 362.08 124.92 366.37 124.92 358.25 134.73 366.83 145.12 362.32 145.12 355.18 136.26 355.09 136.26 355.09 145.12 351.41 145.12"></polygon>
            <path d="M377.44,143.74 C376.320258,144.819268 374.825198,145.421595 373.27,145.42 C372.004236,145.501751 370.762366,145.047902 369.847586,144.169256 C368.932805,143.29061 368.429301,142.06803 368.46,140.8 C368.369692,139.088003 369.343905,137.49745 370.91,136.8 C372.083422,136.261579 373.358949,135.981917 374.65,135.98 L377.13,135.88 L377.13,135.42 C377.13,133.74 376.03,133 374.34,133 C373.011172,133.021626 371.707346,133.364739 370.54,134 L369.35,131.64 C371.061217,130.685021 372.990376,130.188952 374.95,130.2 C378.85,130.2 380.78,131.98 380.78,135.47 L380.78,141.36 C380.72725,142.602932 380.817847,143.847803 381.05,145.07 L378,145.07 L377.44,143.74 Z M375.17,138.44 C374.436656,138.420956 373.709504,138.578734 373.05,138.9 C372.460933,139.232243 372.117746,139.875719 372.17,140.55 C372.135507,141.115531 372.355202,141.666948 372.769147,142.053813 C373.183092,142.440677 373.748092,142.622619 374.31,142.55 C375.345418,142.529994 376.341927,142.151886 377.13,141.48 L377.13,138.39 L375.17,138.44 Z" id="Shape" fill="#1A1A18"></path>
            <path d="M384.37,130.62 L387.46,130.62 L387.86,132.25 C388.85068,131.047886 390.3039,130.321275 391.86,130.25 C392.568798,130.255259 393.261837,130.459705 393.86,130.84 L392.57,133.93 C392.078212,133.61216 391.505554,133.442098 390.92,133.44 C389.790436,133.520926 388.736397,134.03719 387.98,134.88 L387.98,145.12 L384.33,145.12 L384.37,130.62 Z" id="Path" fill="#1A1A18"></path>
            <path d="M395.37,126.08 C395.337357,125.157519 395.868992,124.307899 396.712887,123.933897 C397.556783,123.559896 398.543309,123.73669 399.204809,124.380471 C399.866309,125.024252 400.069817,126.005617 399.71886,126.859353 C399.367903,127.713089 398.533027,128.267591 397.61,128.26 C397.019912,128.281899 396.446586,128.061263 396.023415,127.649427 C395.600243,127.237591 395.364126,126.670465 395.37,126.08 L395.37,126.08 Z M395.77,130.62 L399.45,130.62 L399.45,145.12 L395.77,145.12 L395.77,130.62 Z" id="Shape" fill="#1A1A18"></path>
            <polygon id="Path" fill="#1A1A18" points="403.28 123.42 406.93 123.42 406.93 135.65 407 135.65 411.75 130.65 415.92 130.65 409.92 136.96 416.36 145.15 412.1 145.15 407 138.41 406.94 138.41 406.94 145.12 403.29 145.12"></polygon>
            <path d="M426.64,143.74 C425.520258,144.819268 424.025198,145.421595 422.47,145.42 C421.204236,145.501751 419.962366,145.047902 419.047586,144.169256 C418.132805,143.29061 417.629301,142.06803 417.66,140.8 C417.569692,139.088003 418.543905,137.49745 420.11,136.8 C421.283422,136.261579 422.558949,135.981917 423.85,135.98 L426.33,135.88 L426.33,135.42 C426.33,133.74 425.23,133 423.55,133 C422.221172,133.021626 420.917346,133.364739 419.75,134 L418.55,131.64 C420.265355,130.686315 422.197383,130.190394 424.16,130.199863 C428.05,130.199863 429.98,131.98 429.98,135.47 L429.98,141.36 C429.924229,142.60342 430.018237,143.849035 430.26,145.07 L427.19,145.07 L426.64,143.74 Z M424.37,138.44 C423.63983,138.420594 422.915834,138.578432 422.26,138.9 C421.668908,139.231309 421.322202,139.874077 421.37,140.55 C421.338659,141.116476 421.560774,141.667568 421.976175,142.053987 C422.391576,142.440406 422.957264,142.622155 423.52,142.55 C424.552122,142.528519 425.544994,142.15045 426.33,141.48 L426.33,138.39 L424.37,138.44 Z" id="Shape" fill="#1A1A18"></path>
            <path d="M435,141.53 L435,133.47 L432.4,133.47 L432.4,130.62 L435,130.62 L435,127.25 L438.65,126.18 L438.65,130.62 L443,130.62 L442.11,133.47 L438.62,133.47 L438.62,140.64 C438.62,141.99 439.08,142.48 440.03,142.48 C440.816194,142.467967 441.581406,142.224491 442.23,141.78 L443.34,144.29 C442.057702,145.041231 440.596103,145.431682 439.11,145.42 C436.54,145.42 435,144 435,141.53 Z" id="Path" fill="#1A1A18"></path>
            <path d="M446.05,142.57 C445.679691,141.614991 445.512799,140.593202 445.56,139.57 L445.56,130.65 L449.21,130.65 L449.21,139.2 C449.180182,139.8178 449.282457,140.434856 449.51,141.01 C449.869483,141.87967 450.752762,142.4145 451.69,142.33 C452.823788,142.325721 453.906955,141.859959 454.69,141.04 L454.69,130.62 L458.37,130.62 L458.37,141.53 C458.314767,142.731884 458.395276,143.936163 458.61,145.12 L455.49,145.12 L454.94,143.62 C453.712532,144.759519 452.104763,145.401201 450.43,145.42 C448.510613,145.504941 446.749875,144.359256 446.05,142.57 L446.05,142.57 Z" id="Path" fill="#1A1A18"></path>
            <path d="M462.11,130.62 L465.21,130.62 L465.61,132.25 C466.60068,131.047886 468.0539,130.321275 469.61,130.249897 C470.335963,130.244635 471.047955,130.44955 471.66,130.84 L470.38,133.93 C469.88418,133.612882 469.308552,133.442968 468.72,133.44 C467.590436,133.520926 466.536397,134.03719 465.78,134.88 L465.78,145.12 L462.13,145.12 L462.11,130.62 Z" id="Path" fill="#1A1A18"></path>
            <path d="M0,0 L15.69,0 C24.16,0 31.53,3.61 31.53,14.2 C31.53,22.67 26.35,25.65 20.86,26.98 L20.86,27.14 C28.23,28.71 29.02,33.41 30.2,39.06 L33.41,54.12 L26.27,54.12 L23,42.12 C20.8,34.35 19.86,30.82 12.33,30.82 L7.84,30.82 L7.84,54.12 L0,54.12 L0,0 Z M7.84,24.55 L12.39,24.55 C17.88,24.55 23.69,22.35 23.69,15.14 C23.69,8.55 20,6.27 14.2,6.27 L7.84,6.27 L7.84,24.55 Z" id="Shape" fill="#B61C3E"></path>
            <path d="M63.76,46.12 L63.6,46.12 C62.43,49.25 59.37,55 51.76,55 C43.13,55 41.76,47.31 41.76,42.69 L41.76,16.78 L48.82,16.78 L48.82,37.18 C48.82,44.18 48.82,47.92 53.92,47.92 C59.72,47.92 63.8,40.08 63.8,32.63 L63.8,16.78 L70.86,16.78 L70.86,54.12 L63.76,54.12 L63.76,46.12 Z M43.76,0.71 L53.41,0.71 L53.41,9.33 L43.76,9.33 L43.76,0.71 Z M59.92,0.71 L69.56,0.71 L69.56,9.33 L59.92,9.33 L59.92,0.71 Z" id="Shape" fill="#B61C3E"></path>
            <path d="M109,53.57 C105.648733,54.5817668 102.160077,55.0642406 98.66,55 C84.38,55 80.38,43.37 80.38,34.12 C80.38,23.69 85.17,15.92 96.3,15.92 C106.89,15.92 109.64,22.82 109.64,28.92 L101.56,28.92 C101.56,26.1 101.01,21.39 95.83,21.39 C91.21,21.39 88.23,25.86 88.23,32.76 C88.23,40.14 91.29,49.47 103.05,49.47 C105.077983,49.5157794 107.101129,49.2527704 109.05,48.69 L109,53.57 Z" id="Path" fill="#B61C3E"></path>
            <polygon id="Path" fill="#B61C3E" points="116.93 0 124 0 124 31.69 137 16.78 145.86 16.78 132.07 33.1 147.2 54.1 138.34 54.1 124.14 34.8 124 34.8 124 54.1 116.94 54.1"></polygon>
            <path d="M158.49,23 L158.65,23 C160.076032,18.6565825 164.201323,15.7786624 168.77,15.94 C179.04,15.94 182.1,26.22 182.1,35.86 C182.1,46.61 177.79,55 167.1,55 C153.77,55 153.1,43.63 153.1,38.77 L153.1,0 L158.43,0 L158.49,23 Z M167,50.51 C173.67,50.51 176,43.14 176,35.69 C176,28.55 174,20.39 167.77,20.39 C161.1,20.39 158.51,29.57 158.51,36.94 C158.49,41.25 159.12,50.51 167,50.51 Z" id="Shape" fill="#1A1A18"></path>
            <polygon id="Path" fill="#1A1A18" points="192.76 0 198.1 0 198.1 54.12 192.76 54.12"></polygon>
            <path d="M235.74,53.88 C232.961051,54.672201 230.078974,55.0429945 227.19,54.98 C215.66,55 209,48 209,34.2 C209,23.06 213.62,15.92 223.58,15.92 C232.37,15.92 236.58,21.92 236.58,30.12 L236.58,31.92 L215.11,31.92 L215.11,34.12 C215.11,39.76 217.62,50.51 228.37,50.51 C230.863426,50.5568265 233.349202,50.2195435 235.74,49.51 L235.74,53.88 Z M230.49,27.45 C230.506593,25.558588 229.757048,23.7409656 228.412053,22.4110401 C227.067057,21.0811146 225.241105,20.3520975 223.35,20.39 C217.78,20.39 215.98,24.94 215.51,27.45 L230.49,27.45 Z" id="Shape" fill="#1A1A18"></path>
            <path d="M246.72,16.78 L252.05,16.78 L252.05,25.41 L252.21,25.41 C253.21,22.35 255.58,15.92 263.89,15.92 C270.25,15.92 273.46,21.25 273.46,27.45 L273.46,54.12 L268.13,54.12 L268.13,33.41 C268.13,26.98 268.13,21.25 262.64,21.25 C255.58,21.25 252.05,32 252.05,38.75 L252.05,54.12 L246.72,54.12 L246.72,16.78 Z" id="Path" fill="#1A1A18"></path>
            <path d="M306.16,47.76 L306,47.76 C304.711773,52.0532242 300.762329,54.9949912 296.28,55 C287.28,55 283.5,47.63 283.5,35.78 C283.5,25.78 287.03,15.94 296.2,15.94 C300.69647,15.7200223 304.755601,18.6164463 306.01,22.94 L306.16,22.94 L306.16,0 L311.5,0 L311.5,54.12 L306.16,54.12 L306.16,47.76 Z M297.38,50.51 C303.5,50.51 306.16,42.04 306.16,35.61 C306.16,27.29 303.16,20.39 297.54,20.39 C291.18,20.39 289.62,28.86 289.62,36.78 C289.62,41.57 290.32,50.51 297.38,50.51 L297.38,50.51 Z" id="Shape" fill="#1A1A18"></path>
            <path d="M348.59,53.88 C345.799231,54.6829386 342.90335,55.0605156 340,55 C328.47,55 321.81,48 321.81,34.22 C321.81,23.08 326.43,15.94 336.39,15.94 C345.18,15.94 349.39,21.94 349.39,30.14 L349.39,31.94 L328,31.94 L328,34.14 C328,39.78 330.51,50.53 341.26,50.53 C343.753426,50.5768265 346.239202,50.2395435 348.63,49.53 L348.59,53.88 Z M343.34,27.45 C343.356593,25.558588 342.607048,23.7409656 341.262053,22.4110401 C339.917057,21.0811146 338.091105,20.3520975 336.2,20.39 C330.63,20.39 328.83,24.94 328.36,27.45 L343.34,27.45 Z" id="Shape" fill="#1A1A18"></path>
            <path d="M427.33,48.86 C432.43,44.71 450.33,28.47 450.33,16.71 C450.33,12.08 447.82,8 442.1,8 C435.19,8 433.94,13.25 433.94,15.61 L427.35,15.61 C427.51,11.61 430.02,3.53 442.49,3.53 C450.65,3.53 456.49,8.86 456.49,17.33 C456.49,30.9 439.39,44.78 435,48.78 L457.2,48.78 L457.2,54.12 L427.33,54.12 L427.33,48.86 Z" id="Path" fill="#1A1A18"></path>
            <path d="M465.21,29.25 C465.21,16.39 468.66,3.53 482.15,3.53 C495.64,3.53 499.09,16.39 499.09,29.25 C499.09,42.11 495.64,55 482.15,55 C468.66,55 465.21,42 465.21,29.25 Z M482.15,50.51 C491.48,50.51 492.97,39.51 492.97,29.25 C492.97,18.99 491.48,8 482.15,8 C472.82,8 471.33,19 471.33,29.25 C471.33,39.5 472.9,50.51 482.15,50.51 L482.15,50.51 Z" id="Shape" fill="#1A1A18"></path>
            <path d="M507,48.86 C512.1,44.71 530,28.47 530,16.71 C530,12.08 527.49,8 521.77,8 C514.86,8 513.61,13.25 513.61,15.61 L507.02,15.61 C507.18,11.61 509.69,3.53 522.16,3.53 C530.32,3.53 536.16,8.86 536.16,17.33 C536.16,30.9 519.06,44.78 514.67,48.78 L536.87,48.78 L536.87,54.12 L507,54.12 L507,48.86 Z" id="Path-Copy" fill="#1A1A18"></path>
            <path d="M544.88,29.25 C544.88,16.39 548.33,3.53 561.82,3.53 C575.31,3.53 578.76,16.39 578.76,29.25 C578.76,42.11 575.31,55 561.82,55 C548.33,55 544.88,42 544.88,29.25 Z M561.82,50.51 C571.15,50.51 572.64,39.51 572.64,29.25 C572.64,18.99 571.15,8 561.82,8 C552.49,8 551,19 551,29.25 C551,39.5 552.57,50.51 561.82,50.51 L561.82,50.51 Z" id="Shape-Copy" fill="#1A1A18"></path>
            <polygon id="Path" fill="#B61C3E" points="413.94 9.17 401.19 31.11 413.94 53.05 360.23 31.11"></polygon>
        </g>
    </g>
</svg>