<?xml version="1.0" encoding="UTF-8"?>
<svg width="579px" height="55px" viewBox="0 0 579 55" version="1.1" xmlns="http://www.w3.org/2000/svg" xmlns:xlink="http://www.w3.org/1999/xlink">
    <!-- Generator: Sketch 55.2 (78181) - https://sketchapp.com -->
    <title>logo_subline_2019</title>
    <desc>Created with Sketch.</desc>
    <g id="Page-1" stroke="none" stroke-width="1" fill="none" fill-rule="evenodd">
        <g id="logo_subline_2019" fill-rule="nonzero">
            <path d="M0,0 L15.69,0 C24.16,0 31.53,3.61 31.53,14.2 C31.53,22.67 26.35,25.65 20.86,26.98 L20.86,27.14 C28.23,28.71 29.02,33.41 30.2,39.06 L33.41,54.12 L26.27,54.12 L23,42.12 C20.8,34.35 19.86,30.82 12.33,30.82 L7.84,30.82 L7.84,54.12 L0,54.12 L0,0 Z M7.84,24.55 L12.39,24.55 C17.88,24.55 23.69,22.35 23.69,15.14 C23.69,8.55 20,6.27 14.2,6.27 L7.84,6.27 L7.84,24.55 Z" id="Shape" fill="#B61C3E"></path>
            <path d="M63.76,46.12 L63.6,46.12 C62.43,49.25 59.37,55 51.76,55 C43.13,55 41.76,47.31 41.76,42.69 L41.76,16.78 L48.82,16.78 L48.82,37.18 C48.82,44.18 48.82,47.92 53.92,47.92 C59.72,47.92 63.8,40.08 63.8,32.63 L63.8,16.78 L70.86,16.78 L70.86,54.12 L63.76,54.12 L63.76,46.12 Z M43.76,0.71 L53.41,0.71 L53.41,9.33 L43.76,9.33 L43.76,0.71 Z M59.92,0.71 L69.56,0.71 L69.56,9.33 L59.92,9.33 L59.92,0.71 Z" id="Shape" fill="#B61C3E"></path>
            <path d="M109,53.57 C105.648733,54.5817668 102.160077,55.0642406 98.66,55 C84.38,55 80.38,43.37 80.38,34.12 C80.38,23.69 85.17,15.92 96.3,15.92 C106.89,15.92 109.64,22.82 109.64,28.92 L101.56,28.92 C101.56,26.1 101.01,21.39 95.83,21.39 C91.21,21.39 88.23,25.86 88.23,32.76 C88.23,40.14 91.29,49.47 103.05,49.47 C105.077983,49.5157794 107.101129,49.2527704 109.05,48.69 L109,53.57 Z" id="Path" fill="#B61C3E"></path>
            <polygon id="Path" fill="#B61C3E" points="116.93 0 124 0 124 31.69 137 16.78 145.86 16.78 132.07 33.1 147.2 54.1 138.34 54.1 124.14 34.8 124 34.8 124 54.1 116.94 54.1"></polygon>
            <path d="M158.49,23 L158.65,23 C160.076032,18.6565825 164.201323,15.7786624 168.77,15.94 C179.04,15.94 182.1,26.22 182.1,35.86 C182.1,46.61 177.79,55 167.1,55 C153.77,55 153.1,43.63 153.1,38.77 L153.1,0 L158.43,0 L158.49,23 Z M167,50.51 C173.67,50.51 176,43.14 176,35.69 C176,28.55 174,20.39 167.77,20.39 C161.1,20.39 158.51,29.57 158.51,36.94 C158.49,41.25 159.12,50.51 167,50.51 Z" id="Shape" fill="#1A1A18"></path>
            <polygon id="Path" fill="#1A1A18" points="192.76 0 198.1 0 198.1 54.12 192.76 54.12"></polygon>
            <path d="M235.74,53.88 C232.961051,54.672201 230.078974,55.0429945 227.19,54.98 C215.66,55 209,48 209,34.2 C209,23.06 213.62,15.92 223.58,15.92 C232.37,15.92 236.58,21.92 236.58,30.12 L236.58,31.92 L215.11,31.92 L215.11,34.12 C215.11,39.76 217.62,50.51 228.37,50.51 C230.863426,50.5568265 233.349202,50.2195435 235.74,49.51 L235.74,53.88 Z M230.49,27.45 C230.506593,25.558588 229.757048,23.7409656 228.412053,22.4110401 C227.067057,21.0811146 225.241105,20.3520975 223.35,20.39 C217.78,20.39 215.98,24.94 215.51,27.45 L230.49,27.45 Z" id="Shape" fill="#1A1A18"></path>
            <path d="M246.72,16.78 L252.05,16.78 L252.05,25.41 L252.21,25.41 C253.21,22.35 255.58,15.92 263.89,15.92 C270.25,15.92 273.46,21.25 273.46,27.45 L273.46,54.12 L268.13,54.12 L268.13,33.41 C268.13,26.98 268.13,21.25 262.64,21.25 C255.58,21.25 252.05,32 252.05,38.75 L252.05,54.12 L246.72,54.12 L246.72,16.78 Z" id="Path" fill="#1A1A18"></path>
            <path d="M306.16,47.76 L306,47.76 C304.711773,52.0532242 300.762329,54.9949912 296.28,55 C287.28,55 283.5,47.63 283.5,35.78 C283.5,25.78 287.03,15.94 296.2,15.94 C300.69647,15.7200223 304.755601,18.6164463 306.01,22.94 L306.16,22.94 L306.16,0 L311.5,0 L311.5,54.12 L306.16,54.12 L306.16,47.76 Z M297.38,50.51 C303.5,50.51 306.16,42.04 306.16,35.61 C306.16,27.29 303.16,20.39 297.54,20.39 C291.18,20.39 289.62,28.86 289.62,36.78 C289.62,41.57 290.32,50.51 297.38,50.51 L297.38,50.51 Z" id="Shape" fill="#1A1A18"></path>
            <path d="M348.59,53.88 C345.799231,54.6829386 342.90335,55.0605156 340,55 C328.47,55 321.81,48 321.81,34.22 C321.81,23.08 326.43,15.94 336.39,15.94 C345.18,15.94 349.39,21.94 349.39,30.14 L349.39,31.94 L328,31.94 L328,34.14 C328,39.78 330.51,50.53 341.26,50.53 C343.753426,50.5768265 346.239202,50.2395435 348.63,49.53 L348.59,53.88 Z M343.34,27.45 C343.356593,25.558588 342.607048,23.7409656 341.262053,22.4110401 C339.917057,21.0811146 338.091105,20.3520975 336.2,20.39 C330.63,20.39 328.83,24.94 328.36,27.45 L343.34,27.45 Z" id="Shape" fill="#1A1A18"></path>
            <path d="M427.33,48.86 C432.43,44.71 450.33,28.47 450.33,16.71 C450.33,12.08 447.82,8 442.1,8 C435.19,8 433.94,13.25 433.94,15.61 L427.35,15.61 C427.51,11.61 430.02,3.53 442.49,3.53 C450.65,3.53 456.49,8.86 456.49,17.33 C456.49,30.9 439.39,44.78 435,48.78 L457.2,48.78 L457.2,54.12 L427.33,54.12 L427.33,48.86 Z" id="Path" fill="#1A1A18"></path>
            <path d="M465.21,29.25 C465.21,16.39 468.66,3.53 482.15,3.53 C495.64,3.53 499.09,16.39 499.09,29.25 C499.09,42.11 495.64,55 482.15,55 C468.66,55 465.21,42 465.21,29.25 Z M482.15,50.51 C491.48,50.51 492.97,39.51 492.97,29.25 C492.97,18.99 491.48,8 482.15,8 C472.82,8 471.33,19 471.33,29.25 C471.33,39.5 472.9,50.51 482.15,50.51 L482.15,50.51 Z" id="Shape" fill="#1A1A18"></path>
            <path d="M507,48.86 C512.1,44.71 530,28.47 530,16.71 C530,12.08 527.49,8 521.77,8 C514.86,8 513.61,13.25 513.61,15.61 L507.02,15.61 C507.18,11.61 509.69,3.53 522.16,3.53 C530.32,3.53 536.16,8.86 536.16,17.33 C536.16,30.9 519.06,44.78 514.67,48.78 L536.87,48.78 L536.87,54.12 L507,54.12 L507,48.86 Z" id="Path-Copy" fill="#1A1A18"></path>
            <path d="M544.88,29.25 C544.88,16.39 548.33,3.53 561.82,3.53 C575.31,3.53 578.76,16.39 578.76,29.25 C578.76,42.11 575.31,55 561.82,55 C548.33,55 544.88,42 544.88,29.25 Z M561.82,50.51 C571.15,50.51 572.64,39.51 572.64,29.25 C572.64,18.99 571.15,8 561.82,8 C552.49,8 551,19 551,29.25 C551,39.5 552.57,50.51 561.82,50.51 L561.82,50.51 Z" id="Shape-Copy" fill="#1A1A18"></path>
            <polygon id="Path" fill="#B61C3E" points="413.94 9.17 401.19 31.11 413.94 53.05 360.23 31.11"></polygon>
        </g>
    </g>
</svg>