<?xml version="1.0" encoding="utf-8"?>
<!-- Generator: Adobe Illustrator 17.0.0, SVG Export Plug-In . SVG Version: 6.00 Build 0)  -->
<!DOCTYPE svg PUBLIC "-//W3C//DTD SVG 1.1//EN" "http://www.w3.org/Graphics/SVG/1.1/DTD/svg11.dtd">
<svg version="1.1" id="Layer_1" xmlns="http://www.w3.org/2000/svg" xmlns:xlink="http://www.w3.org/1999/xlink" x="0px" y="0px"
	 width="15px" height="20px" viewBox="0 0 15 20" enable-background="new 0 0 15 20" xml:space="preserve">
<desc>Created with Sketch.</desc>
<g id="Index">
	<g id="start" transform="translate(-619.000000, -1361.000000)">
		<g id="Group-14" transform="translate(-31.000000, 709.000000)">
			<g id="Group-12" transform="translate(616.000000, 636.000000)">
				
					<g id="Group-2-Copy-11" transform="translate(41.500000, 26.000000) scale(-1, 1) translate(-41.500000, -26.000000) translate(34.000000, 16.000000)">
					<g id="Group">
						<path id="Rectangle-5-Copy-4" fill="#FFFFFF" d="M0.461,10.814C0.027,9.85,0.283,8.618,1.031,8.065l10.534-7.797
							c0.748-0.554,1.707-0.221,2.141,0.742l0.232,0.515c0.434,0.964,0.178,2.195-0.569,2.748L2.834,12.071
							c-0.748,0.554-1.707,0.221-2.141-0.742"/>
						<path id="Rectangle-5-Copy-5" fill="#FFFFFF" d="M0.694,8.51c0.434-0.964,1.394-1.295,2.141-0.742l10.534,7.797
							c0.748,0.554,1.003,1.785,0.569,2.748l-0.232,0.515c-0.434,0.964-1.394,1.295-2.141,0.742L1.031,11.773
							c-0.748-0.554-1.003-1.785-0.569-2.748"/>
					</g>
				</g>
			</g>
		</g>
	</g>
</g>
</svg>
