
<svg width="15px" height="20px" viewBox="0 0 15 20" version="1.1" xmlns="http://www.w3.org/2000/svg" xmlns:xlink="http://www.w3.org/1999/xlink">
    <!-- Generator: Sketch 47.1 (45422) - http://www.bohemiancoding.com/sketch -->
    <desc>Created with Sketch.</desc>
    <defs></defs>
    <g id="Index" stroke="none" stroke-width="1" fill="none" fill-rule="evenodd">
        <g id="start" transform="translate(-619.000000, -1361.000000)" fill="#871D33">
            <g id="Group-14" transform="translate(-31.000000, 709.000000)">
                <g id="Group-12" transform="translate(616.000000, 636.000000)">
                    <g id="Group-2-Copy-11" transform="translate(41.500000, 26.000000) scale(-1, 1) translate(-41.500000, -26.000000) translate(34.000000, 16.000000)">
                        <g id="Group">
                            <path d="M0.461419364,10.8136581 C0.0273685757,9.84978064 0.283350468,8.618462 1.03060971,8.06532679 L11.5644728,0.267965026 C12.3128788,-0.286018992 13.2716513,0.046713754 13.7055001,1.01014273 L13.9374467,1.52521623 C14.3714975,2.48909368 14.1155156,3.72041231 13.3682564,4.27354753 L2.83439322,12.0709093 C2.08598729,12.6248933 1.12721476,12.2921606 0.693365929,11.3287316" id="Rectangle-5-Copy-4"></path>
                            <path d="M0.693527602,8.5098628 C1.12757839,7.54598535 2.08729566,7.21454988 2.8345549,7.7676851 L13.368418,15.5650469 C14.116824,16.1190309 14.3714572,17.3499492 13.9376084,18.3133782 L13.7056618,18.8284517 C13.271611,19.7923291 12.3118938,20.1237646 11.5646345,19.5706294 L1.03077138,11.7732676 C0.282365446,11.2192836 0.0277322029,9.98836528 0.461581037,9.02493631" id="Rectangle-5-Copy-5"></path>
                        </g>
                    </g>
                </g>
            </g>
        </g>
    </g>
</svg>
