
<svg width="19px" height="26px" viewBox="0 0 19 26" version="1.1" xmlns="http://www.w3.org/2000/svg" xmlns:xlink="http://www.w3.org/1999/xlink">
    <!-- Generator: Sketch 47.1 (45422) - http://www.bohemiancoding.com/sketch -->
    <desc>Created with Sketch.</desc>
    <defs></defs>
    <g id="Index" stroke="none" stroke-width="1" fill="none" fill-rule="evenodd">
        <g id="start" transform="translate(-1360.000000, -330.000000)" fill="#D5D5D5">
            <g id="Group-8">
                <g id="Group-2-Copy-9" transform="translate(1360.000000, 330.000000)">
                    <g id="control_right" transform="translate(9.500000, 13.000000) scale(-1, 1) translate(-9.500000, -13.000000) ">
                        <path d="M0.336703551,12.8954567 C0.298502876,12.0548036 0.586301681,11.2192593 1.13628506,10.6848476 C1.44579822,10.2238567 1.86540582,9.92177001 2.31662522,9.80472536 L15.4192971,0.348354534 C16.4171717,-0.371824689 17.6955351,0.0607278802 18.2740002,1.31318554 L18.5832623,1.9827811 C19.1619967,3.23582178 18.8206875,4.83653601 17.8243418,5.55561179 L7.65493225,12.8950086 L17.8245574,20.2345609 C18.822432,20.9547401 19.161943,22.5549339 18.5834778,23.8073916 L18.2742158,24.4769872 C17.6954814,25.7300278 16.4158583,26.1608939 15.4195127,25.4418182 L2.31800283,15.986286 C1.86568124,15.8694175 1.44518659,15.5664755 1.13527198,15.1041954 C0.585517359,14.5694789 0.29855335,13.7349864 0.336703551,12.8954567 Z" id="Combined-Shape"></path>
                    </g>
                </g>
            </g>
        </g>
    </g>
</svg>
