<?xml version="1.0" encoding="UTF-8"?>
<svg width="148px" height="149px" viewBox="0 0 148 149" version="1.1" xmlns="http://www.w3.org/2000/svg" xmlns:xlink="http://www.w3.org/1999/xlink">
    <!-- Generator: Sketch 46.2 (44496) - http://www.bohemiancoding.com/sketch -->
    <title>Group 2 Copy 2</title>
    <desc>Created with Sketch.</desc>
    <defs></defs>
    <g id="Symbols" stroke="none" stroke-width="1" fill="none" fill-rule="evenodd">
        <g id="footer" transform="translate(-1115.000000, -50.000000)" fill="#FFFFFF">
            <g id="Group-2-Copy-2" transform="translate(1115.000000, 50.000000)">
                <polygon id="Path-2" points="53 73.0565581 91 89 82.0591698 73.0565581 91 57"></polygon>
                <g id="Group">
                    <path d="M109.801799,76.6629489 C110.720849,85.289376 106.731993,131.346955 93.7608074,147.300216 C117.489562,140.686593 136.374044,122.401912 143.880169,98.9992745 C142.771327,93.4843561 129.553776,72.0957375 104.853132,56.0239979 C106.270966,58.9311145 109.702297,71.9551609 109.801799,76.6629489 Z" id="Oval"></path>
                    <path d="M92.0944924,44.1284376 C100.038279,47.647172 138.003266,74.1241547 145.358675,93.3138139 C151.485093,69.4945214 145.0636,44.027364 128.512605,25.8373257 C123.173458,24.038412 98.007982,24.7701034 71.7138679,38.0868702 C74.9449904,38.3147723 87.9602786,41.8605591 92.0944924,44.1284376 Z" id="Oval-Copy"></path>
                    <path d="M57.1350329,42.9195907 C64.1597696,37.811898 106.113613,18.231302 126.440207,21.4676999 C108.83787,4.26202995 83.5318956,-2.92044605 59.4747763,2.29215325 C55.2444706,6.00815787 43.2965459,28.1284679 41.7030752,57.5169744 C43.5163636,54.8377599 53.1003216,45.3595002 57.1350329,42.9195907 Z" id="Oval-Copy-2"></path>
                    <path d="M38.6081513,73.6060355 C37.6891009,64.9796084 41.677957,18.9220297 54.6491429,2.96876838 C30.9203879,9.58239091 12.0359062,27.8670724 4.52978185,51.2697099 C5.6386233,56.7846283 18.8561746,78.1732469 43.556818,94.2449865 C42.1389839,91.3378699 38.7076537,78.3138235 38.6081513,73.6060355 Z" id="Oval-Copy-3"></path>
                    <path d="M55.897907,105.311854 C47.95412,101.79312 9.98913293,75.3161369 2.63372486,56.1264777 C-3.49269385,79.9457701 2.92879925,105.412928 19.4797942,123.602966 C24.8189413,125.40188 49.9844174,124.670188 76.2785315,111.353421 C73.0474089,111.125519 60.0321207,107.579732 55.897907,105.311854 Z" id="Oval-Copy-4"></path>
                    <path d="M91.4947309,106.520701 C84.4699942,111.628394 42.5161511,131.208989 22.1895571,127.972592 C39.7918934,145.178262 65.0978682,152.360738 89.1549875,147.148138 C93.3852932,143.432134 105.333218,121.311824 106.926689,91.9233172 C105.1134,94.6025317 95.5294423,104.080791 91.4947309,106.520701 Z" id="Oval-Copy-5"></path>
                </g>
            </g>
        </g>
    </g>
</svg>