<?xml version="1.0" encoding="UTF-8"?>
<svg width="15px" height="20px" viewBox="0 0 15 20" version="1.1" xmlns="http://www.w3.org/2000/svg" xmlns:xlink="http://www.w3.org/1999/xlink">
    <!-- Generator: Sketch 46.2 (44496) - http://www.bohemiancoding.com/sketch -->
    <title>arrow_control_grey_left</title>
    <desc>Created with Sketch.</desc>
    <defs></defs>
    <g id="Preisträger-/-winners" stroke="none" stroke-width="1" fill="none" fill-rule="evenodd">
        <g id="preistraeger" transform="translate(-551.000000, -1930.000000)" fill="#D5D5D5">
            <g id="Group-2-Copy-7" transform="translate(551.000000, 1930.000000)">
                <g id="arrow_control_grey_left">
                    <path d="M0.252527663,9.91958204 C0.223877157,9.27292586 0.439726261,8.63019948 0.852213798,8.21911356 C1.08434866,7.86450518 1.39905436,7.63213077 1.73746892,7.54209643 L11.5644728,0.267965026 C12.3128788,-0.286018992 13.2716513,0.046713754 13.7055001,1.01014273 L13.9374467,1.52521623 C14.3714975,2.48909368 14.1155156,3.72041231 13.3682564,4.27354753 L5.74119919,9.91923736 L13.368418,15.5650469 C14.116824,16.1190309 14.3714572,17.3499492 13.9376084,18.3133782 L13.7056618,18.8284517 C13.271611,19.7923291 12.3118938,20.1237646 11.5646345,19.5706294 L1.73850212,12.2971431 C1.39926093,12.2072442 1.08388994,11.9742119 0.851453982,11.6186118 C0.439138019,11.2072915 0.223915013,10.5653742 0.252527663,9.91958204 Z" id="Combined-Shape"></path>
                </g>
            </g>
        </g>
    </g>
</svg>