<?xml version="1.0" encoding="utf-8"?>
<!-- Generator: Adobe Illustrator 17.0.0, SVG Export Plug-In . SVG Version: 6.00 Build 0)  -->
<!DOCTYPE svg PUBLIC "-//W3C//DTD SVG 1.1//EN" "http://www.w3.org/Graphics/SVG/1.1/DTD/svg11.dtd">
<svg version="1.1" id="Layer_1" xmlns="http://www.w3.org/2000/svg" xmlns:xlink="http://www.w3.org/1999/xlink" x="0px" y="0px"
	 width="15px" height="20px" viewBox="0 0 15 20" enable-background="new 0 0 15 20" xml:space="preserve">
<title>arrow_red_back</title>
<desc>Created with Sketch.</desc>
<g id="Bildseite-_x2F_-image-page">
	<g id="image_detail" transform="translate(-261.000000, -1203.000000)">
		<g id="Group-2-Copy-29" transform="translate(261.000000, 1203.000000)">
			<g id="arrow_red_back">
				<path id="Combined-Shape" fill="#B10551" d="M13.548,11.619c-0.232,0.356-0.548,0.589-0.887,0.679l-9.826,7.273
					c-0.747,0.553-1.707,0.222-2.141-0.742l-0.232-0.515c-0.434-0.963-0.179-2.194,0.569-2.748l7.627-5.646L1.031,4.274
					C0.284,3.72,0.028,2.489,0.462,1.525L0.694,1.01c0.434-0.963,1.393-1.296,2.141-0.742l9.827,7.274
					c0.338,0.09,0.653,0.322,0.885,0.677c0.412,0.411,0.628,1.054,0.6,1.7C14.175,10.565,13.96,11.207,13.548,11.619z"/>
			</g>
		</g>
	</g>
</g>
</svg>
