<?xml version="1.0" encoding="UTF-8"?>
<svg width="11px" height="14px" viewBox="0 0 11 14" version="1.1" xmlns="http://www.w3.org/2000/svg" xmlns:xlink="http://www.w3.org/1999/xlink">
    <!-- Generator: Sketch 46.2 (44496) - http://www.bohemiancoding.com/sketch -->
    <title>red_arrow_11x14</title>
    <desc>Created with Sketch.</desc>
    <defs></defs>
    <g id="Index" stroke="none" stroke-width="1" fill="none" fill-rule="evenodd">
        <g id="start" transform="translate(-973.000000, -674.000000)" fill="#871D33">
            <g id="Group-8">
                <g id="Group-2" transform="translate(973.000000, 671.000000)">
                    <g id="Group-2-Copy-11" transform="translate(5.500000, 10.000000) scale(-1, 1) translate(-5.500000, -10.000000) translate(0.000000, 3.000000)">
                        <g id="red_arrow_11x14">
                            <path d="M0.18520206,7.00029979 C0.164020451,6.54395122 0.323599878,6.09037592 0.62855609,5.80027049 C0.800175746,5.55002154 1.03284085,5.38603373 1.28303416,5.32249603 L8.54823762,0.18910429 C9.10154171,-0.201845066 9.81037194,0.0329661352 10.1311208,0.712862889 L10.3026012,1.0763529 C10.6234994,1.75656614 10.4342494,2.625514 9.88179303,3.01586435 L4.24303247,7.00005655 L9.88191256,10.9843332 C10.4352166,11.3752826 10.6234696,12.2439479 10.3027207,12.9238446 L10.1312403,13.2873347 C9.81034216,13.9675479 9.10081347,14.2014436 8.54835715,13.8110933 L1.28379802,8.67815678 C1.03299357,8.61471471 0.799836606,8.4502626 0.62799435,8.19931382 C0.323164985,7.90904291 0.164048438,7.4560386 0.18520206,7.00029979 Z" id="Combined-Shape"></path>
                        </g>
                    </g>
                </g>
            </g>
        </g>
    </g>
</svg>