<svg xmlns="http://www.w3.org/2000/svg" viewBox="0 0 513.91 178.86"><defs><style>.a{fill:#006eb7;fill-rule:evenodd;}</style></defs><title>21_Bellevue</title><path class="a" d="M18.43,96.89v17.45c0,4.28-2,6.58-5.93,6.58-3,0-4.28-1.65-5.27-1.65-.66,0-1.32,1-1.32,1.65,0,1,3,2.3,6.58,2.3,5.27,0,8.56-3,8.56-8.56V96.89a1.21,1.21,0,0,0-1.32-1.32c-1,0-1.32.33-1.32,1.32Z" transform="translate(-5.92 -10.3)"/><path class="a" d="M46.74,107.42l-1-10.53c0-1-.33-1.32-1.32-1.32s-1.32.33-1.32,1.32v.33l1,10.86a34.2,34.2,0,0,1,.66,4.94c0,4.94-2.63,7.57-7.57,7.57s-7.57-2.3-7.57-7.57a34.33,34.33,0,0,1,.66-4.94l1-10.86v-.33c0-1-.33-1.32-1.32-1.32a1.21,1.21,0,0,0-1.32,1.32l-1,10.53c-.33,2.63-.66,4.61-.66,5.93,0,6.26,4.28,9.88,10.21,9.88s10.21-3.62,10.21-9.88a53.41,53.41,0,0,0-.66-5.93Z" transform="translate(-5.92 -10.3)"/><path class="a" d="M71.76,120.92h-1c-9.88,0-16.13-6.26-16.13-13.83,0-6.58,3.29-8.89,9.55-8.89h7.9a1.35,1.35,0,1,0,0-2.63H65.84c-4.28,0-7.57.33-9.88,2a11.94,11.94,0,0,0-4.28,9.55c0,5.6,3.29,10.86,8.89,13.83,3,1.65,6.58,2.3,11.19,2.3,2.3,0,2.63-.66,2.63-2.3V104.79c0-2-.66-2-2.3-2H65.51a1.35,1.35,0,1,0,0,2.63h6.25v15.47Z" transform="translate(-5.92 -10.3)"/><path class="a" d="M94.48,120.59H82.3V105.45H94.15a1.51,1.51,0,0,0,1.65-1.32c0-1-.66-1.32-1.65-1.32H82.3V98.21H94.48a1.51,1.51,0,0,0,1.65-1.32c0-1-.66-1.32-1.65-1.32H82c-2,0-2.3.33-2.3,2v23.7c0,1.65.66,1.65,2.3,1.65H94.48c1,0,1.65-.33,1.65-1.32,0-.66-.66-1-1.65-1Z" transform="translate(-5.92 -10.3)"/><path class="a" d="M104,121.58V99.19c4.28,4.28,8.23,6.58,13.17,7.24v15.14a1.51,1.51,0,0,0,1.32,1.65,1.56,1.56,0,0,0,1.65-1.65V96.89c0-1-.66-1.32-1.65-1.32a1.21,1.21,0,0,0-1.32,1.32v7.24c-4-.66-7.24-2.63-10.53-5.93-1.32-1.65-2-2.63-3.62-2.63-1,0-1.65.33-1.65,1.32v24.69a1.51,1.51,0,0,0,1.32,1.65c1,0,1.32-.66,1.32-1.65Z" transform="translate(-5.92 -10.3)"/><path class="a" d="M129,120.26V97.88h.66c9.22,0,15.14,6.26,15.14,13.5a10.45,10.45,0,0,1-2,6.58c-2,2-4.28,2.3-7.24,2.3Zm-1,2.63h6.58c4,0,7.24,0,10.21-3a12.9,12.9,0,0,0,3-8.56c0-8.89-6.91-15.8-19.09-15.8-1.65,0-2.3,0-2.3,1.32v24.36c0,1.32.33,1.65,1.65,1.65Z" transform="translate(-5.92 -10.3)"/><path class="a" d="M163.29,104.13l-4.61-1c-3.29-.33-4.28-1-4.28-2.63,0-2,1.32-2.3,4-2.3h8.56a1.51,1.51,0,0,0,1.65-1.32c0-1-.66-1.32-1.65-1.32h-8.56c-4.61,0-6.91,2-6.91,5.27,0,3,2.63,4.28,7.24,4.94l4.61.66c4,.66,5.93,2,5.93,6.26,0,5.6-3.29,7.9-10.21,7.9h-5.93c-1,0-1.65.33-1.65,1,0,1,.66,1.32,1.65,1.32h6.26c8.56,0,12.84-3.62,12.84-10.54,0-5.27-3-7.57-8.89-8.23Z" transform="translate(-5.92 -10.3)"/><path class="a" d="M185,121.58V98.21h6.58a1.21,1.21,0,0,0,1.32-1.32c0-1-.33-1.32-1.32-1.32H175.8a1.32,1.32,0,0,0,0,2.63h6.58v23.37c0,1,.33,1.65,1.32,1.65s1.32-.66,1.32-1.65Z" transform="translate(-5.92 -10.3)"/><path class="a" d="M199.5,121.58V96.89a1.21,1.21,0,0,0-1.32-1.32c-1,0-1.32.33-1.32,1.32v24.69c0,1,.33,1.65,1.32,1.65a1.51,1.51,0,0,0,1.32-1.65Z" transform="translate(-5.92 -10.3)"/><path class="a" d="M218.27,120.59h-9.88V96.89c0-1-.33-1.32-1.32-1.32s-1.32.33-1.32,1.32v24.36c0,1.65.66,1.65,2.3,1.65h10.21c1,0,1.65-.33,1.65-1.32,0-.66-.66-1-1.65-1Z" transform="translate(-5.92 -10.3)"/><path class="a" d="M226.17,121.58V105.12H239v16.46c0,1,.33,1.65,1.32,1.65s1.32-.66,1.32-1.65V96.89c0-1-.33-1.32-1.32-1.32S239,95.9,239,96.89v5.93H226.17V96.89c0-1-.33-1.32-1.32-1.32a1.21,1.21,0,0,0-1.32,1.32v24.69a1.51,1.51,0,0,0,1.32,1.65c1,0,1.32-.66,1.32-1.65Z" transform="translate(-5.92 -10.3)"/><path class="a" d="M259.09,97.55c5.6,0,9.55,4.61,9.55,11.85s-4,11.52-9.55,11.52-9.55-4.61-9.55-11.52c0-7.24,4-11.85,9.55-11.85Zm0-2.3c-6.91,0-12.51,5.6-12.51,14.16s5.6,13.83,12.51,13.83S271.6,118,271.6,109.4,266,95.24,259.09,95.24Z" transform="translate(-5.92 -10.3)"/><path class="a" d="M284.77,121.58V98.21H291a1.51,1.51,0,0,0,1.65-1.32c0-1-.66-1.32-1.65-1.32H275.55a1.35,1.35,0,1,0,0,2.63h6.25v23.37a1.56,1.56,0,0,0,1.65,1.65,1.51,1.51,0,0,0,1.32-1.65Z" transform="translate(-5.92 -10.3)"/><path class="a" d="M311.1,120.59H298.92V105.45h11.85a1.21,1.21,0,0,0,1.32-1.32c0-1-.33-1.32-1.32-1.32H298.92V98.21H311.1a1.21,1.21,0,0,0,1.32-1.32c0-1-.33-1.32-1.32-1.32H298.59c-2,0-2.3.33-2.3,2v23.7c0,1.65.66,1.65,2.3,1.65H311.1c1,0,1.65-.33,1.65-1.32,0-.66-.66-1-1.65-1Z" transform="translate(-5.92 -10.3)"/><path class="a" d="M330.53,120.59h-9.88V96.89c0-1-.33-1.32-1.32-1.32S318,95.9,318,96.89v24.36c0,1.65.66,1.65,2.3,1.65h10.21c1.32,0,1.65-.33,1.65-1.32,0-.66-.33-1-1.65-1Z" transform="translate(-5.92 -10.3)"/><path class="a" d="M365.42,106.77c2-2.3,3-4,3-6.25,0-3.62-2.3-4.94-6.91-4.94h-8.89c-1.65,0-2,.33-2,1.32v24.69c0,1.32.66,1.32,2.3,1.32h8.56c5.6,0,8.56-3,8.56-7.9a9.83,9.83,0,0,0-4.61-8.23Zm-12.18-3.62V98.21h8.56c2.63,0,4,1,4,2.63a6.79,6.79,0,0,1-2.3,4.61,20.33,20.33,0,0,0-10.21-2.3Zm0,2.3c9.22.33,14.16,4.61,14.16,9.55a5.31,5.31,0,0,1-2,4.28c-1.32,1.32-3,1.32-4.94,1.32h-7.24V105.45Z" transform="translate(-5.92 -10.3)"/><path class="a" d="M389.79,120.59H377.61V105.45h11.52a1.51,1.51,0,0,0,1.65-1.32c0-1-.66-1.32-1.65-1.32H377.61V98.21h11.85c1.32,0,1.65-.66,1.65-1.32,0-1-.33-1.32-1.65-1.32H377.28c-2,0-2.3.33-2.3,2v23.7c0,1.65.33,1.65,2.3,1.65h12.51c1,0,1.65-.33,1.65-1.32,0-.66-.66-1-1.65-1Z" transform="translate(-5.92 -10.3)"/><path class="a" d="M409.21,120.59h-9.88V96.89c0-1-.33-1.32-1.32-1.32s-1.32.33-1.32,1.32v24.36c0,1.65.33,1.65,2.3,1.65h10.2c1,0,1.65-.33,1.65-1.32,0-.66-.66-1-1.65-1Z" transform="translate(-5.92 -10.3)"/><path class="a" d="M427,120.59h-9.88V96.89c0-1-.33-1.32-1.32-1.32s-1.32.33-1.32,1.32v24.36c0,1.65.66,1.65,2.3,1.65H427c1,0,1.65-.33,1.65-1.32,0-.66-.66-1-1.65-1Z" transform="translate(-5.92 -10.3)"/><path class="a" d="M447.07,120.59H434.89V105.45h11.85a1.51,1.51,0,0,0,1.65-1.32c0-1-.66-1.32-1.65-1.32H434.89V98.21h12.18a1.51,1.51,0,0,0,1.65-1.32c0-1-.66-1.32-1.65-1.32H434.56c-2,0-2.3.33-2.3,2v23.7c0,1.65.66,1.65,2.3,1.65h12.51c1,0,1.65-.33,1.65-1.32,0-.66-.66-1-1.65-1Z" transform="translate(-5.92 -10.3)"/><path class="a" d="M462.87,120.92a63.71,63.71,0,0,1-8.23-22.72c-.33-1.65,0-2.63-1.65-2.63-.66,0-1,.33-1,1.32a57.79,57.79,0,0,0,4.61,17.78c2.63,5.93,4.28,8.56,6.25,8.56s4-3,6.59-9.88a48.9,48.9,0,0,0,4.28-16.46c0-1-.33-1.32-1.32-1.32-1.32,0-1,1-1.32,2.63a61.86,61.86,0,0,1-8.23,22.72Z" transform="translate(-5.92 -10.3)"/><path class="a" d="M497.11,107.42l-1-10.53a1.21,1.21,0,0,0-1.32-1.32c-1,0-1.32.33-1.32,1.32v.33l1,10.86a34.26,34.26,0,0,1,.66,4.94c0,4.94-2.63,7.57-7.57,7.57S480,118.29,480,113a34.26,34.26,0,0,1,.66-4.94l1-10.86v-.33c0-1-.33-1.32-1.32-1.32S479,95.9,479,96.89l-1,10.53c-.33,2.63-.66,4.61-.66,5.93,0,6.26,4.28,9.88,10.21,9.88s10.21-3.62,10.21-9.88a53.51,53.51,0,0,0-.66-5.93Z" transform="translate(-5.92 -10.3)"/><path class="a" d="M518.18,120.59H506V105.45h11.85a1.51,1.51,0,0,0,1.65-1.32c0-1-.66-1.32-1.65-1.32H506V98.21h12.18a1.51,1.51,0,0,0,1.65-1.32c0-1-.66-1.32-1.65-1.32H505.67c-2,0-2.3.33-2.3,2v23.7c0,1.65.66,1.65,2.3,1.65h12.51c1,0,1.65-.33,1.65-1.32,0-.66-.66-1-1.65-1Z" transform="translate(-5.92 -10.3)"/><path class="a" d="M221.23,10.3h81V82.07h210v1.32H290.69v-.33c1.19-3.34-8.14-5.12-7.64-7.23-1.29.36-2.53,1.65-.59,2.62,1.32,1,2.63,1.32,3.62,2,3.29,1.65,2.3,4-.33,4.61s-4.61,1-7.24,1.65c-1,0-1.32,0-.66.33,1.32.66,1.65,1.65-.33,2-6.58,1.32-10.21,1-11.52.66A94.55,94.55,0,0,0,276.21,88c-1.32-.66-1-2.63.33-2.63,2.63-.66,6.91-1,8.89-1.32,2.63-.33,2-2-.66-3-6.58-2.3-7.57-5.6-2.3-6.58a89.25,89.25,0,0,0,14.16-4.61c2-.66,2.3-1.65.66-2.63-2.3-1.65-4-1.65-8.89-2.3h0c3.29-.66,6.91-.66,9.88,1.32a3.17,3.17,0,0,1,1.66,2.29,1.14,1.14,0,0,0,0-.31c-1.25-5.31-12-4.4-15.61-3.73,3-10.81-12.58-20.1-14-27.88-.66-2.63.66-4.28,3-2.63,4.94,3.95,7.24,4.61,7.57,3.62,0-.66-1-2-2.63-4.28v-1h0c-.33-.33-1.32-.33-1.65-.33h-1a2,2,0,0,1-1.32-.33,1.21,1.21,0,0,0-.33,1c-.33,0-1-.33-1-.66.33-1.32-3-2-2.63-2.63.66-.66,3,0,4.28,1.32h3c1.32-4.61-8.23-6.26-10.86-4.28-3.62,3-2.63,8.23-.66,12.18,3.29,5.6,6.25,11.52,9.22,17.12a5.25,5.25,0,0,1,1,2.63v.33h0c0,1-.33,2.63-1,3-4.94,2.63-8.23-2.3-11.85-7.57-3.62-5.6-7.24-11.85-14.16-10.86,6.91-4.94,15.14,9.88,15.47,10.2,2.3,3.62,4.61,6.58,6.91,7.24a3,3,0,0,0,1.65.33h-.33c-4-1.65-8.89-27-25.68-23.37a23,23,0,0,1-8.23,0c1,1.32,3,2,4.28,3-3-.33-3.29.33-1.32,2.31a7.91,7.91,0,0,0-4.94.66c1,1,2,1.65,3,2.63-2-.33-3.62-.33-4.94.66.33,1,.66,2,3,3-4.61.66-3.29,2.3-1,3.29-1,.33-2,.66-2,1.32,8.89,7.9,15.14,8.89,20.41,10.54-6.58-.33-11.85-2.3-18.44-5.27,0,1.32.66,3.29,4.28,4.28-3.29,1-4.28,2-.66,3.29,1,.52,1.87.95,2.75,1.32h.21c3.29,1.65,5.6,2,9.22,2.3-2,.33-8.56,0-11.85-2a5,5,0,0,0,.84-.1c-5.88.52-10.06,1.86-10.06,3.4s6.91,3.29,15.47,3.29a51.46,51.46,0,0,0,12.31-1.3c.87-.52.19-.76-1.77-1-2.3-.33-3.29-2.3.66-3,5.93-1,25-1,25-3h0c1.65,0,3,1.65-2.63,2.63-13.5,1.32-29,1.32-21.4,2.3,7.9,1-.33,4-9.88,5.27-5.38.6-9.14.38-19.15.33-13,1-1.22,3.85-4.88,5.26a17.36,17.36,0,0,1-4.28.33H13.16V82.07H221.23V10.3Zm8.61,123.79H512.26v-1.65H13.16v1.65H229.83ZM291,20.84c3.62,0,4.61,2,6.25,3.29,3.29-4.61,2-8.56.66-10.2-1.64-1.32-5.6-2.3-9.88.66,1.32,1.65,3,3,3,6.26Zm6.91-5.93a17.59,17.59,0,0,1-.66,7.24,13.39,13.39,0,0,1,.66-7.24Zm-.66-.66a14.45,14.45,0,0,0-7.57.33,19.6,19.6,0,0,0,7.57-.33Zm0,.33a18.09,18.09,0,0,0-5.6,5.6,15.21,15.21,0,0,0,5.6-5.6Zm-64.86,6.26c-3.62,0-4.61,2-6.58,3.29-3-4.61-2-8.56-.33-10.2,1.65-1.32,5.6-2.3,9.88.66-1.32,1.65-3,3-3,6.26Zm-6.91-5.93c-.66,2.63,0,4.94.66,7.24a13.4,13.4,0,0,0-.66-7.24Zm.66-.66a14.45,14.45,0,0,1,7.57.33,19.3,19.3,0,0,1-7.57-.33Zm-.33.33a16.31,16.31,0,0,1,5.93,5.6,16.13,16.13,0,0,1-5.93-5.6ZM285.1,66.93c6.25-1,10.86,1,7.24,3-3.62,1.65-10.86,3-19.75,4-2,.33-1.32.66,0,1,1.32.66,2.63,1.32,0,2-3,.33-6.58.33-9.22,1-1.65.66-2,.66-.33.66,1,.33,5.27.33,6.91.66,5.6,1,2.63,3-.33,3.62-21.4,6.91-40.49,7.24-43.13,5.93,8.89-.66,25-2,40.17-5.93,8.56-2,4.28-2-3-2.3-4.28-.33-4.28-2.3-2.3-3.29,2-.66,6.26-1,9.55-1.32,2.63-.33-6.25-1.65.66-3,4.28-.66,31.93-3.62,13.5-5.93ZM244.93,55.74v.33l2,1h0a6.9,6.9,0,0,0,2,1.32h0a31.53,31.53,0,0,0,10.53,4C255.79,64,242.63,58,244.93,55.74Z" transform="translate(-5.92 -10.3)"/><path class="a" d="M221.2,134h8.54c-2.31.34-5.91,2.31-6.9,7.57,2.3.33,4.28,0,6.91,2.3h0c1.93-1.94,3.64-2,5.5-2.19a120.35,120.35,0,0,0,17.88,5.48v4.61a9.72,9.72,0,0,1,4.28.66c1.32.33,2.63,1,4,1.32l.33.33a.32.32,0,0,0,.33-.33c1.65-.33,3-1,4.28-1.32a8.36,8.36,0,0,1,4-.66v-4.61a120.35,120.35,0,0,0,17.87-5.48,8.62,8.62,0,0,1,5.83,2.19h0c2.3-2.3,4.28-2,6.58-2.3-1-5.25-4.59-7.23-6.57-7.57h8.22v23h-81V134Zm67.62,6-.11-.26a18.13,18.13,0,0,1,4.57-5h0a11.64,11.64,0,0,1-4.46,5.31Zm-1.4.05a200.84,200.84,0,0,1-19.48,5.84h0c1.32-3.29,4.28-4.94,7.9-6.25a27.79,27.79,0,0,1,5.6-1.65,60.8,60.8,0,0,1,7.8-1.24,9.67,9.67,0,0,0-1.81,3.3Zm3.83-5H232.2a6.79,6.79,0,0,0-2.43-1h64.16a7.32,7.32,0,0,0-2.67,1Zm3-.33a15.57,15.57,0,0,1,4.94,5.6,16.38,16.38,0,0,1-4.94-5.6Zm-.33,0a22.86,22.86,0,0,1,0,8.23,17.36,17.36,0,0,1,0-8.23Zm-64.85,0a19.52,19.52,0,0,0-4.94,5.6,11.62,11.62,0,0,0,4.94-5.6Zm.66,0a22.86,22.86,0,0,1,0,8.23,17.38,17.38,0,0,1,0-8.23Zm29,16.13c1,.33,2,1,3,1.32A34.16,34.16,0,0,1,265,150.8c1-.33,2.3-.66,3.29-1v-2.3a38.85,38.85,0,0,1-6.58,1.32,46.63,46.63,0,0,1-6.58-1.32v2.3c1.32.33,2.3.66,3.62,1Zm-24.17-10.86.13-.31a14.82,14.82,0,0,0-2.28-3,17.32,17.32,0,0,0-2.32-2h0a13.29,13.29,0,0,0,4.47,5.27Zm1.38.08c6.5,2.16,13,4.29,19.82,5.84-1.65-3.29-4.61-4.94-7.9-6.25a36,36,0,0,0-5.6-1.65c-2.94-.66-5.56-1-8.18-1.31a9.82,9.82,0,0,1,1.85,3.37Zm21.47,6.17a22.65,22.65,0,0,0,4.28.66,19.26,19.26,0,0,0,4.28-.66c.66-3,2.63-4.61,5.27-6.25,2.3-1.65,4.61-2.3,7.24-3.29H244.9c2.63,1,5.27,1.65,7.57,3.29,2.63,1.65,4.61,3.29,4.94,6.25Z" transform="translate(-5.92 -10.3)"/><path class="a" d="M221.23,189.17h81V165.93h-81v23.24Zm59.18-18.91,1.11,4.22,4.07-.18.75,0-4,2.88,1.42,4.13.27.78-.62-.53-3.19-2.71L277,181.53l-.62.53.26-.78,1.42-4.13-3.4-2.44-.61-.44.76,0,4.06.18,1.1-4.22.22-.84.21.84Zm-16.14,0,1.1,4.22,4.06-.18.76,0-4,2.88,1.42,4.13.27.78-.62-.53L264,178.82l-3.19,2.71-.62.53.27-.78,1.42-4.13-3.4-2.44-.62-.44.76,0,4.06.18,1.11-4.22.22-.84.22.84Zm-16.15,0,1.1,4.22,4.07-.18.76,0-4,2.88,1.42,4.13.27.78-.63-.53-3.19-2.71-3.2,2.71-.62.53.27-.78,1.42-4.13-3.4-2.44-.62-.44.76,0,4.07.18,1.11-4.22.22-.84.21.84Zm-16.14,0,1.11,4.22,4.06-.18.75,0-4,2.88,1.42,4.13.27.78-.62-.53-3.19-2.71-3.19,2.71-.63.53.27-.78,1.42-4.13-3.4-2.44-.61-.44.76,0,4.06.18,1.1-4.22.22-.84.21.84Zm61.57,8.87c-.91-.5-1.93-1-1.93-2.06s.86-1.76,2.18-1.76a7,7,0,0,1,2.53.5v-1.29a11.08,11.08,0,0,0-2.41-.3c-2.13,0-3.72,1-3.72,3,0,1.76,1.42,2.4,2.5,3l1,.56c1,.54,1.92,1,1.92,2.33s-1.07,2-2.49,2a7.47,7.47,0,0,1-2.81-.61v1.34a12,12,0,0,0,2.66.35c2.16,0,4.07-.84,4.07-3.25,0-1.83-1.27-2.53-2.45-3.18l-1.07-.59Z" transform="translate(-5.92 -10.3)"/></svg>