<svg xmlns="http://www.w3.org/2000/svg" viewBox="0 0 147.34 182.1"><defs><style>.a,.b{fill:#7c7b7b;}.b{fill-rule:evenodd;}.c,.d,.e,.f,.g,.h,.i,.j,.k,.l,.m,.n,.o,.p,.q,.r,.s,.t{fill:none;stroke:#7c7b7b;stroke-miterlimit:3.86;}.c{stroke-width:2.05px;}.d{stroke-width:2.4px;}.e{stroke-width:2.74px;}.f{stroke-width:3.08px;}.g{stroke-width:3.42px;}.h{stroke-width:3.76px;}.i{stroke-width:4.11px;}.j{stroke-width:4.62px;}.k{stroke-width:5.13px;}.l{stroke-width:5.83px;}.m{stroke-width:6.5px;}.n{stroke-width:6.84px;}.o{stroke-width:7.53px;}.p{stroke-width:8.21px;}.q{stroke-width:8.56px;}.r{stroke-width:8.9px;}.s{stroke-width:9.24px;}.t{stroke-width:9.58px;}</style></defs><title>5_DGPH</title><path class="a" d="M10.31,173.77a5.64,5.64,0,0,0-1.25-.12c-2.1,0-3.06,1-3.06,3.11v.62H4.66v1.53H6V185H8V178.9H9.76v-1.53H8v-.65c0-1,.39-1.47,1.25-1.47a3,3,0,0,1,1,.14l.14-1.62Z" transform="translate(-4.66 -6.85)"/><path class="b" d="M17.18,175a1.07,1.07,0,1,0-1.07,1.07A1.06,1.06,0,0,0,17.18,175Zm-3.12,0A1.07,1.07,0,1,0,13,176.1,1.06,1.06,0,0,0,14.06,175ZM18,185v-7.68H16v3.71c0,1.34-.77,2.49-1.78,2.49-.74,0-1-.48-1-1.28v-4.91h-2v5.39c0,1.34.56,2.46,2.29,2.46a2.79,2.79,0,0,0,2.61-1.54l0,0a8.38,8.38,0,0,0-.09,1.36Z" transform="translate(-4.66 -6.85)"/><path class="a" d="M24.56,177.2a2.33,2.33,0,0,0-2.44,1.72h0a10.17,10.17,0,0,0,.14-1.54H20.36V185h2v-3.14c0-2.13.71-3.06,2.13-2.77l.09-1.95Z" transform="translate(-4.66 -6.85)"/><path class="b" d="M37.49,177.79c0-2-1.41-3.23-4-3.23-1,0-1.95,0-2.8.06V185h2v-3.68a5.49,5.49,0,0,0,.68,0c2.53,0,4.08-1.59,4.08-3.62Zm-2.09.12c0,1.13-.85,1.81-2.09,1.82a3.92,3.92,0,0,1-.59,0v-3.48c.23,0,.46,0,.71,0,1.36,0,2,.66,2,1.71Z" transform="translate(-4.66 -6.85)"/><path class="a" d="M45.83,185v-5.39c0-1.34-.56-2.46-2.29-2.46A2.71,2.71,0,0,0,41,178.64l0,0a7.51,7.51,0,0,0,.14-1.56v-3.29h-2V185h2v-3.71c0-1.34.79-2.49,1.79-2.49.73,0,.94.48.94,1.28V185Z" transform="translate(-4.66 -6.85)"/><path class="b" d="M55.17,181.06c0-2.64-1.41-3.85-3.58-3.85a3.86,3.86,0,0,0-3.92,4.13c0,2.73,1.41,3.86,3.58,3.86a3.88,3.88,0,0,0,3.92-4.14Zm-2,.11c0,1.56-.74,2.35-1.72,2.35-1.14,0-1.71-.8-1.71-2.38s.87-2.26,1.75-2.26c1.16,0,1.68.8,1.68,2.29Z" transform="translate(-4.66 -6.85)"/><path class="a" d="M61.2,185v-1.59a3.78,3.78,0,0,1-1,.12c-.68,0-.91-.28-.91-1.27V178.9H61.2v-1.53H59.33v-2.89l-2,.53v2.36H56v1.53h1.33v3.89c0,1.79.53,2.41,2.22,2.41a6.83,6.83,0,0,0,1.61-.2Z" transform="translate(-4.66 -6.85)"/><path class="b" d="M69.94,181.06c0-2.64-1.41-3.85-3.58-3.85a3.86,3.86,0,0,0-3.92,4.13c0,2.73,1.41,3.86,3.58,3.86a3.88,3.88,0,0,0,3.92-4.14Zm-2,.11c0,1.56-.74,2.35-1.72,2.35-1.14,0-1.71-.8-1.71-2.38s.87-2.26,1.75-2.26c1.16,0,1.68.8,1.68,2.29Z" transform="translate(-4.66 -6.85)"/><path class="b" d="M78.77,185.91c0-1.48-1-2.26-2.63-2.26H74.95c-.9,0-1.19-.12-1.19-.48a.56.56,0,0,1,.37-.49,3.75,3.75,0,0,0,.76.06c2.13,0,3.32-1.11,3.32-2.81a1.4,1.4,0,0,0-.39-1h1v-1.54h-2.6a6,6,0,0,0-1.34-.17c-2.26,0-3.48,1.36-3.48,3a2.29,2.29,0,0,0,1.14,2.15,1.46,1.46,0,0,0-.91,1.33,1.27,1.27,0,0,0,.76,1.17,2.18,2.18,0,0,0-1.17,1.85c0,1.5,1.25,2.27,3.29,2.27,2.56,0,4.22-1.38,4.22-3ZM76.32,180a1.51,1.51,0,0,1-3,0,1.37,1.37,0,0,1,1.51-1.39A1.33,1.33,0,0,1,76.32,180Zm.49,6.13c0,.73-.68,1.27-2,1.27-1,0-1.64-.42-1.64-1.13a1.26,1.26,0,0,1,.7-1.1h1.7c.85,0,1.22.4,1.22,1Z" transform="translate(-4.66 -6.85)"/><path class="a" d="M84.8,177.2a2.33,2.33,0,0,0-2.44,1.72h0a10.18,10.18,0,0,0,.14-1.54H80.6V185h2v-3.14c0-2.13.71-3.06,2.13-2.77l.09-1.95Z" transform="translate(-4.66 -6.85)"/><path class="b" d="M92,185c0-.63,0-1.36,0-2v-3.2c0-1.67-.7-2.67-3.17-2.67a8.39,8.39,0,0,0-2.75.48l.17,1.65a5,5,0,0,1,2.27-.6c1.11,0,1.5.42,1.5,1.22v.42c-2.61,0-4.43,1-4.43,2.81a2,2,0,0,0,2.19,2,2.6,2.6,0,0,0,2.46-1.47l0,0a8.76,8.76,0,0,0-.08,1.3Zm-2-3.21a1.77,1.77,0,0,1-1.64,1.85.81.81,0,0,1-.91-.82c0-.62.46-1.22,2.55-1.22v.19Z" transform="translate(-4.66 -6.85)"/><path class="b" d="M101.41,180.8c0-2.27-1-3.58-2.81-3.58a2.51,2.51,0,0,0-2.41,1.44h0a9.21,9.21,0,0,0,.08-1.28H94.4v11.4h2V185.1a6.66,6.66,0,0,0,1,.06c2.66,0,4-1.68,4-4.36Zm-2.07.22c0,1.9-.82,2.61-1.93,2.61a3.5,3.5,0,0,1-1-.14v-2.13c0-1.31.62-2.52,1.65-2.52s1.31.74,1.31,2.18Z" transform="translate(-4.66 -6.85)"/><path class="a" d="M110,185v-5.39c0-1.34-.56-2.46-2.29-2.46a2.71,2.71,0,0,0-2.52,1.44l0,0a7.52,7.52,0,0,0,.14-1.56v-3.29h-2V185h2v-3.71c0-1.34.79-2.49,1.79-2.49.73,0,.94.48.94,1.28V185Z" transform="translate(-4.66 -6.85)"/><path class="b" d="M114.57,175.18a1.23,1.23,0,1,0-1.24,1.21,1.22,1.22,0,0,0,1.24-1.21Zm-.25,9.87v-7.68h-2V185Z" transform="translate(-4.66 -6.85)"/><path class="b" d="M123,180.63c0-1.9-1-3.43-3.23-3.43s-3.6,1.73-3.6,4.08c0,2.7,1.36,3.92,3.8,3.92a7.63,7.63,0,0,0,2.75-.49l-.19-1.53a5.5,5.5,0,0,1-2.24.48,1.86,1.86,0,0,1-2.12-2.13h4.76a6.39,6.39,0,0,0,.06-.9Zm-2-.45H118.2a1.54,1.54,0,0,1,1.5-1.53,1.31,1.31,0,0,1,1.33,1.53Z" transform="translate(-4.66 -6.85)"/><path class="b" d="M135.79,180.63c0-1.9-1-3.43-3.23-3.43s-3.6,1.73-3.6,4.08c0,2.7,1.36,3.92,3.8,3.92a7.63,7.63,0,0,0,2.75-.49l-.19-1.53a5.5,5.5,0,0,1-2.24.48,1.86,1.86,0,0,1-2.12-2.13h4.76a6.39,6.39,0,0,0,.06-.9Zm-2-.45H131a1.54,1.54,0,0,1,1.5-1.53,1.31,1.31,0,0,1,1.33,1.53Z" transform="translate(-4.66 -6.85)"/><path class="a" d="M138.66,182.7a1.27,1.27,0,0,0,0,2.53,1.27,1.27,0,0,0,0-2.53Z" transform="translate(-4.66 -6.85)"/><path class="a" d="M149.26,174.62h-2.05l-2.05,6a19.33,19.33,0,0,0-.62,2.16h0c-.19-.76-.42-1.45-.62-2l-2-6.1h-2.19L143.3,185h2.32l3.65-10.43Z" transform="translate(-4.66 -6.85)"/><path class="a" d="M150.22,182.7a1.27,1.27,0,0,0,0,2.53,1.27,1.27,0,0,0,0-2.53Z" transform="translate(-4.66 -6.85)"/><path class="b" d="M14.27,164.21c0-3.66-2.05-5.1-5.28-5.1-1.28,0-2.55,0-3.37.08v10.4c.88,0,1.82.08,2.9.08,3.4,0,5.75-1.87,5.75-5.45Zm-2.16.15c0,2.47-1.42,3.58-3.38,3.58a7.32,7.32,0,0,1-1.1-.08v-7c.32,0,.76,0,1.22,0,2.38,0,3.26,1.33,3.26,3.57Z" transform="translate(-4.66 -6.85)"/><path class="b" d="M22.19,165.18c0-1.9-1-3.43-3.23-3.43s-3.6,1.73-3.6,4.08c0,2.7,1.36,3.92,3.8,3.92a7.63,7.63,0,0,0,2.75-.49l-.19-1.53a5.5,5.5,0,0,1-2.24.48,1.86,1.86,0,0,1-2.12-2.13h4.76a6.4,6.4,0,0,0,.06-.9Zm-2-.45H17.4a1.54,1.54,0,0,1,1.5-1.53,1.31,1.31,0,0,1,1.33,1.53Z" transform="translate(-4.66 -6.85)"/><path class="a" d="M30.51,169.6v-7.68h-2v3.71c0,1.34-.77,2.49-1.78,2.49-.74,0-1-.48-1-1.28v-4.91h-2v5.39c0,1.34.56,2.46,2.29,2.46a2.79,2.79,0,0,0,2.61-1.54l0,0a8.38,8.38,0,0,0-.09,1.36Z" transform="translate(-4.66 -6.85)"/><path class="a" d="M36.83,169.55V168a3.78,3.78,0,0,1-1,.12c-.68,0-.91-.28-.91-1.27v-3.37h1.87v-1.53H35V159l-2,.53v2.36H31.67v1.53H33v3.89c0,1.79.53,2.41,2.22,2.41a6.84,6.84,0,0,0,1.61-.2Z" transform="translate(-4.66 -6.85)"/><path class="a" d="M43.19,167.22c0-2.49-3.15-1.93-3.15-3.18,0-.48.37-.79,1.14-.79a5.35,5.35,0,0,1,1.42.2l.06-1.56a8.84,8.84,0,0,0-1.41-.14c-2.16,0-3.26,1.11-3.26,2.46,0,2.61,3.11,1.84,3.11,3.2,0,.51-.49.82-1.25.82A6.77,6.77,0,0,1,38.2,168l0,1.62a10.54,10.54,0,0,0,1.61.14c2.1,0,3.43-1,3.43-2.53Z" transform="translate(-4.66 -6.85)"/><path class="a" d="M49.9,169.38l-.15-1.68a3.45,3.45,0,0,1-1.51.32c-1.31,0-1.82-.9-1.82-2.21s.63-2.38,1.88-2.38a4.05,4.05,0,0,1,1.39.28l.2-1.71a6,6,0,0,0-1.58-.22c-2.72,0-4,1.84-4,4.23,0,2.61,1.33,3.72,3.46,3.72a6.12,6.12,0,0,0,2.1-.36Z" transform="translate(-4.66 -6.85)"/><path class="a" d="M58.11,169.6v-5.39c0-1.34-.56-2.46-2.29-2.46a2.71,2.71,0,0,0-2.52,1.44l0,0a7.52,7.52,0,0,0,.14-1.56v-3.29h-2V169.6h2v-3.71c0-1.34.79-2.49,1.79-2.49.73,0,.94.48.94,1.28v4.91Z" transform="translate(-4.66 -6.85)"/><path class="b" d="M66.54,165.18c0-1.9-1-3.43-3.23-3.43s-3.6,1.73-3.6,4.08c0,2.7,1.36,3.92,3.8,3.92a7.63,7.63,0,0,0,2.75-.49l-.19-1.53a5.5,5.5,0,0,1-2.24.48,1.86,1.86,0,0,1-2.12-2.13h4.76a6.39,6.39,0,0,0,.06-.9Zm-2-.45H61.75a1.54,1.54,0,0,1,1.5-1.53,1.31,1.31,0,0,1,1.33,1.53Z" transform="translate(-4.66 -6.85)"/><path class="a" d="M79.84,159.47a10.63,10.63,0,0,0-3-.45c-3.62,0-5.84,2.33-5.84,5.61s2,5.13,5.27,5.13a9.84,9.84,0,0,0,3.57-.65v-5h-2v3.63a4.45,4.45,0,0,1-1.33.19c-2.12,0-3.32-1.3-3.32-3.51a3.34,3.34,0,0,1,3.54-3.63,7.72,7.72,0,0,1,2.77.53l.31-1.87Z" transform="translate(-4.66 -6.85)"/><path class="b" d="M88.27,165.18c0-1.9-1-3.43-3.23-3.43s-3.6,1.73-3.6,4.08c0,2.7,1.36,3.92,3.8,3.92a7.63,7.63,0,0,0,2.75-.49l-.19-1.53a5.5,5.5,0,0,1-2.24.48,1.86,1.86,0,0,1-2.12-2.13h4.76a6.4,6.4,0,0,0,.06-.9Zm-2-.45H83.48A1.54,1.54,0,0,1,85,163.2a1.31,1.31,0,0,1,1.33,1.53Z" transform="translate(-4.66 -6.85)"/><path class="a" d="M94.68,167.22c0-2.49-3.15-1.93-3.15-3.18,0-.48.37-.79,1.14-.79a5.35,5.35,0,0,1,1.42.2l.06-1.56a8.84,8.84,0,0,0-1.41-.14c-2.16,0-3.26,1.11-3.26,2.46,0,2.61,3.11,1.84,3.11,3.2,0,.51-.49.82-1.25.82a6.77,6.77,0,0,1-1.65-.23l0,1.62a10.54,10.54,0,0,0,1.61.14c2.1,0,3.43-1,3.43-2.53Z" transform="translate(-4.66 -6.85)"/><path class="b" d="M102.65,165.18c0-1.9-1-3.43-3.23-3.43s-3.6,1.73-3.6,4.08c0,2.7,1.36,3.92,3.8,3.92a7.63,7.63,0,0,0,2.75-.49l-.19-1.53a5.5,5.5,0,0,1-2.24.48,1.86,1.86,0,0,1-2.12-2.13h4.76a6.4,6.4,0,0,0,.06-.9Zm-2-.45H97.86a1.54,1.54,0,0,1,1.5-1.53,1.31,1.31,0,0,1,1.33,1.53Z" transform="translate(-4.66 -6.85)"/><polygon class="a" points="101.62 162.75 101.62 151.47 99.64 151.47 99.64 162.75 101.62 162.75 101.62 162.75"/><polygon class="a" points="105.72 162.75 105.72 151.47 103.74 151.47 103.74 162.75 105.72 162.75 105.72 162.75"/><path class="a" d="M117.26,167.22c0-2.49-3.15-1.93-3.15-3.18,0-.48.37-.79,1.14-.79a5.35,5.35,0,0,1,1.42.2l.06-1.56a8.84,8.84,0,0,0-1.41-.14c-2.16,0-3.26,1.11-3.26,2.46,0,2.61,3.11,1.84,3.11,3.2,0,.51-.49.82-1.25.82a6.77,6.77,0,0,1-1.65-.23l0,1.62a10.54,10.54,0,0,0,1.61.14c2.1,0,3.43-1,3.43-2.53Z" transform="translate(-4.66 -6.85)"/><path class="a" d="M124,169.38l-.15-1.68a3.46,3.46,0,0,1-1.51.32c-1.31,0-1.82-.9-1.82-2.21s.63-2.38,1.89-2.38a4,4,0,0,1,1.39.28L124,162a6,6,0,0,0-1.58-.22c-2.72,0-4,1.84-4,4.23,0,2.61,1.33,3.72,3.46,3.72a6.12,6.12,0,0,0,2.1-.36Z" transform="translate(-4.66 -6.85)"/><path class="a" d="M132.18,169.6v-5.39c0-1.34-.56-2.46-2.29-2.46a2.71,2.71,0,0,0-2.52,1.44l0,0a7.52,7.52,0,0,0,.14-1.56v-3.29h-2V169.6h2v-3.71c0-1.34.79-2.49,1.79-2.49.73,0,.94.48.94,1.28v4.91Z" transform="translate(-4.66 -6.85)"/><path class="b" d="M140.3,169.6c0-.63,0-1.36,0-2v-3.2c0-1.67-.7-2.67-3.17-2.67a8.39,8.39,0,0,0-2.75.48l.17,1.65a5,5,0,0,1,2.27-.6c1.11,0,1.5.42,1.5,1.22v.42c-2.61,0-4.43,1-4.43,2.81a2,2,0,0,0,2.19,2,2.6,2.6,0,0,0,2.46-1.47l0,0a8.74,8.74,0,0,0-.08,1.3Zm-2-3.21a1.77,1.77,0,0,1-1.64,1.85.81.81,0,0,1-.91-.82c0-.62.46-1.22,2.55-1.22v.19Z" transform="translate(-4.66 -6.85)"/><path class="a" d="M147.13,158.32a5.64,5.64,0,0,0-1.25-.12c-2.1,0-3.06,1-3.06,3.11v.62h-1.34v1.53h1.34v6.15h2v-6.15h1.79v-1.53h-1.79v-.65c0-1,.39-1.47,1.25-1.47a3,3,0,0,1,1,.14l.14-1.62Z" transform="translate(-4.66 -6.85)"/><path class="a" d="M151.67,169.55V168a3.78,3.78,0,0,1-1,.12c-.68,0-.91-.28-.91-1.27v-3.37h1.87v-1.53H149.8V159l-2,.53v2.36h-1.31v1.53h1.33v3.89c0,1.79.53,2.41,2.22,2.41a6.84,6.84,0,0,0,1.61-.2Z" transform="translate(-4.66 -6.85)"/><line class="c" x1="0.04" y1="47.03" x2="146.92" y2="47.03"/><line class="d" x1="0.04" y1="52.71" x2="146.92" y2="52.71"/><line class="e" x1="0.04" y1="58.43" x2="146.92" y2="58.43"/><line class="f" x1="0.04" y1="63.93" x2="146.92" y2="63.93"/><line class="g" x1="0.04" y1="69.65" x2="146.92" y2="69.65"/><line class="h" x1="0.04" y1="75.08" x2="146.92" y2="75.08"/><line class="i" x1="0.04" y1="80.72" x2="146.92" y2="80.72"/><line class="j" x1="0.04" y1="86.14" x2="146.92" y2="86.14"/><line class="k" x1="0.04" y1="91.86" x2="146.92" y2="91.86"/><line class="l" x1="0.04" y1="97.18" x2="146.92" y2="97.18"/><line class="m" x1="0.04" y1="102.68" x2="146.92" y2="102.68"/><line class="n" x1="0.04" y1="108.33" x2="146.92" y2="108.33"/><line class="o" x1="0.04" y1="113.8" x2="146.92" y2="113.8"/><line class="p" x1="0.04" y1="119.36" x2="146.92" y2="119.36"/><line class="q" x1="0.04" y1="125.24" x2="146.92" y2="125.24"/><line class="r" x1="0.04" y1="131" x2="146.92" y2="131"/><line class="s" x1="0.04" y1="136.71" x2="146.92" y2="136.71"/><line class="t" x1="0.04" y1="142.74" x2="146.92" y2="142.74"/><path class="a" d="M130.41,28.57a18.32,18.32,0,0,1,1.26-2.71c1.15-2.22,2.87-4.44,6.28-4.47,2.88,0,5.39.55,6.84,1.8a5.4,5.4,0,0,1,2.14,3.54c.08.79,0,16.61,0,18.22s.51,1.59,1,1.76c.31.1,1.77.09,2.84.25.66.1,1.19-.08,1.2.51s-1.08.36-1.53.35-3.71-.15-6.33-.13c-2.88,0-6,.23-6.44.24-.63,0-1,0-1-.34,0-.6.59-.53,1.35-.53s2.45.09,3.05-.84.34-1.61.34-2.71-.08-15.26-.08-16.7-.77-4.75-3.73-4.49c-2.8.25-4,1.44-5.76,5.43-1.69,3.77-1.27,3-1.33,5s-.12,10.73-.12,11.83.34,1.84,1.87,2.1,3.45,0,3.3.85c-.06.34-.68.36-1.19.36s-4.75-.25-7.37-.25-6.61.34-7,.34-.72-.1-.69-.51.51-.2,1.78-.31,3.41-.28,3.66-1.47a12.41,12.41,0,0,0,.25-2.88V11.05a2,2,0,0,0-2.2-2.2c-1.36,0-3.73.25-3.73-.42s1.44-.59,2.29-.68,3.39,0,5.34-.17,2.53-.85,3.41-.7c.67.11.49.7.41,1.3a14.4,14.4,0,0,0-.08,2c0,.85,0,18.36,0,18.36Z" transform="translate(-4.66 -6.85)"/><path class="a" d="M68.21,8.17c-6.44,0-11,6.86-11,18.39C57.19,39,60.07,48,67.45,48s8.73-6.1,8.81-7,0-9.83,0-10.76c0-1.21-.6-1.5-1.69-1.53-.94,0-3.48-.24-4.15-.25-.41,0-.6-.08-.58-.54s.46-.48,1-.48,7.8.25,9.66.25,8.55-.25,9.07-.25c1.1,0,.93.25.93.68s-.76.33-1.36.33-3,.17-4.32.19c-1,0-1.19.34-1.19,1.36s0,16.19,0,16.85.17,1.33-.42,1.36-.74-.63-.78-1.34.32-2.6-1.76-3.24-3.9,1.27-5,2.29A11.08,11.08,0,0,1,67.78,49c-4.32,0-13.05-1.86-16.7-11A23.49,23.49,0,0,1,55,13.68c5.25-6,10.09-6.43,13.05-6.44A11.94,11.94,0,0,1,75.65,10c1.77,1.45,2.39,2.88,3.07,2.88S81.6,8.52,82,7.75s.67-.36.68.51c0,.34-.34,6.52-.34,8.73s.25,7.29.25,7.29.06.69-.59.68c-.34,0-.59-.51-.68-1.27s-.85-7.12-4.49-10.85S71,8.17,68.21,8.17Z" transform="translate(-4.66 -6.85)"/><path class="b" d="M20.92,46.39a3.72,3.72,0,0,0,2.8.68c4.46,0,7.88,0,10.76-1.86,4.42-2.91,5.68-10.94,5.68-18,0-6.27-.93-12.6-4.57-15.76-3.12-2.71-6.71-2.79-11.86-2.8A6,6,0,0,0,21,9q-.67.45-.67,2V42.1c0,1,0,3.86.57,4.29Zm-15.51.68c2.12-.18,6.49-.29,7.12-.85s.68-2.45.68-4.76V14.27c0-2.23.19-4.11-.42-4.75s-5.17-.69-7.29-.85c-.26,0-.85.11-.84-.56s.84-.5.84-.5C5,7.58,11.26,8,14.73,8S24,7.62,24,7.62c5.19,0,9.89.5,13.47,2.34,6.47,3.29,10.68,9.67,10.68,18.14a26.06,26.06,0,0,1-2.29,9.4,15.38,15.38,0,0,1-5.59,6.78,16.86,16.86,0,0,1-4.66,2.54C32.66,48,29,48.09,24.71,48.09c0,0-6.16-.2-9-.24-3.39-.05-9.84.07-9.84.07-.43,0-1.15.25-1.16-.4s.36-.42.73-.45Z" transform="translate(-4.66 -6.85)"/><path class="b" d="M100.58,9.7c0,.68.17,17.2.17,18s.17,1.19,1.1,1.19h5.51c1.19,0,4.15-.34,5.17-1s3.73-2.54,3.73-9.41S112.87,10,111,9.19s-7.46-.34-8.39-.34-2,.17-2,.85ZM85.92,7.83c.68,0,6.53.25,10,.25s8.48-.25,10.59-.34,7.89-.13,11.95,2.71c4.24,3,7.41,8.76,2.54,14.49-5.25,6.19-17.72,4.94-18.73,4.94s-1.44.13-1.44.55,0,13.49,0,14.5,1.08,1.25,3.14,1.61a32.67,32.67,0,0,0,5.59.25c.76,0,1.37,0,1.37.59s-.18.6-1.12.6-8.39-.34-12.12-.34-11.53.51-12.12.51-1,0-1-.56.45-.55,1.12-.55a29.89,29.89,0,0,0,4.32-.34c2.63-.34,3.48-.76,3.48-1.78s-.17-32.88-.17-34.07,0-1.52-2.4-1.68-4-.27-5.05-.27-1.21-.15-1.19-.59.51-.51,1.19-.51Z" transform="translate(-4.66 -6.85)"/></svg>