<?xml version="1.0" encoding="UTF-8"?>
<svg width="121px" height="19px" viewBox="0 0 121 19" version="1.1" xmlns="http://www.w3.org/2000/svg" xmlns:xlink="http://www.w3.org/1999/xlink">
    <!-- Generator: Sketch 46.2 (44496) - http://www.bohemiancoding.com/sketch -->
    <title>13. FREELENS_cmyk</title>
    <desc>Created with Sketch.</desc>
    <defs>
        <polygon id="path-1" points="0.0371491228 18.6716563 0.0371491228 0.47975 11.22275 0.47975 11.22275 18.6716563"></polygon>
    </defs>
    <g id="Index" stroke="none" stroke-width="1" fill="none" fill-rule="evenodd">
        <g id="start" transform="translate(-831.000000, -3022.000000)">
            <g id="Group-6" transform="translate(282.000000, 2991.000000)">
                <g id="13.-FREELENS_cmyk" transform="translate(549.000000, 31.000000)">
                    <g id="Group-3">
                        <mask id="mask-2" fill="white">
                            <use xlink:href="#path-1"></use>
                        </mask>
                        <g id="Clip-2"></g>
                        <polyline id="Fill-1" fill="#004069" mask="url(#mask-2)" points="4.6145402 4.08559375 4.6145402 8.101125 10.4537632 8.101125 10.4537632 11.4611563 4.6145402 11.4611563 4.6145402 18.6716563 0 18.6716563 0 0.47975 11.22275 0.47975 11.22275 4.08559375 4.6145402 4.08559375"></polyline>
                    </g>
                    <path d="M19.7163156,4.1282239 L17.9403813,4.1282239 L17.9403813,8.76734966 L19.8828094,8.76734966 C21.7419906,8.76734966 22.6299577,7.92149959 22.6299577,6.4474902 C22.6299577,4.91950299 21.7419906,4.1282239 19.7163156,4.1282239 Z M23.685022,19 L20.4100399,13.8157577 C19.244583,11.9597515 18.9115954,11.8233241 18.1623731,11.8233241 L17.9403813,11.8233241 L17.9403813,19 L13.4444444,19 L13.4444444,0.826086957 L19.9938053,0.826086957 C24.4897422,0.826086957 27.0426477,2.68149999 27.0426477,6.17463534 C27.0426477,9.14934646 25.0724706,10.6227627 23.0190466,11.1139014 L23.0190466,11.1684724 C23.5740261,11.5510624 24.2677504,12.3144628 25.2667134,13.8703287 L28.5694444,19 L23.685022,19 L23.685022,19 Z" id="Fill-4" fill="#004069"></path>
                    <polyline id="Fill-5" fill="#004069" points="30.25 19 30.25 0.826086957 40.9842521 0.826086957 40.9842521 4.42836425 34.5653921 4.42836425 34.5653921 7.97607057 40.2291611 7.97607057 40.2291611 11.3327785 34.5653921 11.3327785 34.5653921 15.3983159 41.1736111 15.3983159 41.1736111 19 30.25 19"></polyline>
                    <polyline id="Fill-6" fill="#004069" points="45.375 19 45.375 0.826086957 56.1098282 0.826086957 56.1098282 4.42836425 49.6906237 4.42836425 49.6906237 7.97607057 55.3546967 7.97607057 55.3546967 11.3327785 49.6906237 11.3327785 49.6906237 15.3983159 56.2986111 15.3983159 56.2986111 19 45.375 19"></polyline>
                    <polyline id="Fill-7" fill="#004069" points="60.5 19 60.5 0.826086957 64.8851181 0.826086957 64.8851181 15.4807655 71.4236111 15.4807655 71.4236111 19 60.5 19"></polyline>
                    <polyline id="Fill-8" fill="#004069" points="74.7847222 19 74.7847222 0.826086957 85.5195504 0.826086957 85.5195504 4.42836425 79.100346 4.42836425 79.100346 7.97607057 84.7644189 7.97607057 84.7644189 11.3327785 79.100346 11.3327785 79.100346 15.3983159 85.7083333 15.3983159 85.7083333 19 74.7847222 19"></polyline>
                    <path d="M101.729846,19 L95.0472184,9.8314836 C93.8624509,8.22163994 93.1857912,7.10293502 93.1300158,6.99319991 L93.0736275,6.99319991 C93.1012087,7.07505637 93.1857912,8.30290323 93.1857912,9.53134326 L93.1857912,19 L89.0694444,19 L89.0694444,0.826086957 L93.6657047,0.826086957 L99.7556424,9.28577389 C100.968604,10.977474 101.701652,12.2877705 101.815042,12.4787689 L101.870817,12.4787689 C101.842623,12.2331995 101.75804,10.922903 101.75804,9.50405777 L101.75804,0.826086957 L105.875,0.826086957 L105.875,19 L101.729846,19" id="Fill-9" fill="#004069"></path>
                    <path d="M114.215585,19 C111.181304,19 109.222601,17.8705582 108.395833,17.2103705 L110.215443,14.1261026 C110.629726,14.4008317 112.06383,15.4470766 114.077091,15.4470766 C115.815163,15.4470766 116.724668,14.6767578 116.724668,13.6305129 C116.724668,12.1988092 114.822322,11.8678175 112.671166,10.7940398 C110.408495,9.66519657 108.836497,8.23349294 108.836497,5.23182334 C108.836497,2.03802293 111.512251,0 114.960216,0 C118.049055,0 119.676212,0.963646673 120.503579,1.56936744 L118.766107,4.65363533 C118.131792,4.26817666 116.697688,3.55232485 115.235406,3.55232485 C113.85646,3.55232485 113.056671,4.10298009 113.056671,5.20429057 C113.056671,6.49833039 114.490775,6.8562563 116.449478,7.73790323 C118.876423,8.81168095 121,10.0512538 121,13.382718 C121,16.8524446 118.462739,19 114.215585,19" id="Fill-10" fill="#004069"></path>
                </g>
            </g>
        </g>
    </g>
</svg>