<?xml version="1.0" encoding="UTF-8"?>
<svg width="90px" height="30px" viewBox="0 0 90 30" version="1.1" xmlns="http://www.w3.org/2000/svg" xmlns:xlink="http://www.w3.org/1999/xlink">
    <!-- Generator: Sketch 46.2 (44496) - http://www.bohemiancoding.com/sketch -->
    <title>14. dpa_Logo</title>
    <desc>Created with Sketch.</desc>
    <defs>
        <polygon id="path-1" points="29.3425 29.95 0 29.95 0 15.1833333 0 0.416666667 29.3425 0.416666667 29.3425 29.95"></polygon>
    </defs>
    <g id="Index" stroke="none" stroke-width="1" fill="none" fill-rule="evenodd">
        <g id="start" transform="translate(-1041.000000, -3017.000000)">
            <g id="Group-6" transform="translate(282.000000, 2991.000000)">
                <g id="14.-dpa_Logo" transform="translate(759.000000, 26.000000)">
                    <g id="Group-4">
                        <mask id="mask-2" fill="white">
                            <use xlink:href="#path-1"></use>
                        </mask>
                        <g id="Clip-2"></g>
                        <path d="M9.48666667,21.2225 L13.1758333,21.2225 L13.1758333,0.416666667 L9.48666667,0.416666667 L9.48666667,10.2791667 L9.43333333,10.2791667 C8.61666667,9.3225 7.24583333,8.7825 5.9025,8.7825 C2.18666667,8.7825 0,11.9475 0,15.1375 C0,18.4 2.16166667,21.6141667 5.955,21.6141667 C7.3,21.6141667 8.66916667,21.0741667 9.43333333,20.0933333 L9.48666667,20.0933333 L9.48666667,21.2225 Z M6.79833333,18.5716667 C4.90083333,18.5716667 3.74166667,16.8066667 3.74166667,15.1866667 C3.74166667,13.5666667 4.90083333,11.825 6.79833333,11.825 C8.69583333,11.825 9.855,13.5666667 9.855,15.1866667 C9.855,16.8066667 8.69583333,18.5716667 6.79833333,18.5716667 L6.79833333,18.5716667 Z" id="Fill-1" fill="#1A1919" mask="url(#mask-2)"></path>
                        <path d="M19.8566667,9.19583333 L16.1675,9.19583333 L16.1675,30 L19.8566667,30 L19.8566667,20.1375 L19.91,20.1375 C20.7258333,21.0941667 22.0966667,21.6341667 23.44,21.6341667 C27.155,21.6341667 29.3425,18.4691667 29.3425,15.28 C29.3425,12.0166667 27.1816667,8.8025 23.3875,8.8025 C22.0433333,8.8025 20.6741667,9.3425 19.91,10.3241667 L19.8566667,10.3241667 L19.8566667,9.19583333 Z M22.545,11.845 C24.4416667,11.845 25.6016667,13.6116667 25.6016667,15.2308333 C25.6016667,16.8508333 24.4416667,18.5925 22.545,18.5925 C20.6466667,18.5925 19.4883333,16.8508333 19.4883333,15.2308333 C19.4883333,13.6116667 20.6466667,11.845 22.545,11.845 L22.545,11.845 Z" id="Fill-3" fill="#1A1919" mask="url(#mask-2)"></path>
                    </g>
                    <path d="M44.6408333,9.20583333 L41.005,9.20583333 L41.005,10.3341667 C40.1091667,9.35333333 38.7391667,8.81333333 37.395,8.81333333 C33.68,8.81333333 31.4925,11.9783333 31.4925,15.1675 C31.4925,18.4308333 33.6541667,21.6441667 37.4483333,21.6441667 C38.7925,21.6441667 40.1616667,21.105 40.9533333,20.1483333 L41.005,20.1483333 L41.005,21.2516667 L44.6408333,21.2516667 L44.6408333,9.20583333 Z M38.2908333,18.6025 C36.3941667,18.6025 35.2341667,16.8358333 35.2341667,15.2166667 C35.2341667,13.5975 36.3941667,11.8558333 38.2908333,11.8558333 C40.1891667,11.8558333 41.3741667,13.5975 41.3741667,15.2166667 C41.3741667,16.8358333 40.1891667,18.6025 38.2908333,18.6025 L38.2908333,18.6025 Z" id="Fill-5" fill="#1A1919"></path>
                    <path d="M56.0458333,18.7925 C58.0366667,18.7925 59.65,17.1783333 59.65,15.1875 C59.65,13.1966667 58.0366667,11.5833333 56.0458333,11.5833333 C54.0558333,11.5833333 52.4408333,13.1966667 52.4408333,15.1875 C52.4408333,17.1783333 54.0558333,18.7925 56.0458333,18.7925" id="Fill-6" fill="#A1CF95"></path>
                    <path d="M71.1325,18.7925 C73.1233333,18.7925 74.7375,17.1783333 74.7375,15.1875 C74.7375,13.1975 73.1233333,11.5833333 71.1325,11.5833333 C69.1416667,11.5833333 67.5275,13.1975 67.5275,15.1875 C67.5275,17.1783333 69.1416667,18.7925 71.1325,18.7925" id="Fill-7" fill="#A1CF95"></path>
                    <path d="M86.1483333,18.7925 C88.1391667,18.7925 89.7541667,17.1783333 89.7541667,15.1875 C89.7541667,13.1966667 88.1391667,11.5833333 86.1483333,11.5833333 C84.1583333,11.5833333 82.545,13.1966667 82.545,15.1875 C82.545,17.1783333 84.1583333,18.7925 86.1483333,18.7925" id="Fill-8" fill="#A1CF95"></path>
                </g>
            </g>
        </g>
    </g>
</svg>