<?xml version="1.0" standalone="no"?>
<!DOCTYPE svg PUBLIC "-//W3C//DTD SVG 20010904//EN"
 "http://www.w3.org/TR/2001/REC-SVG-20010904/DTD/svg10.dtd">
<svg version="1.0" xmlns="http://www.w3.org/2000/svg"
 width="260.000000pt" height="260.000000pt" viewBox="0 0 260.000000 260.000000"
 preserveAspectRatio="xMidYMid meet">
<metadata>
Created by potrace 1.11, written by Peter Selinger 2001-2013
</metadata>
<g transform="translate(0.000000,260.000000) scale(0.100000,-0.100000)"
fill="#000000" stroke="none">
<path d="M0 1300 l0 -1300 1300 0 1300 0 0 1300 0 1300 -1300 0 -1300 0 0
-1300z m1505 871 c168 -56 264 -162 294 -327 22 -119 4 -257 -44 -340 -45 -76
-138 -143 -242 -174 -44 -13 -58 -30 -25 -30 32 0 140 -60 168 -93 52 -61 75
-135 140 -440 35 -166 66 -312 69 -324 5 -23 5 -23 -110 -23 -84 0 -117 3
-120 13 -2 6 -36 129 -75 272 -39 143 -84 287 -99 320 -57 122 -116 155 -297
163 l-124 5 0 -387 0 -386 -130 0 -130 0 0 891 0 891 328 -4 c308 -4 331 -6
397 -27z"/>
<path d="M1040 1690 l0 -300 78 0 c119 1 210 17 279 51 115 55 158 139 151
288 -5 99 -26 150 -82 199 -55 48 -118 62 -283 62 l-143 0 0 -300z"/>
</g>
</svg>
