<?xml version="1.0" encoding="UTF-8"?>
<svg width="12px" height="16px" viewBox="0 0 12 16" version="1.1" xmlns="http://www.w3.org/2000/svg" xmlns:xlink="http://www.w3.org/1999/xlink">
    <!-- Generator: Sketch 46.2 (44496) - http://www.bohemiancoding.com/sketch -->
    <title>arrow_white_right</title>
    <desc>Created with Sketch.</desc>
    <defs></defs>
    <g id="Teilnehmer-/-search-for-participators" stroke="none" stroke-width="1" fill="none" fill-rule="evenodd">
        <g id="teilnehmer_mobile_1" transform="translate(-156.000000, -388.000000)" fill="#FFFFFF">
            <g id="Group-2-Copy" transform="translate(156.000000, 386.000000)">
                <g id="Group-2-Copy-11" transform="translate(6.000000, 10.000000) scale(-1, 1) translate(-6.000000, -10.000000) translate(0.000000, 2.000000)">
                    <g id="arrow_white_right">
                        <path d="M0.202022131,7.93566563 C0.179101726,7.41834069 0.351781009,6.90415958 0.681771039,6.57529085 C0.867478932,6.29160414 1.11924349,6.10570462 1.38997513,6.03367714 L9.25157828,0.214372021 C9.85030303,-0.228815193 10.617321,0.0373710032 10.9644001,0.808114181 L11.1499574,1.22017299 C11.497198,1.99127494 11.2924125,2.97632985 10.6946051,3.41883802 L4.59295935,7.93538989 L10.6947344,12.4520375 C11.2934592,12.8952247 11.4971658,13.8799593 11.1500867,14.6507025 L10.9645295,15.0627613 C10.6172888,15.8338633 9.84951501,16.0990117 9.25170762,15.6565035 L1.3908017,9.83771446 C1.11940874,9.76579539 0.867111952,9.57936953 0.681163186,9.29488948 C0.351310415,8.96583316 0.17913201,8.45229933 0.202022131,7.93566563 Z" id="Combined-Shape"></path>
                    </g>
                </g>
            </g>
        </g>
    </g>
</svg>