<?xml version="1.0" encoding="UTF-8"?>
<svg width="116px" height="82px" viewBox="0 0 116 82" version="1.1" xmlns="http://www.w3.org/2000/svg" xmlns:xlink="http://www.w3.org/1999/xlink">
    <!-- Generator: Sketch 46.2 (44496) - http://www.bohemiancoding.com/sketch -->
    <title>icon_upload</title>
    <desc>Created with Sketch.</desc>
    <defs></defs>
    <g id="image-upload" stroke="none" stroke-width="1" fill="none" fill-rule="evenodd">
        <g id="Upload-01" transform="translate(-437.000000, -1035.000000)" fill="#FFFFFF">
            <g id="Group-5" transform="translate(395.000000, 1004.000000)">
                <g id="icon_upload" transform="translate(42.000000, 31.000000)">
                    <polygon id="+" points="51.5596639 49.8860759 62.6596639 49.8860759 62.6596639 29.7860759 80.7596639 29.7860759 80.7596639 19.8860759 62.6596639 19.8860759 62.6596639 0.286075949 51.5596639 0.286075949 51.5596639 19.8860759 33.6596639 19.8860759 33.6596639 29.7860759 51.5596639 29.7860759"></polygon>
                    <path d="M0.697,77.5822785 L0.697,65.7202785 L4.171,65.7202785 C6.709,65.7202785 7.861,67.1782785 7.861,68.7262785 C7.861,69.7522785 7.357,70.7062785 6.421,71.1742785 L6.421,71.2102785 C7.807,71.5522785 8.653,72.6862785 8.653,74.0722785 C8.653,75.9082785 7.249,77.5822785 4.495,77.5822785 L0.697,77.5822785 Z M2.857,75.8002785 L4.243,75.8002785 C5.683,75.8002785 6.457,75.2782785 6.457,74.0722785 C6.457,73.0642785 5.683,72.4522785 4.477,72.4522785 L2.857,72.4522785 L2.857,75.8002785 Z M2.857,70.6702785 L3.883,70.6702785 C5.089,70.6702785 5.719,70.0042785 5.719,69.0862785 C5.719,68.2042785 5.161,67.5022785 3.865,67.5022785 L2.857,67.5022785 L2.857,70.6702785 Z M10.525,77.5822785 L12.685,77.5822785 L12.685,69.0682785 L10.525,69.0682785 L10.525,77.5822785 Z M11.605,67.6822785 C12.361,67.6822785 12.937,67.1062785 12.937,66.4042785 C12.937,65.6662785 12.361,65.1082785 11.605,65.1082785 C10.849,65.1082785 10.291,65.6842785 10.291,66.4042785 C10.291,67.1242785 10.849,67.6822785 11.605,67.6822785 Z M14.845,75.6562785 C14.845,77.0062785 15.565,77.7082785 16.987,77.7082785 C17.473,77.7082785 18.067,77.6182785 18.571,77.4022785 L18.157,75.7462785 C17.977,75.8182785 17.725,75.8542785 17.617,75.8542785 C17.221,75.8542785 16.987,75.6742785 16.987,75.0802785 L16.987,64.8382785 L14.845,64.8382785 L14.845,75.6562785 Z M24.349,77.7622785 C21.577,77.7622785 19.507,76.2142785 19.507,73.4062785 C19.507,70.7062785 21.469,68.8522785 24.169,68.8522785 C24.493,68.8522785 24.979,68.8882785 25.321,68.9602785 L25.321,64.8382785 L27.481,64.8382785 L27.481,77.1322785 C26.635,77.5462785 25.393,77.7622785 24.349,77.7622785 Z M24.313,75.9802785 C24.601,75.9802785 25.033,75.9442785 25.321,75.8362785 L25.321,70.7422785 C24.997,70.6702785 24.727,70.6162785 24.295,70.6162785 C22.801,70.6162785 21.703,71.6242785 21.703,73.3702785 C21.703,75.0262785 22.765,75.9802785 24.313,75.9802785 Z M33.547,77.5822785 L35.689,77.5822785 L35.689,71.6242785 C36.319,71.1022785 37.057,70.7242785 37.777,70.7242785 C38.875,70.7242785 39.091,71.5702785 39.091,72.6142785 L39.091,77.5822785 L41.233,77.5822785 L41.233,71.9482785 C41.233,69.5182785 39.865,68.8522785 38.515,68.8522785 C37.435,68.8522785 36.463,69.3562785 35.689,70.0042785 L35.689,64.8382785 L33.547,64.8382785 L33.547,77.5822785 Z M43.285,77.5822785 L45.445,77.5822785 L45.445,69.0682785 L43.285,69.0682785 L43.285,77.5822785 Z M44.365,67.6822785 C45.121,67.6822785 45.697,67.1062785 45.697,66.4042785 C45.697,65.6662785 45.121,65.1082785 44.365,65.1082785 C43.609,65.1082785 43.051,65.6842785 43.051,66.4042785 C43.051,67.1242785 43.609,67.6822785 44.365,67.6822785 Z M47.497,77.5822785 L49.639,77.5822785 L49.639,71.6242785 C50.269,71.1022785 51.025,70.7242785 51.727,70.7242785 C52.825,70.7242785 53.041,71.5702785 53.041,72.6142785 L53.041,77.5822785 L55.201,77.5822785 L55.201,71.9482785 C55.201,69.5182785 53.815,68.8522785 52.465,68.8522785 C51.403,68.8522785 50.449,69.3202785 49.549,70.0222785 L49.333,69.0682785 L47.497,69.0682785 L47.497,77.5822785 Z M56.443,77.5822785 L63.445,77.5822785 L63.445,75.9082785 L59.611,75.9082785 L63.517,69.0682785 L56.695,69.0682785 L57.127,70.7422785 L60.385,70.7422785 L56.443,77.5822785 Z M67.477,77.7622785 C68.593,77.7622785 69.475,77.2762785 70.123,76.7002785 L70.447,77.5822785 L72.283,77.5822785 C72.157,77.1322785 72.139,76.3942785 72.139,75.4762785 L72.139,69.0682785 L69.979,69.0682785 L69.979,75.1702785 C69.601,75.5842785 68.935,75.9262785 68.233,75.9262785 C67.585,75.9262785 67.171,75.6562785 66.955,75.1522785 C66.829,74.8822785 66.775,74.5402785 66.775,74.0902785 L66.775,69.0682785 L64.633,69.0682785 L64.633,74.3062785 C64.633,75.0982785 64.723,75.6202785 64.921,76.0882785 C65.443,77.4202785 66.649,77.7622785 67.477,77.7622785 Z M74.965,77.5822785 L77.125,77.5822785 L77.125,70.7422785 L78.817,70.7422785 L79.339,69.0682785 L77.125,69.0682785 L77.125,67.8622785 C77.125,67.1242785 77.449,66.6922785 78.169,66.6922785 C78.493,66.6922785 78.853,66.8002785 79.213,66.9262785 L79.645,65.2162785 C79.069,64.9462785 78.421,64.8382785 77.863,64.8382785 C76.135,64.8382785 74.965,65.8822785 74.965,67.8802785 L74.965,69.0682785 L73.705,69.0682785 L73.705,70.7422785 L74.965,70.7422785 L74.965,77.5822785 Z M83.335,77.7622785 C84.451,77.7622785 85.333,77.2762785 85.981,76.7002785 L86.305,77.5822785 L88.141,77.5822785 C88.015,77.1322785 87.997,76.3942785 87.997,75.4762785 L87.997,69.0682785 L85.837,69.0682785 L85.837,75.1702785 C85.459,75.5842785 84.793,75.9262785 84.091,75.9262785 C83.443,75.9262785 83.029,75.6562785 82.813,75.1522785 C82.687,74.8822785 82.633,74.5402785 82.633,74.0902785 L82.633,69.0682785 L80.491,69.0682785 L80.491,74.3062785 C80.491,75.0982785 80.581,75.6202785 80.779,76.0882785 C81.301,77.4202785 82.507,77.7622785 83.335,77.7622785 Z M82.579,67.7902785 C83.191,67.7902785 83.695,67.3042785 83.695,66.6922785 C83.695,66.0622785 83.191,65.5762785 82.579,65.5762785 C81.985,65.5762785 81.481,66.0622785 81.481,66.6922785 C81.481,67.3042785 81.985,67.7902785 82.579,67.7902785 Z M86.017,67.7902785 C86.611,67.7902785 87.115,67.3042785 87.115,66.6922785 C87.115,66.0622785 86.611,65.5762785 86.017,65.5762785 C85.405,65.5762785 84.919,66.0622785 84.919,66.6922785 C84.919,67.3042785 85.405,67.7902785 86.017,67.7902785 Z M93.343,81.8482785 C90.841,81.8482785 89.383,80.8222785 89.383,79.3462785 C89.383,78.4102785 90.031,77.6722785 90.913,77.2942785 C90.553,77.0782785 90.355,76.6822785 90.355,76.2322785 C90.355,75.7282785 90.679,75.1162785 91.381,74.6302785 C90.481,74.1082785 89.959,73.1182785 89.959,71.9842785 C89.959,70.4182785 91.111,68.8522785 93.433,68.8522785 C94.189,68.8522785 94.783,69.0322785 95.125,69.2302785 C95.215,69.2662785 95.269,69.2482785 95.341,69.1942785 C95.791,68.7442785 96.349,68.4562785 97.393,68.4562785 C97.591,68.4562785 97.843,68.4742785 97.969,68.4922785 L97.537,70.0402785 C97.339,69.9862785 97.105,69.9502785 96.907,69.9502785 C96.727,69.9502785 96.457,69.9862785 96.277,70.0942785 C96.781,70.6342785 97.033,71.3542785 97.033,72.1102785 C97.033,74.0182785 95.575,75.2602785 93.505,75.2602785 C93.109,75.2602785 92.749,75.2062785 92.461,75.1162785 C92.299,75.3862785 92.245,75.5662785 92.245,75.7462785 C92.245,77.2762785 97.843,75.8542785 97.843,79.0402785 C97.843,80.5882785 96.295,81.8482785 93.343,81.8482785 Z M93.631,80.3362785 C94.927,80.3362785 95.791,79.9042785 95.791,79.2742785 C95.791,78.0502785 93.145,78.3022785 91.993,77.8522785 C91.723,78.0502785 91.309,78.4102785 91.309,78.9682785 C91.309,79.8142785 92.209,80.3362785 93.631,80.3362785 Z M93.487,73.6402785 C94.351,73.6402785 94.999,73.1002785 94.999,72.0742785 C94.999,71.2282785 94.423,70.4722785 93.469,70.4722785 C92.623,70.4722785 91.993,71.0302785 91.993,72.0562785 C91.993,72.9022785 92.533,73.6402785 93.487,73.6402785 Z M103.189,77.7622785 C100.075,77.7622785 98.833,75.6382785 98.833,73.3342785 C98.833,70.7782785 100.237,68.8522785 102.667,68.8522785 C105.061,68.8522785 106.447,70.5802785 106.447,73.4062785 L106.447,73.9102785 L100.993,73.9102785 C101.029,75.2242785 101.965,76.0702785 103.387,76.0702785 C104.251,76.0702785 104.935,75.8362785 105.547,75.4942785 L106.195,76.9702785 C105.295,77.5282785 104.233,77.7622785 103.189,77.7622785 Z M100.975,72.4162785 L104.269,72.4162785 C104.233,71.4442785 103.765,70.4902785 102.631,70.4902785 C101.569,70.4902785 100.975,71.3902785 100.975,72.4162785 Z M108.067,77.5822785 L110.209,77.5822785 L110.209,71.6242785 C110.839,71.1022785 111.595,70.7242785 112.297,70.7242785 C113.395,70.7242785 113.611,71.5702785 113.611,72.6142785 L113.611,77.5822785 L115.771,77.5822785 L115.771,71.9482785 C115.771,69.5182785 114.385,68.8522785 113.035,68.8522785 C111.973,68.8522785 111.019,69.3202785 110.119,70.0222785 L109.903,69.0682785 L108.067,69.0682785 L108.067,77.5822785 Z" id="Bild-hinzufügen"></path>
                </g>
            </g>
        </g>
    </g>
</svg>