<svg xmlns="http://www.w3.org/2000/svg" viewBox="0 0 558.94 153.9"><defs><style>.a{fill:#1a1a18;}.b{fill:#b61c3e;}</style></defs><title>Element 1</title><path class="a" d="M148.13,84.85h6.18c7,0,10.8,3.9,10.8,9.75,0,6-4.26,10-11.14,10h-5.82ZM154,101.69c5.22,0,7.2-3.3,7.2-7,0-4.14-2.43-6.87-7.26-6.87h-2.22v13.9Z"/><path class="a" d="M167.83,97.55c0-4.26,2.34-7.47,6.39-7.47s6.3,2.88,6.3,7.59v.84h-9.09c.06,2.19,1.62,3.6,4,3.6a7.13,7.13,0,0,0,3.6-1l1.08,2.46a9.5,9.5,0,0,1-5,1.32C169.9,104.94,167.83,101.39,167.83,97.55ZM176.89,96c-.06-1.62-.84-3.21-2.73-3.21s-2.76,1.5-2.76,3.21Z"/><path class="a" d="M183.31,90.44h3L186.7,92a5.4,5.4,0,0,1,3.9-2,3.71,3.71,0,0,1,2,.57l-1.26,3a3,3,0,0,0-1.62-.48,4.29,4.29,0,0,0-2.88,1.41v10h-3.53Z"/><path class="a" d="M199.86,97.67a7.38,7.38,0,0,1,7.16-7.6h.61a10.69,10.69,0,0,1,1.92.18V83.38h3.6v20.5a12.88,12.88,0,0,1-5.22,1.05C203.31,104.94,199.86,102.35,199.86,97.67Zm9.69,4.05V93.23a7,7,0,0,0-1.71-.21c-2.49,0-4.32,1.68-4.32,4.59a4.05,4.05,0,0,0,4.35,4.35,5.44,5.44,0,0,0,1.69-.24Z"/><path class="a" d="M216.16,97.55c0-4.26,2.34-7.47,6.39-7.47s6.3,2.88,6.3,7.59v.84h-9.09c.06,2.19,1.62,3.6,4,3.6a7.13,7.13,0,0,0,3.6-1l1.08,2.46a9.5,9.5,0,0,1-5,1.32C218.23,104.94,216.16,101.39,216.16,97.55ZM225.22,96c-.06-1.62-.84-3.21-2.73-3.21s-2.76,1.5-2.76,3.21Z"/><path class="a" d="M232.16,102.14a7.3,7.3,0,0,1-.48-3v-8.7h3.57v8.37a4.18,4.18,0,0,0,.3,1.77,2.1,2.1,0,0,0,2.13,1.29,4.1,4.1,0,0,0,2.91-1.26V90.44h3.6v10.69a15.35,15.35,0,0,0,.24,3.51h-3.06l-.54-1.47a6.58,6.58,0,0,1-4.41,1.77A4.4,4.4,0,0,1,232.16,102.14Z"/><path class="a" d="M249.31,101.12V93.23h-2.55V90.44h2.55v-3.3l3.57-1.05v4.35h4.29l-.86,2.79h-3.42v7c0,1.32.45,1.8,1.38,1.8a4,4,0,0,0,2.16-.69l1.08,2.46a8.12,8.12,0,0,1-4.2,1.14C250.81,104.94,249.31,103.49,249.31,101.12Z"/><path class="a" d="M259.72,100.94a7.27,7.27,0,0,0,3.87,1.17c1.44,0,2.49-.42,2.49-1.5,0-2.4-6.66-1.5-6.66-6.24,0-2.52,2-4.29,5.37-4.29a12.38,12.38,0,0,1,4.17.69v3a10.14,10.14,0,0,0-4-.9c-1.2,0-2,.36-2,1.29,0,2.25,6.66,1.38,6.66,6.33,0,3.12-2.7,4.41-5.76,4.41a10.13,10.13,0,0,1-5.22-1.38Z"/><path class="a" d="M271.79,97.64a7.34,7.34,0,0,1,7.11-7.56h.39a7.15,7.15,0,0,1,3.81,1v3a5.59,5.59,0,0,0-3.44-1.14c-2.64,0-4.2,2-4.2,4.59,0,2.91,1.59,4.5,4,4.5a6.56,6.56,0,0,0,3.3-1l1,2.46a8.88,8.88,0,0,1-4.86,1.38C274.31,104.94,271.79,101.75,271.79,97.64Z"/><path class="a" d="M286.14,83.38h3.57V92a7.46,7.46,0,0,1,4.71-1.92c2.25,0,4.53,1.11,4.53,5.16v9.39h-3.57V96.35c0-1.74-.36-3.15-2.19-3.15a5.73,5.73,0,0,0-3.48,1.5v9.93h-3.57Z"/><path class="a" d="M301.81,97.55c0-4.26,2.34-7.47,6.39-7.47s6.3,2.88,6.3,7.59v.84h-9.09c.06,2.19,1.62,3.6,4,3.6a7.13,7.13,0,0,0,3.6-1l1.08,2.46a9.5,9.5,0,0,1-5,1.32C303.88,104.94,301.81,101.39,301.81,97.55ZM310.87,96c-.06-1.62-.84-3.21-2.73-3.21s-2.76,1.5-2.76,3.21Z"/><path class="a" d="M324.72,84.85h4.77a10,10,0,0,1,4.44.84,6.44,6.44,0,0,1-.57,11.44,11.45,11.45,0,0,1-4.2.69h-.85v6.81h-3.6Zm4.68,10a5,5,0,0,0,2.31-.45,3.14,3.14,0,0,0,1.65-3.09,3.36,3.36,0,0,0-1.56-3,4.94,4.94,0,0,0-2.46-.51h-1v7.08Z"/><path class="a" d="M340.45,90.44h3l.39,1.59a5.4,5.4,0,0,1,3.9-2,3.71,3.71,0,0,1,2,.57l-1.26,3a3,3,0,0,0-1.62-.48A4.29,4.29,0,0,0,344,94.53v10h-3.57Z"/><path class="a" d="M350.45,97.55c0-4.26,2.34-7.47,6.39-7.47s6.3,2.88,6.3,7.59v.84H354c.06,2.19,1.62,3.6,4,3.6a7.13,7.13,0,0,0,3.6-1l1.08,2.46a9.5,9.5,0,0,1-5,1.32C352.52,104.94,350.45,101.39,350.45,97.55ZM359.51,96c-.06-1.62-.84-3.21-2.73-3.21S354,94.31,354,96Z"/><path class="a" d="M365.7,86A2.21,2.21,0,1,1,368,88.12h-.1a2.12,2.12,0,0,1-2.19-2S365.7,86,365.7,86Zm.39,4.44h3.6v14.2h-3.6Z"/><path class="a" d="M373.31,100.94a7.26,7.26,0,0,0,3.87,1.17c1.44,0,2.49-.42,2.49-1.5,0-2.4-6.66-1.5-6.66-6.24,0-2.52,2-4.29,5.37-4.29a12.39,12.39,0,0,1,4.17.69v3a10.15,10.15,0,0,0-4-.9c-1.2,0-2,.36-2,1.29,0,2.25,6.66,1.38,6.66,6.33,0,3.12-2.7,4.41-5.76,4.41a10.14,10.14,0,0,1-5.22-1.38Z"/><path class="a" d="M393.17,93.23h-2.1V90.44h2.1v-2c0-3.33,2-5.07,4.83-5.07a7.16,7.16,0,0,1,3,.63l-.72,2.85a5.55,5.55,0,0,0-1.74-.39c-1.2,0-1.74.72-1.74,2v2h3.69l-.87,2.79H396.8v11.41h-3.6Z"/><path class="a" d="M403,102.14a7.3,7.3,0,0,1-.48-3v-8.7h3.57v8.37a4.18,4.18,0,0,0,.3,1.77,2.1,2.1,0,0,0,2.13,1.29,4.1,4.1,0,0,0,2.91-1.26V90.44H415v10.69a15.36,15.36,0,0,0,.24,3.51h-3.06l-.54-1.47a6.57,6.57,0,0,1-4.37,1.77A4.4,4.4,0,0,1,403,102.14Zm1.17-15.67A1.85,1.85,0,1,1,406,88.3h0a1.84,1.84,0,0,1-1.82-1.83Zm5.73,0a1.83,1.83,0,0,1,1.8-1.86h0a1.85,1.85,0,0,1,0,3.69,1.82,1.82,0,0,1-1.82-1.82h0Z"/><path class="a" d="M418.74,90.44h3l.39,1.59a5.4,5.4,0,0,1,3.9-2,3.71,3.71,0,0,1,2,.57l-1.26,3a3,3,0,0,0-1.62-.48,4.29,4.29,0,0,0-2.84,1.49v10h-3.57Z"/><path class="a" d="M436.46,90.94a16.64,16.64,0,0,1,5.37-.9c5.1,0,7.77,2.88,7.77,7.41a7.06,7.06,0,0,1-7.38,7.44,7.6,7.6,0,0,1-2.19-.33v7.14h-3.57Zm5.49,11c2.64,0,4-1.74,4-4.47,0-3-1.68-4.47-4.23-4.47a6,6,0,0,0-1.68.24v8.34a5,5,0,0,0,1.91.36Z"/><path class="a" d="M451.83,97.49c0-4.26,2.85-7.41,7.08-7.41S466,93.23,466,97.49s-2.88,7.45-7.11,7.45S451.83,101.75,451.83,97.49Zm10.5,0c0-2.61-1.17-4.53-3.42-4.53s-3.42,1.92-3.42,4.53,1.17,4.56,3.42,4.56,3.4-1.92,3.4-4.56Z"/><path class="a" d="M469,83.38h3.57v17.08c0,1,.39,1.29,1,1.29a3,3,0,0,0,.9-.18l.69,2.76a7,7,0,0,1-2.64.51c-2.37,0-3.57-1.17-3.57-3.42Z"/><path class="a" d="M477.31,86a2.21,2.21,0,1,1,2.29,2.13h-.1a2.12,2.12,0,0,1-2.19-2S477.31,86,477.31,86Zm.39,4.44h3.61v14.2h-3.6Z"/><path class="a" d="M486.23,101.12V93.23h-2.55V90.44h2.55v-3.3l3.57-1.05v4.35h4.29l-.87,2.79H489.8v7c0,1.32.45,1.8,1.38,1.8a4,4,0,0,0,2.16-.69l1.08,2.46a8.12,8.12,0,0,1-4.11,1.14C487.76,104.94,486.23,103.49,486.23,101.12Z"/><path class="a" d="M496.31,86a2.21,2.21,0,1,1,2.29,2.13h-.1a2.12,2.12,0,0,1-2.19-2S496.31,86,496.31,86Zm.39,4.44h3.61v14.2h-3.6Z"/><path class="a" d="M504,100.94a7.26,7.26,0,0,0,3.87,1.17c1.44,0,2.49-.42,2.49-1.5,0-2.4-6.66-1.5-6.66-6.24,0-2.52,2-4.29,5.37-4.29a12.39,12.39,0,0,1,4.17.69v3a10.15,10.15,0,0,0-4-.9c-1.2,0-2,.36-2,1.29,0,2.25,6.66,1.38,6.66,6.33,0,3.12-2.7,4.41-5.76,4.41a10.14,10.14,0,0,1-5.22-1.38Z"/><path class="a" d="M516,97.64a7.34,7.34,0,0,1,7.11-7.56h.39a7.15,7.15,0,0,1,3.81,1v3a5.59,5.59,0,0,0-3.44-1.14c-2.64,0-4.2,2-4.2,4.59,0,2.91,1.59,4.5,4,4.5a6.56,6.56,0,0,0,3.3-1l1,2.46a8.88,8.88,0,0,1-4.86,1.38C518.56,104.94,516,101.75,516,97.64Z"/><path class="a" d="M530.39,83.38H534V92a7.46,7.46,0,0,1,4.71-1.92c2.25,0,4.53,1.11,4.53,5.16v9.39h-3.57V96.35c0-1.74-.36-3.15-2.19-3.15A5.73,5.73,0,0,0,534,94.7v9.93h-3.57Z"/><path class="a" d="M546,97.55c0-4.26,2.34-7.47,6.39-7.47s6.3,2.88,6.3,7.59v.84h-9.09c.06,2.19,1.62,3.6,4,3.6a7.13,7.13,0,0,0,3.6-1l1.08,2.46a9.5,9.5,0,0,1-5,1.32C548.11,104.94,546,101.39,546,97.55ZM555.09,96c-.06-1.62-.84-3.21-2.73-3.21s-2.76,1.5-2.76,3.21Z"/><path class="a" d="M148.13,127h11l-.93,2.94h-6.42v5.28h6.3v2.94h-6.3v8.61h-3.6Z"/><path class="a" d="M160.77,139.64c0-4.26,2.85-7.41,7.08-7.41s7.11,3.15,7.11,7.41-2.88,7.44-7.11,7.44S160.77,143.94,160.77,139.64Zm10.5,0c0-2.61-1.17-4.53-3.42-4.53s-3.42,1.92-3.42,4.53,1.17,4.56,3.42,4.56,3.46-1.92,3.46-4.56Z"/><path class="a" d="M179.18,143.27v-7.89h-2.55v-2.79h2.55v-3.3l3.57-1.05v4.35H187l-.87,2.79h-3.42v7c0,1.32.45,1.8,1.38,1.8a4,4,0,0,0,2.16-.69l1.08,2.46a8.12,8.12,0,0,1-4.14,1.11C180.71,147.08,179.18,145.64,179.18,143.27Z"/><path class="a" d="M188.93,139.64c0-4.26,2.85-7.41,7.08-7.41s7.11,3.15,7.11,7.41-2.88,7.44-7.11,7.44S188.93,143.94,188.93,139.64Zm10.5,0c0-2.61-1.17-4.53-3.42-4.53s-3.42,1.92-3.42,4.53,1.17,4.56,3.42,4.56,3.43-1.92,3.43-4.56Z"/><path class="a" d="M204.72,149.73a3.82,3.82,0,0,1,2.55-3.42,2,2,0,0,1-.93-1.77,3.47,3.47,0,0,1,1.71-2.67,5,5,0,0,1-2.37-4.41c0-2.61,1.92-5.22,5.79-5.22a5.84,5.84,0,0,1,2.82.63.32.32,0,0,0,.36-.06,4.35,4.35,0,0,1,3.42-1.23,8.15,8.15,0,0,1,1,.06l-.72,2.58a4.23,4.23,0,0,0-1.05-.15,2.24,2.24,0,0,0-1.05.24,4.88,4.88,0,0,1,1.26,3.36c0,3.18-2.43,5.25-5.88,5.25a5.93,5.93,0,0,1-1.74-.24,2,2,0,0,0-.36,1.05c0,2.55,9.33.18,9.33,5.49,0,2.58-2.58,4.68-7.5,4.68C207.16,153.94,204.72,152.19,204.72,149.73Zm10.68-.12c0-2-4.41-1.62-6.33-2.37a2.39,2.39,0,0,0-1.14,1.86c0,1.41,1.5,2.28,3.87,2.28,2.17,0,3.61-.72,3.61-1.77Zm-1.32-12a2.54,2.54,0,0,0-2.41-2.67h-.14a2.38,2.38,0,0,0-2.46,2.64,2.47,2.47,0,0,0,2.29,2.63h.2a2.39,2.39,0,0,0,2.53-2.62Z"/><path class="a" d="M221.21,132.59h3l.39,1.59a5.39,5.39,0,0,1,3.9-2,3.71,3.71,0,0,1,2,.57l-1.26,3a3,3,0,0,0-1.62-.48,4.29,4.29,0,0,0-2.88,1.41v10h-3.53Z"/><path class="a" d="M240.39,145.43a5.84,5.84,0,0,1-4.08,1.65,4.43,4.43,0,0,1-4.7-4.14q0-.19,0-.39a4.05,4.05,0,0,1,2.4-3.87,8.78,8.78,0,0,1,3.66-.81l2.43-.09v-.45c0-1.65-1.08-2.37-2.73-2.37a8,8,0,0,0-3.72,1l-1.17-2.31a11.17,11.17,0,0,1,5.49-1.41c3.81,0,5.7,1.74,5.7,5.16v5.76a15.54,15.54,0,0,0,.27,3.63h-3Zm-2.22-5.19a4.51,4.51,0,0,0-2.07.45,1.71,1.71,0,0,0-.87,1.62,1.87,1.87,0,0,0,2.1,2,4.4,4.4,0,0,0,2.76-1v-3Z"/><path class="a" d="M248.31,135.38h-2.1v-2.79h2.1v-2c0-3.33,2-5.07,4.83-5.07a7.16,7.16,0,0,1,3,.63l-.72,2.85a5.56,5.56,0,0,0-1.74-.39c-1.2,0-1.74.72-1.74,2v2h3.69l-.87,2.79h-2.82v11.41h-3.63Zm8.94-7.23a2.21,2.21,0,1,1,2.29,2.13h-.1a2.12,2.12,0,0,1-2.13-2.11s0,0,0,0Zm.39,4.44h3.67v14.2h-3.6Z"/><path class="a" d="M264.23,139.7c0-4.26,2.34-7.47,6.39-7.47s6.3,2.88,6.3,7.59v.84h-9.09c.06,2.19,1.62,3.6,4,3.6a7.13,7.13,0,0,0,3.6-1l1.08,2.46a9.5,9.5,0,0,1-5,1.32C266.31,147.08,264.23,143.54,264.23,139.7Zm9.06-1.53c-.06-1.62-.84-3.21-2.73-3.21s-2.76,1.5-2.76,3.21Z"/><path class="a" d="M286.89,144.29a7.3,7.3,0,0,1-.48-3v-8.73H290v8.38a4.18,4.18,0,0,0,.3,1.77,2.1,2.1,0,0,0,2.13,1.29,4.11,4.11,0,0,0,2.91-1.26V132.59h3.6v10.68a15.3,15.3,0,0,0,.24,3.51h-3l-.54-1.47a6.57,6.57,0,0,1-4.41,1.77A4.4,4.4,0,0,1,286.89,144.29Z"/><path class="a" d="M302.62,132.59h3.06l.36,1.59a7.93,7.93,0,0,1,4.86-2c2.25,0,4.56,1.11,4.56,5.16v9.39h-3.6v-8.28c0-1.74-.36-3.15-2.19-3.15a5.8,5.8,0,0,0-3.48,1.5v9.93h-3.57Z"/><path class="a" d="M318.31,139.82a7.38,7.38,0,0,1,7.16-7.6h.61a10.65,10.65,0,0,1,1.92.18v-6.87h3.6V146a12.88,12.88,0,0,1-5.22,1C321.75,147.08,318.31,144.5,318.31,139.82Zm9.69,4.05v-8.49a7,7,0,0,0-1.71-.21c-2.49,0-4.32,1.68-4.32,4.59a4.05,4.05,0,0,0,4.35,4.35,5.43,5.43,0,0,0,1.67-.24Z"/><path class="a" d="M342.58,127h3.6v8.43h.13l6.75-8.43h4.2l-8,9.6,8.4,10.17h-4.35l-7-8.67h-.09v8.67h-3.6Z"/><path class="a" d="M368.07,145.43a5.84,5.84,0,0,1-4.08,1.65,4.43,4.43,0,0,1-4.7-4.14q0-.19,0-.39a4,4,0,0,1,2.4-3.87,8.78,8.78,0,0,1,3.66-.81l2.43-.09v-.45c0-1.65-1.08-2.37-2.73-2.37a8,8,0,0,0-3.72,1l-1.17-2.31a11.17,11.17,0,0,1,5.49-1.41c3.81,0,5.7,1.74,5.7,5.16v5.76a15.53,15.53,0,0,0,.27,3.63h-3Zm-2.22-5.19a4.51,4.51,0,0,0-2.07.45,1.72,1.72,0,0,0-.87,1.62,1.87,1.87,0,0,0,2.1,2,4.4,4.4,0,0,0,2.76-1v-3Z"/><path class="a" d="M374.85,132.59h3l.39,1.59a5.39,5.39,0,0,1,3.9-2,3.71,3.71,0,0,1,2,.57l-1.26,3a3,3,0,0,0-1.62-.48,4.29,4.29,0,0,0-2.88,1.41v10h-3.57Z"/><path class="a" d="M385.63,128.15a2.21,2.21,0,1,1,2.29,2.13h-.1a2.12,2.12,0,0,1-2.19-2S385.63,128.18,385.63,128.15Zm.39,4.44h3.6v14.2H386Z"/><path class="a" d="M393.38,125.53h3.57v12H397l4.65-4.92h4.08l-5.82,6.18,6.3,8H402l-5-6.57H397v6.57h-3.57Z"/><path class="a" d="M416.25,145.43a5.84,5.84,0,0,1-4.08,1.65,4.43,4.43,0,0,1-4.7-4.14q0-.19,0-.39a4,4,0,0,1,2.4-3.87,8.78,8.78,0,0,1,3.66-.81l2.43-.09v-.45c0-1.65-1.08-2.37-2.73-2.37a8,8,0,0,0-3.72,1l-1.19-2.32a11.17,11.17,0,0,1,5.49-1.41c3.81,0,5.7,1.74,5.7,5.16v5.76a15.53,15.53,0,0,0,.27,3.63h-3ZM414,140.24a4.51,4.51,0,0,0-2.07.45,1.72,1.72,0,0,0-.87,1.62,1.87,1.87,0,0,0,2.1,2,4.4,4.4,0,0,0,2.76-1v-3Z"/><path class="a" d="M424.42,143.27v-7.89h-2.55v-2.79h2.55v-3.3l3.57-1.05v4.35h4.32l-.87,2.79H428v7c0,1.32.45,1.8,1.38,1.8a4,4,0,0,0,2.16-.69l1,2.45a8.12,8.12,0,0,1-4.14,1.11C425.95,147.08,424.42,145.64,424.42,143.27Z"/><path class="a" d="M435.26,144.29a7.3,7.3,0,0,1-.48-3v-8.73h3.53v8.38a4.18,4.18,0,0,0,.3,1.77,2.1,2.1,0,0,0,2.13,1.29,4.11,4.11,0,0,0,2.91-1.26V132.59h3.66v10.68a15.29,15.29,0,0,0,.24,3.51h-3.06l-.54-1.47a6.57,6.57,0,0,1-4.41,1.77A4.4,4.4,0,0,1,435.26,144.29Z"/><path class="a" d="M451,132.59h3l.39,1.59a5.39,5.39,0,0,1,3.9-2,3.71,3.71,0,0,1,2,.57l-1.26,3a3,3,0,0,0-1.62-.48,4.29,4.29,0,0,0-2.88,1.41v10h-3.57Z"/><path class="b" d="M0,0H15.21c8.21,0,15.36,3.5,15.36,13.76,0,8.21-5,11.1-10.34,12.4v.15c7.15,1.52,7.91,6.08,9,11.56l3.12,14.6H25.47L22.28,40.83c-2.13-7.53-3-11-10.34-11H7.6V52.47H0ZM7.6,23.8H12c5.32,0,11-2.13,11-9.13,0-6.39-3.57-8.59-9.2-8.59H7.6Z"/><path class="b" d="M61.44,44.71h-.15c-1.14,3-4.11,8.59-11.48,8.59-8.36,0-9.73-7.45-9.73-11.94V16.27h6.84V36c0,6.77,0,10.42,4.94,10.42,5.63,0,9.58-7.6,9.58-14.83V16.27h6.84v36.2H61.44ZM42.05.68h9.35V9H42.05Zm15.66,0h9.35V9H57.72Z"/><path class="b" d="M105,51.94a32.58,32.58,0,0,1-10,1.37c-13.84,0-17.72-11.25-17.72-20.23C77.26,23,81.9,15.44,92.7,15.44c10.27,0,12.93,6.69,12.93,12.62H97.79c0-2.74-.53-7.3-5.55-7.3-4.49,0-7.38,4.33-7.38,11,0,7.15,3,16.2,14.37,16.2a19.2,19.2,0,0,0,5.78-.76Z"/><path class="b" d="M112.32,0h6.84V30.72l12.62-14.45h8.59L127,32.09l14.68,20.38h-8.59L119.32,33.76h-.15V52.47h-6.84Z"/><path class="a" d="M152.17,22.28h.15a10,10,0,0,1,9.81-6.84c10,0,12.93,10,12.93,19.32,0,10.42-4.18,18.55-14.52,18.55-12.93,0-13.54-11-13.54-15.74V0h5.17ZM160.38,49c6.46,0,8.75-7.15,8.75-14.37,0-6.92-2-14.83-8-14.83-6.46,0-9,8.9-9,16C152.17,40,152.78,49,160.38,49Z"/><path class="a" d="M185,0h5.17V52.47H185Z"/><path class="a" d="M226.39,52.24a28.16,28.16,0,0,1-8.29,1.06c-11.18,0-17.64-6.77-17.64-20.15,0-10.8,4.49-17.72,14.14-17.72,8.52,0,12.62,5.86,12.62,13.76v1.75H206.39v2.13c0,5.48,2.43,15.89,12.85,15.89a23.59,23.59,0,0,0,7.15-1ZM221.3,26.62a6.74,6.74,0,0,0-6.92-6.84c-5.4,0-7.15,4.41-7.6,6.84Z"/><path class="a" d="M236.66,16.27h5.17v8.36H242c1-3,3.27-9.2,11.33-9.2,6.16,0,9.28,5.17,9.28,11.18V52.47h-5.17V32.39c0-6.24,0-11.79-5.32-11.79-6.84,0-10.27,10.42-10.27,17v14.9h-5.17Z"/><path class="a" d="M294,46.31h-.15a9.83,9.83,0,0,1-9.43,7c-8.74,0-12.39-7.15-12.39-18.63,0-9.73,3.42-19.24,12.32-19.24a9.41,9.41,0,0,1,9.51,6.77H294V0h5.17V52.47H294ZM285.48,49c5.93,0,8.52-8.21,8.52-14.45,0-8.06-2.89-14.75-8.36-14.75-6.16,0-7.68,8.21-7.68,15.89C278,40.3,278.64,49,285.48,49Z"/><path class="a" d="M334.76,52.24a28.17,28.17,0,0,1-8.29,1.06c-11.18,0-17.64-6.77-17.64-20.15,0-10.8,4.49-17.72,14.14-17.72,8.52,0,12.62,5.86,12.62,13.76v1.75H314.76v2.13c0,5.48,2.43,15.89,12.85,15.89a23.6,23.6,0,0,0,7.15-1Zm-5.1-25.63a6.74,6.74,0,0,0-6.92-6.84c-5.4,0-7.15,4.41-7.6,6.84Z"/><path class="a" d="M422.21,47.37c4.94-4,22.28-19.77,22.28-31.18,0-4.49-2.43-8.44-8-8.44-6.69,0-7.91,5.1-7.91,7.38h-6.39c.15-3.88,2.59-11.71,14.68-11.71,7.91,0,13.54,5.17,13.54,13.38,0,13.16-16.58,26.62-20.84,30.49H451.1v5.17h-28.9Z"/><path class="a" d="M458.63,28.36c0-12.47,3.35-24.94,16.43-24.94s16.43,12.47,16.43,24.94-3.35,24.94-16.43,24.94S458.63,40.76,458.63,28.36ZM475.06,49c9,0,10.49-10.65,10.49-20.61S484.11,7.76,475.06,7.76,464.56,18.4,464.56,28.36,466.08,49,475.06,49Z"/><path class="a" d="M510,10.11l-9.13,6.16V10.49l10-6.24h4.87V52.47H510Z"/><path class="a" d="M528.75,39.54c0-8.44,5.48-11.1,9-11.86v-.15c-3.73-1.14-8.06-3.57-8.06-11.79,0-7.22,5.17-12.32,14.22-12.32,8.14,0,14.07,4.49,14.07,12.17,0,8.21-4.94,11.33-8.14,11.94v.15c3.27.61,9,3.57,9,12.09,0,9.28-5.86,13.54-15.13,13.54S528.75,49.12,528.75,39.54ZM544,49c6.24,0,9-3.12,9-9.73,0-5.63-2.81-9.5-9.2-9.5-5.7,0-9.13,3.5-9.13,9.43C534.68,44.79,537,49,544,49Zm.15-23.57c4.87,0,7.91-3.19,7.91-8.59,0-6-3-9-8.29-9s-8.14,3.57-8.14,9C535.67,21.37,537.72,25.4,544.18,25.4Z"/><polygon class="b" points="403.8 10.15 392.16 30.2 403.8 50.25 354.73 30.2 403.8 10.15"/></svg>