<svg xmlns="http://www.w3.org/2000/svg" viewBox="0 0 226.77 49.51"><defs><style>.a,.c{fill:#0063af;}.a{fill-rule:evenodd;}.b{fill:none;stroke:#0063af;stroke-miterlimit:3.86;stroke-width:1.64px;}</style></defs><title>6_schneider</title><path class="a" d="M53.67,31.16a21.81,21.81,0,0,1-22,20.35,21.81,21.81,0,0,1-22-20.35ZM9.74,28.9a21.8,21.8,0,0,1,22-20.49,21.8,21.8,0,0,1,22,20.49Z" transform="translate(-1 -2)"/><path class="b" d="M1,30H9.67M53.8,30h174" transform="translate(-1 -2)"/><path class="c" d="M97.32,13.1c.27.25,1-.29.6-.66a8,8,0,0,0-7.65-2.08,6.88,6.88,0,0,0-5.46,7.21c0,5.32,3.05,8.51,7.12,8.51,2,0,4.22-.2,5.81-2.09.3-.33-.35-.88-.65-.62a4.46,4.46,0,0,1-2.69,1.51,2.53,2.53,0,0,1-2.87-2.44V14.68c0-1.54.95-3.36,2.07-3.36a5.11,5.11,0,0,1,3.72,1.78Z" transform="translate(-1 -2)"/><path class="c" d="M106.34,3.54,100,6.18V25.41h6.29v-10a2.71,2.71,0,0,1,2.9-2.66c.91.1,1.15.73,1.15,1.45V25.42h6V14.49a3.89,3.89,0,0,0-3.11-3.74c-2.71-.67-4.88.43-7,2.29V3.54Z" transform="translate(-1 -2)"/><path class="c" d="M203.33,11v14.4h5.83V13.52c0-1,2.25-1.58,2.44-.36a3,3,0,0,0,2.91,2.77,2.78,2.78,0,0,0,2.71-2.81,2.83,2.83,0,0,0-3.08-2.88,9.41,9.41,0,0,0-5,1.82s0-1,0-1Z" transform="translate(-1 -2)"/><path class="a" d="M176.3,15c0-2.72-4.65-5.28-4.59-1.11.06,4.58,0,2.18,0,8.61,0,3.36,4.59,1.45,4.59-.34V15Zm6.14-11.41v21.8l-6.17,0v-.7a13.73,13.73,0,0,1-3.68.76,7,7,0,0,1-5.68-2.2A7.92,7.92,0,0,1,165.26,18a8.63,8.63,0,0,1,2.37-5.62,6.17,6.17,0,0,1,4.5-2.09,5.93,5.93,0,0,1,4.15,1.51V5.59l6.17-2Z" transform="translate(-1 -2)"/><path class="c" d="M81.67,5c.21.09.62-.44.3-.62C78.9,2.67,77.17,1.86,73.48,2c-4.69.21-11.54,5.32-6.14,10.23,1.8,1.63,7.94,6,7.94,8.27,0,6.3-6.71,3.6-10,1.64-.16-.09-.5.33-.24.51A14.9,14.9,0,0,0,75.61,26c1.8-.07,8.84-2.54,7-8.76-1-3.31-9.42-7.84-9.5-10.8C72.91.22,81.38,4.87,81.67,5Z" transform="translate(-1 -2)"/><path class="c" d="M125.64,10.93h-6.44V25.4h6.44V15.23a2.55,2.55,0,0,1,2.71-2.64c.91.1,1.15.73,1.15,1.45V25.42h6v-11a3.89,3.89,0,0,0-3.11-3.74c-2.71-.67-4.72.32-6.79,2.18l0-2Z" transform="translate(-1 -2)"/><path class="a" d="M148,13a1.78,1.78,0,0,0-1.72-1.45c-1.19-.06-1.83,1.14-1.83,2.43v4.35H148V13Zm-2.19-2.38c7.55,0,7.64,5.63,7.64,8.87h-9v3.68c0,1.4,1.76,1.86,3.08,1.86,2.84,0,4.56-2,5.33-2.67.24-.22,1,.06.77.29-1.3,1.33-3.08,3.42-6.34,3.42-6,0-9.09-3.56-9.15-7.91-.05-4,2.35-7.52,7.67-7.54Z" transform="translate(-1 -2)"/><path class="a" d="M194.9,13a1.78,1.78,0,0,0-1.72-1.45c-1.19-.06-1.83,1.14-1.83,2.43v4.35h3.55V13Zm-2.19-2.38c7.55,0,7.64,5.63,7.64,8.87h-9v3.68c0,1.4,1.76,1.86,3.08,1.86,2.84,0,4.56-2,5.33-2.67.24-.22,1,.06.77.29-1.3,1.33-3.08,3.42-6.34,3.42-6,0-9.09-3.56-9.15-7.91-.05-4,2.35-7.52,7.67-7.54Z" transform="translate(-1 -2)"/><polygon class="c" points="161.56 9.13 161.56 23.46 155.34 23.46 155.34 9.13 161.56 9.13 161.56 9.13"/><path class="c" d="M156.06,6.83a3.38,3.38,0,0,1,6.73,0,3.38,3.38,0,0,1-6.73,0Z" transform="translate(-1 -2)"/><polygon class="c" points="69.8 37.58 73.88 33.15 72.2 33.15 68.26 37.43 68.26 33.15 66.91 33.15 66.91 42.52 68.26 42.52 68.26 37.89 73.03 42.52 74.88 42.52 69.8 37.58 69.8 37.58"/><path class="a" d="M85.19,35.15v9.37h1.35V40.45h.56c.69,0,1.25.22,2.49,2.14l1.24,1.92h1.61c-.65-.89-.88-1.21-1.28-1.85a7.65,7.65,0,0,0-2.09-2.6,2.34,2.34,0,0,0,1.57-2.29c0-1.62-1.18-2.62-3.08-2.62Zm1.35,1.15h.87c1.31,0,1.83.54,1.84,1.42s-.4,1.53-1.84,1.53h-.87V36.3Z" transform="translate(-1 -2)"/><polygon class="c" points="106.02 33.15 100.7 33.15 100.7 42.52 106.14 42.52 106.14 41.31 102.05 41.31 102.05 38.4 105.88 38.4 105.88 37.19 102.05 37.19 102.05 34.35 106.02 34.35 106.02 33.15 106.02 33.15"/><path class="c" d="M124.69,35.15h-1.35V40.6a2.73,2.73,0,0,1-.59,2,3.06,3.06,0,0,1-2.2.76,2.73,2.73,0,0,1-2-.8c-.43-.43-.56-.87-.56-1.92V35.15h-1.35V41c0,2.56,1.92,3.67,3.9,3.67,2.79,0,4.16-1.51,4.16-3.81V35.15Z" transform="translate(-1 -2)"/><polygon class="c" points="138.93 34.35 132.97 42.52 141.42 42.52 141.42 41.31 135.46 41.31 141.42 33.15 133.34 33.15 133.34 34.35 138.93 34.35 138.93 34.35"/><polygon class="c" points="159.57 33.15 158.3 33.15 158.3 40.4 151.95 33.15 150.88 33.15 150.88 42.52 152.15 42.52 152.15 35.3 158.41 42.52 159.57 42.52 159.57 33.15 159.57 33.15"/><path class="a" d="M174.81,35.09h-.95l-4,9.43h1.37l1.18-2.76h4l1.25,2.76H179l-4.19-9.43Zm-.49,2.06,1.51,3.39h-2.91l1.4-3.39Z" transform="translate(-1 -2)"/><path class="c" d="M195.71,35.79a8.15,8.15,0,0,0-3.22-.77A4.88,4.88,0,0,0,187.35,40a4.79,4.79,0,0,0,5.06,4.67,6.87,6.87,0,0,0,3.39-.82V42.35a6.14,6.14,0,0,1-3.27,1.06,3.51,3.51,0,0,1-3.79-3.56,3.57,3.57,0,0,1,3.74-3.59,6.17,6.17,0,0,1,3.23,1V35.79Z" transform="translate(-1 -2)"/><polygon class="c" points="212.63 33.15 211.28 33.15 211.28 37.23 206.03 37.23 206.03 33.15 204.69 33.15 204.69 42.52 206.03 42.52 206.03 38.44 211.28 38.44 211.28 42.52 212.63 42.52 212.63 33.15 212.63 33.15"/></svg>