<?xml version="1.0" encoding="UTF-8"?>
<svg width="126px" height="54px" viewBox="0 0 126 54" version="1.1" xmlns="http://www.w3.org/2000/svg" xmlns:xlink="http://www.w3.org/1999/xlink">
    <!-- Generator: Sketch 46.2 (44496) - http://www.bohemiancoding.com/sketch -->
    <title>10. Logo_Wir-leben-Pfalz</title>
    <desc>Created with Sketch.</desc>
    <defs>
        <polygon id="path-1" points="0 0 130 0 130 56 0 56"></polygon>
    </defs>
    <g id="Index" stroke="none" stroke-width="1" fill="none" fill-rule="evenodd">
        <g id="start" transform="translate(-825.000000, -3139.000000)">
            <g id="10.-Logo_Wir-leben-Pfalz" transform="translate(825.000000, 3137.000000)">
                <mask id="mask-2" fill="white">
                    <use xlink:href="#path-1"></use>
                </mask>
                <g id="PDF-CropBox"></g>
                <g id="Group-39" mask="url(#mask-2)">
                    <g transform="translate(-4.193548, 2.507463)">
                        <polygon id="Fill-1" fill="#00526E" points="0 55.8208855 129.693388 55.8208855 129.693388 0 0 0"></polygon>
                        <g id="Group-38" stroke-width="1" fill="none" transform="translate(10.690789, 10.687023)">
                            <path d="M4.59768092,21.6963237 C5.06893092,21.6518656 5.55942434,21.5834687 5.94728618,21.5834687 C7.66422697,21.5834687 9.19685855,22.4444153 9.19685855,24.8515603 C9.19685855,27.030858 8.19534539,28.1662473 5.51837171,28.1662473 L4.59768092,28.1662473 L4.59768092,21.6963237 Z M2.10501645,35.8378198 L0.980773026,36.0182168 L0.980773026,36.7462168 L5.72192434,36.7462168 L5.72192434,36.0182168 L4.59768092,35.8378198 L4.59768092,28.8908275 L6.00800987,28.8908275 L9.66768092,36.7462168 L13.1409046,36.7462168 L13.1409046,36.0182168 L12.0166612,35.8378198 L8.64521382,28.7313771 C10.2372862,28.4368427 11.8930757,27.053087 11.8930757,25.0794076 C11.8930757,21.4693313 8.88939145,20.8563237 6.19231908,20.8563237 L0.980773026,20.8563237 L0.980773026,21.5834687 L2.10501645,21.7638656 L2.10501645,35.8378198 Z M115.252484,11.5030412 L114.496859,11.3222168 C113.37176,14.0927206 112.083734,15.5671023 109.120247,15.5671023 C108.773865,15.5671023 108.426201,15.5222168 108.078964,15.3858504 L108.078964,8.12209466 L108.896595,8.12209466 C110.306497,8.12209466 110.818372,8.84795725 111.144227,10.6643237 L111.798931,10.6643237 L111.798931,4.85400305 L111.144227,4.85400305 C110.818372,6.66908702 110.306497,7.39708702 108.896595,7.39708702 L108.078964,7.39708702 L108.078964,1.31232366 C108.426201,1.17510229 108.773865,1.13107176 109.120247,1.13107176 C112.125641,1.13107176 113.187878,2.2433771 114.271924,4.85400305 L115.027122,4.67232366 L114.08847,0.0636519084 C113.718141,0.291071756 113.004852,0.403926718 112.186365,0.403926718 L104.461628,0.403926718 L104.461628,1.13107176 L105.585872,1.31232366 L105.585872,15.3858504 L104.461628,15.5671023 L104.461628,16.2925374 L112.329194,16.2925374 C113.147681,16.2925374 113.863536,16.4071023 114.231299,16.6340947 L115.252484,11.5030412 Z M103.042319,16.2925374 L103.042319,15.5671023 L101.919359,15.3858504 L101.919359,1.31232366 L103.042319,1.13107176 L103.042319,0.403926718 L98.302023,0.403926718 L98.302023,1.13107176 L99.4245559,1.31232366 L99.4245559,15.3858504 L98.302023,15.5671023 L98.302023,16.2925374 L103.042319,16.2925374 Z M86.0516612,15.3858504 L84.9265625,15.5671023 L84.9265625,16.2925374 L90.4241941,16.2925374 C95.1046217,16.2925374 96.8626151,11.9587359 96.8626151,8.3473771 C96.8626151,4.73943817 95.1046217,0.403926718 90.4241941,0.403926718 L84.9265625,0.403926718 L84.9265625,1.13107176 L86.0516612,1.31232366 L86.0516612,15.3858504 Z M88.5456086,1.31232366 C88.8312664,1.19904122 89.3623849,1.13107176 90.0564309,1.13107176 C92.4075493,1.13107176 94.1651151,2.53833893 94.1651151,8.3473771 C94.1651151,14.1594076 92.4075493,15.5671023 90.0564309,15.5671023 C89.3623849,15.5671023 88.8312664,15.4987053 88.5456086,15.3858504 L88.5456086,1.31232366 Z" id="Fill-2" fill="#FFFFFE"></path>
                            <path d="M77.1991743,36.7462595 L77.1991743,36.0182595 L76.0749309,35.8378626 L76.0749309,28.7989618 L77.2817072,28.7989618 C78.6317401,28.7989618 79.060227,29.8685191 79.2436809,31.4330992 L79.8979572,31.4330992 L79.8979572,25.6916031 L79.2436809,25.6916031 C79.060227,27.0082443 78.6317401,28.0743817 77.2817072,28.0743817 L76.0749309,28.0743817 L76.0749309,21.7639084 C76.4234507,21.6279695 76.7706875,21.5835115 77.118352,21.5835115 C79.9176283,21.5835115 80.8789441,23.0574656 82.1246349,25.5787481 L82.9012138,25.3739847 L81.7778257,20.5148092 C81.4096349,20.742229 80.6937796,20.8563664 79.8770033,20.8563664 L72.4593059,20.8563664 L72.4593059,21.5835115 L73.5826941,21.7639084 L73.5826941,35.8378626 L72.4593059,36.0182595 L72.4593059,36.7462595 L77.1991743,36.7462595 Z M62.1452599,35.8378626 L61.022727,36.0182595 L61.022727,36.7462595 L65.7643059,36.7462595 L65.7643059,36.0182595 L64.6392072,35.8378626 L64.6392072,29.4367634 L65.5988125,29.4367634 C68.7059836,29.4367634 71.9555559,28.6185649 71.9555559,24.8973435 C71.9555559,21.9002748 69.155852,20.8563664 66.336477,20.8563664 L61.022727,20.8563664 L61.022727,21.5835115 L62.1452599,21.7639084 L62.1452599,35.8378626 Z M64.6392072,21.8109313 C65.0484507,21.672855 65.5594704,21.5835115 66.0290099,21.5835115 C68.2154901,21.5835115 69.2580559,22.9219542 69.2580559,25.0559389 C69.2580559,27.5985954 67.685227,28.7096183 65.6616743,28.7096183 C65.3140099,28.7096183 64.8846678,28.6185649 64.6392072,28.5283664 L64.6392072,21.8109313 Z M50.5735493,20.8563664 L46.8142401,20.8563664 L46.8142401,21.5835115 C47.7755559,21.6963664 48.550852,22.444458 48.550852,23.8068397 L48.550852,33.8406718 C48.550852,35.157313 47.7755559,35.9062595 46.8142401,36.0182595 L46.8142401,36.7462595 L51.1876283,36.7462595 L51.1876283,36.0182595 C50.2263125,35.9062595 49.4505888,35.3150534 49.4505888,34.0894656 L49.4505888,24.1018015 L49.4912138,24.1018015 L57.1954243,37.0869618 L58.1550296,37.0869618 L58.1550296,23.5349618 C58.1550296,22.444458 58.7079572,21.7421069 59.7295691,21.5835115 L59.7295691,20.8563664 L55.6828914,20.8563664 L55.6828914,21.5835115 C56.7045033,21.7421069 57.2578586,21.9926107 57.2578586,23.2626565 L57.2578586,32.1829008 L57.2163783,32.1829008 L50.5735493,20.8563664 Z M45.4787467,36.7462595 L45.4787467,36.0182595 L44.3562138,35.8378626 L44.3562138,21.7639084 L45.4787467,21.5835115 L45.4787467,20.8563664 L40.7375954,20.8563664 L40.7375954,21.5835115 L41.8614112,21.7639084 L41.8614112,35.8378626 L40.7375954,36.0182595 L40.7375954,36.7462595 L45.4787467,36.7462595 Z M39.3593388,31.9559084 L38.6032862,31.7738015 C37.4790428,34.5447328 36.1922993,36.0182595 33.227102,36.0182595 C32.8807204,36.0182595 32.5339112,35.9738015 32.187102,35.8378626 L32.187102,28.5736794 L33.0043059,28.5736794 C34.4142072,28.5736794 34.9243717,29.2991145 35.2510822,31.1159084 L35.9062138,31.1159084 L35.9062138,25.3055878 L35.2510822,25.3055878 C34.9243717,27.1215267 34.4142072,27.8490992 33.0043059,27.8490992 L32.187102,27.8490992 L32.187102,21.7639084 C32.5339112,21.6279695 32.8807204,21.5835115 33.227102,21.5835115 C36.2320691,21.5835115 37.2938783,22.6949618 38.3787796,25.3055878 L39.1344046,25.1239084 L38.1940428,20.5148092 C37.8267072,20.742229 37.1117072,20.8563664 36.2945033,20.8563664 L28.5684836,20.8563664 L28.5684836,21.5835115 L29.692727,21.7639084 L29.692727,35.8378626 L28.5684836,36.0182595 L28.5684836,36.7462595 L36.4360493,36.7462595 C37.2536809,36.7462595 37.9695362,36.8591145 38.3368717,37.0869618 L39.3593388,31.9559084 Z M25.8393388,21.7639084 L26.9640099,21.5835115 L26.9640099,20.8563664 L22.2220033,20.8563664 L22.2220033,21.5835115 L23.3458191,21.7639084 L23.3458191,27.9384427 L17.5839112,27.9384427 L17.5839112,21.7639084 L18.7068717,21.5835115 L18.7068717,20.8563664 L13.966148,20.8563664 L13.966148,21.5835115 L15.0899638,21.7639084 L15.0899638,35.8378626 L13.966148,36.0182595 L13.966148,36.7462595 L18.7068717,36.7462595 L18.7068717,36.0182595 L17.5839112,35.8378626 L17.5839112,28.8908702 L23.3458191,28.8908702 L23.3458191,35.8378626 L22.2220033,36.0182595 L22.2220033,36.7462595 L26.9640099,36.7462595 L26.9640099,36.0182595 L25.8393388,35.8378626 L25.8393388,21.7639084 Z" id="Fill-4" fill="#FFFFFE"></path>
                            <path d="M95.6257763,35.8378626 L94.5015329,36.0182595 L94.5015329,36.7462595 L101.920086,36.7462595 C102.736007,36.7462595 103.451862,36.8591145 103.820053,37.0869618 L104.943441,32.2273588 L104.166862,32.0225954 C102.921599,34.5447328 101.960711,36.0182595 99.1605789,36.0182595 C98.8129145,36.0182595 98.5063026,35.9738015 98.1188684,35.8378626 L98.1188684,21.7639084 L99.2414013,21.5835115 L99.2414013,20.8563664 L94.5015329,20.8563664 L94.5015329,21.5835115 L95.6257763,21.7639084 L95.6257763,35.8378626 Z M84.7870263,36.7462595 L84.7870263,36.0182595 C84.1130789,35.7912672 83.3779803,35.6549008 83.3779803,34.8610687 C83.3779803,34.4977099 83.4173224,34.248916 83.5208092,33.8641832 L84.1331776,31.7062595 L88.9966316,31.7062595 L90.1824539,35.7468092 L89.0586382,36.0182595 L89.0586382,36.7462595 L93.9426184,36.7462595 L93.9426184,36.0182595 L92.8188026,35.7468092 L88.3436382,20.6751145 L85.5854145,20.8337099 L86.0960066,22.1730076 L82.6822237,33.8859847 C82.3140329,35.134229 81.8855461,35.6330992 80.7403487,36.0182595 L80.7403487,36.7462595 L84.7870263,36.7462595 Z M84.4406447,30.7525496 L86.5655461,23.352855 L86.6061711,23.352855 L88.7528816,30.7525496 L84.4406447,30.7525496 Z" id="Fill-6" fill="#FFFFFE"></path>
                            <path d="M109.555533,36.0975145 C112.241487,36.1052092 113.499579,34.1721405 114.430533,32.1963237 L115.163921,32.2873771 L114.078164,37.1572397 C113.895138,37.0452397 113.628724,36.9533313 113.304151,36.9105832 C112.977441,36.8421863 112.590862,36.8195298 112.183757,36.8182473 L105.103888,36.8054229 L105.103888,35.8243542 L112.149546,21.7123542 L110.400961,21.7790412 C107.959612,21.8735145 106.94527,23.6048122 106.081026,25.4844458 L105.38527,25.4015145 L106.209743,20.8941557 C106.397474,20.9976061 106.665599,21.0758351 106.993164,21.1070412 C107.321158,21.1621863 107.70902,21.1703084 108.113987,21.1536366 L114.788033,20.8980031 L114.822243,21.8341863 L107.955336,36.075713 L109.555533,36.0975145 Z" id="Fill-8" fill="#FFFFFE"></path>
                            <path d="M6.78446053,16.2133679 C6.71518421,15.8093985 6.65745395,15.416971 6.58860526,15.024971 C6.51890132,14.6440855 6.43807895,14.2632 6.35725658,13.8823145 L5.42245395,8.90942901 L4.46455921,13.6172763 C4.30291447,14.4709557 4.11817763,15.3250626 3.96807895,16.178742 L3.89880263,16.2591084 C3.34501974,16.2591084 2.79080921,16.2710779 2.22505263,16.2941618 L2.14423026,16.2133679 C1.867125,14.8172153 1.54426316,13.4321771 1.23251974,12.0364519 C0.955414474,10.7552916 0.678309211,9.47455878 0.355019737,8.19382595 L0.424296053,8.11303206 C0.863046053,8.11303206 1.29025,8.10149008 1.72857237,8.07840611 L1.79784868,8.1592 C1.89021711,8.68970382 1.98258553,9.20909313 2.0865,9.74002443 C2.16732237,10.1786198 2.24814474,10.6052458 2.32896711,11.0438412 L3.17140132,15.4520244 L4.12972368,10.3402076 C4.26827632,9.62460458 4.39528289,8.90942901 4.52186184,8.19382595 L4.59156579,8.11303206 C5.20307895,8.11303206 5.81501974,8.08994809 6.42696053,8.07840611 L6.49580921,8.1592 C6.61126974,8.9902229 6.76136842,9.79773435 6.91146711,10.6167878 L7.82360526,15.4746809 L8.72376974,10.9168794 C8.89696053,10.0054901 9.08169737,9.11675725 9.22025,8.19382595 L9.30107237,8.11303206 C9.67054605,8.10149008 10.0395921,8.08994809 10.4206118,8.07840611 L10.4783421,8.1592 C10.3282434,8.67858931 10.1896908,9.20909313 10.0511382,9.74002443 C9.85485526,10.5825893 9.67054605,11.4247267 9.48538158,12.2672916 C9.18561184,13.5706809 8.87386842,14.8633832 8.60830921,16.178742 L8.51594079,16.2591084 C7.97327632,16.2591084 7.41949342,16.2710779 6.86528289,16.2941618 L6.78446053,16.2133679 Z" id="Fill-10" fill="#FFFFFE"></path>
                            <path d="M11.0351184,8.59762443 C11.0466645,8.3898687 11.0582105,8.18211298 11.0466645,7.98589924 C11.0466645,7.82431145 11.0351184,7.67469313 11.0235724,7.51310534 L11.1043947,7.44385344 C11.5315987,7.40922748 11.958375,7.36305954 12.3855789,7.32843359 L12.4548553,7.3976855 C12.4433092,7.76702901 12.4433092,8.13594504 12.4548553,8.49374656 L12.3740329,8.57454046 C11.958375,8.59762443 11.5315987,8.63225038 11.1043947,8.66687634 L11.0351184,8.59762443 Z M11.0582105,16.2131969 C11.1043947,15.3710595 11.1274868,14.5173802 11.1274868,13.6748153 C11.1274868,13.2939298 11.1159408,12.9130443 11.1159408,12.5325863 C11.1159408,12.1401588 11.1159408,11.7477313 11.0928487,11.3672733 C11.0813026,11.0667542 11.0466645,10.7786321 11.0120263,10.4900824 L11.0813026,10.4092885 C11.4969605,10.3400366 11.9121908,10.2707847 12.3163026,10.1784489 L12.4317632,10.2592427 C12.3740329,11.2403115 12.3624868,12.2209527 12.3624868,13.2246779 C12.3624868,13.871029 12.3624868,14.5173802 12.3740329,15.1628763 C12.3855789,15.4980214 12.4086711,15.8442809 12.4317632,16.178571 L12.3624868,16.2478229 C11.9468289,16.2593649 11.5315987,16.2709069 11.1159408,16.2944183 L11.0582105,16.2131969 Z" id="Fill-12" fill="#FFFFFE"></path>
                            <path d="M15.1103618,16.2480366 C14.6947039,16.2591511 14.2905921,16.2711206 13.8869079,16.2942046 L13.8291776,16.2134107 C13.8407237,15.1053802 13.8522697,13.9977771 13.8522697,12.8786321 C13.8522697,12.4054107 13.8522697,11.9326168 13.8291776,11.4478534 C13.8060855,11.1246779 13.7829934,10.8015023 13.7483553,10.4898687 L13.8176316,10.4090748 C14.2217434,10.3282809 14.6138816,10.247487 15.0179934,10.1786626 L15.0872697,10.247487 L15.0295395,11.2285557 C15.0872697,11.0785099 15.145,10.9400061 15.2142763,10.8130443 C15.5952961,10.1666931 16.1490789,10.1209527 16.4377303,10.1209527 C16.6109211,10.1209527 16.6686513,10.1324947 16.7610197,10.1555786 L16.8072039,10.2248305 C16.7263816,10.6168305 16.6455592,11.009258 16.5878289,11.4016855 L16.5070066,11.4593954 C16.3338158,11.4016855 16.2183553,11.3555176 16.0340461,11.3555176 C15.8493092,11.3555176 15.6876645,11.4132275 15.5491118,11.5171053 C15.0872697,11.8518229 15.0988158,12.4862046 15.0872697,12.6016244 C15.0757237,12.913258 15.0872697,13.2248916 15.0872697,13.5249832 C15.0872697,14.4132885 15.1103618,15.2900519 15.1680921,16.1787847 L15.1103618,16.2480366 Z" id="Fill-14" fill="#FFFFFE"></path>
                            <path d="M20.6641414,16.2133679 C20.7103257,14.9441771 20.7218717,13.6861008 20.7218717,12.4169099 C20.7218717,11.3785588 20.7103257,10.3282382 20.6987796,9.28988702 L20.6641414,8.21690992 C20.6525954,7.92836031 20.6295033,7.65135267 20.6064112,7.36280305 L20.6756875,7.29355115 C21.0913454,7.22472672 21.5070033,7.14393282 21.9222336,7.05159695 L21.9915099,7.13239084 C21.9111151,8.70167328 21.9111151,10.2820702 21.9111151,11.8633221 C21.9111151,13.3052153 21.9222336,14.7364214 22.0030559,16.178742 L21.9337796,16.2479939 C21.5296678,16.2591084 21.1259836,16.2710779 20.7218717,16.2941618 L20.6641414,16.2133679 Z" id="Fill-16" fill="#FFFFFE"></path>
                            <path d="M27.1291184,11.8861924 C26.8520132,11.0555969 26.1707961,10.9401771 25.8475066,10.9401771 C25.2244474,10.9401771 24.7164211,11.3326046 24.4855,11.9092763 C24.3700395,12.186284 24.3584934,12.4286656 24.347375,12.5325435 C25.3052697,12.5325435 26.2631645,12.5325435 27.2214868,12.5210015 C27.2099408,12.174742 27.1868487,12.0593221 27.1291184,11.8861924 L27.1291184,11.8861924 Z M28.0177368,15.959658 C27.6944474,16.1323603 27.1175724,16.397826 26.1938882,16.397826 C25.8821447,16.397826 24.6817829,16.386284 23.8739868,15.5441466 C23.5160592,15.1748031 23.1004013,14.4942534 23.1004013,13.293887 C23.1004013,12.8788031 23.1350395,11.2629252 24.4855,10.4784977 C24.7279671,10.3399939 25.2013553,10.1091542 25.9172105,10.1091542 C26.7134605,10.1091542 27.4866184,10.4207878 27.9369145,11.1017649 C28.491125,11.9439023 28.4218487,13.1092153 28.4218487,13.3404824 L28.3410263,13.4097344 C27.0021118,13.3981924 25.6747434,13.3981924 24.347375,13.4097344 C24.3584934,13.9748641 24.4281974,14.4592 24.8087895,14.8866809 C25.0512566,15.1517191 25.2821776,15.2675664 25.4091842,15.3248489 C25.7666842,15.4637802 26.1361579,15.4748947 26.2631645,15.4748947 C26.5171776,15.4748947 27.0944803,15.4402687 27.6944474,15.0940092 C27.8560921,14.9901313 27.9488882,14.9208794 28.0985592,14.7939176 L28.1909276,14.8516275 C28.1447434,15.1983145 28.1101053,15.5326046 28.0870132,15.8784366 L28.0177368,15.959658 Z" id="Fill-18" fill="#FFFFFE"></path>
                            <path d="M31.0782533,15.3943145 C31.228352,15.405429 31.5747336,15.416971 31.9668717,15.3361771 C33.5597993,14.9783756 33.6521678,13.4903145 33.6521678,13.0170931 C33.6521678,12.6477496 33.5944375,12.4515359 33.5482533,12.2899481 C33.340852,11.5747725 32.7520033,11.0553832 31.9784178,11.0553832 C31.3669046,11.0553832 30.8819704,11.4016427 30.7318717,11.5055206 C30.7203257,12.7977954 30.7318717,14.0900702 30.7549638,15.3827725 L31.0782533,15.3943145 Z M29.4968717,16.1898565 C29.5315099,15.0360855 29.5315099,13.8712 29.5315099,12.7054595 C29.5315099,11.6555664 29.5430559,10.6052458 29.5315099,9.56689466 C29.5199638,8.82863511 29.4968717,8.10149008 29.4160493,7.36280305 L29.4853257,7.29355115 C29.8894375,7.21275725 30.2931217,7.13239084 30.6856875,7.05159695 L30.7665099,7.13239084 C30.7549638,8.29770382 30.7318717,9.46301679 30.7203257,10.6287573 C30.9858849,10.443658 31.5281217,10.1093679 32.3478914,10.1093679 C32.5326283,10.1093679 32.902102,10.1209099 33.3288783,10.2940397 C33.9754572,10.5706198 34.8991414,11.3208489 34.8991414,13.0055511 C34.8991414,15.0476275 33.5828914,15.8093985 32.8328257,16.0628947 C32.1169704,16.2941618 31.3549309,16.2826198 31.1244375,16.2826198 L30.4778586,16.2826198 C30.1661151,16.2710779 29.8663454,16.2710779 29.566148,16.2710779 L29.4968717,16.1898565 Z" id="Fill-20" fill="#FFFFFE"></path>
                            <path d="M39.7718322,11.8861924 C39.494727,11.0555969 38.8135099,10.9401771 38.4902204,10.9401771 C37.8671612,10.9401771 37.3591349,11.3326046 37.1282138,11.9092763 C37.0127533,12.186284 37.0012072,12.4286656 36.9900888,12.5325435 C37.9479836,12.5325435 38.9058783,12.5325435 39.8642007,12.5210015 C39.8526546,12.174742 39.8295625,12.0593221 39.7718322,11.8861924 L39.7718322,11.8861924 Z M40.6604507,15.959658 C40.3371612,16.1323603 39.7602862,16.397826 38.836602,16.397826 C38.5248586,16.397826 37.3244967,16.386284 36.5167007,15.5441466 C36.158773,15.1748031 35.7431151,14.4942534 35.7431151,13.293887 C35.7431151,12.8788031 35.7777533,11.2629252 37.1282138,10.4784977 C37.3706809,10.3399939 37.8440691,10.1091542 38.5599243,10.1091542 C39.3561743,10.1091542 40.1293322,10.4207878 40.5796283,11.1017649 C41.1338388,11.9439023 41.0645625,13.1092153 41.0645625,13.3404824 L40.9837401,13.4097344 C39.6448257,13.3981924 38.3174572,13.3981924 36.9900888,13.4097344 C37.0012072,13.9748641 37.0709112,14.4592 37.4515033,14.8866809 C37.6939704,15.1517191 37.9248914,15.2675664 38.051898,15.3248489 C38.409398,15.4637802 38.7788717,15.4748947 38.9058783,15.4748947 C39.1598914,15.4748947 39.7371941,15.4402687 40.3371612,15.0940092 C40.4988059,14.9901313 40.591602,14.9208794 40.741273,14.7939176 L40.8336414,14.8516275 C40.7874572,15.1983145 40.7528191,15.5326046 40.729727,15.8784366 L40.6604507,15.959658 Z" id="Fill-22" fill="#FFFFFE"></path>
                            <path d="M46.0063158,16.2133679 C46.0178618,15.0595969 46.0178618,13.905826 46.0178618,12.7400855 C46.0178618,12.324574 45.9947697,11.8979481 45.7523026,11.5401466 C45.6252961,11.3554748 45.4636513,11.2515969 45.3828289,11.216971 C45.2447039,11.1477191 45.0830592,11.1246351 44.9098684,11.1246351 C44.2979276,11.1246351 43.8480592,11.4247267 43.3862171,11.7709863 C43.3862171,12.7054595 43.3862171,13.6399328 43.4093092,14.5637191 C43.4208553,15.1053374 43.4439474,15.6482382 43.4785855,16.178742 L43.4093092,16.2479939 C43.0051974,16.2591084 42.6010855,16.2710779 42.1969737,16.2941618 L42.1396711,16.2133679 C42.1743092,14.6671695 42.1969737,13.1090015 42.1161513,11.5632305 C42.0934868,11.205429 42.0699671,10.8476275 42.0353289,10.489826 L42.1046053,10.4090321 C42.5087171,10.3402076 42.924375,10.2594137 43.3284868,10.1786198 L43.4093092,10.2709557 L43.3977632,10.8591695 C43.5363158,10.7552916 43.6864145,10.6633832 43.8360855,10.5825893 C44.0670066,10.4556275 44.6674013,10.1439939 45.4178947,10.1439939 C45.6599342,10.1439939 46.2949671,10.1555359 46.7683553,10.6744977 C46.9180263,10.8360855 47.0108224,10.9976733 47.0796711,11.193887 C47.2066776,11.5401466 47.2066776,11.8171542 47.2297697,12.5207878 L47.2297697,13.8823145 C47.2413158,14.6440855 47.2532895,15.416971 47.2990461,16.178742 L47.2297697,16.2479939 C46.8491776,16.2591084 46.4566118,16.2710779 46.0755921,16.2941618 L46.0063158,16.2133679 Z" id="Fill-24" fill="#FFFFFE"></path>
                            <path d="M55.7741908,11.6555237 C55.9589276,11.4823939 56.2129408,11.1361344 56.2013947,10.5132947 C56.2013947,10.0631573 56.0859342,9.80923359 55.9704737,9.6476458 C55.5783355,9.05943206 54.9317566,9.01283664 54.3082697,9.01283664 C53.9618882,9.01283664 53.6270526,9.01283664 53.2926447,9.0474626 C53.2810987,10.1093252 53.2810987,11.1592183 53.2926447,12.2210809 C54.6200132,12.2091115 55.2665921,12.1744855 55.7741908,11.6555237 L55.7741908,11.6555237 Z M53.3041908,16.2594931 C52.8885329,16.2594931 52.4613289,16.2710351 52.0460987,16.2945466 L51.9768224,16.2133252 C51.9994868,15.2091725 52.0114605,14.2054473 52.0114605,13.1901802 C52.0114605,12.1283176 52.0114605,11.0553405 51.9879408,9.99390534 C51.9768224,9.39372214 51.9421842,8.79396641 51.9075461,8.19378321 L51.9768224,8.11298931 C52.3920526,8.11298931 52.8077105,8.10144733 53.2118224,8.08990534 L53.9849803,8.07836336 C54.2274474,8.06682137 54.4814605,8.06682137 54.7239276,8.07836336 C55.024125,8.08990534 56.2937632,8.07836336 57.0211645,9.01283664 C57.4594868,9.58993588 57.5056711,10.270913 57.5056711,10.5244092 C57.5056711,10.9052947 57.4248487,11.7478595 56.6285987,12.4168672 C56.0743882,12.8785466 55.2896842,13.1670962 53.7775789,13.1670962 C53.6159342,13.1670962 53.4658355,13.1555542 53.2926447,13.1555542 C53.3041908,13.6403176 53.3041908,14.1361954 53.3272829,14.6209588 C53.3388289,15.1403481 53.3619211,15.6593099 53.3850132,16.1786992 L53.3041908,16.2594931 Z" id="Fill-26" fill="#FFFFFE"></path>
                            <path d="M58.5114178,16.2133679 C58.5806941,14.9557191 58.569148,13.6976427 58.569148,12.4399939 C58.569148,12.0249099 58.569148,11.6209405 58.5460559,11.205429 C58.2804967,11.216971 58.0149375,11.216971 57.7498059,11.216971 L57.6805296,11.1477191 C57.7036217,10.8707115 57.7151678,10.5937038 57.7267138,10.3171237 L57.7959901,10.2474443 C58.0495757,10.2594137 58.2920428,10.2709557 58.5460559,10.2709557 L58.5229638,9.50918473 C58.5229638,9.31297099 58.5229638,9.11675725 58.5345099,8.9320855 C58.5345099,8.67858931 58.5806941,8.02069618 59.215727,7.58252824 C59.5043783,7.37434504 59.8734243,7.24738321 60.6239178,7.24738321 C60.7509243,7.24738321 60.8890493,7.25935267 61.0160559,7.27089466 L61.0742138,7.35168855 C61.0395757,7.6282687 61.0160559,7.90527634 60.9933914,8.17074198 L60.9125691,8.22845191 C60.8432928,8.21690992 60.7620428,8.19382595 60.6008257,8.19382595 C60.3468125,8.19382595 60.1389836,8.25153588 59.9662204,8.44774962 C59.7464178,8.72432977 59.7348717,9.10564275 59.7348717,9.43993282 L59.7348717,10.2709557 C60.1274375,10.2594137 60.4969112,10.2594137 60.8779309,10.2474443 L60.9352336,10.3171237 C60.9241151,10.5937038 60.9005954,10.8591695 60.9005954,11.1361771 L60.8202007,11.205429 C60.462273,11.193887 60.1154638,11.182345 59.7583914,11.193887 C59.7583914,12.8555053 59.7810559,14.5171237 59.8734243,16.178742 L59.8156941,16.2591084 C59.4004638,16.2591084 58.9848059,16.2710779 58.569148,16.2826198 L58.5114178,16.2133679 Z" id="Fill-28" fill="#FFFFFE"></path>
                            <path d="M64.8613618,13.0170931 L64.7570197,13.0286351 C63.799125,13.1671389 63.2564605,13.2941008 62.8869868,13.5826504 C62.7599803,13.6861008 62.5179408,13.9284824 62.5179408,14.4017038 C62.5179408,14.7364214 62.6907039,15.1403908 63.0024474,15.3135206 C63.1871842,15.416971 63.3945855,15.4520244 63.6028421,15.4520244 C63.7760329,15.4520244 64.2147829,15.416971 64.6184671,15.1403908 C64.6757697,15.1053374 64.7570197,15.0360855 64.8613618,14.9441771 L64.8613618,13.0170931 Z M66.0617237,16.2479939 C65.6691579,16.2591084 65.2881382,16.2710779 64.8955724,16.2945893 L64.8498158,16.2133679 L64.8498158,15.8093985 C64.5958026,16.0286962 64.0877763,16.3980397 63.2453421,16.3980397 C63.1063618,16.3980397 62.9562632,16.3980397 62.6791579,16.3287878 C61.7901118,16.0983756 61.2825132,15.3592611 61.2825132,14.4594137 C61.2825132,14.2982534 61.2940592,13.8938565 61.5138618,13.5133985 C61.9171184,12.8093374 62.6791579,12.5900397 62.9105066,12.5207878 C63.4527434,12.3592 64.0988947,12.2437802 64.6535329,12.1864977 L64.8498158,12.1629863 C64.8498158,11.8286962 64.8613618,11.4939786 64.5958026,11.2631389 C64.4337303,11.1246351 64.2147829,11.0207573 63.7871513,11.0207573 C63.3257368,11.0207573 62.8869868,11.0784672 62.0330066,11.4593527 L61.9406382,11.4016427 C61.9521842,11.1246351 61.9752763,10.8360855 61.9752763,10.5590779 L62.0556711,10.489826 C62.3216579,10.3979176 63.141,10.1093679 64.0411645,10.1093679 C65.034125,10.1093679 65.5421513,10.489826 65.7841908,10.8707115 C66.0617237,11.3093069 66.04975,11.7709863 66.04975,12.7400855 L66.04975,13.8823145 C66.04975,14.6440855 66.04975,15.416971 66.1190263,16.1898565 L66.0617237,16.2479939 Z" id="Fill-30" fill="#FFFFFE"></path>
                            <path d="M67.4597368,16.2133679 C67.5054934,14.9441771 67.5174671,13.6861008 67.5174671,12.4169099 C67.5174671,11.3785588 67.5054934,10.3282382 67.4939474,9.28988702 L67.4597368,8.21690992 C67.4481908,7.92836031 67.4255263,7.65135267 67.4020066,7.36280305 L67.4712829,7.29355115 C67.8865132,7.22472672 68.3025987,7.14393282 68.7174013,7.05159695 L68.7871053,7.13239084 C68.7067105,8.70167328 68.7067105,10.2820702 68.7067105,11.8633221 C68.7067105,13.3052153 68.7174013,14.7364214 68.7986513,16.178742 L68.729375,16.2479939 C68.3256908,16.2591084 67.9215789,16.2710779 67.5174671,16.2941618 L67.4597368,16.2133679 Z" id="Fill-32" fill="#FFFFFE"></path>
                            <path d="M69.537727,16.1899847 C70.0346349,15.3593893 70.5191414,14.5172519 71.0045033,13.674687 C71.4770362,12.8325496 71.950852,12.0015267 72.4007204,11.1593893 C71.5463125,11.1593893 70.7038783,11.1709313 69.8610164,11.1940153 L69.8032862,11.1247634 C69.838352,10.8592977 69.8610164,10.5938321 69.8845362,10.3399084 L69.9653586,10.2706565 C71.3500296,10.2706565 72.7359836,10.2591145 74.1206546,10.2360305 L74.1783849,10.3283664 C73.1743059,11.9553588 72.2737138,13.674687 71.3735493,15.3478473 C72.2963783,15.3363053 73.2200625,15.3132214 74.1437467,15.2785954 L74.201477,15.3478473 C74.1664112,15.624855 74.1437467,15.9138321 74.1206546,16.1899847 L74.0513783,16.2481221 C73.3590428,16.2592366 72.6782533,16.2707786 71.9850625,16.2707786 C71.1888125,16.2707786 70.3805888,16.2707786 69.5843388,16.2942901 L69.537727,16.1899847 Z" id="Fill-34" fill="#FFFFFE"></path>
                            <path d="M76.2228059,16.2363237 C75.7951743,16.2478656 75.368398,16.2709496 74.9416217,16.2944611 L74.8603717,16.2016977 C74.8723454,15.7981557 74.8723454,15.3941863 74.8603717,15.0017588 L74.9523125,14.8978809 C75.3799441,14.8978809 75.7951743,14.8747969 76.1992862,14.851713 L76.302773,14.9555908 C76.2920822,15.3480183 76.2920822,15.7400183 76.302773,16.1324458 L76.2228059,16.2363237 Z" id="Fill-36" fill="#FFFFFE"></path>
                        </g>
                    </g>
                </g>
            </g>
        </g>
    </g>
</svg>