<svg xmlns="http://www.w3.org/2000/svg" viewBox="0 0 635.31 110.74"><defs><style>.a{fill-rule:evenodd;}.b{fill:none;stroke:#000;stroke-miterlimit:3.86;stroke-width:0.01px;}</style></defs><title>5_RZ</title><path class="a" d="M88.06,85.16c2.5-1.08,2.57-3,2.4-5.72V19.15c-.07-3-1.94-6.1-6.35-9.58l.66-1c6.19,1.15,9,3.1,9.85,5.7,8.34-8.2,14.63-8.74,20.3-1.51-7.58-2.21-11,.54-11,6.65V43.13l12.47-10.3,18.77,9.6-2.83,4V81.73c0,.86,1.81,1.92,3.46,3a10.67,10.67,0,0,0-5.47,4.3c-11,14.06-19.31,20.75-26.92,19.91,10.18-4,14.85-12.79,14.78-26.57V49.62l-8.79-4.4-5.25,3.55V79c0,2.05,2.57,5.42,5,6L97.48,96.19c-2-3.14-5.12-7.77-9.42-11" transform="translate(-3 -3.28)"/><path class="a" d="M45.92,77.17a9,9,0,0,0-4.3-.08V23.85L45.92,22V77.17ZM66.59,36.69,50.18,50.74V19.19l2.13-1.58L66.59,36.69Zm14.79-7.88-18,15.35C80.65,50.58,75.76,69.43,86.17,81.6l1.94-1.66,1.66,1.61c-5.47,5.54-6.55,8.87-9.28,15.43C62,88.48,73.8,58.42,50.12,54.74l-.06,23C52.67,78,57,80,57,80a22.58,22.58,0,0,0,3.55-4.53l2.14,1.78L53,96.06c-13.5-7.8-33.72-8.25-48.3.06C8.45,86.7,16.92,80.55,26.44,77.5V30c0-4.19-4.33-7.8-8.53-7.8C12.24,21.92,7.59,24,5,28.81H3c1.42-8.72,13.11-18.73,21.47-18.73,15.57,0,16.73,9,16.73,9,8.52-.92,13.66-10,19.34-15.75A1.53,1.53,0,0,1,62.19,4M212,80.76V46.36a10.23,10.23,0,0,0-6.13-4.72l11.83-10.27,8,7.06v7.94l17.92-14.7,13.71,11.19V44.6a4.55,4.55,0,0,0-2.94,4.09V78.42c0,2.75,2.44,4.23,6.86,4.23L249.93,96.19,238,85.73a4.75,4.75,0,0,0,2.8-4.31V48.69l-5.84-4.24-9,6.76V80.13q-.12,2.46,3.77,3.69v1.61L219,94,208.21,86l-.15-1.32q3.41-1.3,4-3.95" transform="translate(-3 -3.28)"/><path class="a" d="M195.47,12H205L190.38,29.88c-.88.48-2.1,0-2-.7" transform="translate(-3 -3.28)"/><path class="b" d="M195.47,12H205L190.38,29.88c-.88.48-2.1,0-2-.7Z" transform="translate(-3 -3.28)"/><path class="a" d="M184.15,82.19V46.74q-.4-3.58-2.86-3h-2.38v-1.4l11.28-9.9,12.12,8.42V42.2a4.11,4.11,0,0,0-4,4.35V81.34c0,1.36,1.52,3.31,4.58,5.64l-10.37,8.9-11.76-8.53q3.32-2.66,3.4-5.17m-6-36.57L154.09,70.21l0,8c0,6,13.14,6.06,22.27,2.19l.95,2.75c-5.44,5.28-12.24,8.65-16,14.17-8-3-14.81-7.34-22.63-10.33l1.76-2.73,0-33.67-2.13-3.28c9-2.07,18-9.54,23.66-15.51,5,3.91,16.31,13.86,16.31,13.86ZM154.07,64.44V45.52l11.75,7.92m370.7,27.39V46.43a10.27,10.27,0,0,0-6.13-4.72l11.83-10.28,8,7.06v7.93l17.92-14.7,13.71,11.18v1.76a4.56,4.56,0,0,0-2.94,4.09V78.49c0,2.75,2.44,4.23,6.86,4.23L574.42,96.25l-12-10.46a4.72,4.72,0,0,0,2.79-4.3V48.76l-5.84-4.24-9,6.76V80.2q-.12,2.47,3.77,3.69v1.61L543.52,94,532.7,86.09l-.14-1.31q3.41-1.3,4-3.95m-106.1-69H440L425.34,29.71c-.89.48-2.1,0-2-.7" transform="translate(-3 -3.28)"/><path class="a" d="M419.11,82V46.57c-.27-2.39-1.23-3.37-2.86-3h-2.38v-1.4l11.28-9.89,12.12,8.42V42a4.11,4.11,0,0,0-4,4.35V81.17c0,1.36,1.52,3.31,4.58,5.64l-10.36,8.9L415.7,87.18Q419,84.52,419.11,82M527,38.9s-4.11,4-4.11,7.05V77.42c0,3.64,5.74,5.49,9.06,6,0,0-8.11,9.14-10.72,12.81l-11.83-7.49.33-4.85c-5,3.22-11.58,7.11-16.55,11.24-5.68-3.44-9.52-6-15.19-9.43,2-1.93,3-3.53,3-4.79L481,48.58q-.06-1.84-4.67-6.64c5.08-2.78,10-9.62,10-9.62l11.53,8.44q-2.41,3.27-2.43,5.74v32.8l7.31,4.57,7.18-4.15,0-33.8c0-1.42-2.14-2.63-6.09-3.63l0-1.61c6.41-3.4,10.25-6.25,12.42-8.57A65.75,65.75,0,0,0,527,38.9" transform="translate(-3 -3.28)"/><path class="a" d="M462.07,37.32l11.36,0v9.79H462.55l0,32.95,6,3.63,6.77-5.45.88,4.5-15.34,13-16-8V86.26l3-3.78V47.11l-9.15.05c8.29-11,19.33-20.89,20.52-34.44,0-1.14,2.84-1.21,2.84.07M328.8,38.36V20.84l19.76,1.94L328.8,38.36ZM346.9,93c-4.74-3.21-11.4-7.78-18-8.92V51c11.09,0,38.88,9,18,42.06Zm17-83.91L368.38,6l3.09,4.26L336.05,37.9c11.84,1.61,23.67,3.91,30.07,14.7,5.68,8.51,2.13,21.6,4,31-14,3-23.07,14.56-31.83,24.21l-3.25.08c-13.62-15.49-28.89-18.63-44.27-10a2.11,2.11,0,0,1-2.1-3.63c9-9.42,22.74-13.75,37.18-10.76V51c-5.65-2.62-11.36,2.76-11.36,2.76L312.79,51l12.37-9.7V20.48L309.72,19l-2.57,3.74-4-1.42L315.07,4.23" transform="translate(-3 -3.28)"/><path class="a" d="M389,64.27V45.34l11.75,7.92L389,64.27Zm24.13-18.82L389,70l0,8c0,6,13.14,6.06,22.27,2.19l.95,2.75c-5.45,5.29-12.24,8.65-16,14.17-8-3-14.81-7.34-22.63-10.33L375.34,84l0-33.68-2.13-3.27c9-2.07,18-9.54,23.66-15.51,5,3.91,16.31,13.86,16.31,13.86M603.08,97.19c3.55-5,9.4-9.5,14.47-13.07L626,101.7l-22.92-4.52Zm-.54-55.49V80l6.9,4.42,6.93-5.21q-.84-26.47,0-32.6L602.55,41.7Zm-16.74,2c7.38-1.85,15.82-6.75,24.33-13.93q9.16,6.12,22.92,7.49-8.1,39.26,5.25,58.52l-19.1,18.07-26.48-5.44L586.1,114l-1.63-2.87,16.36-17.34L587,85.07q2.35-1.1,2.24-2.87V53c0-3.28-1.5-6.15-3.45-9.37" transform="translate(-3 -3.28)"/><polyline points="269.23 49.72 296.67 49.72 298.53 45.99 301.55 45.99 295.27 60.65 267.83 60.65 266.09 64.02 263.3 64.02"/></svg>