<svg xmlns="http://www.w3.org/2000/svg" viewBox="0 0 545.69 229.28"><defs><style>.a{fill:#706f6f;}.b{fill:#5291ce;}</style></defs><title>2_BDZV</title><path class="a" d="M73.73,184.3c-4.07-6.69-12-11.24-22-12.12v-.29c12.95-2.17,21.71-10.58,21.71-22.62,0-22.19-21.14-26-35.24-26H0V224.54H38.21c13.78,0,38.52-3.77,38.52-29.29a20.87,20.87,0,0,0-3-10.94ZM51,184.3c2.36,2.27,3.82,5.55,3.82,10.21,0,11.75-12.37,14.07-22.55,14.07H21.92V179.29H32.26c7.08,0,14.43.85,18.74,5Zm-29.07-45h8.45c10,0,21.14.87,21.14,12.62,0,10.43-11.43,12.32-20.67,12.32H21.92Z" transform="translate(0 0)"/><path class="a" d="M94.68,224.54h27.7c31,0,58.44-10.45,58.44-50.61s-27.38-50.61-58.44-50.61H94.68ZM115,139.27h11.31c17,0,33.35,12.62,33.35,34.66s-16.39,34.66-33.35,34.66H115Z" transform="translate(0 0)"/><polygon class="a" points="188.87 224.54 264.67 224.54 264.67 208.59 211.74 208.59 263.57 139.85 263.57 123.32 190.91 123.32 190.91 139.27 240.24 139.27 188.87 208.01 188.87 224.54 188.87 224.54"/><polygon class="a" points="308.07 224.54 333.01 224.54 367.09 123.32 346.93 123.32 321.26 202.78 320.97 202.78 295.02 123.32 273.26 123.32 308.07 224.54 308.07 224.54"/><path class="b" d="M316.44,22.57a4.75,4.75,0,1,1,4.75,4.75h0A4.75,4.75,0,0,1,316.44,22.57Z" transform="translate(0 0)"/><path class="b" d="M353.23,22.57a8.32,8.32,0,1,1,8.32,8.32,8.32,8.32,0,0,1-8.32-8.32Z" transform="translate(0 0)"/><path class="b" d="M390.07,22.57A11.88,11.88,0,1,1,402,34.42h0a11.88,11.88,0,0,1-11.88-11.88h0Z" transform="translate(0 0)"/><path class="b" d="M426.89,22.57A15.45,15.45,0,1,1,442.35,38h0a15.45,15.45,0,0,1-15.45-15.44Z" transform="translate(0 0)"/><path class="b" d="M463.73,22.57a19,19,0,1,1,19,19A19,19,0,0,1,463.73,22.57Z" transform="translate(0 0)"/><path class="b" d="M500.55,22.57a22.57,22.57,0,1,1,22.57,22.57,22.57,22.57,0,0,1-22.57-22.57Z" transform="translate(0 0)"/><path class="b" d="M356.8,63a4.75,4.75,0,1,1,4.76,4.75A4.75,4.75,0,0,1,356.8,63Z" transform="translate(0 0)"/><path class="b" d="M393.63,63A8.32,8.32,0,1,1,402,71.28,8.32,8.32,0,0,1,393.63,63Z" transform="translate(0 0)"/><path class="b" d="M430.44,63a11.88,11.88,0,1,1,11.9,11.88A11.88,11.88,0,0,1,430.44,63Z" transform="translate(0 0)"/><path class="b" d="M467.28,63a15.45,15.45,0,1,1,15.45,15.46A15.45,15.45,0,0,1,467.28,63v0Z" transform="translate(0 0)"/><path class="b" d="M504.12,63a19,19,0,1,1,19,19h0A19,19,0,0,1,504.12,63Z" transform="translate(0 0)"/><path class="b" d="M397.2,103.35A4.75,4.75,0,1,1,402,108.1h0a4.75,4.75,0,0,1-4.75-4.75Z" transform="translate(0 0)"/><path class="b" d="M434,103.35a8.32,8.32,0,1,1,8.32,8.32,8.32,8.32,0,0,1-8.32-8.32Z" transform="translate(0 0)"/><path class="b" d="M470.85,103.35a11.88,11.88,0,1,1,11.88,11.88,11.88,11.88,0,0,1-11.88-11.88Z" transform="translate(0 0)"/><path class="b" d="M507.68,103.35a15.44,15.44,0,1,1,15.44,15.44h0a15.43,15.43,0,0,1-15.44-15.42Z" transform="translate(0 0)"/><path class="b" d="M437.59,143.75a4.75,4.75,0,1,1,4.76,4.74h0A4.75,4.75,0,0,1,437.59,143.75Z" transform="translate(0 0)"/><path class="b" d="M474.44,143.75a8.32,8.32,0,1,1,8.33,8.31h0a8.31,8.31,0,0,1-8.32-8.3Z" transform="translate(0 0)"/><path class="b" d="M511.24,143.75a11.88,11.88,0,1,1,11.89,11.87h0A11.89,11.89,0,0,1,511.24,143.75Z" transform="translate(0 0)"/><path class="b" d="M478,184.13a4.75,4.75,0,1,1,4.75,4.75h0A4.75,4.75,0,0,1,478,184.13Z" transform="translate(0 0)"/><path class="b" d="M514.81,184.13a8.32,8.32,0,1,1,8.32,8.32h0a8.32,8.32,0,0,1-8.32-8.32h0Z" transform="translate(0 0)"/><path class="b" d="M518.37,224.53a4.75,4.75,0,1,1,4.75,4.75,4.75,4.75,0,0,1-4.75-4.75Z" transform="translate(0 0)"/></svg>