<?xml version="1.0" encoding="UTF-8"?>
<svg width="1331px" height="423px" viewBox="0 0 1331 423" version="1.1" xmlns="http://www.w3.org/2000/svg" xmlns:xlink="http://www.w3.org/1999/xlink">
    <!-- Generator: Sketch 55.2 (78181) - https://sketchapp.com -->
    <title>BDZV_Logo_passiv_ 2</title>
    <desc>Created with Sketch.</desc>
    <g id="Page-1" stroke="none" stroke-width="1" fill="none" fill-rule="evenodd">
        <g id="BDZV_Logo_Digital" fill-rule="nonzero">
            <g id="BDZV_Logo_passiv_-2">
                <g id="BDZV_Logo_passiv_">
                    <rect id="BLAU" fill="#0000FF" x="58.37" y="57.992" width="306.373" height="306.374"></rect>
                    <rect id="ROT" fill="#FA0000" transform="translate(211.556255, 211.178717) rotate(16.000000) translate(-211.556255, -211.178717) " x="58.3697552" y="57.9917172" width="306.373" height="306.374"></rect>
                    <rect id="BLAU-2" fill="#0000FF" transform="translate(211.537042, 211.183421) rotate(32.005383) translate(-211.537042, -211.183421) " x="58.3502356" y="57.9961146" width="306.373613" height="306.374613"></rect>
                    <rect id="GRÜN" fill="#00FF00" transform="translate(211.967556, 211.666367) rotate(24.003190) translate(-211.967556, -211.666367) " x="58.7010365" y="58.3998475" width="306.533038" height="306.533038"></rect>
                    <rect id="ROT-2" fill="#FF0000" style="mix-blend-mode: screen;" transform="translate(211.583874, 211.166374) rotate(16.000000) translate(-211.583874, -211.166374) " x="58.3968736" y="57.9798744" width="306.374" height="306.373"></rect>
                    <rect id="BLAU-3" fill="#0000FF" style="mix-blend-mode: screen;" transform="translate(211.535201, 211.180110) rotate(32.005383) translate(-211.535201, -211.180110) " x="58.3478946" y="57.9923036" width="306.374613" height="306.375613"></rect>
                    <path d="M116.526,201.698 L159.434,201.698 C180.422,201.698 195.034,187.706 195.034,169.362 C195.036,155.681 187.418,147.286 177.313,143.089 C183.376,138.581 187.574,131.589 187.574,121.789 C187.574,105.31 174.36,91.318 154.616,91.318 L116.526,91.318 L116.526,201.698 Z M134.715,137.798 L134.715,107.954 L153.682,107.954 C163.632,107.954 169.695,114.794 169.695,122.879 C169.695,131.279 163.632,137.804 153.682,137.804 L134.715,137.798 Z M134.715,185.059 L134.715,153.349 L158.968,153.349 C170.783,153.349 177.313,160.189 177.313,169.206 C177.313,178.378 170.628,185.063 158.968,185.063 L134.715,185.059 Z" id="Pfad_9" fill="#000000"></path>
                    <polygon id="Pfad_13" fill="#000000" points="300.8 214.673 266.647 297.104 232.34 214.673 212.469 214.673 258.73 324.892 274.565 324.892 320.826 214.673"></polygon>
                    <path d="M228.097,201.698 L261.939,201.698 C294.697,201.698 319.687,177.792 319.687,146.589 C319.687,115.386 294.697,91.48 261.939,91.48 L228.097,91.48 L228.097,201.698 Z M246.26,184.78 L246.26,108.401 L261.939,108.401 C285.539,108.401 301.214,125.011 301.214,146.589 C301.214,168.167 285.535,184.78 261.939,184.78 L246.26,184.78 Z" id="Pfad_10" fill="#000000"></path>
                    <polygon id="Pfad_12" fill="#000000" points="112.876 324.573 194.866 324.573 194.866 307.214 137.366 307.214 193.626 226.774 193.626 214.53 114.271 214.53 114.271 231.889 168.983 231.889 112.876 312.33"></polygon>
                    <path d="M517.527,153.393 L541.309,153.393 C552.942,153.393 561.042,145.638 561.042,135.47 C561.042,127.887 556.82,123.234 551.219,120.907 C554.944425,118.148889 557.071719,113.732332 556.906,109.1 C556.906,99.966 549.582,92.211 538.638,92.211 L517.527,92.211 L517.527,153.393 Z M527.608,117.978 L527.608,101.433 L538.121,101.433 C543.636,101.433 546.996,105.224 546.996,109.705 C546.996,114.358 543.635,117.977 538.121,117.977 L527.608,117.978 Z M527.608,144.178 L527.608,126.595 L541.051,126.595 C547.6,126.595 551.219,130.386 551.219,135.384 C551.219,140.468 547.514,144.173 541.051,144.173 L527.608,144.178 Z M608.435,110.309 L598.956,110.309 L598.956,138.831 C597.146,142.881 593.527,145.638 589.133,145.638 C583.187,145.638 579.827,141.33 579.827,134.522 L579.827,110.309 L570.348,110.309 L570.348,136.074 C570.348,147.189 576.9,154.255 587.065,154.255 C591.373,154.255 596.113,152.532 598.956,148.913 L598.956,153.393 L608.435,153.393 L608.435,110.309 Z M621.619,153.393 L631.1,153.393 L631.1,124.871 C632.925051,120.66156 637.112868,117.972271 641.7,118.064 C647.732,118.064 651.179,122.372 651.179,129.18 L651.179,153.393 L660.658,153.393 L660.658,127.629 C660.658,116.513 654.109,109.447 643.769,109.447 C638.685,109.447 634.032,111.257 631.102,114.876 L631.102,110.309 L621.623,110.309 L621.619,153.393 Z M670.219,131.851 C670.219,144.001 678.919,154.251 691.675,154.251 C696.759,154.251 701.24,152.528 704.256,149.339 L704.256,153.389 L713.735,153.389 L713.735,90.489 L704.256,90.489 L704.256,114.272 C700.887384,111.028495 696.348602,109.287805 691.675,109.447 C678.921,109.447 670.218,119.7 670.218,131.851 L670.219,131.851 Z M704.256,139.606 C701.77807,143.508926 697.416078,145.804871 692.796,145.638 C685.213,145.638 679.957,139.438 679.957,131.851 C679.957,124.264 685.213,118.064 692.796,118.064 C697.393157,117.904687 701.73925,120.15965 704.256,124.01 L704.256,139.606 Z M723.989,131.851 C723.989,144.951 733.381,154.251 746.479,154.251 C755.527,154.251 762.248,150.373 766.126,144.251 L758.888,139.081 C756.648,142.872 752.598,145.63 746.566,145.63 C739.414,145.63 733.727,140.977 733.296,133.911 L767.16,133.911 C767.246,132.532 767.246,131.757 767.246,130.811 C767.246,116.938 757.767,109.441 746.479,109.441 C733.38,109.447 723.988,119.184 723.988,131.851 L723.989,131.851 Z M746.134,117.461 C751.649,117.461 756.647,120.822 757.681,127.026 L733.725,127.026 C735.017,120.649 740.618,117.461 746.133,117.461 L746.134,117.461 Z M806.71,140.9 C806.71,133.834 802.229,130.043 794.646,127.8 L790.251,126.507 C786.029,125.301 785.081,123.491 785.081,121.423 C785.081,118.838 788.011,117.373 790.854,117.373 C794.148601,117.366306 797.225346,119.018187 799.04,121.768 L805.589,116.768 C802.573,112.029 797.489,109.444 791.026,109.444 C782.409,109.444 775.688,114.097 775.602,121.766 C775.516,128.143 779.393,132.882 786.89,134.95 L790.681,135.984 C795.851,137.535 797.316,139 797.316,141.499 C797.316,144.515 794.472,146.066 791.116,146.066 C786.721,146.066 782.499,143.912 780.776,140.12 L773.796,145.12 C776.896,151.238 783.447,154.254 791.116,154.254 C799.989,154.255 806.71,149.171 806.71,140.9 Z M829.717,153.393 L838.075,153.393 L857.635,110.308 L847.035,110.308 L833.853,140.468 L820.753,110.309 L810.243,110.309 L829.717,153.393 Z M860.566,131.851 C860.566,144.951 869.958,154.251 883.056,154.251 C892.104,154.251 898.825,150.373 902.703,144.251 L895.465,139.081 C893.225,142.872 889.175,145.63 883.143,145.63 C875.991,145.63 870.304,140.977 869.873,133.911 L903.737,133.911 C903.823,132.532 903.823,131.757 903.823,130.811 C903.823,116.938 894.344,109.441 883.056,109.441 C869.958,109.447 860.566,119.184 860.566,131.851 Z M882.711,117.461 C888.226,117.461 893.224,120.822 894.258,127.026 L870.3,127.026 C871.6,120.649 877.2,117.461 882.711,117.461 L882.711,117.461 Z M913.991,153.393 L923.47,153.393 L923.47,125.733 C925.249861,121.706628 929.234781,119.106847 933.637,119.1 C934.892531,119.058197 936.145874,119.23309 937.342,119.617 L938.721,110.397 C937.281858,110.050026 935.806375,109.876459 934.326,109.879947 C929.501,109.879947 925.106,112.81 923.469,116.08 L923.469,110.307 L913.99,110.307 L913.991,153.393 Z M990.078,131.851 C990.078,119.701 981.378,109.451 968.536,109.451 C963.862398,109.291805 959.323616,111.032495 955.955,114.276 L955.955,90.49 L946.476,90.49 L946.476,153.39 L955.955,153.39 L955.955,149.34 C958.971,152.528 963.455,154.252001 968.536,154.252001 C981.375,154.255 990.078,144 990.078,131.851 Z M955.955,139.606 L955.955,124.006 C958.495824,120.138674 962.876185,117.884182 967.5,118.064 C975.083,118.064 980.339,124.264 980.339,131.851 C980.339,139.438 975.084,145.638 967.5,145.638 C962.852271,145.825875 958.455159,143.528484 955.955,139.606 L955.955,139.606 Z M1031.267,149.343 L1031.267,153.393 L1040.746,153.393 L1040.746,110.309 L1031.267,110.309 L1031.267,114.273 C1027.89838,111.029495 1023.3596,109.288805 1018.686,109.448 C1005.933,109.448 997.23,119.702 997.23,131.848 C997.23,143.994 1005.93,154.248021 1018.686,154.248021 C1023.77,154.255 1028.251,152.532 1031.267,149.343 L1031.267,149.343 Z M1006.967,131.851 C1006.967,124.268 1012.223,118.064 1019.806,118.064 C1024.40351,117.904333 1028.75006,120.159338 1031.267,124.01 L1031.267,139.61 C1028.78874,143.513087 1024.42638,145.809026 1019.806,145.642 C1012.223,145.638 1006.967,139.434 1006.967,131.851 L1006.967,131.851 Z M1054.015,153.393 L1063.494,153.393 L1063.494,124.871 C1065.31905,120.66156 1069.50687,117.972271 1074.094,118.064 C1080.126,118.064 1083.573,122.372 1083.573,129.18 L1083.573,153.393 L1093.052,153.393 L1093.052,127.629 C1093.052,116.513 1086.503,109.447 1076.163,109.447 C1071.079,109.447 1066.426,111.257 1063.496,114.876 L1063.496,110.309 L1054.017,110.309 L1054.015,153.393 Z M1102.615,131.851 C1102.615,144.001 1111.315,154.251 1124.071,154.251 C1129.155,154.251 1133.636,152.528 1136.652,149.339 L1136.652,153.389 L1146.131,153.389 L1146.131,90.489 L1136.652,90.489 L1136.652,114.272 C1133.28338,111.028495 1128.7446,109.287805 1124.071,109.447 C1111.318,109.447 1102.615,119.7 1102.615,131.851 Z M1136.652,139.606 C1134.17374,143.509087 1129.81138,145.805026 1125.191,145.638 C1117.608,145.638 1112.352,139.438 1112.352,131.851 C1112.352,124.264 1117.608,118.064 1125.191,118.064 C1129.78851,117.904333 1134.13506,120.159338 1136.652,124.01 L1136.652,139.606 Z M517.527,239.563 L536.311,239.563 C554.493,239.563 568.366,226.293 568.366,208.973 C568.366,191.653 554.493,178.383 536.311,178.383 L517.527,178.383 L517.527,239.563 Z M527.608,230.17 L527.608,187.77 L536.308,187.77 C549.408,187.77 558.108,196.99 558.108,208.97 C558.108,220.95 549.408,230.17 536.308,230.17 L527.608,230.17 Z M589.392086,182.432 C589.368247,178.945137 586.530699,176.133246 583.043765,176.141147 C579.55683,176.149081 576.732081,178.97383 576.724147,182.460765 C576.716246,185.947699 579.528137,188.785247 583.015,188.809086 C584.708979,188.817835 586.336132,188.148812 587.533972,186.950972 C588.731812,185.753132 589.400835,184.125979 589.392086,182.432 L589.392086,182.432 Z M578.276,239.563 L587.755,239.563 L587.755,196.478 L578.276,196.478 L578.276,239.563 Z M641.696,237.063 L641.696,196.478 L632.217,196.478 L632.217,200.442 C629.201,197.342 624.717,195.617 619.55,195.617 C607.055,195.617 598.008,205.182 597.922,217.245 C597.789646,223.028567 600.022886,228.615737 604.105338,232.71461 C608.187789,236.813483 613.765948,239.069135 619.55,238.96 C624.281926,239.11577 628.867245,237.305823 632.217,233.96 L632.217,236.976 C632.217,245.162 625.668,248.695 619.55,248.695 C614.537433,248.817612 609.69946,246.851054 606.194,243.266 L600.421,250.073 C604.557,254.468 611.709,257.139001 619.637,257.139001 C630.925,257.141 641.7,251.454 641.7,237.064 L641.696,237.063 Z M607.659,217.245 C607.567832,213.766855 608.909438,210.403967 611.369703,207.943703 C613.829967,205.483438 617.192855,204.141832 620.671,204.233 C625.296299,204.053339 629.677759,206.309524 632.218,210.179 L632.218,224.224 C629.717476,228.147118 625.31943,230.444599 620.671,230.256 C617.197317,230.332409 613.843236,228.986195 611.386283,226.529431 C608.929329,224.072666 607.582858,220.718689 607.659,217.245 Z M666.000086,182.432 C665.97625,178.945006 663.138501,176.133058 659.651436,176.14114 C656.164371,176.149256 653.339714,178.974356 653.332147,182.461422 C653.32461,185.948489 656.137003,188.785797 659.624,188.809081 C661.317806,188.817567 662.944701,188.148425 664.142323,186.950615 C665.339946,185.752804 666.008833,184.125804 666.000086,182.432 Z M654.88,239.563 L664.359,239.563 L664.359,196.478 L654.88,196.478 L654.88,239.563 Z M708.132,237.84 L705.288,229.912 C703.420687,230.958374 701.310288,231.49339 699.17,231.463 C695.12,231.463 692.449,229.481 692.449,224.139 L692.449,204.923 L705.633,204.923 L705.633,196.478 L692.45,196.478 L692.45,183.983 L682.971,183.983 L682.971,196.478 L672.286,196.478 L672.286,204.923 L682.971,204.923 L682.971,225.689 C682.971,235.426 689.606,239.989047 697.964,239.989047 C701.467187,239.99583 704.932371,239.263197 708.133,237.839 L708.132,237.84 Z M745.96,235.513 L745.96,239.563 L755.439,239.563 L755.439,196.478 L745.96,196.478 L745.96,200.442 C742.591384,197.198495 738.052602,195.457805 733.379,195.617 C720.626,195.617 711.923,205.871 711.923,218.017 C711.923,230.163 720.623,240.417021 733.379,240.417021 C738.464,240.424 742.945,238.7 745.961,235.513 L745.96,235.513 Z M721.66,218.021 C721.66,210.438 726.916,204.234 734.499,204.234 C739.096157,204.074687 743.44225,206.32965 745.959,210.18 L745.959,225.78 C743.48107,229.682926 739.119078,231.978871 734.499,231.812 C726.917,231.807 721.661,225.6 721.661,218.02 L721.66,218.021 Z M768.708,239.563 L778.187,239.563 L778.187,176.663 L768.708,176.663 L768.708,239.563 Z M791.37,256.28 L800.849,256.28 L800.849,235.513 C803.865,238.701 808.349,240.425 813.43,240.425 C826.269,240.425 834.972,230.171 834.972,218.025 C834.972,205.879 826.272,195.625 813.43,195.625 C808.756398,195.465805 804.217616,197.206495 800.849,200.45 L800.849,196.478 L791.37,196.478 L791.37,256.28 Z M800.849,225.78 L800.849,210.18 C803.389747,206.308891 807.773103,204.052132 812.4,204.233 C819.983,204.233 825.239,210.433 825.239,218.02 C825.239,225.607 819.98,231.807 812.4,231.807 C807.750868,231.996323 803.351888,229.698752 800.851,225.775 L800.849,225.78 Z M882.623,196.48 L873.144,196.48 L873.144,225 C871.334,229.05 867.715,231.807 863.321,231.807 C857.375,231.807 854.015,227.499 854.015,220.691 L854.015,196.478 L844.536,196.478 L844.536,222.243 C844.536,233.359 851.085,240.425 861.253,240.425 C865.561,240.425 870.301,238.702 873.144,235.083 L873.144,239.564 L882.623,239.564 L882.623,196.48 Z M939.41,218.02 C939.41,205.87 930.71,195.62 917.868,195.62 C913.194398,195.460805 908.655616,197.201495 905.287,200.445 L905.287,176.659 L895.808,176.659 L895.808,239.559 L905.287,239.559 L905.287,235.509 C908.303,238.697 912.787,240.421001 917.868,240.421001 C930.707,240.424 939.41,230.17 939.41,218.02 Z M905.287,225.775 L905.287,210.175 C907.827241,206.305524 912.208701,204.049339 916.834,204.229 C924.417,204.229 929.673,210.429 929.673,218.016 C929.673,225.603 924.417,231.803 916.834,231.803 C912.186368,231.992453 907.788502,229.69659 905.287,225.775 Z M949.578,239.562 L959.057,239.562 L959.057,176.662 L949.578,176.662 L949.578,239.562 Z M983.356,182.432 C983.332247,178.945137 980.494699,176.133246 977.007765,176.141147 C973.52083,176.149081 970.696081,178.97383 970.688147,182.460765 C970.680246,185.947699 973.492137,188.785247 976.979,188.809092 C978.673151,188.818103 980.300563,188.149198 981.49862,186.951329 C982.696677,185.753459 983.365837,184.126153 983.357086,182.432 L983.356,182.432 Z M972.24,239.562 L981.719,239.562 L981.719,196.478 L972.24,196.478 L972.24,239.562 Z M1024.2,227.068 C1024.2,220.002 1019.719,216.211 1012.136,213.968 L1007.741,212.675 C1003.519,211.469 1002.571,209.659 1002.571,207.591 C1002.571,205.006 1005.501,203.541 1008.344,203.541 C1011.6386,203.534306 1014.71535,205.186187 1016.53,207.936 L1023.079,202.936 C1020.063,198.197 1014.979,195.612 1008.516,195.612 C999.899,195.612 993.178,200.265 993.092,207.934 C993.006,214.311 996.883,219.05 1004.38,221.118 L1008.171,222.152 C1013.341,223.703 1014.806,225.168 1014.806,227.667 C1014.806,230.683 1011.962,232.234 1008.606,232.234 C1004.211,232.234 999.989,230.08 998.266,226.288 L991.286,231.288 C994.386,237.406 1000.937,240.422001 1008.606,240.422001 C1017.48,240.424 1024.2,235.34 1024.2,227.068 Z M1034.454,239.563 L1043.933,239.563 L1043.933,211.041 C1045.75805,206.83156 1049.94587,204.142271 1054.533,204.234 C1060.565,204.234 1064.012,208.542 1064.012,215.35 L1064.012,239.563 L1073.491,239.563 L1073.491,213.8 C1073.491,202.684 1066.942,195.618 1056.602,195.618 C1051.518,195.618 1046.865,197.428 1043.935,201.047 L1043.935,176.659 L1034.456,176.659 L1034.454,239.563 Z M1083.054,218.021 C1083.054,231.121 1092.446,240.421 1105.544,240.421 C1114.592,240.421 1121.313,236.543 1125.191,230.421 L1117.953,225.251 C1115.713,229.042 1111.663,231.8 1105.631,231.8 C1098.479,231.8 1092.792,227.147 1092.361,220.081 L1126.225,220.081 C1126.311,218.702 1126.311,217.927 1126.311,216.981 C1126.311,203.108 1116.832,195.611 1105.544,195.611 C1092.447,195.616 1083.054,205.353 1083.054,218.02 L1083.054,218.021 Z M1105.2,203.63 C1110.715,203.63 1115.713,206.991 1116.747,213.195 L1092.791,213.195 C1094.084,206.818 1099.685,203.63 1105.2,203.63 Z M1136.479,239.563 L1145.958,239.563 L1145.958,211.9 C1147.73741,207.872515 1151.72295,205.271802 1156.126,205.265 C1157.38153,205.223197 1158.63487,205.39809 1159.831,205.782 L1161.21,196.562 C1159.77086,196.215026 1158.29537,196.041459 1156.815,196.044947 C1151.99,196.044947 1147.595,198.975 1145.958,202.245 L1145.958,196.478 L1136.479,196.478 L1136.479,239.563 Z M1224.979,196.478 L1215.5,196.478 L1215.5,225 C1213.69,229.05 1210.071,231.807 1205.677,231.807 C1199.731,231.807 1196.371,227.499 1196.371,220.691 L1196.371,196.478 L1186.892,196.478 L1186.892,222.243 C1186.892,233.359 1193.441,240.425 1203.609,240.425 C1207.917,240.425 1212.657,238.702 1215.5,235.083 L1215.5,239.564 L1224.979,239.564 L1224.979,196.478 Z M1238.163,239.563 L1247.642,239.563 L1247.642,211.041 C1249.46705,206.83156 1253.65487,204.142271 1258.242,204.234 C1264.274,204.234 1267.721,208.542 1267.721,215.35 L1267.721,239.563 L1277.2,239.563 L1277.2,213.8 C1277.2,202.684 1270.651,195.618 1260.311,195.618 C1255.227,195.618 1250.574,197.428 1247.644,201.047 L1247.644,196.478 L1238.165,196.478 L1238.163,239.563 Z M1286.763,218.021 C1286.763,230.171 1295.463,240.421 1308.219,240.421 C1313.303,240.421 1317.784,238.698 1320.8,235.509 L1320.8,239.559 L1330.279,239.559 L1330.279,176.659 L1320.8,176.659 L1320.8,200.442 C1317.43138,197.198495 1312.8926,195.457805 1308.219,195.617 C1295.461,195.616 1286.758,205.87 1286.758,218.02 L1286.763,218.021 Z M1320.8,225.776 C1318.32193,229.678771 1313.96003,231.974666 1309.34,231.808 C1301.757,231.808 1296.501,225.608 1296.501,218.021 C1296.501,210.434 1301.757,204.234 1309.34,204.234 C1313.93716,204.074687 1318.28325,206.32965 1320.8,210.18 L1320.8,225.776 Z M516.132,325.732 L561.715,325.732 L561.715,316.081 L529.747,316.081 L561.026,271.359 L561.026,264.552 L516.908,264.552 L516.908,274.2 L547.325,274.2 L516.132,318.924 L516.132,325.732 Z M567.232,304.19 C567.232,317.29 576.624,326.59 589.722,326.59 C598.77,326.59 605.491,322.712 609.369,316.59 L602.131,311.42 C599.891,315.211 595.841,317.969 589.809,317.969 C582.657,317.969 576.97,313.316 576.539,306.25 L610.4,306.25 C610.486,304.871 610.486,304.096 610.486,303.15 C610.486,289.277 601.007,281.78 589.719,281.78 C576.623,281.785 567.23,291.522 567.23,304.189 L567.232,304.19 Z M589.376,289.8 C594.891,289.8 599.889,293.161 600.923,299.365 L576.967,299.365 C578.26,292.987 583.861,289.8 589.376,289.8 Z M631.776,268.6 C631.752247,265.113137 628.914699,262.301246 625.427765,262.309147 C621.94083,262.317081 619.116081,265.14183 619.108147,268.628765 C619.100246,272.115699 621.912137,274.953247 625.399,274.977062 C627.092114,274.984496 628.717976,274.314882 629.914731,273.117188 C631.111485,271.919494 631.779824,270.293108 631.771,268.6 L631.776,268.6 Z M620.66,325.73 L630.139,325.73 L630.139,282.647 L620.66,282.647 L620.66,325.73 Z M673.912,324.007 L671.068,316.079 C669.200687,317.125374 667.090288,317.66039 664.95,317.63 C660.9,317.63 658.229,315.648 658.229,310.306 L658.229,291.092 L671.413,291.092 L671.413,282.647 L658.225,282.647 L658.225,270.153 L648.746,270.153 L648.746,282.648 L638.061,282.648 L638.061,291.093 L648.746,291.093 L648.746,311.86 C648.746,321.597 655.381,326.160039 663.739,326.160039 C667.24233,326.1662 670.707521,325.432884 673.908,324.008 L673.912,324.007 Z M718.634,282.646 L709.155,282.646 L709.155,311.168 C707.345,315.218 703.726,317.975 699.332,317.975 C693.386,317.975 690.026,313.667 690.026,306.859 L690.026,282.647 L680.547,282.647 L680.547,308.412 C680.547,319.528 687.096,326.594 697.264,326.594 C701.572,326.594 706.312,324.871 709.155,321.252 L709.155,325.733 L718.634,325.733 L718.634,282.646 Z M731.818,325.731 L741.297,325.731 L741.297,297.21 C743.122051,293.00056 747.309868,290.311271 751.897,290.403 C757.929,290.403 761.376,294.711 761.376,301.519 L761.376,325.733 L770.855,325.733 L770.855,299.967 C770.855,288.851 764.306,281.785 753.966,281.785 C748.882,281.785 744.229,283.595 741.299,287.214 L741.299,282.647 L731.82,282.647 L731.818,325.731 Z M824.191,323.231 L824.191,282.647 L814.712,282.647 L814.712,286.611 C811.696,283.511 807.212,281.786 802.045,281.786 C789.55,281.786 780.503,291.351 780.417,303.414 C780.284646,309.197567 782.517886,314.784737 786.600338,318.88361 C790.682789,322.982483 796.260948,325.238135 802.045,325.129 C806.776926,325.28477 811.362245,323.474823 814.712,320.129 L814.712,323.145 C814.712,331.331 808.163,334.864 802.045,334.864 C797.032433,334.986612 792.19446,333.020054 788.689,329.435 L782.916,336.242 C787.052,340.637 794.204,343.308001 802.132,343.308001 C813.415,343.31 824.186,337.623 824.186,323.233 L824.191,323.231 Z M790.15,303.414 C790.058285,299.935691 791.39951,296.572436 793.859617,294.111761 C796.319724,291.651087 799.68267,290.309087 803.161,290.4 C807.786299,290.220339 812.167759,292.476524 814.708,296.346 L814.708,310.392 C812.207476,314.315118 807.80943,316.612599 803.161,316.424 C799.687666,316.500122 796.334008,315.153922 793.877305,312.697408 C791.420603,310.240895 790.074145,306.88734 790.15,303.414 Z M866.668,313.237 C866.668,306.171 862.187,302.38 854.604,300.137 L850.209,298.844 C845.987,297.638 845.039,295.828 845.039,293.76 C845.039,291.175 847.969,289.71 850.812,289.71 C854.107883,289.703297 857.185651,291.356451 859,294.108 L865.549,289.108 C862.533,284.369 857.449,281.784 850.986,281.784 C842.369,281.784 835.648,286.437 835.562,294.106 C835.476,300.483 839.353,305.222 846.85,307.29 L850.641,308.324 C855.811,309.875 857.276,311.34 857.276,313.839 C857.276,316.855 854.432,318.406 851.076,318.406 C846.681,318.406 842.459,316.252 840.736,312.46 L833.756,317.46 C836.856,323.578 843.407,326.594 851.076,326.594 C859.947,326.593 866.668,321.509 866.668,313.237 Z M889.675,325.732 L898.033,325.732 L917.593,282.647 L906.993,282.647 L893.809,312.806 L880.709,282.647 L870.2,282.647 L889.675,325.732 Z M920.524,304.19 C920.524,317.29 929.916,326.59 943.014,326.59 C952.062,326.59 958.783,322.712 962.661,316.59 L955.423,311.42 C953.183,315.211 949.133,317.969 943.101,317.969 C935.949,317.969 930.262,313.316 929.831,306.25 L963.695,306.25 C963.781,304.871 963.781,304.096 963.781,303.15 C963.781,289.277 954.302,281.78 943.014,281.78 C929.916,281.785 920.523,291.522 920.523,304.189 L920.524,304.19 Z M942.669,289.8 C948.184,289.8 953.182,293.161 954.216,299.365 L930.261,299.365 C931.553,292.987 937.154,289.8 942.669,289.8 Z M973.948,325.732 L983.427,325.732 L983.427,298.072 C985.206408,294.044515 989.191946,291.443802 993.595,291.437 C994.850531,291.395197 996.103874,291.57009 997.3,291.954 L998.679,282.734 C997.239858,282.387026 995.764375,282.213459 994.284,282.216947 C989.459,282.216947 985.064,285.147 983.427,288.417 L983.427,282.644 L973.948,282.644 L973.948,325.732 Z M1006.434,325.732 L1015.913,325.732 L1015.913,262.832 L1006.434,262.832 L1006.434,325.732 Z M1026.081,304.19 C1026.081,317.29 1035.473,326.59 1048.571,326.59 C1057.619,326.59 1064.34,322.712 1068.218,316.59 L1060.98,311.42 C1058.74,315.211 1054.69,317.969 1048.658,317.969 C1041.506,317.969 1035.819,313.316 1035.388,306.25 L1069.252,306.25 C1069.338,304.871 1069.338,304.096 1069.338,303.15 C1069.338,289.277 1059.859,281.78 1048.571,281.78 C1035.473,281.785 1026.081,291.522 1026.081,304.189 L1026.081,304.19 Z M1048.226,289.8 C1053.741,289.8 1058.739,293.161 1059.773,299.365 L1035.818,299.365 C1037.11,292.987 1042.711,289.8 1048.226,289.8 Z M1120.263,323.234 L1120.263,282.647 L1110.784,282.647 L1110.784,286.611 C1107.768,283.511 1103.284,281.786 1098.117,281.786 C1085.622,281.786 1076.575,291.351 1076.489,303.414 C1076.35665,309.197567 1078.58989,314.784737 1082.67234,318.88361 C1086.75479,322.982483 1092.33295,325.238135 1098.117,325.129 C1102.84893,325.28477 1107.43424,323.474823 1110.784,320.129 L1110.784,323.145 C1110.784,331.331 1104.235,334.864 1098.117,334.864 C1093.10443,334.986612 1088.26646,333.020054 1084.761,329.435 L1078.988,336.242 C1083.124,340.637 1090.276,343.308001 1098.204,343.308001 C1109.492,343.31 1120.263,337.623 1120.263,323.233 L1120.263,323.234 Z M1086.226,303.415 C1086.13399,299.936342 1087.47523,296.572661 1089.93559,294.111734 C1092.39595,291.650808 1095.75932,290.308796 1099.238,290.4 C1103.8633,290.220339 1108.24476,292.476524 1110.785,296.346 L1110.785,310.392 C1108.28448,314.315118 1103.88643,316.612599 1099.238,316.424 C1095.76467,316.500122 1092.41101,315.153922 1089.95431,312.697408 C1087.4976,310.240895 1086.15114,306.88734 1086.227,303.414 L1086.226,303.415 Z M1130.426,304.191 C1130.426,317.291 1139.818,326.591 1152.916,326.591 C1161.964,326.591 1168.685,322.713 1172.563,316.591 L1165.325,311.421 C1163.085,315.212 1159.035,317.97 1153.003,317.97 C1145.851,317.97 1140.164,313.317 1139.733,306.251 L1173.6,306.251 C1173.686,304.872 1173.686,304.097 1173.686,303.151 C1173.686,289.278 1164.207,281.781 1152.919,281.781 C1139.824,281.785 1130.431,291.522 1130.431,304.189 L1130.426,304.191 Z M1152.571,289.801 C1158.086,289.801 1163.084,293.162 1164.118,299.366 L1140.168,299.366 C1141.461,292.987 1147.062,289.8 1152.577,289.8 L1152.571,289.801 Z M1183.85,325.733 L1193.329,325.733 L1193.329,298.073 C1195.10841,294.045515 1199.09395,291.444802 1203.497,291.438 C1204.75253,291.396197 1206.00587,291.57109 1207.202,291.955 L1208.581,282.735 C1207.14186,282.388026 1205.66637,282.214459 1204.186,282.217947 C1199.361,282.217947 1194.966,285.148 1193.329,288.418 L1193.329,282.645 L1183.85,282.645 L1183.85,325.733 Z" id="Pfad_346" fill="#000000"></path>
                </g>
            </g>
        </g>
    </g>
</svg>