<svg xmlns="http://www.w3.org/2000/svg" viewBox="0 0 545.69 349.34"><defs><style>.a{fill:#706f6f;}.b{fill:#5291ce;}</style></defs><title>2. BDZV-mitSchrift</title><path class="a" d="M3.44,257.88h8.28c6.35,0,10.73,2.06,10.73,7.71,0,4.21-2.45,6.31-6.31,7.27v.09c4.16.35,7.1,3.06,7.1,7.36,0,6.57-5.43,8.15-11.65,8.15H3.44Zm4.38,13.06h2.41c4.25,0,7.84-.39,7.84-4.91,0-3.64-3.11-4.56-5.65-4.56H7.82Zm0,13.93h3.29c3.94,0,7.49-.83,7.49-5,0-4.73-4.16-5.39-7.93-5.39H7.87Z" transform="translate(0 0)"/><path class="a" d="M49.85,288.42h-4v-3.55h-.09c-1.23,2.54-4.2,4.07-7.31,4.07-5.78,0-8.37-3.59-8.37-9.59V266.12H34.2v11.56c0,5.21,1.14,7.75,4.73,8,4.69,0,6.79-3.77,6.79-9.2V266.12h4.12Z" transform="translate(0 0)"/><path class="a" d="M56.84,266.12h4v3.55h.09c1.23-2.54,4.2-4.07,7.32-4.07,5.78,0,8.37,3.59,8.37,9.59v13.23H72.44V276.89c0-5.21-1.14-7.76-4.73-8-4.69,0-6.79,3.76-6.79,9.2v10.33H56.84Z" transform="translate(0 0)"/><path class="a" d="M99.44,285.3h-.09A9,9,0,0,1,91.73,289c-6.74,0-9.59-6-9.59-12.09s3.15-11.3,9.64-11.3c3.9,0,6.13,1.53,7.4,3.59h.09V255.61h4.12v32.81H99.44Zm-6.75.35c4.64,0,6.57-4.6,6.57-8.32,0-4.16-2.15-8.41-6.61-8.41s-6.22,4.2-6.13,8.28c-.13,3.5,1.71,8.45,6.13,8.45Z" transform="translate(0 0)"/><path class="a" d="M127.44,287.54a17,17,0,0,1-7.05,1.45c-7.93,0-11.56-4.82-11.56-12.09,0-6.62,4.16-11.3,10.47-11.3,7.44,0,9.85,5.43,9.85,12.62H113.22a7.31,7.31,0,0,0,7.18,7.44h.18a13.24,13.24,0,0,0,6.86-2.24Zm-2.67-12.4c0-3.41-2-6.22-5.56-6.22-4,0-5.69,3.33-6,6.22Z" transform="translate(0 0)"/><path class="a" d="M133,284.08a11,11,0,0,0,5.12,1.58c1.88,0,4.2-.79,4.2-3.2,0-4.07-9.68-3.72-9.68-10,0-4.64,3.46-6.88,7.88-6.88a17.18,17.18,0,0,1,5.13.88L145.3,270a12,12,0,0,0-4.34-1.14c-2.1,0-3.94.88-3.94,2.71,0,4.56,9.68,3.24,9.68,10.38,0,4.77-3.81,7-7.8,7a12.86,12.86,0,0,1-6.13-1.23Z" transform="translate(0 0)"/><path class="a" d="M161.59,288.42h-4.9l-8-22.34h4.51l6,18.22h.09l6.15-18.18h4.12Z" transform="translate(0 0)"/><path class="a" d="M190.7,287.54a17,17,0,0,1-7.05,1.45c-7.93,0-11.56-4.82-11.56-12.09,0-6.62,4.16-11.3,10.47-11.3,7.44,0,9.85,5.43,9.85,12.62h-16a7.31,7.31,0,0,0,7.18,7.44h.18a13.25,13.25,0,0,0,6.88-2.23ZM188,275.14c0-3.41-2-6.22-5.56-6.22-4,0-5.69,3.33-6,6.22Z" transform="translate(0 0)"/><path class="a" d="M197.91,266.12h3.85v3.46h.09a6.8,6.8,0,0,1,5.83-4,11.75,11.75,0,0,1,2.71.31v3.68a6.11,6.11,0,0,0-2.28-.39c-3.68,0-6.09,3.5-6.09,9.11v10.13H197.9Z" transform="translate(0 0)"/><path class="a" d="M214.94,255.61h4.12v13.58h.09c1.27-2.06,3.51-3.59,7.41-3.59,6.48,0,9.63,5.3,9.63,11.3S233.35,289,226.6,289a9,9,0,0,1-7.62-3.68h-.09v3.11h-4Zm10.73,13.32c-4.47,0-6.61,4.25-6.61,8.41,0,3.72,1.93,8.32,6.57,8.32,4.42,0,6.26-5,6.18-8.45.08-4-1.67-8.29-6.14-8.29Z" transform="translate(0 0)"/><path class="a" d="M242.73,267.7a14.23,14.23,0,0,1,7.36-2.1c6.4,0,9,3.15,9,9.24v9.24a35,35,0,0,0,.17,4.38H255.4v-2.89h-.09a8.28,8.28,0,0,1-6.92,3.42c-4.82,0-8.19-2.1-8.19-7,0-5.61,6.13-7.36,10.38-7.36,1.62,0,2.76,0,4.38.09,0-3.85-1.4-5.82-5.52-5.82a10.52,10.52,0,0,0-6.48,2.28ZM255,277.82c-.87,0-1.75-.09-2.63-.09-2.23,0-7.75.35-7.75,4.29,0,2.36,2.28,3.64,4.16,3.64,4.07,0,6.22-2.54,6.22-5.87Z" transform="translate(0 0)"/><path class="a" d="M266,266.12h4v3.55h.09c1.23-2.54,4.2-4.07,7.32-4.07,5.78,0,8.37,3.59,8.37,9.59v13.23h-4.12V276.89c0-5.21-1.14-7.76-4.73-8-4.69,0-6.79,3.76-6.79,9.2v10.33H266Z" transform="translate(0 0)"/><path class="a" d="M308.57,285.3h-.13a9,9,0,0,1-7.62,3.68c-6.74,0-9.59-6-9.59-12.09s3.15-11.3,9.64-11.3c3.9,0,6.13,1.53,7.4,3.59h.17V255.61h4.12v32.81h-3.94Zm-6.75.35c4.65,0,6.57-4.6,6.57-8.32,0-4.16-2.14-8.41-6.62-8.41s-6.22,4.2-6.13,8.28C295.56,280.7,297.44,285.65,301.82,285.65Z" transform="translate(0 0)"/><path class="a" d="M331.8,257.88h9c9.07,0,16.29,5.61,16.29,15,0,10.25-6.22,15.55-16.29,15.55h-9Zm4.39,26.72h4.6c7.53,0,11.7-3.64,11.7-11.52,0-7.14-4.86-11.34-11.17-11.34H336.2Z" transform="translate(0 0)"/><path class="a" d="M380.44,287.54a17,17,0,0,1-7.06,1.45c-7.93,0-11.56-4.82-11.56-12.09,0-6.62,4.16-11.3,10.47-11.3,7.44,0,9.85,5.43,9.85,12.62h-16a7.31,7.31,0,0,0,7.18,7.44h.18a13.23,13.23,0,0,0,6.92-2.24Zm-2.67-12.4c0-3.41-2-6.22-5.56-6.22-4,0-5.7,3.33-6,6.22Z" transform="translate(0 0)"/><path class="a" d="M407.36,288.42h-4v-3.55h-.09c-1.22,2.54-4.2,4.07-7.31,4.07-5.78,0-8.36-3.59-8.36-9.59V266.12h4.12v11.56c0,5.21,1.13,7.75,4.73,8,4.69,0,6.78-3.77,6.78-9.2V266.12h4.12Z" transform="translate(0 0)"/><path class="a" d="M426.22,269.42H420.3v12.22c0,2.58,1.58,4,3.46,4a5.07,5.07,0,0,0,2.8-.79v3.5a12.69,12.69,0,0,1-3.5.62c-4.25,0-6.88-2-6.88-6.48V269.42h-5v-3.3h5v-5.17l4.12-1.32v6.48h5.92Z" transform="translate(0 0)"/><path class="a" d="M429.71,284.08a11,11,0,0,0,5.13,1.58c1.88,0,4.2-.79,4.2-3.2,0-4.07-9.68-3.72-9.68-10,0-4.64,3.45-6.88,7.88-6.88a17.17,17.17,0,0,1,5.12.88L442,270a12,12,0,0,0-4.34-1.14c-2.1,0-3.94.88-3.94,2.71,0,4.56,9.68,3.24,9.68,10.38,0,4.77-3.81,7-7.79,7a12.87,12.87,0,0,1-6.13-1.23Z" transform="translate(0 0)"/><path class="a" d="M462.59,269.88a12,12,0,0,0-4.47-1c-4.6,0-7.18,4.11-7.18,8.37,0,4,2.15,8.36,7.44,8.36a8.62,8.62,0,0,0,4.43-1.27l.3,3.68a12.53,12.53,0,0,1-5.16.92c-6.75,0-11.39-5.3-11.39-11.7,0-6.79,4.55-11.7,11.39-11.7a15.37,15.37,0,0,1,5,.88Z" transform="translate(0 0)"/><path class="a" d="M467.83,255.61H472v13.71H472a8.2,8.2,0,0,1,7.18-3.73c5.79,0,8.37,3.59,8.37,9.59v13.24h-4.15V276.89c0-5.21-1.14-7.76-4.73-8-4.69,0-6.79,3.76-6.79,9.2v10.33H467.8Z" transform="translate(0 0)"/><path class="a" d="M511.7,287.54a17,17,0,0,1-7,1.45c-7.93,0-11.56-4.82-11.56-12.09,0-6.62,4.16-11.3,10.47-11.3,7.44,0,9.85,5.43,9.85,12.62h-16a7.31,7.31,0,0,0,7.18,7.44h.18a13.22,13.22,0,0,0,6.88-2.23ZM509,275.14c0-3.41-2-6.22-5.56-6.22-4,0-5.7,3.33-6,6.22Z" transform="translate(0 0)"/><path class="a" d="M518.92,266.12h3.85v3.46h.09a6.8,6.8,0,0,1,5.83-4,11.72,11.72,0,0,1,2.71.31v3.68a6.11,6.11,0,0,0-2.28-.39c-3.67,0-6.08,3.5-6.08,9.11v10.13h-4.12Z" transform="translate(0 0)"/><path class="a" d="M1.25,335.68,17.11,312.9H1.78V309H22.15V313L6.33,335.76H22.44v3.85H1.25Z" transform="translate(0 0)"/><path class="a" d="M44.82,338.7a17,17,0,0,1-7,1.45c-7.93,0-11.56-4.82-11.56-12.09,0-6.62,4.16-11.3,10.47-11.3,7.44,0,9.85,5.43,9.85,12.62H30.58a7.31,7.31,0,0,0,7.18,7.44h.18a13.25,13.25,0,0,0,6.88-2.23Zm-2.67-12.4c0-3.41-2-6.22-5.56-6.22-4,0-5.69,3.33-6,6.22Z" transform="translate(0 0)"/><path class="a" d="M56.93,312.28H52.29v-4.64h4.64Zm-4.38,5h4.12v22.34H52.55Z" transform="translate(0 0)"/><path class="a" d="M76.07,320.6H70.15v12.22c0,2.58,1.58,4,3.46,4a5.08,5.08,0,0,0,2.8-.79v3.5a12.79,12.79,0,0,1-3.5.62c-4.25,0-6.88-2-6.88-6.48V320.6H61v-3.33h5V312.1l4.12-1.32v6.48h5.91Z" transform="translate(0 0)"/><path class="a" d="M101,339.62H97v-3.55h-.09c-1.23,2.54-4.21,4.07-7.31,4.07-5.78,0-8.37-3.59-8.37-9.59V317.28h4.12v11.56c0,5.21,1.14,7.76,4.73,8,4.69,0,6.79-3.77,6.79-9.2V317.28H101Z" transform="translate(0 0)"/><path class="a" d="M108,317.28h4v3.55h.09c1.23-2.54,4.21-4.07,7.32-4.07,5.78,0,8.37,3.59,8.37,9.59v13.27h-4.12V328.05c0-5.21-1.14-7.75-4.73-8-4.69,0-6.79,3.76-6.79,9.2v10.37H108Z" transform="translate(0 0)"/><path class="a" d="M154.44,338.65c0,6.79-3.51,10.69-11.52,10.69a22.69,22.69,0,0,1-8-1.53l.44-3.81a17,17,0,0,0,8.06,2c4.34,0,6.92-2.94,6.92-7.67v-2.19h-.09a9.33,9.33,0,0,1-7.49,3.46c-6.39,0-9.55-5.21-9.55-11s3.24-11.87,10-11.87c3.94,0,6.13,1.44,7.36,3.85h.09v-3.33h3.78Zm-4.12-9.94c0-4.64-2.15-8.63-6.53-8.63-4.16,0-6.22,4.51-6.22,8.32,0,4.21,2.36,7.88,6.22,7.88s6.55-3.41,6.55-7.57Z" transform="translate(0 0)"/><path class="a" d="M159.79,335.24a11,11,0,0,0,5.12,1.58c1.88,0,4.2-.79,4.2-3.2,0-4.07-9.68-3.72-9.68-10,0-4.64,3.46-6.88,7.88-6.88a17.17,17.17,0,0,1,5.13.88l-.35,3.59a12,12,0,0,0-4.34-1.14c-2.1,0-3.94.88-3.94,2.71,0,4.56,9.68,3.24,9.68,10.38,0,4.77-3.81,7-7.8,7a12.87,12.87,0,0,1-6.13-1.23Z" transform="translate(0 0)"/><path class="a" d="M188.37,339.62h-4.93l-8-22.34h4.51l6,18.22H186l6.18-18.22h4.12Z" transform="translate(0 0)"/><path class="a" d="M217.44,338.7a17,17,0,0,1-7.05,1.45c-7.93,0-11.56-4.82-11.56-12.09,0-6.62,4.16-11.3,10.47-11.3,7.44,0,9.85,5.43,9.85,12.62h-15.9a7.31,7.31,0,0,0,7.18,7.44h.18a13.25,13.25,0,0,0,6.88-2.23Zm-2.67-12.4c0-3.41-2-6.22-5.56-6.22-4,0-5.69,3.33-6,6.22Z" transform="translate(0 0)"/><path class="a" d="M224.69,317.28h3.86v3.46h.09a6.8,6.8,0,0,1,5.83-4,11.74,11.74,0,0,1,2.71.31v3.68a6.11,6.11,0,0,0-2.28-.39c-3.68,0-6.09,3.5-6.09,9.11v10.17h-4.12Z" transform="translate(0 0)"/><path class="a" d="M242.25,306.77h4.12v32.85h-4.12Z" transform="translate(0 0)"/><path class="a" d="M271,338.7a17,17,0,0,1-7,1.45c-7.93,0-11.56-4.82-11.56-12.09,0-6.62,4.16-11.3,10.47-11.3,7.44,0,9.85,5.43,9.85,12.62h-16a7.31,7.31,0,0,0,7.18,7.44h.18a13.25,13.25,0,0,0,6.88-2.23Zm-2.67-12.4c0-3.41-2-6.22-5.56-6.22-4,0-5.69,3.33-6,6.22Z" transform="translate(0 0)"/><path class="a" d="M298,338.65c0,6.79-3.5,10.69-11.52,10.69a22.69,22.69,0,0,1-8-1.53l.44-3.81a17,17,0,0,0,8.06,2c4.34,0,6.92-2.94,6.92-7.67v-2.19h-.08a9.32,9.32,0,0,1-7.49,3.46c-6.4,0-9.55-5.21-9.55-11s3.24-11.87,10-11.87c3.94,0,6.13,1.44,7.36,3.85h.09v-3.33H298Zm-4.12-9.94c0-4.64-2.14-8.63-6.52-8.63-4.16,0-6.22,4.51-6.22,8.32,0,4.21,2.36,7.88,6.22,7.88S293.86,332.87,293.86,328.71Z" transform="translate(0 0)"/><path class="a" d="M322.09,338.7a17,17,0,0,1-7,1.45c-7.93,0-11.56-4.82-11.56-12.09,0-6.62,4.16-11.3,10.47-11.3,7.44,0,9.85,5.43,9.85,12.62H307.86a7.31,7.31,0,0,0,7.18,7.44h.18a13.23,13.23,0,0,0,6.87-2.23Zm-2.65-12.4c0-3.41-2-6.22-5.56-6.22-4,0-5.69,3.33-6,6.22Z" transform="translate(0 0)"/><path class="a" d="M329.31,317.28h3.85v3.46h.09a6.79,6.79,0,0,1,5.82-4,11.76,11.76,0,0,1,2.71.31v3.68a6.1,6.1,0,0,0-2.28-.39c-3.68,0-6.09,3.5-6.09,9.11v10.17H329.3Z" transform="translate(0 0)"/><path class="a" d="M73.73,184.3c-4.07-6.69-12-11.24-22-12.12v-.29c12.95-2.17,21.71-10.58,21.71-22.62,0-22.19-21.14-26-35.24-26H0V224.54H38.21c13.78,0,38.52-3.77,38.52-29.29a20.87,20.87,0,0,0-3-10.94ZM51,184.3c2.36,2.27,3.82,5.55,3.82,10.21,0,11.75-12.37,14.07-22.55,14.07H21.92V179.29H32.26c7.08,0,14.43.85,18.74,5Zm-29.07-45h8.45c10,0,21.14.87,21.14,12.62,0,10.43-11.43,12.32-20.67,12.32H21.92Z" transform="translate(0 0)"/><path class="a" d="M94.68,224.54h27.7c31,0,58.44-10.45,58.44-50.61s-27.38-50.61-58.44-50.61H94.68ZM115,139.27h11.31c17,0,33.35,12.62,33.35,34.66s-16.39,34.66-33.35,34.66H115Z" transform="translate(0 0)"/><polygon class="a" points="188.87 224.54 264.67 224.54 264.67 208.59 211.74 208.59 263.57 139.85 263.57 123.32 190.91 123.32 190.91 139.27 240.24 139.27 188.87 208.01 188.87 224.54 188.87 224.54"/><polygon class="a" points="308.07 224.54 333.01 224.54 367.09 123.32 346.93 123.32 321.26 202.78 320.97 202.78 295.02 123.32 273.26 123.32 308.07 224.54 308.07 224.54"/><path class="b" d="M316.44,22.57a4.75,4.75,0,1,1,4.75,4.75h0A4.75,4.75,0,0,1,316.44,22.57Z" transform="translate(0 0)"/><path class="b" d="M353.23,22.57a8.32,8.32,0,1,1,8.32,8.32,8.32,8.32,0,0,1-8.32-8.32Z" transform="translate(0 0)"/><path class="b" d="M390.07,22.57A11.88,11.88,0,1,1,402,34.42h0a11.88,11.88,0,0,1-11.88-11.88h0Z" transform="translate(0 0)"/><path class="b" d="M426.89,22.57A15.45,15.45,0,1,1,442.35,38h0a15.45,15.45,0,0,1-15.45-15.44Z" transform="translate(0 0)"/><path class="b" d="M463.73,22.57a19,19,0,1,1,19,19A19,19,0,0,1,463.73,22.57Z" transform="translate(0 0)"/><path class="b" d="M500.55,22.57a22.57,22.57,0,1,1,22.57,22.57,22.57,22.57,0,0,1-22.57-22.57Z" transform="translate(0 0)"/><path class="b" d="M356.8,63a4.75,4.75,0,1,1,4.76,4.75A4.75,4.75,0,0,1,356.8,63Z" transform="translate(0 0)"/><path class="b" d="M393.63,63A8.32,8.32,0,1,1,402,71.28,8.32,8.32,0,0,1,393.63,63Z" transform="translate(0 0)"/><path class="b" d="M430.44,63a11.88,11.88,0,1,1,11.9,11.88A11.88,11.88,0,0,1,430.44,63Z" transform="translate(0 0)"/><path class="b" d="M467.28,63a15.45,15.45,0,1,1,15.45,15.46A15.45,15.45,0,0,1,467.28,63v0Z" transform="translate(0 0)"/><path class="b" d="M504.12,63a19,19,0,1,1,19,19h0A19,19,0,0,1,504.12,63Z" transform="translate(0 0)"/><path class="b" d="M397.2,103.35A4.75,4.75,0,1,1,402,108.1h0a4.75,4.75,0,0,1-4.75-4.75Z" transform="translate(0 0)"/><path class="b" d="M434,103.35a8.32,8.32,0,1,1,8.32,8.32,8.32,8.32,0,0,1-8.32-8.32Z" transform="translate(0 0)"/><path class="b" d="M470.85,103.35a11.88,11.88,0,1,1,11.88,11.88,11.88,11.88,0,0,1-11.88-11.88Z" transform="translate(0 0)"/><path class="b" d="M507.68,103.35a15.44,15.44,0,1,1,15.44,15.44h0a15.43,15.43,0,0,1-15.44-15.42Z" transform="translate(0 0)"/><path class="b" d="M437.59,143.75a4.75,4.75,0,1,1,4.76,4.74h0A4.75,4.75,0,0,1,437.59,143.75Z" transform="translate(0 0)"/><path class="b" d="M474.44,143.75a8.32,8.32,0,1,1,8.33,8.31h0a8.31,8.31,0,0,1-8.32-8.3Z" transform="translate(0 0)"/><path class="b" d="M511.24,143.75a11.88,11.88,0,1,1,11.89,11.87h0A11.89,11.89,0,0,1,511.24,143.75Z" transform="translate(0 0)"/><path class="b" d="M478,184.13a4.75,4.75,0,1,1,4.75,4.75h0A4.75,4.75,0,0,1,478,184.13Z" transform="translate(0 0)"/><path class="b" d="M514.81,184.13a8.32,8.32,0,1,1,8.32,8.32h0a8.32,8.32,0,0,1-8.32-8.32h0Z" transform="translate(0 0)"/><path class="b" d="M518.37,224.53a4.75,4.75,0,1,1,4.75,4.75,4.75,4.75,0,0,1-4.75-4.75Z" transform="translate(0 0)"/></svg>