<svg xmlns="http://www.w3.org/2000/svg" xmlns:xlink="http://www.w3.org/1999/xlink" viewBox="0 0 141.73 141.73"><defs><style>.a,.f{fill:none;}.b{fill:#3c3c3b;}.c{fill:#e2c698;}.d{clip-path:url(#a);}.e{fill:#fff;}.f{stroke:#fff;stroke-linecap:round;stroke-width:0.61px;}</style><clipPath id="a"><rect class="a" width="141.73" height="141.73"/></clipPath></defs><title>22. ZBG-Logo</title><rect class="b" width="141.73" height="141.73"/><rect class="c" x="61.63" y="22.38" width="3.1" height="3.1"/><rect class="c" x="77.01" y="22.38" width="3.11" height="3.1"/><rect class="c" x="71.88" y="22.38" width="3.11" height="3.1"/><rect class="c" x="66.76" y="22.38" width="3.1" height="3.1"/><rect class="c" x="61.63" y="58.93" width="8.23" height="9.93"/><rect class="c" x="61.63" y="27.96" width="8.23" height="24.86"/><rect class="c" x="54.19" y="54.86" width="15.67" height="2.04"/><rect class="c" x="71.88" y="27.96" width="8.23" height="40.9"/><g class="d"><path class="e" d="M23.82,81.74a2.35,2.35,0,0,1,0,1.73C21.07,86,18.71,88.54,16.13,91c5.27,1.38,10.23,6.49,14.53.5-1.36,2-2.25,3-4.74,3.3-4.15-.15-7.06-3.17-11.37-2.8a.61.61,0,0,1-.15-1c3.24-1.92,6.14-5.73,8.72-8.09.09-.33-.35-.18-.5-.48-1.92.15-4,1.14-5.86.48.06-1,1.51-.18,2.1-.61a14.71,14.71,0,0,1,5-.59"/><path class="f" d="M23.82,81.74a2.35,2.35,0,0,1,0,1.73C21.07,86,18.71,88.54,16.13,91c5.27,1.38,10.23,6.49,14.53.5-1.36,2-2.25,3-4.74,3.3-4.15-.15-7.06-3.17-11.37-2.8a.61.61,0,0,1-.15-1c3.24-1.92,6.14-5.73,8.72-8.09.09-.33-.35-.18-.5-.48-1.92.15-4,1.14-5.86.48.06-1,1.51-.18,2.1-.61A14.71,14.71,0,0,1,23.82,81.74Z"/><path class="e" d="M37.89,82.54c.77-.35.83.74.55,1-.55,2.65-.77,6.08-3.13,7.94a4.49,4.49,0,0,1-3.72-2.58,28,28,0,0,1-1.22-5.84c.22,0,.37-.3.63-.15,1,2.71.37,7.21,4.31,7.72,1.92-2.3,1.57-5.44,2.58-8.09"/><path class="f" d="M37.89,82.54c.77-.35.83.74.55,1-.55,2.65-.77,6.08-3.13,7.94a4.49,4.49,0,0,1-3.72-2.58,28,28,0,0,1-1.22-5.84c.22,0,.37-.3.63-.15,1,2.71.37,7.21,4.31,7.72C37.23,88.33,36.88,85.18,37.89,82.54Z"/><path class="e" d="M48.49,81.34a3.5,3.5,0,0,1,2.08.5c.28,1.07-.79.15-1.2.22a7.16,7.16,0,0,0-6.14,4.28c-.15.79-.59,1.57,0,2.34,1.2,1.95,3.5,1.88,5.27,2.8A13.16,13.16,0,0,1,49.06,87c.57.06.37.7.63,1-1.33,1,1.44,5.36-1.68,4.09-1.88-1-4.31-1.09-5.66-3.08a6.22,6.22,0,0,1,1.2-4.79c1.18-1.79,3.17-2.27,4.94-2.93"/><path class="f" d="M48.49,81.34a3.5,3.5,0,0,1,2.08.5c.28,1.07-.79.15-1.2.22a7.16,7.16,0,0,0-6.14,4.28c-.15.79-.59,1.57,0,2.34,1.2,1.95,3.5,1.88,5.27,2.8A13.16,13.16,0,0,1,49.06,87c.57.06.37.7.63,1-1.33,1,1.44,5.36-1.68,4.09-1.88-1-4.31-1.09-5.66-3.08a6.22,6.22,0,0,1,1.2-4.79C44.73,82.47,46.72,82,48.49,81.34Z"/><path class="e" d="M63.42,82.63a6.06,6.06,0,0,0-5.64-.85,8.64,8.64,0,0,1-.35,2.71c1.35.79,3,0,4.42,0,.59-.66,1.86-.77,1.57-1.86M61,89.12c-.63-1.14-1.14-2.56-2.58-3.06-.26-.22-1.36-.28-1.14,0,.37,1.23-2.65,7.43,2,4.57.57-.57,2.36,0,1.7-1.51m-3.72-8.94c1.57,1.38,3.94-.18,5.77,1a1.94,1.94,0,0,1,1.09,2.58,5.79,5.79,0,0,1-4.29,2.27c1.14,1.29,2.65,2.71,1.86,4.57a16.8,16.8,0,0,1-5.66,1.57c-.33-4.07.52-8.31,1.22-12"/><path class="f" d="M63.42,82.63a6.06,6.06,0,0,0-5.64-.85,8.64,8.64,0,0,1-.35,2.71c1.35.79,3,0,4.42,0C62.44,83.83,63.71,83.72,63.42,82.63ZM61,89.12c-.63-1.14-1.14-2.56-2.58-3.06-.26-.22-1.36-.28-1.14,0,.37,1.23-2.65,7.43,2,4.57C59.86,90.06,61.65,90.63,61,89.12Zm-3.72-8.94c1.57,1.38,3.94-.18,5.77,1a1.94,1.94,0,0,1,1.09,2.58,5.79,5.79,0,0,1-4.29,2.27c1.14,1.29,2.65,2.71,1.86,4.57a16.8,16.8,0,0,1-5.66,1.57C55.73,88.13,56.58,83.89,57.28,80.18Z"/><path class="e" d="M74.24,85c-.53-1.64-2.43-1.22-3.65-1.71a35.73,35.73,0,0,0-.28,4.79c1.42-.79,4-1.07,3.94-3.08m-2.58-2.56A3.35,3.35,0,0,1,75.09,85c.13,2.29-2.29,2.49-3.65,3.71,2.36,1.42,4.7,3,7.59,2.56.28-.13.35-1.42.83-.48.09.79-.7,1-1.2,1.36-3.13.2-5.58-1.42-8.22-2.56-.5.77-.57,2.21-1.73,2.28-.76-.81.81-.66.52-1.45.22-2.43-.44-4.77.48-7.34-.48-.53.28-.59.37-.85.72-.28,1.14.22,1.57.22"/><path class="f" d="M74.24,85c-.53-1.64-2.43-1.22-3.65-1.71a35.73,35.73,0,0,0-.28,4.79C71.73,87.33,74.31,87,74.24,85Zm-2.58-2.56A3.35,3.35,0,0,1,75.09,85c.13,2.29-2.29,2.49-3.65,3.71,2.36,1.42,4.7,3,7.59,2.56.28-.13.35-1.42.83-.48.09.79-.7,1-1.2,1.36-3.13.2-5.58-1.42-8.22-2.56-.5.77-.57,2.21-1.73,2.28-.76-.81.81-.66.52-1.45.22-2.43-.44-4.77.48-7.34-.48-.53.28-.59.37-.85C70.81,82,71.23,82.47,71.66,82.47Z"/><path class="e" d="M89.9,78.47c.66-.09.66.65.37,1-.7.94-1.4,1.14-2.27,2-.22-1.2,1.62-1.84,1.9-3M85.63,80c.55-.22,1.71-3.13,1.57-.83-.87,1.27-1.29,1.46-2.14,2.73-.79-.85.13-1,.57-1.9m4.77,2.58c.76-.35.83.74.55,1-.55,2.65-.77,6.08-3.13,7.94A4.49,4.49,0,0,1,84.1,88.9a28,28,0,0,1-1.22-5.84c.22,0,.37-.3.63-.15,1,2.71.37,7.21,4.31,7.72,1.92-2.3,1.57-5.44,2.58-8.09"/><path class="f" d="M89.9,78.47c.66-.09.66.65.37,1-.7.94-1.4,1.14-2.27,2C87.78,80.24,89.61,79.61,89.9,78.47ZM85.63,80c.55-.22,1.71-3.13,1.57-.83-.87,1.27-1.29,1.46-2.14,2.73C84.28,81,85.2,80.9,85.63,80Zm4.77,2.58c.76-.35.83.74.55,1-.55,2.65-.77,6.08-3.13,7.94A4.49,4.49,0,0,1,84.1,88.9a28,28,0,0,1-1.22-5.84c.22,0,.37-.3.63-.15,1,2.71.37,7.21,4.31,7.72C89.74,88.33,89.39,85.18,90.4,82.54Z"/><path class="e" d="M99.67,81.55a5.15,5.15,0,0,1,3.28.7c.37,1.57-.83-.15-1.4.15a3.14,3.14,0,0,0-3.72,1.92c-.81,1.93-1.57,4.88,0,6.65,1.23,3.41,8.92-3.06,3.91,1.2-1.29.44-2.69.81-3.91,0-1.79-1.42-1.73-3.85-1.44-6,.79-1.71,1-4.13,3.28-4.63"/><path class="f" d="M99.67,81.55a5.15,5.15,0,0,1,3.28.7c.37,1.57-.83-.15-1.4.15a3.14,3.14,0,0,0-3.72,1.92c-.81,1.93-1.57,4.88,0,6.65,1.23,3.41,8.92-3.06,3.91,1.2-1.29.44-2.69.81-3.91,0-1.79-1.42-1.73-3.85-1.44-6C97.17,84.48,97.39,82.06,99.67,81.55Z"/><path class="e" d="M109.94,82h0v5.14c1.62-1.73,3.41-3.63,5.62-4.29-.28,1.2-1.9,1.49-2.78,2.56A22,22,0,0,0,110.58,88c2.05,1.77,5.58,1.44,7.94,2.73.11.83-.94.39-1.22.33-2.49-.7-5.07-1-7.35-2.05-.59.85-.37,2.27-.87,2.93-.85-1.07.13-3.15-.2-4.79.26-1.73,0-3.85.85-5.14Z"/><path class="f" d="M109.94,82h0v5.14c1.62-1.73,3.41-3.63,5.62-4.29-.28,1.2-1.9,1.49-2.78,2.56A22,22,0,0,0,110.58,88c2.05,1.77,5.58,1.44,7.94,2.73.11.83-.94.39-1.22.33-2.49-.7-5.07-1-7.35-2.05-.59.85-.37,2.27-.87,2.93-.85-1.07.13-3.15-.2-4.79.26-1.73,0-3.85.85-5.14Z"/><path class="e" d="M124.09,81.18c1.95,1,4.53.37,6.73.59.07,0,.07.07.15.13-2.36,1.42-8-1.2-7.52,3.59-.35,1.62.31,1.9,1.71,1.55,1.22-.35,2.8,0,4.09-.35.28-.44.85-1.09,1.07-.13-.79,1.77-3.5.83-5,1.2-.63.26-1.51,0-1.86.85.15,1.22.79,2.8,2.21,3.06a7,7,0,0,0,3.43-1.07c.28.72-.85,1.14-1.36,1.44a5.81,5.81,0,0,1-3.65-.22c-2.05-2.14-1.62-5.71-1-8.37-1.16-1.14.7-1.42,1-2.27"/><path class="f" d="M124.09,81.18c1.95,1,4.53.37,6.73.59.07,0,.07.07.15.13-2.36,1.42-8-1.2-7.52,3.59-.35,1.62.31,1.9,1.71,1.55,1.22-.35,2.8,0,4.09-.35.28-.44.85-1.09,1.07-.13-.79,1.77-3.5.83-5,1.2-.63.26-1.51,0-1.86.85.15,1.22.79,2.8,2.21,3.06a7,7,0,0,0,3.43-1.07c.28.72-.85,1.14-1.36,1.44a5.81,5.81,0,0,1-3.65-.22c-2.05-2.14-1.62-5.71-1-8.37C121.94,82.32,123.8,82,124.09,81.18Z"/></g><polygon class="c" points="76.11 99.82 78.29 99.82 78.29 99.84 76.53 101.11 77.22 103.14 77.2 103.16 75.47 101.9 73.73 103.16 73.72 103.14 74.41 101.11 72.64 99.84 72.64 99.82 74.81 99.82 75.46 97.82 75.47 97.82 76.11 99.82"/><polygon class="c" points="83.57 99.82 85.75 99.82 85.75 99.84 84 101.11 84.68 103.14 84.66 103.16 82.93 101.9 81.19 103.16 81.18 103.14 81.87 101.11 80.1 99.84 80.1 99.82 82.27 99.82 82.92 97.82 82.94 97.82 83.57 99.82"/><polygon class="c" points="91.03 99.82 93.22 99.82 93.22 99.84 91.46 101.11 92.14 103.14 92.12 103.16 90.39 101.9 88.66 103.16 88.64 103.14 89.33 101.11 87.56 99.84 87.56 99.82 89.73 99.82 90.38 97.82 90.4 97.82 91.03 99.82"/><polygon class="c" points="98.5 99.82 100.68 99.82 100.68 99.84 98.92 101.11 99.6 103.14 99.59 103.16 97.85 101.9 96.12 103.16 96.11 103.14 96.79 101.11 95.02 99.84 95.02 99.82 97.19 99.82 97.84 97.82 97.86 97.82 98.5 99.82"/><g class="d"><path class="c" d="M104.15,103.08c-1.15,0-1.36-.67-1.31-1.44h.93c0,.42,0,.78.53.78a.44.44,0,0,0,.46-.5c0-.8-1.86-.85-1.86-2.16,0-.69.33-1.24,1.46-1.24.9,0,1.35.4,1.29,1.33h-.9c0-.33-.05-.67-.43-.67a.43.43,0,0,0-.48.47c0,.84,1.86.77,1.86,2.16,0,1.15-.84,1.28-1.54,1.28"/><path class="e" d="M65.54,101.44c0,1.23.45,1.71,1.39,1.71s1.39-.48,1.39-1.71V98.63h-.56v2.84c0,1-.29,1.21-.83,1.21s-.83-.25-.83-1.21V98.63h-.56Zm-2.46.07H61.66l.69-2.37h0Zm-2.46,1.55h.57l.33-1.06h1.71l.32,1.06h.63l-1.44-4.43H62Zm-1.08-4.43H56.88v.49H59l-2.15,3.29v.64h2.77v-.49H57.33l2.2-3.38Zm-4.68,0v3.79h0l-1.73-3.79h-.8v4.43h.5V99.21h0l1.75,3.84h.77V98.63Zm-4.1,4.43v-.49H49V101h1.6v-.49H49V99.12h1.72v-.49H48.42v4.43Zm-5.3-2a.58.58,0,0,1,.67.56,5.13,5.13,0,0,0,.17,1.47h.59a6.7,6.7,0,0,1-.15-1.16c0-.89-.21-1.06-.72-1.14h0a1,1,0,0,0,.81-1,1,1,0,0,0-1.06-1.11H44.21v4.43h.56v-2Zm-.66-1.9h.85a.6.6,0,0,1,.6.68c0,.39-.2.74-.6.74h-.85Zm-2.38.7c0-.93-.42-1.28-1.37-1.28A1.29,1.29,0,0,0,39.63,100v1.46c0,1.23.45,1.71,1.39,1.71a2.73,2.73,0,0,0,1.36-.33v-2.15H41v.49h.82v1.33a1.4,1.4,0,0,1-.79.2c-.54,0-.82-.25-.82-1.21V100c0-.93.64-1,.82-1,.57,0,.79.28.79.8Z"/></g></svg>